<?xml version="1.0" encoding="utf-8"?>
<!-- Generator: Adobe Illustrator 15.0.0, SVG Export Plug-In . SVG Version: 6.00 Build 0)  -->
<!DOCTYPE svg PUBLIC "-//W3C//DTD SVG 1.1//EN" "http://www.w3.org/Graphics/SVG/1.1/DTD/svg11.dtd">
<svg version="1.1" id="Layer_1" xmlns="http://www.w3.org/2000/svg" xmlns:xlink="http://www.w3.org/1999/xlink" x="0px" y="0px"
	 width="595.28px" height="841.89px" viewBox="0 0 595.28 841.89" enable-background="new 0 0 595.28 841.89" xml:space="preserve">
<g>
	<path fill-rule="evenodd" clip-rule="evenodd" d="M432.39,396.17c0,4.84,3.91,8.76,8.74,8.76s8.74-3.92,8.74-8.76
		s-3.91-8.76-8.74-8.76S432.39,391.33,432.39,396.17z M443.84,420.08c0,0,0.32-1.67-1.26-1.67l-13.1,0.01
		c-2.17,0-2.48,1.64-2.48,1.64c-1.37,4.63-14.7,47.64-17.13,55.75c-3.65,12.16,2.75,14.97,8.2,14.97c14.13,0,24.34-12.21,30.7-22.93
		c1.8,22.08,25.52,32.13,40.86,11.28c1.6,9.66,8.65,11.76,15.83,11.76c10.04,0,18.66-4.81,25.42-10.94
		c9.34-8.48,15.14-19.47,16.24-23.78c1.89-7.44-1.58-5.99-1.58-5.99s-7.14,15.12-17.81,24.18c-4.58,3.89-9.8,6.66-15.38,6.66
		c-5.96,0-4.87-6.83-4.87-6.83s11.61-39.42,16.4-54.62c0,0,0.32-1.77-1.27-1.77h-14.46c-0.91,0-1.27,0.95-1.27,0.95l-1.15,3.73
		c-3.73-3.77-8.95-5.28-14-5.28c-28.12,0-38.14,24.68-41.49,37.36c-4.47,9.12-11.45,20.39-20.82,26.2
		c-1.47,0.92-3.64-0.12-2.75-3.15C431.64,461.07,443.84,420.08,443.84,420.08z M491.18,422.62c7.98-0.66,13.13,4.75,13.13,4.75
		l-13.3,42.59c-10.02,17.32-26.04,12.91-25.7,2.65c0.27-7.83,6.32-24.51,10.74-36.66l1.13-3.11
		C477.89,430.91,480.17,423.55,491.18,422.62z M367.86,469.61c2.64-10.82,9.29-28.47,15.54-49.41c0,0-0.14-1.86-1.44-1.86H367.5
		c-1.81,0-2.19,1.28-2.19,1.28c-2.69,7.05-4.55,13.07-6.07,19.09c-1.36,3.52-2.22,6.6-2.22,6.6s-12.41,36.05-28.13,36.05
		c-3.06,0-2.34-4.6-2.34-4.6l23.38-76.79h61.05c6.41,0,6.72-6.61,6.72-6.61h-65.86l9.33-32.86c0,0,0.06-1.68-1.28-1.68l-13.56-0.15
		c-1.59,0-2.13,1.73-2.13,1.73l-9.57,32.93l-39.95,0.03c0,0-3.7,6.61,2.73,6.61c6.43,0,35.3-0.05,35.3-0.05s-14.92,50.37-20.72,69.6
		c-5.8,6.2-12.01,11.5-18.18,11.5c-5.96,0-4.87-6.83-4.87-6.83s11.61-39.42,16.4-54.62c0,0,0.31-1.77-1.27-1.77h-14.46
		c-0.91,0-1.28,0.95-1.28,0.95l-1.15,3.73c-3.72-3.77-8.94-5.28-13.99-5.28c-21.01,0-31.92,13.77-37.48,26.03
		c-10.49,18.68-22.85,38.7-47.57,38.7c-8.47,0-16.14-2.6-21.14-5.26c14-8.67,35.51-30.01,55-73.17c6.99-0.93,12.61,0.84,19.36-1.19
		c2.3,0.07,3.64,0.19,3.64,0.19s20.08,0.31,27.5-21.25c5.25-15.25-9.25-24.25-19-24.25c-32.5,0-46,28.18-51.5,39
		c-10,19.67-27,61.67-45.75,73c-35.21-23.24-45.55-34.37-68.25-36.33c-27-2.34-40.33,11.66-41,27.33c-0.87,20.45,24,32,52.67,33.67
		c17.3,1,33,0.66,56.66-10.67c16.34,7,23.96,7.56,31.34,7.56c19.18,0,33.21-10.71,42.5-23.61c1.22,22.7,25.37,33.31,40.91,12.18
		c1.61,9.66,8.65,11.76,15.83,11.76c9.88,0,17.79-4.04,24.08-9.49c2.54,6.76,5.21,9.28,16.2,9.36
		c12.59,0.08,22.48-12.65,28.67-25.05c0.64,16.39,4.01,24.98,16.13,24.98c16.02,0,34-32.25,48.64-69.96
		c1.02-2.41-1.92-2.35-1.92-2.35l-6.28,0.08c-16.65,44.56-31.16,63.29-39.3,63.29C366.75,481.75,366.39,475.92,367.86,469.61z
		 M272.64,422.62c7.98-0.66,13.13,4.75,13.13,4.75l-13.3,42.59c-10.02,17.32-26.04,12.91-25.7,2.65
		c0.26-7.83,6.32-24.51,10.73-36.66l1.14-3.11C259.35,430.91,261.62,423.55,272.64,422.62z M145.5,476.25
		c-14.25,6.5-31.48,8.15-42.75,7.5c-17.25-1-36.31-9.44-35-20c0.92-7.42,7.92-11.75,16.58-11.75
		C109.67,452,114.75,459.25,145.5,476.25z M223.67,397c0,0,11.83-31,31.66-31c15.34,0,9.34,13.33,9.34,13.33S262,397,223.67,397z"/>
	<g>
		<polygon fill-rule="evenodd" clip-rule="evenodd" fill="#861623" points="92.3,386.68 86.46,386.68 89.65,376.39 84.63,381.7 
			80.89,381.7 79.17,376.39 75.97,386.68 70.13,386.68 76.8,365.18 82.55,365.18 84.94,374.67 93.23,365.18 98.97,365.18 		"/>
		<path fill-rule="evenodd" clip-rule="evenodd" fill="#861623" d="M109.2,379.07l-0.23-5.73l-3.92,5.73H109.2z M115.58,386.68h-6.1
			l-0.12-3.2h-7.32l-2.15,3.2h-6.12l15.32-21.5h4.51L115.58,386.68z"/>
		<path fill-rule="evenodd" clip-rule="evenodd" fill="#861623" d="M132.74,375.93c0.55-1.77,0.87-2.93,0.96-3.5
			c0.09-0.56,0.07-1.01-0.08-1.33c-0.35-0.8-1.17-1.21-2.44-1.21h-2.58l-3.75,12.08h2.58c1.28,0,2.34-0.4,3.19-1.21
			c0.26-0.25,0.47-0.5,0.62-0.75c0.14-0.25,0.34-0.68,0.57-1.29C132.04,378.11,132.35,377.18,132.74,375.93z M138.58,375.93
			l-0.54,1.76c-0.33,1.04-0.65,1.93-0.98,2.66s-0.79,1.45-1.37,2.17c-0.58,0.71-1.34,1.4-2.27,2.06c-1.99,1.4-4.34,2.1-7.06,2.1
			h-8.81l6.67-21.5h8.81c2.72,0,4.64,0.7,5.75,2.11c0.53,0.66,0.86,1.35,1,2.06c0.13,0.71,0.14,1.43,0.02,2.17
			c-0.13,0.73-0.35,1.62-0.67,2.66L138.58,375.93z"/>
		<polygon fill-rule="evenodd" clip-rule="evenodd" fill="#861623" points="155.09,386.68 138.92,386.68 145.59,365.18 
			161.76,365.18 160.3,369.89 149.97,369.89 148.86,373.49 157.68,373.49 156.22,378.2 147.39,378.2 146.22,381.97 156.55,381.97 		
			"/>
		<polygon fill-rule="evenodd" clip-rule="evenodd" fill="#861623" points="170.81,386.68 164.96,386.68 171.64,365.18 
			177.48,365.18 		"/>
		<polygon fill-rule="evenodd" clip-rule="evenodd" fill="#861623" points="193.55,386.68 188.44,386.68 184.18,375.88 
			180.83,386.68 174.98,386.68 181.65,365.18 186.77,365.18 191.02,375.99 194.38,365.18 200.22,365.18 		"/>
	</g>
	<path fill-rule="evenodd" clip-rule="evenodd" fill="#861623" d="M67.47,396.32l-5.94,20.81h130.1c41.04,0,77.04-11.13,81.37-38.46
		c-6.33,18.66-48.35,17.5-71.5,17.5C193.5,396.17,67.47,396.32,67.47,396.32z"/>
</g>
<g>
	<path fill-rule="evenodd" clip-rule="evenodd" d="M376.11,739.99c0,0,0.17-0.92-0.67-0.92l-6.96,0.01c-1.16,0-1.32,0.89-1.32,0.89
		c-0.73,2.52-7.82,25.88-9.11,30.29c-1.94,6.61,1.46,8.14,4.36,8.14c7.51,0,12.94-6.64,16.32-12.46
		c0.95,11.99,13.56,17.46,21.72,6.13c0.85,5.24,5.66,6.93,9.48,6.93c3.3,0,5.99-0.34,9.5-3.93c4.25-4.34,1.95-7.96,1.95-7.96
		c-4.08,7.78-7.67,6.73-8.61,5.93c-0.61-1.07-1.09-1.59-0.43-4.3l8.97-30.02h-4.78l-9.51,30.56c0,0-1.24,5.43,3.51,6.91
		c-6.8-1.28-4.57-8-4.57-8s7.31-24.82,8.44-28.48c0,0,0.17-0.96-0.67-0.96h-3.44c-0.48,0-0.67,0.51-0.67,0.51l-0.62,2.03
		c-1.97-2.05-4.75-2.87-7.44-2.87c-14.94,0-20.27,13.4-22.05,20.3c-2.38,4.95-6.09,11.08-11.07,14.23c-0.78,0.5-1.93-0.07-1.46-1.71
		C369.62,762.25,376.11,739.99,376.11,739.99z M401.27,741.37c4.24-0.37,6.98,2.57,6.98,2.57l-7.07,23.14
		c-5.32,9.41-13.84,7.02-13.66,1.44c0.14-4.25,3.36-13.32,5.71-19.92l0.6-1.69C394.21,745.87,395.42,741.87,401.27,741.37z
		 M188.96,756.68c-1.55,1.56-3.07,3.75-3.07,6.31c0,3.9,0.98,6.08,4.89,8.49c-5.55-2.09-7.69-5.52-7.02-9.08
		C184.23,759.91,185.93,757.58,188.96,756.68z M201.53,773.55c-5.1-1.16-10.12-3.48-10.86-8.07c-1.01-6.33,4.06-7.62,7.9-7.71
		c0.59,0.24,1.21,0.51,1.85,0.82c3.07,1.49,4.4,2.05,5.69,2.7c2.26,1.13,4.4,2.52,15.57,9.62
		C217.87,772.29,212.74,774.52,201.53,773.55z M329.95,714.95c0,0,0.03-0.92-0.68-0.92l-7.04,0.04c-0.85,0-1.13,0.94-1.13,0.94
		l-3.46,11.89h-21.71l-1.07,4.35h21.52l-10.36,35.6c-3.08,3.37-6.38,6.24-9.67,6.24c-3.16,0-2.58-3.71-2.58-3.71
		s6.17-21.41,8.71-29.67c0,0,0.17-0.96-0.67-0.96h-7.69c-0.48,0-0.67,0.51-0.67,0.51l-0.62,2.03c-1.98-2.05-4.75-2.87-7.44-2.87
		c-11.16,0-16.96,7.48-19.92,14.14c-4.89,8.3-9.41,21.03-22.52,21.03c-4.79,0-8.42-1.32-10.42-2.32
		c5.01-3.83,11.74-7.58,20.93-32.53c10.49-2.15,16.81-7.23,19.99-11.99c-3.6,2.52-9.45,5.52-17.39,6.13
		c-3.98,0.3-10.21,0.48-12.16,0.53l-0.6,0.01h-43.39l7.05,5.43h34.92c-8.82,23.22-12.5,25.97-14.73,28.12
		c-17.09-13-24.25-19.86-37.16-19.86c-10.48,0-16.99,6.55-16.99,15.25c0,9.23,10.9,16.08,27.77,16.34
		c12.05,0.18,21.36-1.96,26.18-3.99c4.83,2.32,8.99,3.57,14.22,3.57c9.04,0,16.22-3.84,21.36-11.74
		c0.64,12.33,15.06,15.78,21.75,5.53c0.85,5.24,4.59,6.39,8.41,6.39c5.25,0,9.45-2.2,12.8-5.16c1.35,3.67,2.77,5.04,8.61,5.08
		c6.69,0.05,11.95-6.87,15.24-13.61c0.34,8.91,2.13,13.58,8.57,13.58c8.52,0,18.08-17.53,25.86-38.01c0.54-1.31-1.02-1.28-1.02-1.28
		l-3.34,0.04c-0.57,1.56-1.13,3.05-1.69,4.5c-2.07,5.34-4.07,9.9-5.97,13.73c-5.54,11.21-10.21,16.16-13.23,16.16
		c-3.39,0-3.58-3.17-2.8-6.6c1.4-5.88,4.94-15.47,8.26-26.84c0,0-0.07-1.01-0.77-1.01h-7.68c-0.97,0-1.16,0.7-1.16,0.7
		c-1.44,3.82-2.42,7.09-3.23,10.37c-0.73,1.91-1.19,3.58-1.19,3.58s-6.59,19.59-14.94,19.59c-1.63,0-1.25-2.5-1.25-2.5l11.45-39.53
		h36.1l1.06-4.35h-35.9L329.95,714.95z M243.9,733.41v0.01h-0.6L243.9,733.41z M285.1,741.37c4.24-0.37,6.98,2.57,6.98,2.57
		l-7.07,23.14c-5.32,9.41-13.84,7.02-13.66,1.44c0.14-4.25,3.36-13.32,5.71-19.92l0.6-1.69
		C278.04,745.87,279.25,741.87,285.1,741.37z M276.41,720.69c0.31-0.72,0.55-1.49,0.73-2.3c1.3-5.83-1.95-16.39-10.18-16.39
		c-11.1,0-16.91,13.3-21.05,24.36h-55.18l7.06,5.43h45.51c0,0,0.42,0.02,1.18,0.03c1.93,0.02,6.07,0,11.4-0.39
		C260.66,731.08,273.16,729.07,276.41,720.69z M243.3,731.79h1.19l-0.01,0.03C243.72,731.81,243.3,731.79,243.3,731.79z
		 M270.31,721.87c-3.08,2.82-8.8,3.87-12.92,4.31c1.71-5.19,3.49-10.87,5.3-14.65C265.91,711.2,271.24,717.62,270.31,721.87z
		 M265.95,707.58c0.47-1.87,7.38,0.85,7.25,9.13C272.63,713.52,268.55,707.48,265.95,707.58z M369.28,729.07
		c0,2.7,2.15,4.89,4.79,4.89c2.64,0,4.78-2.19,4.78-4.89c0-2.7-2.14-4.89-4.78-4.89C371.43,724.18,369.28,726.37,369.28,729.07z"/>
</g>
<g>
	<g>
		<path fill-rule="evenodd" clip-rule="evenodd" d="M227.64,88.23c2.04-3.62,5.26-7.91,9.06-7.91c3.36,0,0.88,5.74,0.88,5.74
			l-5.7,20.32h7.45l6.57-23.85c0,0,2.85-7.95-5.7-7.95c-3.18,0-7.24,3.19-10.32,6.14l1.32-4.43c0,0,0.28-0.83-0.34-0.83h-6.57
			c-0.81,0-0.97,0.83-0.97,0.83l-4.16,14.68c-1.96,3.98-4.98,8.81-9,11.33c-0.65,0.4-1.59-0.06-1.21-1.39
			c2.18-7.31,7.53-25.41,7.53-25.41s0.14-0.74-0.55-0.74h-5.74c-0.95,0-1.09,0.73-1.09,0.73c-0.6,2.04-6.44,21.04-7.51,24.62
			c-1.59,5.37,1.21,6.61,3.6,6.61c4.94,0,8.79-3.44,11.56-7.23l-1.95,6.89h7.44L227.64,88.23z M55.54,76.29l-8.53,30.09h7.45
			l4.83-16.24c1.87-3.79,5.55-9.82,10.06-9.82c3.36,0,0.88,5.74,0.88,5.74l-5.7,20.32h7.45l5.72-20.76c1.96-2.8,4.52-5.3,7.42-5.3
			c3.36,0,0.88,5.74,0.88,5.74l-4.35,15.52c0,0-0.91,5.19,6.94,5.19c4.32,0,7.79-1.78,10.55-4.19c0.28-0.14,0.54-0.36,0.78-0.64
			c3.19,6.24,12.19,7.02,16.78,0.08c0.7,4.27,3.79,5.2,6.94,5.2c4.32,0,7.79-1.79,10.54-4.2c0.27-0.08,0.5-0.22,0.72-0.42
			c3.48,5.62,11.99,6.1,16.41-0.58c0.7,4.27,3.79,5.2,6.93,5.2c4.33,0,7.79-1.79,10.55-4.2c0.35-0.33,0.66-0.81,0.92-1.38
			c2.68,3.76,7.47,5.18,10.91,5.18c7.78,0,11.83-5.3,11.83-5.3s0.78-1.71-0.04-2.95c-0.83-1.25-1.71-0.14-1.71-0.14
			s-3.65,4.86-10.08,4.86c-5.34,0-7-4.86-5.3-10.6h3.11c11.94,0,15.82-3.03,17.09-7.84c1.42-5.41-0.73-10.27-7.45-10.27
			c-6.72,0-16.21,1.99-19.71,15.46c-0.93,3.55-0.83,6.43-0.08,8.73c-2.26,2.29-4.64,4.08-7.02,4.08c-2.61,0-2.13-3.01-2.13-3.01
			s10.2-33.42,12.29-40.13c0,0,0.14-0.78-0.55-0.78h-6.33c-0.4,0-0.56,0.42-0.56,0.42L158.36,77c-1.63-1.67-3.92-2.33-6.13-2.33
			c-7.72,0-12.33,4.27-15.05,8.85c-3.43,5.78-3.72,14.92-3.65,15.36l0.01,0.03c-2.22,2.22-4.56,3.94-6.88,3.94
			c-2.62,0-2.14-3.01-2.14-3.01s5.09-17.41,7.19-24.13c0,0,0.13-0.78-0.56-0.78h-6.33c-0.4,0-0.56,0.42-0.56,0.42L123.75,77
			c-1.63-1.67-3.92-2.33-6.13-2.33c-7.72,0-12.33,4.27-15.05,8.85c-2.87,4.83-3.54,12.01-3.64,14.5c-2.35,2.43-4.84,4.39-7.32,4.39
			c-2.61,0-2-2.82-2-2.82l4.71-17.06c0,0,2.85-7.95-5.69-7.95c-2.95,0-6.65,2.74-9.63,5.48c0.1-2.33-0.77-5.48-6.15-5.48
			c-3.39,0-7.8,3.64-10.94,6.74l1.5-5.03c0,0,0.28-0.83-0.34-0.83H56.5C55.69,75.46,55.54,76.29,55.54,76.29z M117.38,77.06
			c3.5-0.29,5.75,2.1,5.75,2.1l-5.82,18.81c-4.39,7.65-11.41,5.7-11.26,1.17c0.11-3.46,2.77-10.83,4.7-16.19l0.5-1.38
			C111.56,80.72,112.56,77.47,117.38,77.06z M151.99,77.06c3.5-0.29,5.75,2.1,5.75,2.1l-5.82,18.81c-4.39,7.65-11.41,5.7-11.26,1.17
			c0.11-3.46,2.77-10.83,4.7-16.19l0.5-1.38C146.17,80.72,147.16,77.47,151.99,77.06z M176.24,89.6c0.99-4.53,3.08-10.17,7.89-11.38
			c3.5-0.88,6.97-0.25,4.49,6.74C185.99,92.36,176.24,89.6,176.24,89.6z M211.46,64.94c0,2.13,1.72,3.87,3.83,3.87
			c2.12,0,3.83-1.74,3.83-3.87c0-2.14-1.71-3.87-3.83-3.87C213.18,61.07,211.46,62.8,211.46,64.94z"/>
	</g>
	<path fill-rule="evenodd" clip-rule="evenodd" d="M467.53,72.39c0,4.03,3.24,7.29,7.23,7.29c4,0,7.23-3.26,7.23-7.29
		c0-4.03-3.23-7.29-7.23-7.29C470.77,65.1,467.53,68.36,467.53,72.39z M477,92.3c0,0,0.27-1.4-1.04-1.4l-10.83,0.02
		c-1.8,0-2.06,1.36-2.06,1.36c-1.13,3.86-12.16,39.66-14.17,46.41c-3.01,10.13,2.28,12.47,6.79,12.47
		c11.68,0,20.13-10.17,25.39-19.1c1.49,18.39,21.11,26.76,33.8,9.4c1.33,8.04,7.15,9.79,13.09,9.79c8.31,0,15.44-4.01,21.03-9.11
		c7.73-7.06,6.22-12.2-2.61-4.65c-3.78,3.23-8.1,5.54-12.72,5.54c-4.93,0-4.02-5.68-4.02-5.68s9.6-32.82,13.56-45.48
		c0,0,0.26-1.47-1.05-1.47H530.2c-0.75,0-1.06,0.79-1.06,0.79l-0.95,3.11c-3.08-3.15-7.4-4.4-11.58-4.4
		c-23.26,0-31.54,20.54-34.31,31.1c-3.7,7.6-9.48,16.98-17.22,21.82c-1.22,0.76-3.01-0.11-2.28-2.62
		C466.91,126.42,477,92.3,477,92.3z M516.16,94.41c6.6-0.55,10.86,3.96,10.86,3.96l-11,35.45c-8.28,14.42-21.54,10.75-21.25,2.21
		c0.21-6.52,5.22-20.41,8.87-30.52l0.94-2.59C505.17,101.31,507.05,95.18,516.16,94.41z M111.53,135.52
		c5.14-14.67,93.47,4.16,93.47,4.16s29.12-0.22,15.71-4.16c-39.7-11.65-174.53-27.47-179.49-4.99C35.43,153.84,147.1,158,147.1,158
		s59.95,0.17,89.78-8.6c11.15,1.71,28.6,5.81,40.37,0.42c9.35-2.26,17.06-7.82,23.01-16.84c1.01,18.9,23.44,24.19,33.85,8.48
		c1.32,8.04,7.15,9.79,13.09,9.79c8.17,0,14.71-3.37,19.92-7.91c2.09,5.63,4.3,7.74,13.39,7.8c10.42,0.07,18.6-10.53,23.72-20.86
		c0.53,13.65,3.31,20.8,13.34,20.8c13.25,0,28.12-26.85,40.24-58.24c0.84-2.01-1.59-1.96-1.59-1.96l-5.2,0.06
		c-13.77,37.1-25.77,52.7-32.5,52.7c-5.28,0-5.58-4.85-4.37-10.11c2.19-9.01,7.69-23.7,12.86-41.14c0,0-0.12-1.54-1.19-1.54h-11.96
		c-1.5,0-1.81,1.07-1.81,1.07c-2.23,5.86-3.77,10.87-5.03,15.89c-1.12,2.92-1.84,5.49-1.84,5.49s-10.25,30.01-23.26,30.01
		c-2.53,0-1.94-3.82-1.94-3.82l18.53-61.41h41.4c9.2,0,10.45-6.47,10.45-6.47H400.4l6.84-24.75c0,0,0.05-1.4-1.05-1.4l-10.96,0.05
		c-1.32,0-1.76,1.44-1.76,1.44l-7.31,24.63l-39.66,0.03c-8.88,0-10.71,6.36-10.71,6.36l48.48,0.06c0,0-11.53,39.42-16.33,55.43
		c-4.79,5.16-9.93,9.57-15.04,9.57c-4.93,0-4.03-5.68-4.03-5.68s9.61-32.82,13.57-45.48c0,0,0.26-1.47-1.05-1.47h-11.96
		c-0.75,0-1.06,0.79-1.06,0.79l-0.95,3.11c-3.08-3.15-7.4-4.4-11.58-4.4c-17.38,0-26.39,11.46-31,21.67
		c-14.02,30.4-33.67,32.27-33.67,32.27c-9.98,2.02-15.73,0.73-21.17-0.79c0.3-0.27,22.62-12.52,40.75-61.64
		c2.34-0.14,27.84-4.72,32.26-22.2c2.24-8.89-2.62-17.21-15.44-17.21c-18.2,0-28.5,13.33-33.37,32.19
		c-11.3,43.85-19.02,53.41-29.5,60.71C219.89,152.17,106.56,149.67,111.53,135.52z M335.39,94.41c6.6-0.55,10.86,3.96,10.86,3.96
		l-11,35.45c-8.29,14.42-21.54,10.75-21.26,2.21c0.22-6.52,5.23-20.41,8.88-30.52l0.94-2.59C324.4,101.31,326.28,95.18,335.39,94.41
		z M316.39,57.12c-1.38,10.13-14.61,15.68-22.33,16.24c4.41-14.85,7.61-24.01,13.09-24.01C311.43,49.35,316.91,53.32,316.39,57.12z"
		/>
</g>
<g>
	<path fill-rule="evenodd" clip-rule="evenodd" d="M320.7,253.69c0,0.56,0.44,1.01,0.99,1.01c0.54,0,0.98-0.45,0.98-1.01
		c0-0.55-0.44-1-0.98-1C321.14,252.69,320.7,253.14,320.7,253.69z M321.99,256.44c0,0,0.04-0.19-0.14-0.19h-1.48
		c-0.24,0-0.28,0.19-0.28,0.19c-0.15,0.53-1.66,5.47-1.93,6.4c-0.41,1.39,0.31,1.72,0.93,1.72c1.59,0,2.74-1.41,3.46-2.64
		c0.2,2.54,2.88,3.69,4.61,1.3c0.18,1.11,0.98,1.35,1.79,1.35c1.13,0,2.1-0.55,2.87-1.26c1.05-0.97,0.85-1.68-0.36-0.64
		c-0.51,0.45-1.1,0.77-1.73,0.77c-0.68,0-0.55-0.79-0.55-0.79s1.31-4.53,1.85-6.27c0,0,0.03-0.2-0.15-0.2h-1.63
		c-0.1,0-0.14,0.1-0.14,0.1l-0.13,0.43c-0.42-0.43-1.01-0.6-1.58-0.6c-3.18,0-4.31,2.83-4.68,4.29c-0.51,1.04-1.3,2.34-2.35,3.01
		c-0.17,0.1-0.41-0.02-0.31-0.37L321.99,256.44z M327.34,256.73c0.9-0.08,1.48,0.54,1.48,0.54l-1.5,4.89
		c-1.13,1.99-2.94,1.49-2.9,0.31c0.03-0.9,0.71-2.82,1.21-4.21l0.13-0.36C325.84,257.68,326.09,256.84,327.34,256.73z M272.12,262.4
		c0.71-2.02,12.76,0.57,12.76,0.57s3.97-0.03,2.14-0.57c-5.42-1.61-23.81-3.79-24.49-0.69c-0.79,3.22,14.45,3.79,14.45,3.79
		s8.18,0.02,12.25-1.19c1.52,0.24,3.9,0.81,5.51,0.06c1.27-0.31,2.32-1.08,3.14-2.32c0.13,2.61,3.19,3.34,4.61,1.17
		c0.19,1.11,0.98,1.35,1.79,1.35c1.12,0,2.01-0.47,2.72-1.09c0.29,0.77,0.59,1.06,1.83,1.07c1.42,0.01,2.53-1.45,3.23-2.87
		c0.08,1.88,0.46,2.87,1.82,2.87c1.81,0,3.84-3.71,5.49-8.04c0.12-0.27-0.21-0.27-0.21-0.27l-0.71,0.01
		c-1.88,5.12-3.52,7.27-4.44,7.27c-0.72,0-0.76-0.67-0.59-1.4c0.3-1.24,1.05-3.26,1.75-5.67c0,0-0.01-0.21-0.16-0.21h-1.63
		c-0.21,0-0.25,0.15-0.25,0.15c-0.3,0.8-0.51,1.5-0.69,2.19c-0.15,0.4-0.25,0.76-0.25,0.76s-1.4,4.13-3.17,4.13
		c-0.35,0-0.27-0.52-0.27-0.52l2.53-8.47h5.65c1.26,0,1.43-0.9,1.43-0.9h-6.82l0.93-3.41c0,0,0.01-0.19-0.14-0.19h-1.49
		c-0.18,0-0.24,0.2-0.24,0.2l-1,3.4h-5.41c-1.22,0-1.46,0.88-1.46,0.88l6.61,0.01c0,0-1.57,5.44-2.23,7.65
		c-0.65,0.71-1.35,1.32-2.05,1.32c-0.67,0-0.55-0.79-0.55-0.79s1.31-4.53,1.85-6.27c0,0,0.04-0.2-0.14-0.2h-1.63
		c-0.11,0-0.15,0.1-0.15,0.1l-0.13,0.43c-0.42-0.43-1.01-0.6-1.58-0.6c-2.37,0-3.6,1.58-4.23,2.99c-1.91,4.19-4.59,4.45-4.59,4.45
		c-1.37,0.28-2.15,0.1-2.89-0.11c0.04-0.04,3.08-1.73,5.56-8.5c0.32-0.02,3.8-0.66,4.4-3.07c0.31-1.22-0.36-2.37-2.11-2.37
		c-2.48,0-3.76,1.87-4.55,4.44c-2.01,6.54-3.06,7.82-4.37,8.72C286.53,265.01,271.45,264.35,272.12,262.4z M302.67,256.73
		c0.9-0.08,1.48,0.54,1.48,0.54l-1.5,4.89c-1.13,1.99-2.94,1.49-2.9,0.31c0.03-0.9,0.71-2.82,1.21-4.21l0.13-0.36
		C301.17,257.68,301.43,256.84,302.67,256.73z M300.08,251.59c-0.19,1.39-2.11,2.16-3.17,2.24c0.61-2.05,1.13-3.12,1.93-3.26
		C299.42,250.47,300.24,250.55,300.08,251.59z"/>
	<path fill-rule="evenodd" clip-rule="evenodd" d="M287.97,255.88c0.28-0.5,0.71-1.09,1.23-1.09c0.46,0,0.12,0.79,0.12,0.79
		l-0.77,2.8h1.01l0.9-3.29c0,0,0.39-1.1-0.78-1.1c-0.43,0-0.99,0.44-1.41,0.85l0.18-0.61c0,0,0.04-0.11-0.04-0.11h-0.9
		c-0.11,0-0.13,0.11-0.13,0.11l-0.57,2.02c-0.27,0.55-0.68,1.22-1.23,1.57c-0.09,0.05-0.22-0.01-0.16-0.19l1.02-3.51
		c0,0,0.02-0.1-0.07-0.1h-0.78c-0.13,0-0.15,0.1-0.15,0.1l-1.03,3.4c-0.21,0.74,0.17,0.91,0.49,0.91c0.68,0,1.2-0.48,1.58-1
		l-0.27,0.95h1.02L287.97,255.88z M264.48,254.23l-1.16,4.15h1.02l0.66-2.24c0.25-0.52,0.75-1.35,1.37-1.35
		c0.46,0,0.12,0.79,0.12,0.79l-0.78,2.8h1.02l0.78-2.86c0.26-0.39,0.61-0.73,1.01-0.73c0.46,0,0.12,0.79,0.12,0.79l-0.59,2.14
		c0,0-0.13,0.71,0.94,0.71c0.59,0,1.07-0.24,1.44-0.57c0.04-0.02,0.08-0.05,0.11-0.09c0.44,0.86,1.66,0.97,2.29,0.01
		c0.1,0.59,0.52,0.72,0.95,0.72c0.59,0,1.06-0.25,1.44-0.58c0.03-0.01,0.06-0.03,0.09-0.06c0.48,0.77,1.64,0.84,2.24-0.08
		c0.1,0.59,0.52,0.72,0.95,0.72c0.59,0,1.06-0.25,1.44-0.58c0.05-0.05,0.09-0.12,0.12-0.19c0.37,0.51,1.02,0.71,1.49,0.71
		c1.06,0,1.62-0.73,1.62-0.73s0.1-0.24-0.01-0.41c-0.11-0.17-0.23-0.02-0.23-0.02s-0.5,0.67-1.38,0.67c-0.73,0-0.95-0.67-0.72-1.46
		h0.42c1.63,0,2.16-0.42,2.33-1.08c0.2-0.75-0.1-1.42-1.01-1.42c-0.92,0-2.21,0.28-2.69,2.14c-0.13,0.49-0.11,0.88-0.01,1.2
		c-0.31,0.32-0.64,0.56-0.96,0.56c-0.36,0-0.29-0.41-0.29-0.41s1.39-4.61,1.68-5.54c0,0,0.02-0.11-0.08-0.11h-0.86
		c-0.06,0-0.08,0.06-0.08,0.06l-0.77,2.44c-0.22-0.23-0.53-0.32-0.83-0.32c-1.06,0-1.68,0.59-2.06,1.22
		c-0.46,0.79-0.5,2.06-0.49,2.12c-0.31,0.31-0.62,0.54-0.94,0.54c-0.36,0-0.29-0.41-0.29-0.41s0.69-2.4,0.98-3.33
		c0,0,0.02-0.11-0.08-0.11h-0.86c-0.06,0-0.08,0.06-0.08,0.06l-0.07,0.23c-0.22-0.23-0.53-0.32-0.83-0.32
		c-1.06,0-1.69,0.59-2.06,1.22c-0.39,0.66-0.48,1.65-0.5,2c-0.32,0.33-0.66,0.6-0.99,0.6c-0.36,0-0.28-0.39-0.28-0.39l0.65-2.35
		c0,0,0.38-1.1-0.78-1.1c-0.4,0-0.91,0.38-1.31,0.76c0.01-0.32-0.11-0.76-0.84-0.76c-0.47,0-1.07,0.51-1.5,0.93l0.21-0.69
		c0,0,0.04-0.11-0.05-0.11h-0.9C264.5,254.12,264.48,254.23,264.48,254.23z M272.92,254.34c0.48-0.04,0.79,0.29,0.79,0.29l-0.8,2.59
		c-0.6,1.05-1.55,0.79-1.53,0.16c0.01-0.48,0.37-1.49,0.64-2.23l0.07-0.19C272.13,254.84,272.26,254.39,272.92,254.34z
		 M277.64,254.34c0.48-0.04,0.79,0.29,0.79,0.29l-0.8,2.59c-0.59,1.05-1.55,0.79-1.53,0.16c0.01-0.48,0.38-1.49,0.64-2.23l0.07-0.19
		C276.85,254.84,276.99,254.39,277.64,254.34z M280.95,256.06c0.14-0.62,0.42-1.4,1.08-1.56c0.48-0.13,0.95-0.04,0.61,0.93
		C282.28,256.45,280.95,256.06,280.95,256.06z M285.76,252.66c0,0.3,0.23,0.54,0.52,0.54c0.29,0,0.53-0.24,0.53-0.54
		c0-0.29-0.24-0.53-0.53-0.53C285.99,252.13,285.76,252.37,285.76,252.66z"/>
</g>
<g>
	<path fill-rule="evenodd" clip-rule="evenodd" d="M322.38,592.16c0,0.89,0.71,1.6,1.58,1.6c0.88,0,1.59-0.71,1.59-1.6
		c0-0.88-0.71-1.6-1.59-1.6C323.09,590.56,322.38,591.28,322.38,592.16z M324.46,596.53c0,0,0.05-0.31-0.23-0.31h-2.38
		c-0.4,0-0.45,0.3-0.45,0.3c-0.25,0.85-2.68,8.69-3.12,10.17c-0.66,2.22,0.5,2.73,1.49,2.73c2.57,0,4.43-2.23,5.58-4.18
		c0.33,4.03,4.64,5.86,7.43,2.06c0.29,1.76,1.57,2.14,2.88,2.14c1.82,0,3.39-0.87,4.62-1.99c1.69-1.55,2.75-3.56,2.95-4.34
		c0.34-1.36-0.29-1.09-0.29-1.09s-1.3,2.75-3.24,4.41c-0.83,0.71-1.78,1.21-2.79,1.21c-1.09,0-0.89-1.24-0.89-1.24
		s2.11-7.2,2.98-9.97c0,0,0.06-0.32-0.23-0.32h-2.63c-0.16,0-0.23,0.17-0.23,0.17l-0.21,0.68c-0.67-0.69-1.62-0.96-2.54-0.96
		c-5.11,0-6.93,4.5-7.54,6.82c-0.81,1.66-2.08,3.72-3.78,4.78c-0.27,0.16-0.67-0.03-0.5-0.58
		C322.24,604,324.46,596.53,324.46,596.53z M333.06,596.99c1.45-0.12,2.39,0.86,2.39,0.86l-2.42,7.77
		c-1.82,3.16-4.73,2.36-4.67,0.49c0.05-1.43,1.15-4.47,1.95-6.69l0.21-0.57C330.65,598.5,331.06,597.16,333.06,596.99z
		 M310.65,605.56c0.48-1.97,1.69-5.19,2.82-9.01c0,0-0.02-0.34-0.26-0.34h-2.63c-0.33,0-0.4,0.23-0.4,0.23
		c-0.48,1.29-0.82,2.39-1.1,3.48c-0.25,0.64-0.4,1.21-0.4,1.21s-2.26,6.57-5.11,6.57c-0.56,0-0.43-0.83-0.43-0.83l4.25-14.01h11.09
		c1.17,0,1.23-1.21,1.23-1.21h-11.97l1.69-5.99c0,0,0.01-0.31-0.23-0.31l-2.46-0.03c-0.29,0-0.39,0.32-0.39,0.32l-1.74,6l-7.26,0.01
		c0,0-0.67,1.21,0.49,1.21l6.42-0.01c0,0-2.71,9.19-3.77,12.69c-1.05,1.14-2.18,2.1-3.3,2.1c-1.08,0-0.89-1.24-0.89-1.24
		s2.11-7.2,2.98-9.97c0,0,0.06-0.32-0.23-0.32h-2.62c-0.17,0-0.24,0.17-0.24,0.17l-0.2,0.68c-0.68-0.69-1.63-0.96-2.55-0.96
		c-3.82,0-5.8,2.51-6.81,4.75c-1.91,3.41-4.15,7.06-8.64,7.06c-1.55,0-2.94-0.48-3.85-0.96c2.55-1.58,6.46-5.48,10-13.35
		c1.27-0.17,2.29,0.15,3.52-0.22c0.42,0.01,0.66,0.04,0.66,0.04s3.65,0.05,5-3.88c0.95-2.78-1.68-4.42-3.46-4.42
		c-5.9,0-8.36,5.14-9.36,7.11c-1.81,3.59-4.9,11.25-8.31,13.32c-6.4-4.24-8.28-6.27-12.41-6.63c-4.9-0.42-7.33,2.13-7.45,4.99
		c-0.15,3.73,4.37,5.84,9.58,6.14c3.14,0.18,5.99,0.12,10.29-1.95c2.97,1.28,4.36,1.38,5.7,1.38c3.49,0,6.03-1.95,7.72-4.3
		c0.22,4.14,4.61,6.07,7.44,2.22c0.29,1.76,1.57,2.14,2.88,2.14c1.79,0,3.23-0.73,4.37-1.73c0.46,1.23,0.95,1.7,2.95,1.71
		c2.28,0.01,4.08-2.31,5.21-4.57c0.11,2.99,0.73,4.56,2.93,4.56c2.91,0,6.18-5.89,8.84-12.77c0.18-0.44-0.35-0.43-0.35-0.43
		l-1.14,0.02c-3.03,8.13-5.66,11.55-7.14,11.55C310.45,607.78,310.38,606.71,310.65,605.56z M293.34,596.99
		c1.45-0.12,2.39,0.86,2.39,0.86l-2.42,7.77c-1.82,3.16-4.73,2.36-4.67,0.49c0.05-1.43,1.15-4.47,1.95-6.69l0.21-0.57
		C290.93,598.5,291.34,597.16,293.34,596.99z M270.24,606.77c-2.59,1.19-5.73,1.49-7.77,1.37c-3.14-0.18-6.6-1.72-6.37-3.65
		c0.17-1.35,1.44-2.14,3.02-2.14C263.72,602.35,264.65,603.67,270.24,606.77z M284.44,592.31c0,0,2.15-5.65,5.76-5.65
		c2.78,0,1.69,2.43,1.69,2.43S291.41,592.31,284.44,592.31z"/>
	<g>
		<polygon fill-rule="evenodd" clip-rule="evenodd" fill="#861623" points="260.57,590.43 259.5,590.43 260.08,588.55 
			259.17,589.52 258.49,589.52 258.18,588.55 257.6,590.43 256.54,590.43 257.75,586.51 258.79,586.51 259.23,588.24 260.73,586.51 
			261.78,586.51 		"/>
		<path fill-rule="evenodd" clip-rule="evenodd" fill="#861623" d="M263.64,589.04L263.6,588l-0.72,1.04H263.64z M264.8,590.43
			h-1.11l-0.02-0.58h-1.33l-0.39,0.58h-1.12l2.79-3.92h0.82L264.8,590.43z"/>
		<path fill-rule="evenodd" clip-rule="evenodd" fill="#861623" d="M267.92,588.47c0.1-0.32,0.15-0.53,0.17-0.64
			c0.02-0.1,0.01-0.18-0.01-0.24c-0.07-0.15-0.22-0.22-0.45-0.22h-0.47l-0.68,2.2h0.47c0.23,0,0.43-0.07,0.58-0.22
			c0.05-0.04,0.09-0.09,0.11-0.14c0.03-0.04,0.06-0.12,0.11-0.23C267.79,588.87,267.85,588.7,267.92,588.47z M268.98,588.47
			l-0.1,0.32c-0.06,0.19-0.12,0.35-0.18,0.49c-0.06,0.13-0.14,0.26-0.25,0.39c-0.1,0.13-0.24,0.26-0.41,0.38
			c-0.36,0.25-0.79,0.38-1.28,0.38h-1.61l1.22-3.92h1.6c0.49,0,0.84,0.13,1.04,0.38c0.1,0.12,0.16,0.25,0.18,0.38
			c0.03,0.13,0.03,0.26,0.01,0.39c-0.02,0.14-0.06,0.3-0.12,0.49L268.98,588.47z"/>
		<polygon fill-rule="evenodd" clip-rule="evenodd" fill="#861623" points="271.98,590.43 269.04,590.43 270.25,586.51 
			273.19,586.51 272.92,587.37 271.05,587.37 270.85,588.02 272.45,588.02 272.18,588.88 270.58,588.88 270.37,589.57 
			272.24,589.57 		"/>
		<polygon fill-rule="evenodd" clip-rule="evenodd" fill="#861623" points="274.83,590.43 273.77,590.43 274.99,586.51 
			276.05,586.51 		"/>
		<polygon fill-rule="evenodd" clip-rule="evenodd" fill="#861623" points="278.97,590.43 278.04,590.43 277.26,588.46 
			276.66,590.43 275.59,590.43 276.81,586.51 277.73,586.51 278.51,588.48 279.12,586.51 280.18,586.51 		"/>
	</g>
	<path fill-rule="evenodd" clip-rule="evenodd" fill="#861623" d="M256.05,592.19l-1.08,3.8h23.65c7.46,0,14-2.03,14.79-7.02
		c-1.15,3.4-8.79,3.19-13,3.19L256.05,592.19z"/>
</g>
</svg>
