<svg xmlns="http://www.w3.org/2000/svg" viewBox="0 0 349 139">
  <g fill="none" fill-rule="evenodd">
    <path stroke="#333" stroke-linecap="round" stroke-linejoin="round" stroke-width=".285" d="m256.2154 114.9049.6-.6m-16.5908 3.8705.705-.72m6.9-6.8855.705-.72m10.0958-10.0798.585-.585m-31.7408 18.9903.72-.705m26.76-26.7608.525-.524m2.5654-2.5659.659-.66M214.7398 118.19l.705-.705m35.1602-35.1602.54-.524m4.8296-4.8461.495-.479m-54.4642 41.729.705-.705m-13.455.7206.72-.705m-13.4558.7197.705-.72m-13.4399.7346.705-.72m63.2403 4.7259-.705-.705m13.4243.6893-.705-.705m9.4955-3.2403-.66-.66m17.2943 4.5751-.704-.705m-10.2755-10.2745-.81-.811m-3.8692-3.8687-.66-.66m29.0394 16.3045-.705-.705m-18.3297-18.3301-1.155-1.14m-2.2351-2.235-.511-.51m35.656 22.9201-.705-.72m-32.7296-32.7146-.886-.885m-1.8449-1.8454-1.229-1.229m50.1142 37.3794-.72-.705m13.4251.6893-.705-.705m-71.13-99.7198 2.835-4.92m-2.835 22.92 2.835-4.92m-1.2905 20.2501 1.29-2.25m-.104 36.1953.54-.945m-3.2705 23.6696 2.835-4.92m3.9302-6.7802.54-.944m2.6255-4.5452.989-1.726m-26.8191-3.734-4.306-7.455m7.141-5.6407-2.79-4.845m12.9741 4.47-3.27-5.67m13.6655 5.67-3.285-5.67m17.3396 12.0304-6.855-11.88m2.8654 40.9503-1.095-1.891m-31.0203.2855-5.205-9.015m33.4735 6.2142a6.3834 6.3834 0 0 0-3.058 6.038c.22 2.431 1.808 4.525 4.09 5.392m.2498-.6643-.256.66"/>
    <path stroke="#333" stroke-linecap="round" stroke-linejoin="round" stroke-width=".285" d="M259.0103 107.2603c-1.854 1.12-2.907 3.199-2.712 5.356.194 2.159 1.603 4.015 3.628 4.785m-.9248-10.1468c1.433-.866 2.066-2.615 1.519-4.197m-1.3051-3.7522 1.305 3.75m-1.3402-4.3555c-.043.202-.03.413.037.607m-.0424-.6158c.364-1.693.506-3.426.421-5.155m-.0088.0007a1.7354 1.7354 0 0 0-.017-.174m-.8209-5.7274.825 5.729m-.8377-5.9565c.003.075.01.149.021.225m-.3223-7.7982.3 7.575m-.2883-7.578c-.065-1.743-1.189-3.269-2.834-3.849a4.251 4.251 0 0 0-4.622 1.217 4.2504 4.2504 0 0 0-.571 4.745m4.8048 9.2904-4.815-9.284m4.8063 9.2859c.121.233.268.454.437.656m.8462 2.2883c0-.835-.295-1.645-.833-2.283m.833 3.9569-.015-1.68m-2.3893 5.0306c1.438-.488 2.405-1.84 2.404-3.358m-4.3493 4.0123 1.936-.659m-1.9434.6541c-2.588.88-4.328 3.311-4.327 6.044m.0145 9.5907v-9.585m-1.9555 11.5499c1.08-.001 1.956-.877 1.955-1.958m-93.3891 2.0478 91.44-.09m-91.44.7951v-.705m91.4404.6152-91.44.091"/>
    <path stroke="#333" stroke-linecap="round" stroke-linejoin="round" stroke-width=".285" d="M245.8741 118.1598c1.47-.001 2.661-1.192 2.66-2.663m.0006-9.5919v9.585m3.8389-14.9532c-2.296.781-3.839 2.938-3.839 5.363m5.7897-6.0251-1.95.66m1.9475-.661c1.725-.586 2.884-2.206 2.883-4.027m-.0002-1.6712v1.68m0-1.6751c0-1.001-.354-1.971-.999-2.736m-.3496-.5384c.097.187.213.362.349.522m-5.1654-9.8082 4.815 9.301m1.8881-11.0627a3.5468 3.5468 0 0 0-2.364-3.211c-1.372-.483-2.901-.082-3.857 1.016-.955 1.096-1.143 2.667-.475 3.959m6.9685 5.8034-.285-7.575m.3016 7.5838c.004.101.013.2.027.301m.8265 5.7351-.84-5.745m.8376 5.8466a.9674.9674 0 0 0-.01-.107m-.3865 5.0777c.351-1.632.487-3.304.405-4.972m-.4011 4.9808c-.07.329-.05.67.061.987m1.2935 3.7561-1.306-3.765m.0901 7.1088c1.142-.69 1.646-2.084 1.21-3.346m-1.2993 18.2278 59.235-.061v.706m-60.3507-1.4946c.135.502.59.85 1.109.85m-3.7584-10.7553 2.655 9.899m-2.3591-11.0015c-.293.286-.408.708-.302 1.104m4.4919-5.2065-4.186 4.095"/>
    <path stroke="#333" stroke-linecap="round" stroke-linejoin="round" stroke-width=".285" d="M259.2613 105.5621c.509-.497.686-1.243.453-1.915m-1.5038-4.3868 1.515 4.38m-1.4725-5.2198c-.122.265-.137.566-.041.842m.0346-.8439a6.041 6.041 0 0 0 .549-2.513m-.0006-1.6706v1.681m0-1.6762a6.0166 6.0166 0 0 0-.102-1.096m-2.6734-14.3883 2.67 14.385m-2.6754-14.3899c-.187-1.006-1.064-1.736-2.088-1.735m-.3212-.0004h.33m-.3393 0c-.605 0-1.172.299-1.514.798a1.8407 1.8407 0 0 0-.2 1.7m5.0534 13.1173-5.055-13.11m5.3548 14.7203c0-.548-.102-1.091-.298-1.603m.2981 3.2768v-1.68m-3.0255 5.8978c1.81-.615 3.026-2.315 3.025-4.227m-3.9449 4.5395.915-.314m-.9082.3199c-2.054.699-3.498 2.549-3.678 4.711m-1.2038 14.4081 1.2-14.399m-3.3055 16.3492c1.104-.001 2.022-.848 2.113-1.947m-25.298 1.9773 23.176-.03m-23.968-.3011c.213.212.501.331.801.331m-2.6033-2.1308 1.8 1.8m-1.8014-1.8009c-.941-.938-2.466-.937-3.405.002"/>
    <path stroke="#333" stroke-linecap="round" stroke-linejoin="round" stroke-width=".285" d="m217.6197 119.9303-2.324 2.34-.511-.51 2.34-2.34m2.9061.4973c-.666-.665-1.744-.664-2.408.002m4.2127 1.7958-1.801-1.8m1.8 1.803a1.84 1.84 0 0 0 1.3.537m23.1653-.0156-23.16.016m23.1703-.0306c1.47-.001 2.693-1.129 2.815-2.594m1.1943-14.4011-1.2 14.399m4.4046-18.5113c-1.789.608-3.047 2.22-3.203 4.103m4.1234-4.4155-.93.314m.9222-.3199c2.095-.713 3.504-2.681 3.503-4.894m.0004-1.6704v1.681m0-1.6762c0-.634-.117-1.263-.346-1.854m-5.0544-13.1206 5.056 13.11m-3.9999-14.6549c-.373 0-.722.184-.933.492a1.134 1.134 0 0 0-.123 1.047m1.3954-1.539h-.33m1.7153 1.1582c-.124-.672-.711-1.159-1.395-1.159m4.0737 15.5408-2.67-14.385m2.7613 15.3645c-.001-.324-.03-.648-.09-.968m.09 2.6428v-1.68"/>
    <path stroke="#333" stroke-linecap="round" stroke-linejoin="round" stroke-width=".285" d="M257.606 98.1246c.319-.696.484-1.453.484-2.218m-.4786 2.22c-.196.43-.221.919-.066 1.367m1.5044 4.3869-1.516-4.38m1.2353 5.5577c.313-.308.422-.767.278-1.182m-4.4675 5.2689 4.186-4.095m-4.1874 4.1077a1.835 1.835 0 0 0-.49 1.792m2.6672 9.8955-2.67-9.9m2.6583 9.9078c.218.811.952 1.373 1.79 1.372m59.2413-.0605-59.235.061m59.235-.766 4.41-.015m-4.41.72h4.41m.0001-.7197v.721m-77.2803-67.0962h2.835v-38.97h-2.835zm0 29.5354v-8.28m0 8.2722c0 1.915 1.103 3.659 2.832 4.479m3.9483 1.0639-3.795-1.021m6.9454 5.1245c0-1.925-1.292-3.61-3.151-4.108m3.151 5.1344v-1.021m-3.1533 5.1216c1.859-.498 3.152-2.184 3.153-4.107m-6.945 5.1216 3.795-1.021m-3.9479 1.064c-1.729.821-2.833 2.563-2.833 4.479"/>
    <path stroke="#333" stroke-linecap="round" stroke-linejoin="round" stroke-width=".285" d="M247.7398 102.7096v9.766h-2.835v-7.576m4.4082-4.232a2.122 2.122 0 0 0-1.573 2.05m4.62-2.8723-3.045.81m3.0439-.809c2.292-.613 3.886-2.689 3.886-5.062m-.0002-.0542v.045m0-.0362c.001-2.373-1.593-4.45-3.884-5.065m-3.0457-.8237 3.045.81m-4.6202-2.8579c0 .961.646 1.802 1.573 2.05m-4.408-12.5275h2.835v10.471m-2.835 2.2946v-4.485m0 20.2946v-4.47m2.835-41.1003v-4.26m-2.835 4.26v-4.26m2.835 21.2551v-.705m0-5.67v-10.62m-2.835-.0001v10.62m0 5.67v.705m-11.7002-6.3749h8.73v.15h4.065v-.15h2.235v.15h.135m-15.1562-.1344c-4.692 0-8.497 3.803-8.498 8.496m-.0161 7.3282v-7.335m-1.417 8.7608c.782 0 1.417-.635 1.417-1.417m-5.6695 3.292v-1.875h4.26m6.3714 1.8633c.456-.517.708-1.182.708-1.871m.0005-8.753v8.761m2.8423-11.5804c-1.562 0-2.827 1.265-2.827 2.827m28.3348-2.8426h-25.516m28.3358 2.8438c.001-1.562-1.265-2.828-2.826-2.828m8.511 2.8192v1.426l-2.76 7.8-5.04-1.786 2.13-6.014v-1.426"/>
    <path stroke="#333" stroke-linecap="round" stroke-linejoin="round" stroke-width=".285" d="M267.2105 78.4645c0-4.693-3.803-8.498-8.495-8.499m-10.3458.1347v-.15h10.351m.7041 33.6598 5.04-1.77 2.76 7.8v1.41h-5.67v-1.41l-2.13-6.03m-29.0551-1.3047v8.745h-5.67v-7.335m5.67-1.4169c0-.689-.251-1.354-.707-1.871m-6.3731 1.8779h-4.26v-1.875"/>
    <path stroke="#333" stroke-linecap="round" stroke-linejoin="round" stroke-width=".285" d="M224.6993 103.7232c0-.783-.634-1.418-1.417-1.418m7.0874.0001v-1.875m0-11.3399v-1.875m36.8549 22.4248v-29.76m-2.7592 21.9602v-14.16m-5.0406 15.12v-.72m0-2.1609v-2.625m0-4.9941v-6.405M245.235 69.9498H246m2.235 0h.135m-4.5902 0h1.455m-3.2997 0h1.845m-.9153 0v.15m.915-.15v.15m4.065 30.3305v-11.34m0 11.34 1.095-1.095v-9.165l-1.095-1.08m-36.105 11.34v-11.34m-5.3252 13.7394v-16.154m4.23 13.2741v-10.38m1.0952-.4794h36.105m-36.105 11.3399h36.105m-42.2847-13.7549h.854m-.854 16.1543h.854m.0005-13.2598h4.23m-4.23 10.3799h4.23m0-10.3799 1.095-.479m-1.095 10.8589 1.095.48M198.8995 94.94l.21 2.564.615 2.761m-.825 2.5647v-7.89m.8251 5.3255-.615 1.32-.21 1.244.21 1.231.615 1.335m-.8251-1.4249v-1.141m0-15.9596.21 1.335.615 1.426m-.825 5.3093v-8.07m.8251 2.7605-.615 2.76-.21 2.55m.765-10.6958.061-.12m-.8261 2.745v-1.319m.8251-1.4261-.615 1.426-.21 1.319m-.0001 17.1007.765 1.305m-.765-19.7249.765-1.305m5.8956-.1208h-5.835m5.835 0v5.505h-5.835m5.835.0009v10.635h-5.835"/>
    <path stroke="#333" stroke-linecap="round" stroke-linejoin="round" stroke-width=".285" d="M205.5601 100.2652v5.13h-5.835m2.1299-27.3155 3.705 6.045"/>
    <path fill="#333" d="m200.6402 78.8297 4.92 5.295-2.505-6.779z"/>
    <path stroke="#333" stroke-linecap="round" stroke-linejoin="round" stroke-width=".285" d="m200.6402 78.8297 4.92 5.295-2.505-6.779-2.415 1.484"/>
    <path stroke="#333" stroke-linecap="round" stroke-linejoin="round" stroke-width=".285" d="m201.9532 78.4547-16.166-26.265h-7.08"/>
    <path fill="#1A1919" fill-rule="nonzero" d="M146.9816 55.0904c.3575 0 .6861-.0495.986-.1485.2998-.099.5605-.2518.782-.4586a1.9697 1.9697 0 0 0 .461-.6558c.1092-.2511.1639-.5273.1639-.8287 0-.3042-.0458-.5524-.1374-.7444-.0916-.192-.2083-.3516-.35-.4786-.127-.1122-.2822-.206-.4653-.2814-.1832-.0753-.3457-.1248-.4875-.1484v-.062c.3516-.071.6566-.243.915-.5163.2586-.2733.3878-.593.3878-.9594 0-.2688-.0546-.5036-.164-.7045-.1093-.201-.2703-.3723-.483-.514-.1979-.13-.4194-.2246-.6646-.2837-.2452-.059-.5288-.0886-.8508-.0886-.328 0-.667.0436-1.017.1307-.35.0872-.63.1825-.8397.2859v.926h.0443c.2806-.183.579-.3249.895-.4253.3162-.1004.6146-.1507.8952-.1507.1832 0 .3471.0148.4919.0443a1.275 1.275 0 0 1 .4076.1596c.1212.0768.2157.175.2836.2946.068.1197.102.2593.102.4188 0 .3604-.1337.6344-.401.822-.2674.1876-.6256.2814-1.0746.2814h-.3102v.7356h.3988c.2186 0 .4224.017.6115.051.189.0339.35.0967.483.1883.133.0886.237.2104.3124.3655.0753.1551.113.3508.113.5872 0 .2393-.0332.4372-.0997.5938-.0665.1565-.1677.2998-.3035.4298-.13.1211-.2999.2127-.5096.2747-.2098.062-.4077.093-.5938.093-.3161 0-.644-.0546-.9838-.1639-.3397-.1093-.6351-.2466-.8862-.412h-.0665v.926c.2275.1035.5185.1987.873.2859a4.515 4.515 0 0 0 1.0812.1307Zm5.7916 0c.387 0 .7275-.0554 1.0214-.1662.294-.1108.5473-.2695.76-.4763.195-.192.3486-.4284.4609-.709a2.3526 2.3526 0 0 0 .1683-.8819c0-.387-.065-.709-.195-.966a1.6616 1.6616 0 0 0-.5494-.6292 2.1255 2.1255 0 0 0-.74-.3213c-.2689-.0605-.582-.0908-.9394-.0908-.0975 0-.2127.003-.3457.0089s-.263.0147-.39.0265v-1.7547h3.1152v-.7755h-3.9704v3.3988c.1743-.0355.3819-.071.6226-.1064a5.1526 5.1526 0 0 1 .7511-.0532c.2718 0 .5177.023.7378.0687.2201.0458.407.1248.5606.237.1388.0946.2474.2202.3257.3768.0783.1565.1174.3485.1174.576 0 .2334-.0332.4387-.0997.616-.0665.1772-.1647.3293-.2947.4564-.1536.1477-.3286.251-.525.3102a2.104 2.104 0 0 1-.6094.0886c-.3131 0-.6322-.054-.9571-.1618-.325-.1078-.6086-.2385-.8508-.3921h-.062v.935c.2304.1063.5125.1972.8463.2725.3338.0753.681.113 1.0413.113Zm7.9497-.1374v-5.9024l3.1285 5.9024h1.0856v-6.598h-.8198v5.3884l-2.8537-5.3884h-1.3604v6.5981h.8198Zm6.7355 0v-3.6956c.2275-.1743.4557-.3176.6846-.4299.229-.1122.4572-.1684.6847-.1684.2393 0 .4224.0318.5494.0953a.659.659 0 0 1 .2925.2858c.062.1182.1027.2755.1219.472.0192.1964.0288.404.0288.6225v2.8183h.833v-3.1683c0-.0886-.003-.178-.0088-.2681a3.7605 3.7605 0 0 0-.0222-.237c.2334-.1803.4668-.3287.7002-.4454.2333-.1167.4667-.175.7-.175.2394 0 .4225.0324.5496.0974.127.065.2245.161.2924.288.062.1182.1027.2763.1219.4742a6.38 6.38 0 0 1 .0288.616v2.8182h.833v-3.2126c0-.5909-.1292-1.051-.3877-1.3804-.2585-.3294-.6595-.494-1.203-.494-.3161 0-.613.0627-.8907.1883-.2777.1255-.585.3301-.9217.6137-.1152-.2511-.2903-.4475-.5251-.5894-.2349-.1418-.5207-.2127-.8575-.2127-.2924 0-.568.0606-.8264.1817-.2585.1212-.5177.2895-.7777.5052v-.5495h-.833v4.9497h.833Z"/>
    <g stroke="#333" stroke-linecap="round" stroke-linejoin="round" stroke-width=".285">
      <path d="M77.7076 73.901a2.819 2.819 0 0 0-.123.825m.1191-8.0535c-3.458 1.163-5.788 4.405-5.789 8.054m5.6552 18.4274v-18.435m-5.6704.0004v18.435m42.5258-.0004v-18.435m-5.6704.0004v18.435M80.5245 71.8844h25.395m0-5.6699h-25.395m-2.9546 41.1142v-14.175m0 14.175h-5.67v-14.175m-1.4096 5.4152h-4.26v-15.09h4.26m43.935 23.8498v-14.175m0 14.175h-5.67v-14.175m-.0004 12.7502-2.13-6.015v-17.73l2.13-6.015m5.6704-1.4158c0-4.692-3.803-8.498-8.495-8.499m2.8246 8.498c0-1.562-1.265-2.828-2.827-2.828M71.8995 99.9869c0-.783-.634-1.417-1.417-1.417"/>
      <path d="M70.4825 83.4791c.783 0 1.417-.634 1.417-1.417M48.875 96.6939v-11.34m-5.31 13.7551v-16.17m4.2153 13.2755v-10.38m1.0947-.4804H66.23m11.3399 0h.12M48.875 96.6939H66.23m11.3399 0h.12M42.71 82.9391h.855M42.71 99.109h.855m0-13.2754h4.215m-4.215 10.3809h4.215m.0003-10.3809 1.095-.479m-1.095 10.8599 1.095.479m-12.825-6.6744.195 2.55.63 2.745m-.825 3.1347v-8.43m.8247 5.2953-.63 1.62-.195 1.515m.0003-.0003.195 1.516.63 1.634-.33-.509m-.495-.8558v-1.785m0-15.8547.195 1.035.63 1.11m-.825 5.2798v-7.425m.8247 2.1448-.63 2.73-.195 2.55m.0003-7.4246v-.78m.8247-1.3655-.63 1.11-.195 1.036m.0003 17.6392.495.854m-.495-19.2739.495-.855m6.1647-.5103h-5.835"/>
      <path d="M42.71 80.4488v4.29h-5.835m5.835.0001v10.575h-5.835m5.835.0002v6.285h-5.835M77.69 39.9186v-26.085m2.8345 26.085v-26.085M77.69 46.774v-6.855m2.8345 6.855v-6.855M77.69 110.1939v-9.989m0 9.989h2.835v-9.989m-2.835-.0012v-53.43m2.8345 53.43v-53.43m.2959 54.6898a.714.714 0 0 0-.295.578m-.0009-20.5497c0 .229.11.442.295.578m6.2758 14.8644-6.27 4.53m6.27-14.865-6.27-4.53m6.2778 14.8728a6.3854 6.3854 0 0 0 2.647-5.174c0-2.051-.983-3.975-2.645-5.176M27.5 115.8941v-.84m60.3301-.3299-60.33.33m72.9819-13.2235c.552-.371.881-.994.878-1.659m-.4049 2.364c-1.984 1.334-3.055 3.666-2.776 6.04.278 2.375 1.861 4.395 4.1 5.232m-1.3284-11.2798a2.83 2.83 0 0 0 1.25-2.36"/>
      <path d="M100.4859 101.8385a7.224 7.224 0 0 0-3.142 6.835c.316 2.687 2.107 4.974 4.641 5.922m-.0098.0086.3-.811m-.0749-13.6187-.105-22.306m-.8549.013c-.014-2.663-2.185-4.812-4.848-4.797"/>
      <path d="M102.0801 77.8766c-.017-3.127-2.565-5.648-5.692-5.633m4.8522 5.6408.12 22.29m-4.9652-27.9453h-.285m-.0026.8545c-2.663.015-4.811 2.185-4.797 4.848"/>
      <path d="M96.1031 72.2437c-3.127.017-5.649 2.564-5.633 5.691m5.6398-4.8511h.285m-5.9246 4.8457.18 33.945m-2.8236 3.7044c2.034-.011 3.674-1.667 3.664-3.7"/>
      <path d="M87.8223 114.7242c1.562-.008 2.821-1.28 2.813-2.842m.855-.0086-.18-33.944M27.5 115.8941l60.33-.315m39.255 2.4898v.855m0-.855-26.52.15m0 .8549 26.52-.149m-28.9941-1.7338c.305 1.117 1.322 1.89 2.48 1.884m-1.6553-2.1096c.203.743.88 1.257 1.651 1.253m-1.6515-1.2598-2.895-10.56m-.8252.225 2.895 10.561m-1.8447-11.6108 4.41-4.319m-.6-.6009-4.41 4.306m5.5043-5.0706-2.22-24.615m-.8543.0749 2.235 24.615m-3.0899-26.2351-1.92.015m0 .8395h1.92m-3.6153.75-2.61 40.29m-2.8084 3.5108c1.934-.01 3.531-1.516 3.656-3.444"/>
      <path d="M88.1822 118.2789c1.485-.008 2.711-1.163 2.807-2.645m.8609.0503 2.61-40.305M88.19 118.2789l-20.985.12m.0001.84 20.985-.104m-21.5851-.9908-2.1-2.07m-.5963.6052c-.333-.329-.869-.327-1.198.006m1.7996-.6134c-.668-.662-1.746-.656-2.408.012m-.0124.0056-2.31 2.34m4.1254-1.7551 2.1 2.069m-3.3002-2.069-2.325 2.354-.6-.599m35.8664-13.464a1.7027 1.7027 0 0 0-.451 1.666m1.0492-1.0556a.8475.8475 0 0 0-.225.829m4.036-5.7528a.8474.8474 0 0 0 .251-.682m.3467 1.2933c.365-.358.55-.86.504-1.37m-3.0856-24.5382c-.04-.437-.408-.772-.849-.771m1.7006.6938c-.08-.88-.82-1.554-1.705-1.549m-1.9151.8703c-.445.002-.812.349-.841.792m.8366-1.6475c-.894.004-1.632.7-1.69 1.593M66 118.7467c.321.317.755.495 1.206.493m-.6044-1.1004c.16.158.375.246.6.245m57.4669-.5146v.705"/>
    </g>
  </g>
</svg>
