<svg xmlns="http://www.w3.org/2000/svg" viewBox="0 0 570 280">
  <g fill="none" fill-rule="evenodd">
    <path stroke="#333" stroke-linecap="round" stroke-linejoin="bevel" stroke-width="1.92" d="m222.84 221.645 1.2 3.12 1.68 2.88 2.4 2.4 2.88 1.92 3.12.96 3.36.48m-10.8-12.72.96 2.88 1.68 2.4 2.4 1.92 2.88 1.2 2.88.48"/>
    <path stroke="#333" stroke-linecap="round" stroke-linejoin="round" stroke-width="1.92" d="M68.52 229.565v3.84h7.2m23.28 0h72m19.44-174.24-8.4 159.84"/>
    <path stroke="#333" stroke-linecap="round" stroke-linejoin="bevel" stroke-width="1.92" d="m171 229.565 2.88-.24 2.4-1.2 2.4-1.68 1.68-2.16 1.2-2.4.48-2.88"/>
    <path stroke="#333" stroke-linecap="round" stroke-linejoin="round" stroke-width="1.92" d="M171 229.565H99m-23.28 0h-7.2m117.36-10.32 8.4-159.84"/>
    <path stroke="#333" stroke-linecap="round" stroke-linejoin="bevel" stroke-width="1.92" d="m171 233.405 3.12-.24 3.12-1.2 2.88-1.68 2.16-2.16 1.92-2.64 1.2-3.12.48-3.12"/>
    <path stroke="#333" stroke-linecap="round" stroke-linejoin="round" stroke-width="1.92" d="m211.8 57.965 16.8 80.16"/>
    <path stroke="#333" stroke-linecap="round" stroke-linejoin="bevel" stroke-width="1.92" d="m211.56 58.205-.72-2.16-1.2-1.92-1.68-1.44-2.16-.96-2.16-.48-2.16.24-2.16.72-1.92 1.2-1.44 1.68-.96 2.16-.48 2.16m31.68 82.32 1.2-.72.72-1.2.24-1.68"/>
    <path stroke="#333" stroke-linecap="round" stroke-linejoin="round" stroke-width="1.92" d="m226.2 141.965-12.48 3.84"/>
    <path stroke="#333" stroke-linecap="round" stroke-linejoin="bevel" stroke-width="1.92" d="m213.96 146.045-1.92.96-1.44 1.44-1.2 1.68-.48 1.92.24 2.16"/>
    <path stroke="#333" stroke-linecap="round" stroke-linejoin="round" stroke-width="1.92" d="m214.92 149.405 12.48-3.6"/>
    <path stroke="#333" stroke-linecap="round" stroke-linejoin="bevel" stroke-width="1.92" d="m214.92 149.885-1.2.72-.72 1.2-.24 1.68"/>
    <path stroke="#333" stroke-linecap="round" stroke-linejoin="round" stroke-width="1.92" d="m232.2 137.405-16.56-80.16"/>
    <path stroke="#333" stroke-linecap="round" stroke-linejoin="bevel" stroke-width="1.92" d="m215.64 57.245-.96-2.64-1.44-2.4-1.92-2.16-2.4-1.44-2.64-.96-2.64-.48-2.88.24-2.64.72-2.4 1.44-2.16 1.92-1.68 2.4-.96 2.64-.48 2.64m36.72 86.4 1.92-.96 1.44-1.44 1.2-1.68.48-1.92-.24-2.16M91.8 230.045l-1.44-1.44-1.92-.72h-1.92l-1.92.72-1.44 1.44m8.64 0 1.92 1.68 2.64 1.2 2.64.48m-23.28 0 2.64-.48 2.64-1.2 1.92-1.68m11.76-2.64-1.68-1.44-1.92-1.2-2.4-.72h-2.4l-2.4.72-1.92 1.2-1.68 1.44m14.4 0 1.92 1.68 2.4.48m-23.28 0 2.4-.48 1.92-1.68"/>
    <path stroke="#333" stroke-linecap="round" stroke-linejoin="round" stroke-width="1.92" d="m208.92 154.205 13.92 67.44m3.84-.72-14.16-67.44M135 229.565v3.84m24.96-3.84v3.84m-49.92-3.84v3.84m36-3.84v3.84m-22.08-3.84v3.84m158.64 0h-45.12m45.12-3.84h-45.12"/>
    <path stroke="#333" stroke-linecap="round" stroke-linejoin="bevel" stroke-width="1.92" d="m113.4 232.445-2.16-.96h-2.4l-2.16.96m56.64 0-2.16-.96h-2.4l-2.16.96m-43.68-.24-1.92-.96h-1.92l-1.92.96m-4.8.96 2.4-.24 2.16-1.2m6.24 0 2.16 1.2 2.4.24m-3.12-4.08-2.16-1.2-2.4-.24-2.4.24-2.16 1.2m-3.12.48 2.88-.96m9.6 0 2.88.96m45.12 2.64-1.92-.96H159l-1.92.96m6-.48 2.16 1.2 2.4.24m-15.36 0 2.4-.24 2.16-1.2m7.68-2.64-2.16-1.2-2.4-.24-2.4.24-2.16 1.2m9.36-.48 2.88.96m-15.36 0 2.88-.96"/>
    <path stroke="#333" stroke-linecap="round" stroke-linejoin="round" stroke-width="1.92" d="M415.08 233.405h-58.56m58.56-3.84h-58.56m79.44-150.48-9.84 140.16"/>
    <path stroke="#333" stroke-linecap="round" stroke-linejoin="bevel" stroke-width="1.92" d="m415.08 229.565 2.64-.24 2.64-1.2 2.16-1.44 1.92-2.16 1.2-2.64.48-2.64"/>
    <path stroke="#333" stroke-linecap="round" stroke-linejoin="round" stroke-width="1.92" d="m439.8 79.325-9.84 140.16"/>
    <path stroke="#333" stroke-linecap="round" stroke-linejoin="bevel" stroke-width="1.92" d="m415.08 233.405 3.12-.24 3.12-1.2 2.64-1.44 2.4-2.16 1.68-2.64 1.44-3.12.48-3.12"/>
    <path stroke="#333" stroke-linecap="round" stroke-linejoin="round" stroke-width="1.92" d="M452.52 63.485h17.52"/>
    <path stroke="#333" stroke-linecap="round" stroke-linejoin="bevel" stroke-width="1.92" d="m452.52 63.485-3.6.48-3.36.96-2.88 1.92-2.64 2.4-2.16 2.88-1.2 3.36-.72 3.36"/>
    <path stroke="#333" stroke-linecap="round" stroke-linejoin="round" stroke-width="1.92" d="M452.52 67.325h17.52"/>
    <path stroke="#333" stroke-linecap="round" stroke-linejoin="bevel" stroke-width="1.92" d="m452.52 67.325-3.12.48-2.88.96-2.64 1.92-2.16 2.4-1.2 2.88-.72 3.12"/>
    <path stroke="#333" stroke-linecap="round" stroke-linejoin="round" stroke-width="1.92" d="m482.52 79.085 7.44 82.8"/>
    <path stroke="#333" stroke-linecap="round" stroke-linejoin="bevel" stroke-width="1.92" d="m482.76 78.845-.72-2.88-1.44-2.88-1.92-2.4-2.64-1.92-2.88-.96-3.12-.48"/>
    <path stroke="#333" stroke-linecap="round" stroke-linejoin="round" stroke-width="1.92" d="m486.6 78.605 7.2 83.04"/>
    <path stroke="#333" stroke-linecap="round" stroke-linejoin="bevel" stroke-width="1.92" d="m486.6 78.605-.72-3.36-1.44-3.36-1.92-2.88-2.64-2.4-3.12-1.68-3.12-.96-3.6-.48m17.76 105.6 2.16-.72 1.68-1.2 1.2-1.68.72-1.92.24-2.16m-6.72 3.84 1.44-.72.96-1.2.24-1.44"/>
    <path stroke="#333" stroke-linecap="round" stroke-linejoin="round" stroke-width="1.92" d="m468.36 168.845 18.72-3.36m-18 7.2 18.72-3.36m-19.92 9.36 22.56 15.84"/>
    <path stroke="#333" stroke-linecap="round" stroke-linejoin="bevel" stroke-width="1.92" d="m469.32 172.685-1.44.72-.96.96-.24 1.44.48 1.44.96 1.2"/>
    <path stroke="#333" stroke-linecap="round" stroke-linejoin="round" stroke-width="1.92" d="m465.48 181.805 22.8 15.84"/>
    <path stroke="#333" stroke-linecap="round" stroke-linejoin="bevel" stroke-width="1.92" d="m468.6 168.845-2.16.72-1.68 1.2-1.2 1.68-.72 1.92-.24 1.92.48 2.16.96 1.68 1.68 1.44"/>
    <path stroke="#333" stroke-linecap="round" stroke-linejoin="round" stroke-width="1.92" d="m490.44 194.525-2.16 3.12"/>
    <path stroke="#333" stroke-linecap="round" stroke-linejoin="round" stroke-width=".72" d="M80.52 224.045H60.84m6 9.36h-6m3.36-16.32v-6.96m0 30.24v6.96m0-23.28v9.36"/>
    <path fill="#333" d="m63 217.085 1.2 6.96 1.2-6.96H63Zm0 23.28h2.4l-1.2-6.96-1.2 6.96Z"/>
    <text fill="#333" font-family="Arial-ItalicMT, Arial" font-size="9.6" font-style="italic" transform="rotate(-90 48.02 194.5)">
                <tspan x="11.02" y="208.5">1</tspan>
            </text>
    <path stroke="#333" stroke-linecap="round" stroke-linejoin="round" stroke-width=".72" d="M182.04 237.485v18.24m-113.52-18.24v18.24m106.56-3.36h-99.6"/>
    <path fill="#333" d="M175.08 251.165v2.4l6.96-1.2-6.96-1.2Zm-99.6 0-6.96 1.2 6.96 1.2v-2.4Z"/>
    <text fill="#333" font-family="Arial-ItalicMT, Arial" font-size="9.6" font-style="italic" transform="translate(45 23)">
                <tspan x="74.64" y="225.72">20</tspan>
            </text>
    <path stroke="#333" stroke-linecap="round" stroke-linejoin="round" stroke-width=".72" d="M427.08 233.405h98.64m-43.44-169.92h43.44m-3.36 162.96v-156"/>
    <path fill="#333" d="m521.16 226.445 1.2 6.96 1.2-6.96h-2.4Zm0-156h2.4l-1.2-6.96-1.2 6.96Zm-6.96 82.8v.24h.24l.24.24h.24l.24.24h.24l.24-.96h-.72l-.24-.24-.24-.24v-.24l-.24-.24v-.24z"/>
    <path stroke="#333" stroke-linecap="round" stroke-linejoin="round" stroke-width=".24" d="M514.2 153.245v.24h.24l.24.24h.24l.24.24h.24l.24-.96h-.72l-.24-.24-.24-.24v-.24l-.24-.24v-.24z"/>
    <path fill="#333" d="M513.48 151.805v.48l.24.24v.48h.24v.24h.24v-1.92h.24v-.48h.24l.24-.24h.96v.24h.48v.24h.24v.24h.24v.24l.24.24h.24v.24l.24.24.24.24v.24l.24.24.24.24.24.24.24.24.24.24h.24v.24h.24l.24.24h.48l.24.24v-4.32h-.72v3.12l-.24-.24-.24-.24H519v-.24h-.24v-.24l-.24-.24-.24-.24-.24-.24-.24-.24v-.24l-.24-.24-.24-.24-.24-.24-.24-.24-.24-.24h-.24v-.24h-.72v-.24h-.48l-.24.24h-.48l-.24.24-.24.24v.24h-.24v.48h-.24v.48z"/>
    <path stroke="#333" stroke-linecap="round" stroke-linejoin="round" stroke-width=".24" d="M513.48 151.805v.48l.24.24v.48h.24v.24h.24v-1.92h.24v-.48h.24l.24-.24h.96v.24h.48v.24h.24v.24h.24v.24l.24.24h.24v.24l.24.24.24.24v.24l.24.24.24.24.24.24.24.24.24.24h.24v.24h.24l.24.24h.48l.24.24v-4.32h-.72v3.12l-.24-.24-.24-.24H519v-.24h-.24v-.24l-.24-.24-.24-.24-.24-.24-.24-.24v-.24l-.24-.24-.24-.24-.24-.24-.24-.24-.24-.24h-.24v-.24h-.72v-.24h-.48l-.24.24h-.48l-.24.24-.24.24v.24h-.24v.48h-.24v.48z"/>
    <path fill="#333" d="m518.76 148.445.24.72h.48v-.24h.48v-.24h.24v-.24h.24v-.48l.24-.24v-.48l-.24-.24v-.48l-.24-.24v-.24h-.24v1.44l-.24.24v.24h-.24v.24H519z"/>
    <path stroke="#333" stroke-linecap="round" stroke-linejoin="round" stroke-width=".24" d="m518.76 148.445.24.72h.48v-.24h.48v-.24h.24v-.24h.24v-.48l.24-.24v-.48l-.24-.24v-.48l-.24-.24v-.24h-.24v1.44l-.24.24v.24h-.24v.24H519z"/>
    <path fill="#333" d="M517.56 144.605v.96h.24l.24.24h.48l.24.24h.24v.24h.24l.24.24.24.24v.24l.24.24v.24-1.68h-.24v-.24h-.24l-.24-.24-.24-.24h-.48l-.24-.24h-.48z"/>
    <path stroke="#333" stroke-linecap="round" stroke-linejoin="round" stroke-width=".24" d="M517.56 144.605v.96h.24l.24.24h.48l.24.24h.24v.24h.24l.24.24.24.24v.24l.24.24v.24-1.68h-.24v-.24h-.24l-.24-.24-.24-.24h-.48l-.24-.24h-.48z"/>
    <path fill="#333" d="M514.2 145.085v1.44-.48l.24-.24.24-.24.24-.24h1.44l.24.24h.24v.24h.24l.24.24v.24l.24.24v1.92l.24-.24v-.24h.24v-.24l.24-.24v-.96l-.24-.24v-.24h-.24v-.24l-.24-.24v-.96h-.96l-.24-.24h-.72l-.24.24h-.72v.24h-.48z"/>
    <path stroke="#333" stroke-linecap="round" stroke-linejoin="round" stroke-width=".24" d="M514.2 145.085v1.44-.48l.24-.24.24-.24.24-.24h1.44l.24.24h.24v.24h.24l.24.24v.24l.24.24v1.92l.24-.24v-.24h.24v-.24l.24-.24v-.96l-.24-.24v-.24h-.24v-.24l-.24-.24v-.96h-.96l-.24-.24h-.72l-.24.24h-.72v.24h-.48z"/>
    <path fill="#333" d="M513.48 146.525v.48l.24.24v.24l.24.24.24.24.24.24.24.24h.24l.24.24h.72l.24.24h.48l.24-.24h.48v-.24h.24v-1.68.48h-.24v.24l-.24.24h-.24v.24h-1.44v-.24h-.48v-.24h-.24v-.24h-.24v-.24l-.24-.24v-1.68h-.24v.24h-.24v.48l-.24.24v.24z"/>
    <path stroke="#333" stroke-linecap="round" stroke-linejoin="round" stroke-width=".24" d="M513.48 146.525v.48l.24.24v.24l.24.24.24.24.24.24.24.24h.24l.24.24h.72l.24.24h.48l.24-.24h.48v-.24h.24v-1.68.48h-.24v.24l-.24.24h-.24v.24h-1.44v-.24h-.48v-.24h-.24v-.24h-.24v-.24l-.24-.24v-1.68h-.24v.24h-.24v.48l-.24.24v.24z"/>
    <path stroke="#333" stroke-linecap="round" stroke-linejoin="round" stroke-width=".72" d="m458.52 179.165-7.92 11.52m36.72 8.4-7.92 11.28m-21.12-18.72 17.52 12"/>
    <path fill="#333" d="m472.2 193.805-1.2-.96h.24v.48h.24v.96l-.24.24v.24H471v.24h-.24l-.24.24h-.24v.24h-1.44l-1.2-.96v.48l.24.24v.24l.24.24.24.24h.24v.24h1.92v-.24h.48v-.24h.24l.24-.24.24-.24.24-.24v-.24l.24-.24v-.48z"/>
    <path stroke="#333" stroke-linecap="round" stroke-linejoin="round" stroke-width=".24" d="m472.2 193.805-1.2-.96h.24v.48h.24v.96l-.24.24v.24H471v.24h-.24l-.24.24h-.24v.24h-1.44l-1.2-.96v.48l.24.24v.24l.24.24.24.24h.24v.24h1.92v-.24h.48v-.24h.24l.24-.24.24-.24.24-.24v-.24l.24-.24v-.48z"/>
    <path fill="#333" d="m471.48 192.365-.24-.24h-1.2l-.72-.48h-.24v.24h-.24l-.24.24-.24.24v.24h-.24v.24l-.24.24v.24l-.24.24v.96l1.2.96-.24-.24v-.24h-.24v-1.2h.24v-.24l.24-.24.24-.24.24-.24h.24v-.24h1.2l.24.24 1.2.96v-.72l-.24-.24-.24-.24v-.24z"/>
    <path stroke="#333" stroke-linecap="round" stroke-linejoin="round" stroke-width=".24" d="m471.48 192.365-.24-.24h-1.2l-.72-.48h-.24v.24h-.24l-.24.24-.24.24v.24h-.24v.24l-.24.24v.24l-.24.24v.96l1.2.96-.24-.24v-.24h-.24v-1.2h.24v-.24l.24-.24.24-.24.24-.24h.24v-.24h1.2l.24.24 1.2.96v-.72l-.24-.24-.24-.24v-.24z"/>
    <path fill="#333" d="m473.88 192.125-1.2-.96.24.24.24.24v.48l-.24.24v.24l.72.48v-.24h.24v-.48z"/>
    <path stroke="#333" stroke-linecap="round" stroke-linejoin="round" stroke-width=".24" d="m473.88 192.125-1.2-.96.24.24.24.24v.48l-.24.24v.24l.72.48v-.24h.24v-.48z"/>
    <path fill="#333" d="m473.16 190.685-.24-.24h-.24l-.24-.24h-.72l-.24.24h-.72v.24h-.48l-.24.24-.24.24h-.24l-.24.24v.24l.72.48v-.24h.24v-.24h.24l.24-.24h.24l.24-.24h.48l.24-.24.24.24h.48l1.2.96v-.72l-.24-.24v-.24l-.24-.24z"/>
    <path stroke="#333" stroke-linecap="round" stroke-linejoin="round" stroke-width=".24" d="m473.16 190.685-.24-.24h-.24l-.24-.24h-.72l-.24.24h-.72v.24h-.48l-.24.24-.24.24h-.24l-.24.24v.24l.72.48v-.24h.24v-.24h.24l.24-.24h.24l.24-.24h.48l.24-.24.24.24h.48l1.2.96v-.72l-.24-.24v-.24l-.24-.24z"/>
    <path fill="#333" d="m459 190.685-6.48-2.88 5.04 4.8 1.44-1.92Zm17.28 12-1.2 1.92 6.24 2.88-5.04-4.8Z"/>
    <path stroke="#333" stroke-linecap="round" stroke-linejoin="round" stroke-width=".72" d="M501.24 171.245h14.16m-14.16 62.16h14.16m-3.36-55.44v48.48"/>
    <path fill="#333" d="M510.84 177.965h2.4l-1.2-6.72-1.2 6.72Zm0 48.48 1.2 6.96 1.2-6.96h-2.4Zm-6-17.28.24.24.72.24v-.48l-.24-.24v-.24l-.24-.24v-.48h-.24v-.24z"/>
    <path stroke="#333" stroke-linecap="round" stroke-linejoin="round" stroke-width=".24" d="m504.84 209.165.24.24.72.24v-.48l-.24-.24v-.24l-.24-.24v-.48h-.24v-.24z"/>
    <path fill="#333" d="M503.16 206.525v.48h.24l.24.24.24.24.24.24v.24h.24v.24h.24v.48l.24.24v.24l.24-1.44 5.04.96v-.72z"/>
    <path stroke="#333" stroke-linecap="round" stroke-linejoin="round" stroke-width=".24" d="M503.16 206.525v.48h.24l.24.24.24.24.24.24v.24h.24v.24h.24v.48l.24.24v.24l.24-1.44 5.04.96v-.72z"/>
    <path fill="#333" d="M503.88 203.645h.24v.24h.24l.24.24h.24v.24h.24l.24.24h.72l.24.24h.72l.24.24h1.44v-.24h.72v-.24h.24l.24-.24v-.24h.24v-.24l.24-.24v-.96l-.24-.24v-.24l-.24-.24v-.24h-.24v1.92h-.24v.24h-.24v.24h-2.4l-.24-.24h-.72l-.24-.24h-.48v-.24h-.24l-.24-.24-.24-.24h-.24v-.48l-.24-.24z"/>
    <path stroke="#333" stroke-linecap="round" stroke-linejoin="round" stroke-width=".24" d="M503.88 203.645h.24v.24h.24l.24.24h.24v.24h.24l.24.24h.72l.24.24h.72l.24.24h1.44v-.24h.72v-.24h.24l.24-.24v-.24h.24v-.24l.24-.24v-.96l-.24-.24v-.24l-.24-.24v-.24h-.24v1.92h-.24v.24h-.24v.24h-2.4l-.24-.24h-.72l-.24-.24h-.48v-.24h-.24l-.24-.24-.24-.24h-.24v-.48l-.24-.24z"/>
    <path fill="#333" d="m503.16 202.205.24.24v.72h.24v.24l.24.24v-1.92h.24v-.24l.24-.24h.24l.24-.24h1.2l.24.24h.96l.24.24h.48l.24.24h.24l.24.24h.24l.24.24h.24v.48h.24v.48-1.68h-.24l-.24-.24h-.24l-.24-.24-.24-.24h-.48l-.24-.24H507v-.24h-2.4l-.24.24h-.24l-.24.24-.24.24-.24.24v.48l-.24.24z"/>
    <path stroke="#333" stroke-linecap="round" stroke-linejoin="round" stroke-width=".24" d="m503.16 202.205.24.24v.72h.24v.24l.24.24v-1.92h.24v-.24l.24-.24h.24l.24-.24h1.2l.24.24h.96l.24.24h.48l.24.24h.24l.24.24h.24l.24.24h.24v.48h.24v.48-1.68h-.24l-.24-.24h-.24l-.24-.24-.24-.24h-.48l-.24-.24H507v-.24h-2.4l-.24.24h-.24l-.24.24-.24.24-.24.24v.48l-.24.24z"/>
    <path stroke="#333" stroke-linecap="round" stroke-linejoin="round" stroke-width=".72" d="m494.04 161.645-1.2-6.24m-32.88 12-1.2-6.24m27.84-1.2-20.4 3.36"/>
    <path fill="#333" d="m473.64 154.925-.72.24v.48h.24v.48h.24v.24h.24v.24h.48v.24h1.2l.24-.24h.24l.24-.24h.24v-.24h.24l.24-.24-1.68.24h-.72v-.24h-.24v-.24h-.24v-.48h-.24z"/>
    <path stroke="#333" stroke-linecap="round" stroke-linejoin="round" stroke-width=".24" d="m473.64 154.925-.72.24v.48h.24v.48h.24v.24h.24v.24h.48v.24h1.2l.24-.24h.24l.24-.24h.24v-.24h.24l.24-.24-1.68.24h-.72v-.24h-.24v-.24h-.24v-.48h-.24z"/>
    <path fill="#333" d="m476.76 152.285-1.68.48h.72l.24.24.24.24v.24h.24v1.2l-.24.24v.48h-.24v.24h-.24v.24h-.24l-.24.24h-.24l1.68-.24v-.24h.24v-.48h.24v-2.16H477v-.48h-.24z"/>
    <path stroke="#333" stroke-linecap="round" stroke-linejoin="round" stroke-width=".24" d="m476.76 152.285-1.68.48h.72l.24.24.24.24v.24h.24v1.2l-.24.24v.48h-.24v.24h-.24v.24h-.24l-.24.24h-.24l1.68-.24v-.24h.24v-.48h.24v-2.16H477v-.48h-.24z"/>
    <path fill="#333" d="M475.08 151.805v.24h-.48l-.24.24h-.24v.24l2.4-.48h-.48l-.24-.24h-.48z"/>
    <path stroke="#333" stroke-linecap="round" stroke-linejoin="round" stroke-width=".24" d="M475.08 151.805v.24h-.48l-.24.24h-.24v.24l2.4-.48h-.48l-.24-.24h-.48z"/>
    <path fill="#333" d="m476.76 149.405-3.12.72-.48 3.6h.72v-.24l.24-.24v-.24h.48v-.24h.48l1.68-.48h-.24v-.24l-2.4.48.24-1.92 2.4-.24z"/>
    <path stroke="#333" stroke-linecap="round" stroke-linejoin="round" stroke-width=".24" d="m476.76 149.405-3.12.72-.48 3.6h.72v-.24l.24-.24v-.24h.48v-.24h.48l1.68-.48h-.24v-.24l-2.4.48.24-1.92 2.4-.24z"/>
    <path fill="#333" d="m486.6 159.005.24 2.16 6.72-2.16h-6.96Zm-20.64 3.36-6.48 2.16h6.96l-.48-2.16Z"/>
    <path stroke="#333" stroke-linecap="round" stroke-linejoin="round" stroke-width=".72" d="M66.84 233.405H45m143.52-186.24H45m3.36 179.28V54.125"/>
    <path fill="#333" d="m47.16 226.445 1.2 6.96 1.2-6.96h-2.4Zm0-172.32h2.4l-1.2-6.96-1.2 6.96Z"/>
    <text fill="#333" font-family="Arial-ItalicMT, Arial" font-size="9.6" font-style="italic" transform="translate(45 23)">
                <tspan x="5.44" y="121.08">32</tspan>
            </text>
    <path stroke="#333" stroke-linecap="round" stroke-linejoin="round" stroke-width=".72" d="M237.48 152.045h9.36m-7.68 77.52h7.68m-3.36-70.56v63.6"/>
    <path fill="#333" d="M242.28 159.005h2.16l-.96-6.96-1.2 6.96Zm0 63.6 1.2 6.96.96-6.96h-2.16Z"/>
    <text fill="#333" font-family="Arial-ItalicMT, Arial" font-size="9.6" font-style="italic" transform="translate(45 23)">
                <tspan x="199.56" y="172.2">14</tspan>
            </text>
    <path stroke="#333" stroke-linecap="round" stroke-linejoin="bevel" stroke-width=".72" d="m176.28 199.085-4.32.96-4.32 1.92-3.84 2.16-3.6 2.88-3.12 3.36-2.4 3.84-1.92 4.08-1.44 4.32"/>
    <path fill="#333" d="m176.04 197.885.24 2.16 6.72-1.44-6.96-.72Zm-23.76 24.96-2.16-.24.24 6.96 1.92-6.72Z"/>
    <text fill="#333" font-family="Arial-ItalicMT, Arial" font-size="9.6" font-style="italic" transform="translate(45 23)">
                <tspan x="103.44" y="179.1608">93</tspan>
            </text>
    <text fill="#333" font-family="Arial-ItalicMT, Arial" font-size="13.3945" font-style="italic" transform="translate(45 23)">
                <tspan x="113.76" y="180.0408">°</tspan>
            </text>
    <path stroke="#333" stroke-linecap="round" stroke-linejoin="bevel" stroke-width=".72" d="m420.6 201.245-4.08.96-3.84 1.68-3.6 1.92-3.36 2.64-2.88 3.12-2.4 3.6-1.68 3.6-1.44 4.08"/>
    <path fill="#333" d="m420.36 199.805.24 2.4 6.72-1.68-6.96-.72Zm-22.08 23.04-2.16-.24.24 6.96 1.92-6.72Zm1.44-14.16-.72.48.24.24h.24v.24h.48l.24.24h.48v-.24h.48v-.24h.24l.24-.24.24-.24v-.24l.24-.24v-.48l-1.2.72v.24h-.96z"/>
    <path stroke="#333" stroke-linecap="round" stroke-linejoin="bevel" stroke-width=".24" d="m399.72 208.685-.72.48.24.24h.24v.24h.48l.24.24h.48v-.24h.48v-.24h.24l.24-.24.24-.24v-.24l.24-.24v-.48l-1.2.72v.24h-.96z"/>
    <path fill="#333" d="m401.64 205.325-.72.72.24.24v.24l.24.24v1.68h-.24v.24h-.24l1.2-.72v-1.68l-.24-.24v-.24l-.24-.24z"/>
    <path stroke="#333" stroke-linecap="round" stroke-linejoin="bevel" stroke-width=".24" d="m401.64 205.325-.72.72.24.24v.24l.24.24v1.68h-.24v.24h-.24l1.2-.72v-1.68l-.24-.24v-.24l-.24-.24z"/>
    <path fill="#333" d="m399 202.925-.96.96.24-.24h.96l.24.24.24.24h.24v.24l.24.24v.48l.24.24v.72l-.24.24-.24.24v.24l-1.2.96h.96l.24-.24h.24v-.24h.24v-.24h.24v-.48l.24-.24v-.24l.72-.72v-.24h-.24v-.24l-.24-.24v-.24l-.24-.24-.24-.24-.24-.24-.24-.24h-.24v-.24h-.24l-.24-.24h-.24z"/>
    <path stroke="#333" stroke-linecap="round" stroke-linejoin="bevel" stroke-width=".24" d="m399 202.925-.96.96.24-.24h.96l.24.24.24.24h.24v.24l.24.24v.48l.24.24v.72l-.24.24-.24.24v.24l-1.2.96h.96l.24-.24h.24v-.24h.24v-.24h.24v-.48l.24-.24v-.24l.72-.72v-.24h-.24v-.24l-.24-.24v-.24l-.24-.24-.24-.24-.24-.24-.24-.24h-.24v-.24h-.24l-.24-.24h-.24z"/>
    <path fill="#333" d="m397.56 203.405-.24.24-.24.24v.24l-.24.24v1.44l.24.24v.24l.24.24.24.24v.24l.24.24h.24v.24h.48v.24h.24l1.2-.96h-.24l-.24.24H399v-.24h-.48v-.24h-.24l-.24-.24v-.24h-.24v-.48l-.24-.24v-.72l.24-.24v-.48h.24l.96-.96h-.96v.24h-.24z"/>
    <path stroke="#333" stroke-linecap="round" stroke-linejoin="bevel" stroke-width=".24" d="m397.56 203.405-.24.24-.24.24v.24l-.24.24v1.44l.24.24v.24l.24.24.24.24v.24l.24.24h.24v.24h.48v.24h.24l1.2-.96h-.24l-.24.24H399v-.24h-.48v-.24h-.24l-.24-.24v-.24h-.24v-.48l-.24-.24v-.72l.24-.24v-.48h.24l.96-.96h-.96v.24h-.24z"/>
    <path fill="#333" d="m403.08 198.605-.48.48-.24 5.76.48.72 2.16-1.68.96 1.44.48-.48-.72-1.44.72-.72-.48-.72-.72.72-2.16 1.68.24-3.84z"/>
    <path stroke="#333" stroke-linecap="round" stroke-linejoin="bevel" stroke-width=".24" d="m403.08 198.605-.48.48-.24 5.76.48.72 2.16-1.68.96 1.44.48-.48-.72-1.44.72-.72-.48-.72-.72.72-2.16 1.68.24-3.84z"/>
    <path fill="#333" d="m403.08 198.605.24 1.92 1.2 2.64-1.44 1.2 2.16-1.68z"/>
    <path stroke="#333" stroke-linecap="round" stroke-linejoin="bevel" stroke-width=".24" d="m403.08 198.605.24 1.92 1.2 2.64-1.44 1.2 2.16-1.68z"/>
    <path fill="#333" d="M404.76 197.645v.72h.24v.24l.24.24h.24v.24h.96l.24-.24h.24v-.24h.24v-.24l.24-.24v-.24l-.96.48v.24h-.72l-.24-.24v-.24h-.24v-.72h.24v-.24z"/>
    <path stroke="#333" stroke-linecap="round" stroke-linejoin="bevel" stroke-width=".24" d="M404.76 197.645v.72h.24v.24l.24.24h.24v.24h.96l.24-.24h.24v-.24h.24v-.24l.24-.24v-.24l-.96.48v.24h-.72l-.24-.24v-.24h-.24v-.72h.24v-.24z"/>
    <path fill="#333" d="m405.24 196.685-.24.24-.24.24v.48l.72-.48.24-.24h.72v.24h.24v.24l.24.24v.24l-.24.24-.24.24.96-.48v-.48l-.24-.24-.24-.24v-.24h-.24l-.24-.24h-.72l-.24.24z"/>
    <path stroke="#333" stroke-linecap="round" stroke-linejoin="bevel" stroke-width=".24" d="m405.24 196.685-.24.24-.24.24v.48l.72-.48.24-.24h.72v.24h.24v.24l.24.24v.24l-.24.24-.24.24.96-.48v-.48l-.24-.24-.24-.24v-.24h-.24l-.24-.24h-.72l-.24.24z"/>
    <path stroke="#333" stroke-linecap="round" stroke-linejoin="round" stroke-width=".72" d="M429.72 122.765v-90.72m63.84 90.72v-90.72m-56.88 3.36h49.92"/>
    <path fill="#333" d="m436.68 34.205-6.96 1.2 6.96 1.2v-2.4Zm49.92 0v2.4l6.96-1.2-6.96-1.2Z"/>
    <text fill="#333" font-family="Arial-ItalicMT, Arial" font-size="9.6" font-style="italic" transform="translate(45 23)">
                <tspan x="410.4" y="9">10</tspan>
            </text>
    <path stroke="#333" stroke-linecap="round" stroke-linejoin="round" stroke-width=".72" d="M233.16 127.565v-95.52m-48 95.52v-95.52m41.04 3.36h-34.08"/>
    <path fill="#333" d="M226.2 34.205v2.4l6.96-1.2-6.96-1.2Zm-34.08 0-6.96 1.2 6.96 1.2v-2.4Z"/>
    <text fill="#333" font-family="Arial-ItalicMT, Arial" font-size="9.6" font-style="italic" transform="translate(45 23)">
                <tspan x="161.04" y="9">9</tspan>
            </text>
  </g>
</svg>
