<svg xmlns="http://www.w3.org/2000/svg" fill="none" stroke-linecap="square" stroke-miterlimit="10" viewBox="0 0 600 371">
  <path fill="#fff" d="M0 0h600v371H0V0Z"/>
  <path stroke="#ccc" stroke-linecap="butt" d="M66.5 26.5v276m79-276v276m79-276v276"/>
  <path stroke="#333" stroke-linecap="butt" d="M304.5 26.5v276"/>
  <path stroke="#ccc" stroke-linecap="butt" d="M383.5 26.5v276m79-276v276m79-276v276"/>
  <path stroke="#333" stroke-linecap="butt" d="M56.5 302.5h495"/>
  <path stroke="#ccc" stroke-linecap="butt" d="M56.5 233.5h495m-495-69h495m-495-69h495m-495-69h495"/>
  <path stroke="#e6e6e6" stroke-linecap="butt" d="M56.5 288.5h495m-495-14h495m-495-14h495m-495-14h495m-495-27h495m-495-14h495m-495-14h495m-495-13h495m-495-28h495m-495-14h495m-495-14h495m-495-13h495m-495-28h495m-495-14h495m-495-13h495m-495-14h495"/>
  <clipPath id="a">
    <path d="M56.55 26.55h494.9v275.5333H56.55V26.55Z"/>
  </clipPath>
  <path stroke="#4285f4" stroke-linecap="butt" stroke-width="2" d="m541.8384 63.6092-79.2794 44.912-44.3966 21.6293-34.883 15.5677L304 176.5779l-79.2795 25.4868-26.955 7.715-52.3244 13.7766-79.2795 18.5985" clip-path="url(#a)"/>
  <path stroke="#ea4335" stroke-linecap="butt" stroke-width="2" d="m541.8384 223.143-79.2794 3.9953-44.3966 2.893-34.883 2.4799L304 238.5729l-79.2795 6.0617-26.955 1.9288-52.3244 3.5819-79.2795 4.4085" clip-path="url(#a)"/>
  <path stroke="#fbbc04" stroke-linecap="butt" stroke-width="2" d="m541.8384 94.0557-79.2794 29.6198-44.3966 13.7767-34.883 9.6436L304 165.6943l-79.2795 16.532-26.955 5.5107-52.3244 10.3325-79.2795 17.2208" clip-path="url(#a)"/>
  <path fill="#4285f4" d="M537.5958 59.3666h8.4852v8.4853h-8.4852Zm-79.2795 44.9119h8.4853v8.4853h-8.4853Zm-44.3965 21.6294h8.4853v8.4853h-8.4853Zm-34.883 15.5676h8.4853v8.4853h-8.4853Zm-79.2795 30.8598h8.4854v8.4852h-8.4854Zm-79.2794 25.4868h8.4853v8.4853h-8.4853Zm-26.955 7.7149h8.4853v8.4853h-8.4853Zm-52.3245 13.7767h8.4853v8.4853h-8.4853ZM61.919 237.9122h8.4852v8.4853H61.919Z" clip-path="url(#a)"/>
  <path fill="#ea4335" d="m541.8384 217.143 1.3471 4.146h4.3592l-3.5266 2.5622 1.347 4.146-3.5267-2.5624-3.5267 2.5623 1.3471-4.1459-3.5267-2.5623h4.3592Zm-79.2794 3.9953 1.347 4.1459h4.3593l-3.5267 2.5623 1.347 4.1459-3.5266-2.5623-3.5268 2.5623 1.3471-4.146-3.5267-2.5622h4.3593Zm-44.3966 2.8931 1.3471 4.1459h4.3593l-3.5267 2.5623 1.347 4.1459-3.5267-2.5623-3.5267 2.5623 1.3471-4.146-3.5267-2.5622h4.3593Zm-34.8829 2.4798 1.347 4.1459h4.3593l-3.5267 2.5623 1.347 4.1459-3.5266-2.5623-3.5267 2.5623 1.347-4.146-3.5267-2.5622h4.3593ZM304 232.5729l1.347 4.1459h4.3593l-3.5267 2.5623 1.3471 4.1459L304 240.8647l-3.5267 2.5623 1.347-4.1459-3.5266-2.5623h4.3592Zm-79.2795 6.0617 1.3471 4.146h4.3593l-3.5267 2.5622 1.347 4.146-3.5267-2.5624-3.5267 2.5623 1.3471-4.1459-3.5267-2.5623h4.3592Zm-26.955 1.9288 1.3471 4.1459h4.3593l-3.5268 2.5623 1.3471 4.1459-3.5267-2.5623-3.5267 2.5623 1.347-4.146-3.5266-2.5622h4.3592Zm-52.3245 3.5819 1.3471 4.1459h4.3593l-3.5267 2.5623 1.347 4.1459-3.5266-2.5623-3.5268 2.5623 1.3471-4.1459-3.5267-2.5623h4.3593Zm-79.2794 4.4085 1.347 4.146h4.3593l-3.5267 2.5622 1.347 4.146-3.5266-2.5624-3.5267 2.5623 1.347-4.1459-3.5267-2.5623h4.3593Z" clip-path="url(#a)"/>
  <path fill="#fbbc04" d="M547.8384 94.0557c0 3.3137-2.6862 6-6 6-3.3137 0-6-2.6863-6-6s2.6863-6 6-6c3.3138 0 6 2.6863 6 6Zm-79.2794 29.6198c0 3.3137-2.6864 6-6 6-3.3138 0-6-2.6863-6-6s2.6862-6 6-6c3.3136 0 6 2.6863 6 6Zm-44.3966 13.7767c0 3.3137-2.6862 6-6 6-3.3137 0-6-2.6863-6-6s2.6863-6 6-6c3.3138 0 6 2.6863 6 6Zm-34.8829 9.6436c0 3.3137-2.6863 6-6 6s-6-2.6863-6-6 2.6863-6 6-6 6 2.6863 6 6ZM310 165.6943c0 3.3137-2.6863 6-6 6s-6-2.6863-6-6 2.6863-6 6-6 6 2.6863 6 6Zm-79.2795 16.532c0 3.3137-2.6863 6-6 6s-6-2.6863-6-6 2.6863-6 6-6 6 2.6863 6 6Zm-26.955 5.5107c0 3.3137-2.6863 6-6 6s-6-2.6863-6-6 2.6863-6 6-6 6 2.6863 6 6Zm-52.3245 10.3325c0 3.3137-2.6862 6-6 6-3.3137 0-6-2.6863-6-6s2.6863-6 6-6c3.3138 0 6 2.6863 6 6Zm-79.2794 17.2208c0 3.3137-2.6863 6-6 6s-6-2.6863-6-6 2.6863-6 6-6 6 2.6863 6 6Z" clip-path="url(#a)"/>
  <path fill="#000" d="M49.3937 302.724q0 2.3437-.7343 3.4531-.7344 1.0937-2.2813 1.0937-1.5781 0-2.3125-1.1093-.7187-1.125-.7187-3.4375 0-2.3282.7343-3.4375.7344-1.1094 2.297-1.1094 1.5624 0 2.2812 1.1406.7343 1.125.7343 3.4063Zm-1.5468 2.6562q.2031-.4844.2812-1.125.0781-.6406.0781-1.5312 0-.8907-.078-1.5469-.0782-.6563-.2813-1.125-.2032-.4531-.5625-.6719-.3594-.2344-.9063-.2344-.5625 0-.9219.2344-.3593.2188-.5625.6875-.203.4375-.2812 1.1406-.0625.6875-.0625 1.5157 0 .9218.0625 1.5468.0625.6094.2656 1.0938.2031.4531.5469.7031.3594.2344.9531.2344.5469 0 .9063-.2344.3593-.2344.5625-.6875Zm-14.5157-69.9458q0 .6093-.2343 1.1718-.2188.547-.5938.922-.4219.4062-1.0156.6405-.5781.2188-1.3438.2188-.7187 0-1.3906-.1563-.6562-.1562-1.1093-.3593v-1.2344h.078q.4844.2969 1.125.5156.6563.2188 1.2657.2188.4219 0 .8125-.1094.3906-.125.6875-.4219.2656-.25.3906-.5937.1406-.3594.1406-.8282 0-.453-.1562-.75-.1563-.3125-.4375-.5-.2969-.2343-.7344-.3125-.4375-.0937-.9843-.0937-.5157 0-1 .0781-.4688.0625-.8125.125v-4.4844h5.25v1.0157h-4.1094v2.3281q.25-.0313.5-.0313.2656-.0156.4687-.0156.7032 0 1.2344.125.5313.1094.9844.4219.4687.3125.7187.8281.2656.5.2656 1.2813Zm8.0625-1.5938q0 2.3438-.7343 3.4531-.7344 1.0938-2.2813 1.0938-1.5781 0-2.3125-1.1094-.7187-1.125-.7187-3.4375 0-2.3281.7343-3.4375.7344-1.1094 2.297-1.1094 1.5624 0 2.2812 1.1407.7343 1.125.7343 3.4062Zm-1.5468 2.6563q.2031-.4844.2812-1.125.0781-.6407.0781-1.5313 0-.8906-.078-1.5469-.0782-.6562-.2813-1.125-.2032-.453-.5625-.6718-.3594-.2344-.9063-.2344-.5625 0-.9219.2344-.3593.2187-.5625.6875-.203.4375-.2812 1.1406-.0625.6875-.0625 1.5156 0 .9219.0625 1.5469.0625.6094.2656 1.0938.2031.453.5469.703.3594.2344.9531.2344.5469 0 .9063-.2343.3593-.2344.5625-.6875Zm9.5468-2.6563q0 2.3438-.7343 3.4531-.7344 1.0938-2.2813 1.0938-1.5781 0-2.3125-1.1094-.7187-1.125-.7187-3.4375 0-2.3281.7343-3.4375.7344-1.1094 2.297-1.1094 1.5624 0 2.2812 1.1407.7343 1.125.7343 3.4062Zm-1.5468 2.6563q.2031-.4844.2812-1.125.0781-.6407.0781-1.5313 0-.8906-.078-1.5469-.0782-.6562-.2813-1.125-.2032-.453-.5625-.6718-.3594-.2344-.9063-.2344-.5625 0-.9219.2344-.3593.2187-.5625.6875-.203.4375-.2812 1.1406-.0625.6875-.0625 1.5156 0 .9219.0625 1.5469.0625.6094.2656 1.0938.2031.453.5469.703.3594.2344.9531.2344.5469 0 .9063-.2343.3593-.2344.5625-.6875Zm-22.9375-67.1802H20.175v-.8907h1.8281v-5.8437H20.175v-.7969q.375 0 .7969-.0625.4218-.0625.6406-.1875.2656-.1406.4219-.3594.1562-.2343.1718-.6093h.922v7.8593h1.7812v.8907Zm8.4843-4.3594q0 2.3437-.7343 3.4531-.7344 1.0938-2.2813 1.0938-1.5781 0-2.3125-1.1094-.7187-1.125-.7187-3.4375 0-2.3281.7343-3.4375.7344-1.1094 2.297-1.1094 1.5624 0 2.2812 1.1406.7343 1.125.7343 3.4063Zm-1.5468 2.6562q.2031-.4843.2812-1.125.0781-.6406.0781-1.5312t-.078-1.5469q-.0782-.6562-.2813-1.125-.2032-.4531-.5625-.6719-.3594-.2343-.9063-.2343-.5625 0-.9218.2343-.3594.2188-.5625.6875-.2032.4375-.2813 1.1407-.0625.6875-.0625 1.5156 0 .9219.0625 1.5469.0625.6093.2656 1.0937.2032.4531.5469.7031.3594.2344.9531.2344.5469 0 .9063-.2344.3593-.2343.5625-.6875Zm9.5468-2.6562q0 2.3437-.7343 3.4531-.7344 1.0938-2.2813 1.0938-1.5781 0-2.3125-1.1094-.7187-1.125-.7187-3.4375 0-2.3281.7343-3.4375.7344-1.1094 2.297-1.1094 1.5624 0 2.2812 1.1406.7343 1.125.7343 3.4063Zm-1.5468 2.6562q.2031-.4843.2812-1.125.0781-.6406.0781-1.5312t-.078-1.5469q-.0782-.6562-.2813-1.125-.2032-.4531-.5625-.6719-.3594-.2343-.9063-.2343-.5625 0-.9219.2343-.3593.2188-.5625.6875-.203.4375-.2812 1.1407-.0625.6875-.0625 1.5156 0 .9219.0625 1.5469.0625.6093.2656 1.0937.2031.4531.5469.7031.3594.2344.9531.2344.5469 0 .9063-.2344.3593-.2343.5625-.6875Zm9.5468-2.6562q0 2.3437-.7343 3.4531-.7344 1.0938-2.2813 1.0938-1.5781 0-2.3125-1.1094-.7187-1.125-.7187-3.4375 0-2.3281.7343-3.4375.7344-1.1094 2.297-1.1094 1.5624 0 2.2812 1.1406.7343 1.125.7343 3.4063Zm-1.5468 2.6562q.2031-.4843.2812-1.125.0781-.6406.0781-1.5312t-.078-1.5469q-.0782-.6562-.2813-1.125-.2032-.4531-.5625-.6719-.3594-.2343-.9063-.2343-.5625 0-.9219.2343-.3593.2188-.5625.6875-.203.4375-.2812 1.1407-.0625.6875-.0625 1.5156 0 .9219.0625 1.5469.0625.6093.2656 1.0937.2031.4531.5469.7031.3594.2344.9531.2344.5469 0 .9063-.2344.3593-.2343.5625-.6875Zm-22.9375-67.1802H20.175v-.8906h1.8281V93.699H20.175v-.797q.375 0 .7969-.0624.4218-.0625.6406-.1875.2656-.1406.4219-.3594.1562-.2344.1718-.6094h.922v7.8594h1.7812v.8906Zm8.4218-2.7656q0 .6094-.2343 1.1719-.2188.5469-.5938.9219-.4219.4062-1.0156.6406-.5781.2187-1.3438.2187-.7187 0-1.3906-.1562-.6562-.1563-1.1093-.3594v-1.2344h.078q.4844.297 1.125.5157.6563.2187 1.2657.2187.4219 0 .8125-.1094.3906-.125.6875-.4218.2656-.25.3906-.5938.1406-.3594.1406-.8281 0-.4531-.1562-.75-.1563-.3125-.4375-.5-.2969-.2344-.7344-.3125-.4375-.0938-.9843-.0938-.5157 0-1 .0782-.4688.0625-.8125.125v-4.4844h5.25v1.0156h-4.1094v2.3281q.25-.0312.5-.0312.2656-.0156.4687-.0156.7032 0 1.2344.125.5313.1093.9844.4218.4687.3125.7187.8282.2656.5.2656 1.2812Zm8.0625-1.5937q0 2.3437-.7343 3.453-.7344 1.0938-2.2813 1.0938-1.5781 0-2.3125-1.1093-.7187-1.125-.7187-3.4375 0-2.3282.7343-3.4375.7344-1.1094 2.297-1.1094 1.5624 0 2.2812 1.1406.7343 1.125.7343 3.4063Zm-1.5468 2.6562q.2031-.4844.2812-1.125.0781-.6406.0781-1.5312 0-.8907-.078-1.547-.0782-.6562-.2813-1.125-.2032-.453-.5625-.6718-.3594-.2344-.9063-.2344-.5625 0-.9219.2344-.3593.2188-.5625.6875-.203.4375-.2812 1.1406-.0625.6875-.0625 1.5157 0 .9218.0625 1.5468.0625.6094.2656 1.0938.2031.4531.5469.7031.3594.2344.9531.2344.5469 0 .9063-.2344.3593-.2344.5625-.6875Zm9.5468-2.6562q0 2.3437-.7343 3.453-.7344 1.0938-2.2813 1.0938-1.5781 0-2.3125-1.1093-.7187-1.125-.7187-3.4375 0-2.3282.7343-3.4375.7344-1.1094 2.297-1.1094 1.5624 0 2.2812 1.1406.7343 1.125.7343 3.4063Zm-1.5468 2.6562q.2031-.4844.2812-1.125.0781-.6406.0781-1.5312 0-.8907-.078-1.547-.0782-.6562-.2813-1.125-.2032-.453-.5625-.6718-.3594-.2344-.9063-.2344-.5625 0-.9219.2344-.3593.2188-.5625.6875-.203.4375-.2812 1.1406-.0625.6875-.0625 1.5157 0 .9218.0625 1.5468.0625.6094.2656 1.0938.2031.4531.5469.7031.3594.2344.9531.2344.5469 0 .9063-.2344.3593-.2344.5625-.6875ZM25.3938 31.55h-5.9063v-1.2188q.625-.5312 1.2344-1.0624.625-.5313 1.1562-1.047 1.125-1.0937 1.5313-1.7343.4218-.6406.4218-1.3906 0-.6719-.453-1.0469-.4376-.3906-1.2344-.3906-.547 0-1.172.1875-.6093.1875-1.203.5781h-.0625v-1.2344q.4218-.2031 1.1093-.375.7032-.1718 1.3438-.1718 1.3437 0 2.1093.6562.7657.6406.7657 1.75 0 .5-.125.9375-.125.4219-.375.7969-.2344.375-.5469.7343-.2969.3438-.7344.7657-.625.6093-1.2968 1.1875-.672.5781-1.25 1.0781h4.6875v1Zm8-4.3594q0 2.3438-.7344 3.4532-.7344 1.0937-2.2813 1.0937-1.5781 0-2.3125-1.1094-.7187-1.125-.7187-3.4375 0-2.3281.7343-3.4375.7344-1.1093 2.297-1.1093 1.5624 0 2.2812 1.1406.7343 1.125.7343 3.4062Zm-1.547 2.6563q.2032-.4844.2813-1.125.0781-.6407.0781-1.5313 0-.8906-.078-1.5468-.0782-.6563-.2813-1.125-.2032-.4532-.5625-.672-.3594-.2343-.9063-.2343-.5625 0-.9218.2344-.3594.2187-.5625.6875-.2032.4375-.2813 1.1406-.0625.6875-.0625 1.5156 0 .9219.0625 1.5469.0625.6094.2656 1.0938.2032.453.5469.703.3594.2344.9531.2344.5469 0 .9063-.2343.3593-.2344.5625-.6875Zm9.547-2.6563q0 2.3438-.7344 3.4532-.7344 1.0937-2.2813 1.0937-1.5781 0-2.3125-1.1094-.7187-1.125-.7187-3.4375 0-2.3281.7343-3.4375.7344-1.1093 2.297-1.1093 1.5624 0 2.2812 1.1406.7343 1.125.7343 3.4062Zm-1.547 2.6563q.2032-.4844.2813-1.125.0781-.6407.0781-1.5313 0-.8906-.078-1.5468-.0782-.6563-.2813-1.125-.2032-.4532-.5625-.672-.3594-.2343-.9063-.2343-.5625 0-.9219.2344-.3593.2187-.5625.6875-.203.4375-.2812 1.1406-.0625.6875-.0625 1.5156 0 .9219.0625 1.5469.0625.6094.2656 1.0938.2031.453.5469.703.3594.2344.9531.2344.5469 0 .9063-.2343.3593-.2344.5625-.6875Zm9.547-2.6563q0 2.3438-.7344 3.4532-.7344 1.0937-2.2813 1.0937-1.5781 0-2.3125-1.1094-.7187-1.125-.7187-3.4375 0-2.3281.7343-3.4375.7344-1.1093 2.297-1.1093 1.5624 0 2.2812 1.1406.7343 1.125.7343 3.4062Zm-1.547 2.6563q.2032-.4844.2813-1.125.0781-.6407.0781-1.5313 0-.8906-.078-1.5468-.0782-.6563-.2813-1.125-.2032-.4532-.5625-.672-.3594-.2343-.9063-.2343-.5625 0-.9219.2344-.3593.2187-.5625.6875-.203.4375-.2812 1.1406-.0625.6875-.0625 1.5156 0 .9219.0625 1.5469.0625.6094.2656 1.0938.2031.453.5469.703.3594.2344.9531.2344.5469 0 .9063-.2343.3593-.2344.5625-.6875Zm516.447 272.8771q0 2.3437-.7344 3.4531-.7344 1.0937-2.2813 1.0937-1.5781 0-2.3125-1.1093-.7187-1.125-.7187-3.4375 0-2.3282.7344-3.4375.7343-1.1094 2.2968-1.1094 1.5625 0 2.2813 1.1406.7344 1.125.7344 3.4063Zm-1.5469 2.6562q.2031-.4844.2812-1.125.0782-.6406.0782-1.5312 0-.8907-.0782-1.5469-.0781-.6563-.2812-1.125-.2031-.4531-.5625-.6719-.3594-.2344-.9063-.2344-.5625 0-.9218.2344-.3594.2188-.5625.6875-.2032.4375-.2813 1.1406-.0625.6875-.0625 1.5157 0 .9218.0625 1.5468.0625.6094.2656 1.0938.2032.4531.5469.7031.3594.2344.9531.2344.5469 0 .9063-.2344.3594-.2344.5625-.6875Zm1.0625-67.1802h-4.7344v-.8906h1.8281v-5.8438h-1.8281v-.7969q.375 0 .7969-.0625.4219-.0625.6406-.1875.2656-.1406.4219-.3593.1562-.2344.1719-.6094h.9218v7.8594h1.7813v.8906Zm.4844-68.8833h-5.9063v-1.2188q.625-.5312 1.2344-1.0625.625-.5312 1.1562-1.0469 1.125-1.0937 1.5313-1.7343.4219-.6407.4219-1.3907 0-.6718-.4532-1.0468-.4375-.3907-1.2343-.3907-.5469 0-1.1719.1875-.6094.1875-1.2031.5782h-.0625v-1.2344q.4218-.2031 1.1093-.375.7032-.1719 1.3438-.1719 1.3437 0 2.1094.6563.7656.6406.7656 1.75 0 .5-.125.9375-.125.4218-.375.7968-.2344.375-.5469.7344-.2969.3438-.7344.7656-.625.6094-1.2968 1.1875-.6719.5782-1.25 1.0782h4.6875v1Zm-.7657-73.0865q.2813.25.4688.6406.1875.375.1875.9844 0 .5938-.2188 1.0938-.2187.5-.6093.8593-.4375.4063-1.0469.6094-.5938.2031-1.2969.2031-.7187 0-1.4219-.1875-.7031-.1718-1.1562-.375v-1.2187h.0781q.5.3281 1.1719.5469.6719.2187 1.3125.2187.3594 0 .7656-.125.4219-.125.6875-.3594.2656-.2656.3906-.578.1407-.3126.1407-.7813 0-.4688-.1563-.7657-.1406-.3125-.4062-.5-.2657-.1718-.6407-.2343-.375-.0782-.8125-.0782h-.5156v-.9687h.4063q.8906 0 1.4218-.375.5313-.375.5313-1.0938 0-.3125-.1406-.5468-.125-.2344-.375-.3907-.25-.1562-.5469-.203-.2813-.0626-.6406-.0626-.5625 0-1.1875.2031-.625.1875-1.1719.5625h-.0625V92.074q.4062-.2032 1.0937-.375.7032-.172 1.3594-.172.6406 0 1.125.125.4844.1095.875.3595.4219.2812.6406.6875.2188.3906.2188.9375 0 .7187-.5156 1.2656-.5157.5312-1.2032.6719v.0937q.2813.0469.6407.2031.3593.1407.6093.3594Zm.9688-67.1333H563.2V31.55h-1.125v-2.4531h-4.1719V27.753l4.2188-4.9218H563.2v5.328h1.2969v.9376Zm-2.4219-.9375v-3.9375l-3.375 3.9375h3.375ZM60.2084 317.8021h-3.6562v-1.0625h3.6563v1.0625Zm6.8126 3.2812h-4.7344v-.8906h1.8281v-5.8437h-1.8281v-.7969q.375 0 .7968-.0625.422-.0625.6407-.1875.2656-.1406.4218-.3594.1563-.2344.172-.6094h.9218v7.8594h1.7813v.8906Zm8.4218-2.7656q0 .6094-.2344 1.1719-.2187.5469-.5937.9219-.4219.4062-1.0156.6406-.5782.2187-1.3438.2187-.7187 0-1.3906-.1562-.6563-.1563-1.1094-.3594v-1.2344h.0781q.4844.297 1.125.5157.6563.2187 1.2657.2187.4218 0 .8125-.1094.3906-.125.6875-.4218.2656-.25.3906-.5938.1406-.3594.1406-.8281 0-.4531-.1562-.75-.1563-.3125-.4375-.5-.2969-.2344-.7344-.3125-.4375-.0938-.9844-.0938-.5156 0-1 .0782-.4687.0625-.8125.125v-4.4844h5.25v1.0156H71.271v2.3281q.25-.0312.5-.0312.2657-.0156.4688-.0156.7031 0 1.2344.125.5312.1093.9843.4218.4688.3125.7188.8282.2656.5.2656 1.2812Zm64.0452-.5156h-3.6563v-1.0625h3.6562v1.0625Zm6.8124 3.2812h-4.7343v-.8906h1.828v-5.8437h-1.828v-.7969q.375 0 .7968-.0625.4219-.0625.6407-.1875.2656-.1406.4218-.3594.1563-.2344.1719-.6094h.9219v7.8594h1.7812v.8906Zm8.4844-4.3593q0 2.3437-.7344 3.4531-.7343 1.0937-2.2812 1.0937-1.5781 0-2.3125-1.1093-.7188-1.125-.7188-3.4375 0-2.3282.7344-3.4375.7344-1.1094 2.2969-1.1094t2.2812 1.1406q.7344 1.125.7344 3.4063Zm-1.5469 2.6562q.2032-.4844.2813-1.125.0781-.6406.0781-1.5312 0-.8907-.0781-1.5469-.0781-.6563-.2813-1.125-.2031-.4531-.5625-.6719-.3593-.2344-.9062-.2344-.5625 0-.9219.2344-.3594.2188-.5625.6875-.2031.4375-.2812 1.1406-.0625.6875-.0625 1.5157 0 .9218.0625 1.5468.0625.6094.2656 1.0938.2031.4531.5469.7031.3593.2344.953.2344.547 0 .9063-.2344.3594-.2344.5625-.6875Zm69.5295-1.5781h-3.6563v-1.0625h3.6563v1.0625Zm7.2344.5156q0 .6094-.2344 1.1719-.2188.5469-.5938.9219-.4218.4062-1.0156.6406-.5781.2187-1.3437.2187-.7188 0-1.3906-.1562-.6563-.1563-1.1094-.3594v-1.2344h.0781q.4844.297 1.125.5157.6563.2187 1.2656.2187.4219 0 .8125-.1094.3907-.125.6875-.4218.2657-.25.3907-.5938.1406-.3594.1406-.8281 0-.4531-.1563-.75-.1562-.3125-.4375-.5-.2968-.2344-.7343-.3125-.4375-.0938-.9844-.0938-.5156 0-1 .0782-.4688.0625-.8125.125v-4.4844h5.25v1.0156h-4.1094v2.3281q.25-.0312.5-.0312.2656-.0156.4688-.0156.703 0 1.2343.125.5313.1093.9844.4218.4688.3125.7188.8282.2656.5.2656 1.2812Zm76.842-1.5937q0 2.3437-.7344 3.4531-.7344 1.0937-2.2813 1.0937-1.5781 0-2.3125-1.1093-.7187-1.125-.7187-3.4375 0-2.3282.7344-3.4375.7343-1.1094 2.2968-1.1094 1.5625 0 2.2813 1.1406.7344 1.125.7344 3.4063Zm-1.547 2.6562q.2032-.4844.2813-1.125.0781-.6406.0781-1.5312 0-.8907-.078-1.5469-.0782-.6563-.2813-1.125-.2031-.4531-.5625-.6719-.3594-.2344-.9063-.2344-.5625 0-.9219.2344-.3593.2188-.5625.6875-.203.4375-.2812 1.1406-.0625.6875-.0625 1.5157 0 .9218.0625 1.5468.0625.6094.2656 1.0938.2031.4531.5469.7031.3594.2344.9531.2344.5469 0 .9063-.2344.3594-.2344.5625-.6875Zm80.7639-1.0625q0 .6094-.2344 1.1719-.2187.5469-.5937.9219-.4219.4062-1.0156.6406-.5781.2187-1.3438.2187-.7187 0-1.3906-.1562-.6563-.1563-1.1094-.3594v-1.2344h.0781q.4844.297 1.125.5157.6563.2187 1.2657.2187.4219 0 .8125-.1094.3906-.125.6875-.4218.2656-.25.3906-.5938.1406-.3594.1406-.8281 0-.4531-.1562-.75-.1563-.3125-.4375-.5-.2969-.2344-.7344-.3125-.4375-.0938-.9844-.0938-.5156 0-1 .0782-.4687.0625-.8125.125v-4.4844h5.25v1.0156h-4.1094v2.3281q.25-.0312.5-.0312.2657-.0156.4688-.0156.7031 0 1.2344.125.5312.1093.9844.4218.4687.3125.7187.8282.2656.5.2656 1.2812Zm74.8576 2.7656h-4.7343v-.8906h1.8281v-5.8437h-1.8281v-.7969q.375 0 .7968-.0625.4219-.0625.6407-.1875.2656-.1406.4218-.3594.1563-.2344.1719-.6094h.9219v7.8594h1.7812v.8906Zm8.4844-4.3593q0 2.3437-.7344 3.4531-.7343 1.0937-2.2812 1.0937-1.5781 0-2.3125-1.1093-.7188-1.125-.7188-3.4375 0-2.3282.7344-3.4375.7344-1.1094 2.2969-1.1094t2.2812 1.1406q.7344 1.125.7344 3.4063Zm-1.5469 2.6562q.2032-.4844.2813-1.125.0781-.6406.0781-1.5312 0-.8907-.0781-1.5469-.0781-.6563-.2813-1.125-.2031-.4531-.5625-.6719-.3593-.2344-.9062-.2344-.5625 0-.9219.2344-.3594.2188-.5625.6875-.2031.4375-.2812 1.1406-.0625.6875-.0625 1.5157 0 .9218.0625 1.5468.0625.6094.2656 1.0938.2031.4531.5469.7031.3593.2344.9531.2344.5469 0 .9062-.2344.3594-.2344.5625-.6875Zm72.342 1.7031h-4.7344v-.8906h1.8282v-5.8437h-1.8282v-.7969q.375 0 .7969-.0625.4219-.0625.6406-.1875.2657-.1406.4219-.3594.1563-.2344.1719-.6094h.9219v7.8594h1.7812v.8906Zm8.4219-2.7656q0 .6094-.2344 1.1719-.2187.5469-.5937.9219-.4219.4062-1.0157.6406-.5781.2187-1.3437.2187-.7188 0-1.3906-.1562-.6563-.1563-1.1094-.3594v-1.2344h.0781q.4844.297 1.125.5157.6563.2187 1.2656.2187.4219 0 .8125-.1094.3907-.125.6875-.4218.2657-.25.3907-.5938.1406-.3594.1406-.8281 0-.4531-.1563-.75-.1562-.3125-.4375-.5-.2968-.2344-.7343-.3125-.4375-.0938-.9844-.0938-.5156 0-1 .0782-.4688.0625-.8125.125v-4.4844h5.25v1.0156h-4.1094v2.3281q.25-.0312.5-.0312.2656-.0156.4688-.0156.7031 0 1.2343.125.5313.1093.9844.4218.4688.3125.7188.8282.2656.5.2656 1.2812Z"/>
  <path fill="#4285f4" d="M130.7574 340.2074h8.4853v8.4852h-8.4854Z"/>
  <path fill="#1a1a1a" d="M156.9063 348.8094q-.3125.1406-.5782.2656-.2656.125-.6875.2656-.3594.1094-.7812.1875-.4063.0782-.9063.0782-.9531 0-1.7344-.2657-.7812-.2656-1.3437-.8281-.5625-.5625-.8906-1.4219-.3125-.8593-.3125-2 0-1.0781.2969-1.9218.3125-.8438.8906-1.4375.5625-.5625 1.3437-.8594.7813-.3125 1.75-.3125.7031 0 1.4063.1719.7031.1718 1.5469.6093v1.375h-.0782q-.7187-.6093-1.4375-.875-.7031-.2812-1.5156-.2812-.6563 0-1.1875.2187-.5313.2032-.9531.6563-.4063.4375-.6406 1.1094-.2188.6718-.2188 1.5468 0 .9219.25 1.5938.25.6562.6406 1.0781.4219.4219.9688.6406.5469.2032 1.1562.2032.8281 0 1.5625-.2813.7344-.2969 1.375-.875h.0781v1.3594Zm7.2656.6406h-1.0938v-.7031q-.1562.1094-.4062.2969-.2344.1718-.4688.2656-.2812.1406-.6406.2344-.3594.0937-.8438.0937-.875 0-1.5-.5781-.6093-.5938-.6093-1.5156 0-.7344.3125-1.1875.3281-.4688.9219-.7344.5937-.2656 1.4218-.3594.8438-.0937 1.8125-.1406v-.1719q0-.375-.1406-.6094-.125-.25-.375-.3906-.2344-.1406-.5625-.1875t-.6875-.0469q-.4219 0-.9688.125-.5312.1094-1.0937.3282h-.0625v-1.125q.3281-.0938.9375-.1875.6094-.1094 1.2031-.1094.6875 0 1.2031.125.5157.1094.8907.375.3594.2656.5469.7031.203.4219.203 1.0625v4.4375Zm-1.0938-1.6094v-1.8281q-.5.0313-1.1875.0938-.6875.0625-1.0781.1718-.4844.125-.7813.4219-.2812.2813-.2812.7813 0 .5625.3281.8437.3438.2813 1.0469.2813.5781 0 1.0625-.2188.4844-.2344.8906-.5469Zm9.7656-1.75q0 .7969-.2343 1.4688-.2188.6562-.6406 1.1094-.3907.4375-.922.6718-.5155.2344-1.0937.2344-.5156 0-.9375-.1094-.4062-.1093-.8281-.3437v2.75h-1.1094v-8.9688h1.1094v.6875q.4375-.375.9844-.625t1.1719-.25q1.1875 0 1.8437.9063.6563.8906.6563 2.4687Zm-1.1406.0313q0-1.1719-.4062-1.75-.3906-.5938-1.2344-.5938-.4688 0-.9531.2032-.4844.2031-.9219.5312v3.7188q.4688.2031.7969.2812.3437.0781.7656.0781.9219 0 1.4375-.625t.5156-1.8437Zm8.4688 3.3281h-1.0938v-.7031q-.1562.1094-.4062.2969-.2344.1718-.4688.2656-.2812.1406-.6406.2344-.3594.0937-.8438.0937-.875 0-1.5-.5781-.6093-.5938-.6093-1.5156 0-.7344.3125-1.1875.3281-.4688.9219-.7344.5937-.2656 1.4218-.3594.8438-.0937 1.8125-.1406v-.1719q0-.375-.1406-.6094-.125-.25-.375-.3906-.2344-.1406-.5625-.1875t-.6875-.0469q-.4219 0-.9688.125-.5312.1094-1.0937.3282h-.0625v-1.125q.3281-.0938.9375-.1875.6094-.1094 1.2031-.1094.6875 0 1.2031.125.5157.1094.8907.375.3594.2656.5469.7031.203.4219.203 1.0625v4.4375Zm-1.0938-1.6094v-1.8281q-.5.0313-1.1875.0938-.6875.0625-1.0781.1718-.4844.125-.7813.4219-.2812.2813-.2812.7813 0 .5625.3281.8437.3438.2813 1.0469.2813.5781 0 1.0625-.2188.4844-.2344.8906-.5469Zm8.8438 1.2032q-.5469.2656-1.0469.4062-.4844.1406-1.0469.1406-.7031 0-1.2969-.2031-.5937-.2031-1.0156-.625-.4375-.4219-.6719-1.0625-.2343-.6562-.2343-1.5156 0-1.6094.875-2.5156.8906-.9219 2.3437-.9219.5625 0 1.0938.1719.5469.1562 1 .375v1.2343h-.0625q-.5-.4062-1.0313-.6093-.5312-.2188-1.0469-.2188-.9375 0-1.4843.6406-.5313.625-.5313 1.8438 0 1.1875.5156 1.8281.5313.625 1.5.625.3282 0 .672-.0781.3593-.0938.625-.2344.25-.125.453-.2656.2188-.1406.3282-.2344h.0625v1.2188Zm2.3437-7.2344h-1.2344v-1.1406h1.2344v1.1406Zm-.0625 7.6406h-1.1094v-6.5469h1.1094v6.5469Zm5.2813-.0625q-.3125.0938-.6875.1406-.3594.0469-.6406.0469-1 0-1.5313-.5312-.5156-.5469-.5156-1.7344v-3.4844h-.75v-.9219h.75v-1.875h1.0937v1.875h2.2813v.9219h-2.2813v2.9844q0 .5156.0156.8125.0313.2812.172.5312.1405.2344.3593.3438.2344.1094.6875.1094.2656 0 .5625-.0782.2969-.0781.4219-.125h.0625v.9844Zm7.2656-6.4844-3.8281 8.9688H197.75l1.2188-2.7344-2.6094-6.2344h1.1875l2.0156 4.8594 2.0313-4.8594h1.1562Zm3.625 4.875-1.6563 3.8438h-.8593l1.0156-3.8438h1.5Zm15.9531-7.0468-2.2656 8.7187H218.75l-1.8281-7.25-1.7969 7.25h-1.2813l-2.2968-8.7187h1.1875l1.8281 7.25 1.8125-7.25h1.1719l1.8281 7.3125 1.8125-7.3125h1.1406Z"/>
  <path fill="#ea4335" d="m246 338.45 1.347 4.1459h4.3593l-3.5267 2.5623 1.3471 4.1459L246 346.7418l-3.5267 2.5623 1.347-4.1459-3.5266-2.5623h4.3592Z"/>
  <path fill="#1a1a1a" d="M266.875 343.3563q0 .5781-.2031 1.0781-.2031.5-.5625.8594-.4531.4531-1.0625.6875-.6094.2187-1.5469.2187h-1.1719v3.25h-1.1562v-8.7187h2.375q.7812 0 1.3281.125t.9688.4062q.4843.3438.75.8438.2812.5.2812 1.25Zm-1.2031.0312q0-.4531-.1563-.7812-.1562-.3282-.4844-.5469-.2812-.1875-.6406-.2656-.3594-.0782-.9062-.0782h-1.1563V345.2h.9844q.7031 0 1.1406-.125.4375-.125.7188-.3906.2656-.2813.375-.5938.125-.3125.125-.7031Zm8.9844 2.7969q0 1.5937-.8282 2.5312-.8125.9219-2.1875.9219-1.3906 0-2.2031-.9219-.8125-.9375-.8125-2.5312 0-1.6094.8125-2.5313.8125-.9375 2.2031-.9375 1.375 0 2.1875.9375.8281.9219.8281 2.5313Zm-1.125 0q0-1.2813-.5-1.8906-.5-.625-1.3907-.625-.8906 0-1.3906.625-.4844.6093-.4844 1.8906 0 1.2187.4844 1.8594.5.6406 1.3906.6406.8906 0 1.3906-.625.5-.6406.5-1.875Zm11.7812-3.2813-1.7031 6.5469h-1.0156l-1.6875-5.0469-1.672 5.0469h-1l-1.7343-6.5469h1.1563l1.203 5.0625 1.625-5.0625h.9063l1.6875 5.0625 1.125-5.0625h1.1094Zm8.25 3.3907h-4.8281q0 .5937.1875 1.0468.1875.4532.5.7344.2969.2813.7187.4219.4219.1406.9219.1406.6719 0 1.3438-.2656.6875-.2656.9687-.5156h.0625v1.1875q-.5625.2343-1.1406.4062-.5781.1563-1.2188.1563-1.625 0-2.5469-.875-.9062-.8907-.9062-2.5157 0-1.6093.875-2.5468.875-.9532 2.2969-.9532 1.3281 0 2.0469.7813.7187.7656.7187 2.2031v.5938Zm-1.0781-.8438q0-.875-.4375-1.3437-.4219-.4688-1.2969-.4688-.8906 0-1.4219.5156-.5156.5157-.5937 1.2969h3.75Zm7.6875-1.3437h-.0625q-.25-.0625-.4844-.0782-.2188-.0312-.5469-.0312-.5 0-.9844.2344-.4687.2187-.9062.5781v4.6406h-1.1094v-6.5469h1.1094v.9688q.6563-.5313 1.1563-.75.5-.2188 1.0156-.2188.2969 0 .4219.0157.125.0156.3906.0625v1.125Zm11.7344 4.7031q-.3125.1406-.5782.2656-.2656.125-.6875.2656-.3594.1094-.7812.1875-.4063.0782-.9063.0782-.9531 0-1.7344-.2657-.7812-.2656-1.3437-.8281-.5625-.5625-.8906-1.4219-.3125-.8593-.3125-2 0-1.0781.2969-1.9218.3125-.8438.8906-1.4375.5625-.5625 1.3437-.8594.7813-.3125 1.75-.3125.7031 0 1.4063.1719.7031.1718 1.5469.6093v1.375h-.0782q-.7187-.6093-1.4375-.875-.7031-.2812-1.5156-.2812-.6563 0-1.1875.2187-.5313.2032-.9531.6563-.4063.4375-.6406 1.1094-.2188.6718-.2188 1.5468 0 .9219.25 1.5938.25.6562.6406 1.0781.4219.4219.9688.6406.5469.2032 1.1562.2032.8281 0 1.5625-.2813.7344-.2969 1.375-.875h.0781v1.3594Zm7.75-2.625q0 1.5937-.8282 2.5312-.8125.9219-2.1875.9219-1.3906 0-2.2031-.9219-.8125-.9375-.8125-2.5312 0-1.6094.8125-2.5313.8125-.9375 2.2031-.9375 1.375 0 2.1875.9375.8281.9219.8281 2.5313Zm-1.125 0q0-1.2813-.5-1.8906-.5-.625-1.3907-.625-.8906 0-1.3906.625-.4844.6093-.4844 1.8906 0 1.2187.4844 1.8594.5.6406 1.3906.6406.8906 0 1.3906-.625.5-.6406.5-1.875Zm9.0312 3.2656h-1.1094v-3.7344q0-.4375-.0625-.8281-.0469-.4062-.1875-.625-.1406-.25-.4219-.3594-.2656-.125-.703-.125-.4532 0-.9532.2188-.4844.2187-.9375.5625v4.8906h-1.1094v-6.5469h1.1094v.7344q.5156-.4375 1.0625-.6719.5469-.25 1.1406-.25 1.0469 0 1.6094.6407.5625.6406.5625 1.8437v4.25Zm7.2031-1.8906q0 .9062-.75 1.4844-.7344.5625-2.0156.5625-.7344 0-1.3438-.1719-.5937-.1719-1.0156-.375v-1.2344h.0625q.5156.3906 1.1563.625.6406.2188 1.2344.2188.7187 0 1.125-.2344.4218-.2344.4218-.7344 0-.3906-.2344-.5781-.2187-.2031-.8437-.3438-.2344-.0468-.625-.1093-.375-.0782-.6875-.1719-.8594-.2188-1.2188-.6563-.3593-.4531-.3593-1.0937 0-.4063.1719-.7656.1718-.3594.5-.6407.328-.2656.828-.4218.5157-.1719 1.1407-.1719.5938 0 1.1875.1406.6094.1406 1 .3438v1.1875h-.0625q-.4219-.3125-1.0313-.5157-.5937-.2187-1.1718-.2187-.6094 0-1.0313.2344-.4062.2187-.4062.6718 0 .4063.25.6094.25.2188.7969.3438.3125.0625.6875.1406.375.0625.625.125.7656.1719 1.1875.6094.4218.4218.4218 1.1406Zm7.75 1.8906h-1.1094v-.7344q-.5468.4532-1.0625.6875-.5156.2344-1.125.2344-1.0312 0-1.6093-.625-.5781-.6406-.5781-1.8594v-4.25h1.1093v3.7344q0 .4844.0469.8438.0469.3593.2031.6093.1563.25.4063.375.25.1094.7344.1094.4218 0 .9218-.2187.5156-.2188.9531-.5625v-4.8907h1.1094v6.5469Zm12.125 0h-1.1094v-3.7344q0-.4218-.0468-.8125-.0313-.3906-.1563-.625-.125-.25-.375-.375t-.7344-.125q-.453 0-.9218.2344-.4688.2188-.9219.5781.0156.1407.0156.3282.0156.1718.0156.3437v4.1875h-1.0937v-3.7344q0-.4218-.0469-.8125-.0312-.3906-.1562-.625-.1406-.25-.3906-.375t-.7188-.125q-.4531 0-.9063.2188-.453.2187-.9062.5625v4.8906h-1.1094v-6.5469h1.1094v.7344q.5156-.4375 1.0313-.6719.5156-.25 1.0937-.25.6563 0 1.125.2813.4688.2812.7031.7812.6563-.5625 1.2031-.8125.5625-.25 1.1875-.25 1.0782 0 1.5938.6563.5156.6562.5156 1.8281v4.25Zm7.2031-3.3594q0 .7969-.2343 1.4688-.2188.6562-.6406 1.1094-.3907.4375-.922.6718-.5156.2344-1.0937.2344-.5156 0-.9375-.1094-.4062-.1093-.8281-.3437v2.75h-1.1094v-8.9688h1.1094v.6875q.4375-.375.9844-.625t1.1719-.25q1.1875 0 1.8437.9063.6563.8906.6563 2.4687Zm-1.1406.0313q0-1.1719-.4062-1.75-.3906-.5938-1.2344-.5938-.4688 0-.9531.2032-.4844.2031-.9219.5312v3.7188q.4688.2031.7969.2812.3437.0781.7656.0781.9219 0 1.4375-.625t.5156-1.8437Zm6.7813 3.2656q-.3125.0938-.6875.1406-.3594.0469-.6406.0469-1 0-1.5313-.5312-.5156-.5469-.5156-1.7344v-3.4844h-.75v-.9219h.75v-1.875h1.0937v1.875h2.2813v.9219h-2.2813v2.9844q0 .5156.0156.8125.0313.2812.172.5312.1406.2344.3593.3438.2344.1094.6875.1094.2656 0 .5625-.0782.2969-.0781.4219-.125h.0625v.9844Zm2.7812-7.5781h-1.2344v-1.1406h1.2344v1.1406Zm-.0625 7.6406h-1.1094v-6.5469h1.1094v6.5469Zm7.4531-3.2656q0 1.5937-.828 2.5312-.8126.9219-2.1876.9219-1.3906 0-2.2031-.9219-.8125-.9375-.8125-2.5312 0-1.6094.8125-2.5313.8125-.9375 2.2031-.9375 1.375 0 2.1875.9375.8281.9219.8281 2.5313Zm-1.125 0q0-1.2813-.5-1.8906-.5-.625-1.3906-.625-.8906 0-1.3906.625-.4844.6093-.4844 1.8906 0 1.2187.4844 1.8594.5.6406 1.3906.6406.8906 0 1.3906-.625.5-.6406.5-1.875Zm9.0313 3.2656h-1.1094v-3.7344q0-.4375-.0625-.8281-.0469-.4062-.1875-.625-.1406-.25-.4219-.3594-.2656-.125-.703-.125-.4532 0-.9532.2188-.4844.2187-.9375.5625v4.8906h-1.1094v-6.5469h1.1094v.7344q.5156-.4375 1.0625-.6719.5469-.25 1.1406-.25 1.0469 0 1.6094.6407.5625.6406.5625 1.8437v4.25Zm4.8125-1.6719-1.6563 3.8438h-.8593l1.0156-3.8438h1.5Zm15.9531-7.0468-2.2656 8.7187H402.75l-1.8281-7.25-1.7969 7.25h-1.2813l-2.2968-8.7187h1.1875l1.8281 7.25 1.8125-7.25h1.1719l1.8281 7.3125 1.8125-7.3125h1.1406Z"/>
  <path fill="#fbbc04" d="M436 344.45c0 3.3137-2.6863 6-6 6s-6-2.6863-6-6 2.6863-6 6-6 6 2.6863 6 6Z"/>
  <path fill="#1a1a1a" d="M451.9063 348.8094q-.3125.1406-.5782.2656-.2656.125-.6875.2656-.3594.1094-.7812.1875-.4063.0782-.9063.0782-.9531 0-1.7344-.2657-.7812-.2656-1.3437-.8281-.5625-.5625-.8906-1.4219-.3125-.8593-.3125-2 0-1.0781.2969-1.9218.3125-.8438.8906-1.4375.5625-.5625 1.3437-.8594.7813-.3125 1.75-.3125.7031 0 1.4063.1719.7031.1718 1.5469.6093v1.375h-.0782q-.7187-.6093-1.4375-.875-.7031-.2812-1.5156-.2812-.6563 0-1.1875.2187-.5313.2032-.9531.6563-.4063.4375-.6406 1.1094-.2188.6718-.2188 1.5468 0 .9219.25 1.5938.25.6562.6406 1.0781.4219.4219.9688.6406.5469.2032 1.1562.2032.8281 0 1.5625-.2813.7344-.2969 1.375-.875h.0781v1.3594Zm8.7656-7.0781q.5312.5781.8125 1.4375.2969.8437.2969 1.9218 0 1.0782-.297 1.9375-.2812.8438-.8124 1.4063-.5313.5937-1.2656.9062-.7344.2969-1.6875.2969-.922 0-1.672-.2969-.75-.3125-1.2812-.9062-.5156-.5781-.8125-1.4219-.2812-.8437-.2812-1.9219 0-1.0625.2812-1.9062.2813-.8594.8281-1.4531.5157-.5782 1.2813-.875.7656-.3125 1.6563-.3125.9375 0 1.6875.3125.75.2968 1.2656.875Zm-.0938 3.3593q0-1.7031-.7656-2.625-.7656-.9218-2.0781-.9218-1.3281 0-2.0938.9218-.7656.9219-.7656 2.625 0 1.7188.7656 2.625.7813.9063 2.0938.9063 1.2969 0 2.0625-.9063.7812-.9062.7812-2.625Zm9.2969-1.7343q0 .5781-.2031 1.0781-.2031.5-.5625.8594-.4531.4531-1.0625.6875-.6094.2187-1.5469.2187h-1.1719v3.25h-1.1562v-8.7187h2.375q.7812 0 1.3281.125t.9688.4062q.4843.3438.75.8438.2812.5.2812 1.25Zm-1.2031.0312q0-.4531-.1563-.7812-.1562-.3282-.4844-.5469-.2812-.1875-.6406-.2656-.3594-.0782-.9062-.0782h-1.1563V345.2h.9844q.7031 0 1.1406-.125.4375-.125.7188-.3906.2656-.2813.375-.5938.125-.3125.125-.7031Z"/>
</svg>
