<svg xmlns="http://www.w3.org/2000/svg" width="717" height="303" fill="none" stroke-linecap="square" stroke-miterlimit="10">
  <path fill="#fff" d="M0 0h717v303H0V0z"/>
  <path fill="#fff" d="M0 0h717v303H0V0z"/>
  <path stroke="#333" stroke-linecap="butt" d="M223.5 45.5v184"/>
  <path stroke="#ccc" stroke-linecap="butt" d="M277.5 45.5v184M331.5 45.5v184M384.5 45.5v184M438.5 45.5v184M492.5 45.5v184M546.5 45.5v184M599.5 45.5v184M653.5 45.5v184M707.5 45.5v184"/>
  <clipPath id="a">
    <path d="M223.6 45.2h483.8V229H223.6V45.2z"/>
  </clipPath>
  <path d="M224 79V57h437a2 2 0 0 1 2 2v18a2 2 0 0 1-2 2z" clip-path="url(#a)"/>
  <path fill="#c00" d="M224 79V57h437a2 2 0 0 1 2 2v18a2 2 0 0 1-2 2z" clip-path="url(#a)"/>
  <path d="M224 114V92h306a2 2 0 0 1 2 2v18a2 2 0 0 1-2 2z" clip-path="url(#a)"/>
  <path fill="#4285f4" d="M224 114V92h306a2 2 0 0 1 2 2v18a2 2 0 0 1-2 2z" clip-path="url(#a)"/>
  <path d="M224 148v-22h164a2 2 0 0 1 2 2v18a2 2 0 0 1-2 2z" clip-path="url(#a)"/>
  <path fill="#4285f4" d="M224 148v-22h164a2 2 0 0 1 2 2v18a2 2 0 0 1-2 2z" clip-path="url(#a)"/>
  <path d="M224 182v-22h1.5c.8 0 1.5.7 1.5 1.5v19c0 .8-.7 1.5-1.5 1.5z" clip-path="url(#a)"/>
  <path fill="#4285f4" d="M224 182v-22h1.5c.8 0 1.5.7 1.5 1.5v19c0 .8-.7 1.5-1.5 1.5z" clip-path="url(#a)"/>
  <path d="M224 217v-22 22z" clip-path="url(#a)"/>
  <path fill="#4285f4" d="M224 217v-22 22z" clip-path="url(#a)"/>
  <path stroke="#c00" stroke-linecap="round" stroke-linejoin="round" stroke-width="3" d="M634.2 72v-2h-3.7v-1l4-5.6h.8V69h1.1v1h-1.1v2h-1zm0-3V65l-2.7 3.9h2.7zm3.6-1.2q0-1.6.3-2.5.4-1 1-1.4.6-.5 1.5-.5.7 0 1.2.3.6.2 1 .8.3.5.4 1.2.2.8.2 2 0 1.6-.3 2.5-.3 1-1 1.4-.5.5-1.5.5-1.2 0-2-.8-.8-1.1-.8-3.5zm1.1 0q0 2 .5 2.8.5.7 1.2.7.8 0 1.2-.7.5-.7.5-2.8 0-2.2-.5-2.8-.4-.8-1.2-.8-.7 0-1.1.7-.6.7-.6 2.9zm7.6-.5q-.7-.2-1-.6-.3-.5-.3-1.1 0-1 .6-1.6.7-.6 1.8-.6 1.2 0 1.8.6.7.7.7 1.6 0 .6-.3 1-.3.5-1 .7.9.3 1.3.9.4.5.4 1.3 0 1.1-.8 1.9-.8.7-2 .7-1.3 0-2.1-.7-.8-.8-.8-1.9 0-.8.4-1.4.5-.6 1.3-.8zm-.3-1.8q0 .7.4 1 .4.4 1 .4.7 0 1-.3.5-.4.5-1t-.5-1q-.4-.4-1-.4t-1 .4q-.4.4-.4 1zm-.3 4q0 .5.2.9t.7.6q.4.3.9.3.7 0 1.2-.5t.5-1.2q0-.8-.5-1.3t-1.3-.5q-.7 0-1.2.5t-.5 1.2zm6 .5h1.1q.1.6.5 1 .4.3 1 .3l.8-.2.6-.6.4-1 .1-1.3V68q-.3.5-.8.8-.6.3-1.2.3-1.1 0-1.8-.8-.8-.8-.8-2 0-1.3.8-2.1t2-.8q.8 0 1.5.4.7.5 1 1.3.4.9.4 2.4 0 1.7-.4 2.7-.3 1-1 1.4-.8.5-1.7.5-1 0-1.6-.5-.7-.6-.8-1.6zm4.4-3.8q0-.9-.5-1.4-.5-.5-1.1-.5-.7 0-1.3.5-.5.6-.5 1.5 0 .8.5 1.3.5.6 1.2.6.8 0 1.2-.6.5-.5.5-1.4z"/>
  <path fill="#fff" d="M634.2 72v-2h-3.7v-1l4-5.6h.8V69h1.1v1h-1.1v2h-1zm0-3V65l-2.7 3.9h2.7zm3.6-1.2q0-1.6.3-2.5.4-1 1-1.4.6-.5 1.5-.5.7 0 1.2.3.6.2 1 .8.3.5.4 1.2.2.8.2 2 0 1.6-.3 2.5-.3 1-1 1.4-.5.5-1.5.5-1.2 0-2-.8-.8-1.1-.8-3.5zm1.1 0q0 2 .5 2.8.5.7 1.2.7.8 0 1.2-.7.5-.7.5-2.8 0-2.2-.5-2.8-.4-.8-1.2-.8-.7 0-1.1.7-.6.7-.6 2.9zm7.6-.5q-.7-.2-1-.6-.3-.5-.3-1.1 0-1 .6-1.6.7-.6 1.8-.6 1.2 0 1.8.6.7.7.7 1.6 0 .6-.3 1-.3.5-1 .7.9.3 1.3.9.4.5.4 1.3 0 1.1-.8 1.9-.8.7-2 .7-1.3 0-2.1-.7-.8-.8-.8-1.9 0-.8.4-1.4.5-.6 1.3-.8zm-.3-1.8q0 .7.4 1 .4.4 1 .4.7 0 1-.3.5-.4.5-1t-.5-1q-.4-.4-1-.4t-1 .4q-.4.4-.4 1zm-.3 4q0 .5.2.9t.7.6q.4.3.9.3.7 0 1.2-.5t.5-1.2q0-.8-.5-1.3t-1.3-.5q-.7 0-1.2.5t-.5 1.2zm6 .5h1.1q.1.6.5 1 .4.3 1 .3l.8-.2.6-.6.4-1 .1-1.3V68q-.3.5-.8.8-.6.3-1.2.3-1.1 0-1.8-.8-.8-.8-.8-2 0-1.3.8-2.1t2-.8q.8 0 1.5.4.7.5 1 1.3.4.9.4 2.4 0 1.7-.4 2.7-.3 1-1 1.4-.8.5-1.7.5-1 0-1.6-.5-.7-.6-.8-1.6zm4.4-3.8q0-.9-.5-1.4-.5-.5-1.1-.5-.7 0-1.3.5-.5.6-.5 1.5 0 .8.5 1.3.5.6 1.2.6.8 0 1.2-.6.5-.5.5-1.4z"/>
  <path stroke="#4285f4" stroke-linecap="round" stroke-linejoin="round" stroke-width="3" d="M505.6 106v1H500q0-.4.2-.7.2-.6.7-1.2l1.3-1.3q1.5-1.1 2-1.8.4-.7.4-1.3 0-.6-.4-1-.5-.5-1.2-.5-.8 0-1.2.5-.5.5-.5 1.3l-1-.1q0-1.3.8-1.9.7-.6 2-.6 1.2 0 1.9.7t.7 1.7l-.2 1q-.2.5-.7 1l-1.6 1.5-1.3 1.1-.4.6h4.2zm3.1-3.7q-.6-.2-1-.6-.3-.5-.3-1.1 0-1 .7-1.6.7-.6 1.8-.6t1.8.6q.7.7.7 1.6 0 .6-.3 1-.3.5-1 .7.8.3 1.2.9.4.5.4 1.3 0 1.1-.8 1.9-.7.7-2 .7t-2-.7q-.8-.8-.8-1.9 0-.8.4-1.4.4-.6 1.2-.8zm-.2-1.8q0 .7.4 1 .4.4 1 .4t1-.3q.4-.4.4-1t-.4-1q-.4-.4-1-.4t-1 .4q-.4.4-.4 1zm-.3 4q0 .5.2.9t.6.6q.4.3 1 .3.7 0 1.1-.5.5-.5.5-1.2 0-.8-.5-1.3t-1.2-.5q-.8 0-1.3.5-.4.5-.4 1.2zm6-5v-1h5.5v.8q-.8 1-1.6 2.4t-1.3 3q-.3 1-.4 2.3h-1q0-1 .3-2.5.4-1.4 1.1-2.7l1.6-2.3H514zm12.4 6.5v1H521q0-.4.2-.7.2-.6.7-1.2l1.3-1.3q1.5-1.1 2-1.8.4-.7.4-1.3 0-.6-.4-1-.5-.5-1.2-.5-.8 0-1.2.5-.5.5-.5 1.3l-1-.1q0-1.3.8-1.9.7-.6 2-.6 1.2 0 1.9.7t.7 1.7l-.2 1q-.2.5-.7 1l-1.6 1.5-1.3 1.1-.4.6h4.2z"/>
  <path fill="#fff" d="M505.6 106v1H500q0-.4.2-.7.2-.6.7-1.2l1.3-1.3q1.5-1.1 2-1.8.4-.7.4-1.3 0-.6-.4-1-.5-.5-1.2-.5-.8 0-1.2.5-.5.5-.5 1.3l-1-.1q0-1.3.8-1.9.7-.6 2-.6 1.2 0 1.9.7t.7 1.7l-.2 1q-.2.5-.7 1l-1.6 1.5-1.3 1.1-.4.6h4.2zm3.1-3.7q-.6-.2-1-.6-.3-.5-.3-1.1 0-1 .7-1.6.7-.6 1.8-.6t1.8.6q.7.7.7 1.6 0 .6-.3 1-.3.5-1 .7.8.3 1.2.9.4.5.4 1.3 0 1.1-.8 1.9-.7.7-2 .7t-2-.7q-.8-.8-.8-1.9 0-.8.4-1.4.4-.6 1.2-.8zm-.2-1.8q0 .7.4 1 .4.4 1 .4t1-.3q.4-.4.4-1t-.4-1q-.4-.4-1-.4t-1 .4q-.4.4-.4 1zm-.3 4q0 .5.2.9t.6.6q.4.3 1 .3.7 0 1.1-.5.5-.5.5-1.2 0-.8-.5-1.3t-1.2-.5q-.8 0-1.3.5-.4.5-.4 1.2zm6-5v-1h5.5v.8q-.8 1-1.6 2.4t-1.3 3q-.3 1-.4 2.3h-1q0-1 .3-2.5.4-1.4 1.1-2.7l1.6-2.3H514zm12.4 6.5v1H521q0-.4.2-.7.2-.6.7-1.2l1.3-1.3q1.5-1.1 2-1.8.4-.7.4-1.3 0-.6-.4-1-.5-.5-1.2-.5-.8 0-1.2.5-.5.5-.5 1.3l-1-.1q0-1.3.8-1.9.7-.6 2-.6 1.2 0 1.9.7t.7 1.7l-.2 1q-.2.5-.7 1l-1.6 1.5-1.3 1.1-.4.6h4.2z"/>
  <path stroke="#4285f4" stroke-linecap="round" stroke-linejoin="round" stroke-width="3" d="M361.5 141h-1v-6.7l-1 .7-1.2.5v-1q1-.4 1.6-1l1-1.1h.6v8.6zm3-2.3h1.1q.2.8.6 1.2.4.4 1 .4.8 0 1.4-.6.5-.6.5-1.5 0-1-.5-1.4-.5-.6-1.3-.6-.5 0-1 .3-.4.2-.6.6l-1-.2.8-4.4h4.3v1h-3.4l-.5 2.3q.8-.5 1.6-.5 1.2 0 2 .8.7.8.7 2t-.7 2q-.8 1-2.2 1-1.2 0-2-.6-.7-.7-.8-1.8zM375 141v-2h-3.7v-1l3.9-5.6h.9v5.6h1.1v1H376v2h-1.1zm0-3V134l-2.7 3.9h2.7zm9-3.5h-1q-.1-.5-.4-.8-.4-.5-1-.5-.5 0-.9.3-.5.4-.8 1-.3.8-.3 2 .4-.5 1-.8.5-.3 1.1-.3 1 0 1.8.8.7.8.7 2 0 .8-.3 1.5-.4.7-1 1-.6.4-1.3.4-1.4 0-2.2-1-.8-.9-.8-3.1 0-2.5.9-3.6.8-1 2.1-1 1 0 1.7.6.7.5.8 1.5zm-4.2 3.7q0 .6.2 1 .2.6.6.8.5.3 1 .3.6 0 1-.6.6-.5.6-1.4 0-1-.5-1.4-.5-.5-1.2-.5t-1.2.5q-.5.5-.5 1.3z"/>
  <path fill="#fff" d="M361.5 141h-1v-6.7l-1 .7-1.2.5v-1q1-.4 1.6-1l1-1.1h.6v8.6zm3-2.3h1.1q.2.8.6 1.2.4.4 1 .4.8 0 1.4-.6.5-.6.5-1.5 0-1-.5-1.4-.5-.6-1.3-.6-.5 0-1 .3-.4.2-.6.6l-1-.2.8-4.4h4.3v1h-3.4l-.5 2.3q.8-.5 1.6-.5 1.2 0 2 .8.7.8.7 2t-.7 2q-.8 1-2.2 1-1.2 0-2-.6-.7-.7-.8-1.8zM375 141v-2h-3.7v-1l3.9-5.6h.9v5.6h1.1v1H376v2h-1.1zm0-3V134l-2.7 3.9h2.7zm9-3.5h-1q-.1-.5-.4-.8-.4-.5-1-.5-.5 0-.9.3-.5.4-.8 1-.3.8-.3 2 .4-.5 1-.8.5-.3 1.1-.3 1 0 1.8.8.7.8.7 2 0 .8-.3 1.5-.4.7-1 1-.6.4-1.3.4-1.4 0-2.2-1-.8-.9-.8-3.1 0-2.5.9-3.6.8-1 2.1-1 1 0 1.7.6.7.5.8 1.5zm-4.2 3.7q0 .6.2 1 .2.6.6.8.5.3 1 .3.6 0 1-.6.6-.5.6-1.4 0-1-.5-1.4-.5-.5-1.2-.5t-1.2.5q-.5.5-.5 1.3z"/>
  <path stroke="#fff" stroke-linecap="round" stroke-linejoin="round" stroke-width="3" d="M239.3 172.7l1-.1q.3.9.7 1.3.4.4 1 .4.8 0 1.3-.5.5-.6.5-1.3 0-.7-.4-1.2-.5-.5-1.2-.5l-.8.1.1-.9h.2q.7 0 1.2-.3.5-.4.5-1.1 0-.6-.3-1-.4-.4-1-.4-.7 0-1 .4-.5.4-.6 1.2l-1-.2q.1-1 .8-1.6.7-.6 1.7-.6.7 0 1.3.3.6.3 1 .8.2.5.2 1.1 0 .6-.3 1-.3.5-.8.7.7.2 1.1.8.4.5.4 1.4 0 1-.8 1.9-.8.8-2 .8t-2-.7q-.7-.7-.8-1.8zm7-2q0-1.5.3-2.4.3-1 1-1.4.6-.5 1.5-.5.7 0 1.2.3.6.2.9.8l.5 1.2q.2.8.2 2 0 1.6-.3 2.5-.3 1-1 1.4-.5.5-1.5.5-1.2 0-2-.8-.8-1.1-.8-3.5zm1.1 0q0 2.2.5 2.9.5.7 1.2.7.8 0 1.2-.7.5-.7.5-2.8 0-2.2-.5-2.8-.4-.8-1.2-.8-.7 0-1.2.7t-.5 2.9z"/>
  <path fill="#4285f4" d="M239.3 172.7l1-.1q.3.9.7 1.3.4.4 1 .4.8 0 1.3-.5.5-.6.5-1.3 0-.7-.4-1.2-.5-.5-1.2-.5l-.8.1.1-.9h.2q.7 0 1.2-.3.5-.4.5-1.1 0-.6-.3-1-.4-.4-1-.4-.7 0-1 .4-.5.4-.6 1.2l-1-.2q.1-1 .8-1.6.7-.6 1.7-.6.7 0 1.3.3.6.3 1 .8.2.5.2 1.1 0 .6-.3 1-.3.5-.8.7.7.2 1.1.8.4.5.4 1.4 0 1-.8 1.9-.8.8-2 .8t-2-.7q-.7-.7-.8-1.8zm7-2q0-1.5.3-2.4.3-1 1-1.4.6-.5 1.5-.5.7 0 1.2.3.6.2.9.8l.5 1.2q.2.8.2 2 0 1.6-.3 2.5-.3 1-1 1.4-.5.5-1.5.5-1.2 0-2-.8-.8-1.1-.8-3.5zm1.1 0q0 2.2.5 2.9.5.7 1.2.7.8 0 1.2-.7.5-.7.5-2.8 0-2.2-.5-2.8-.4-.8-1.2-.8-.7 0-1.2.7t-.5 2.9z"/>
  <path stroke="#fff" stroke-linecap="round" stroke-linejoin="round" stroke-width="3" d="M236.9 202.5v-1h5.6v.8l-1.7 2.4q-.8 1.4-1.2 3-.3 1-.4 2.3h-1q0-1 .3-2.5.4-1.4 1-2.7l1.6-2.3H237z"/>
  <path fill="#4285f4" d="M236.9 202.5v-1h5.6v.8l-1.7 2.4q-.8 1.4-1.2 3-.3 1-.4 2.3h-1q0-1 .3-2.5.4-1.4 1-2.7l1.6-2.3H237z"/>
  <path fill="#424242" d="M436.4 283.4v-8.6h1.7l2 6.1.4 1.3.5-1.4 2-6h1.6v8.6h-1.1v-7.2l-2.5 7.2h-1l-2.5-7.3v7.3h-1.1zm9.9-7.3v-1.3h1v1.3h-1zm0 7.3v-6.2h1v6.2h-1zm3 0v-8.6h1v8.6h-1zm3-7.3v-1.3h1v1.3h-1zm-1.3 9.8l.1-1 .5.1q.4 0 .5-.2.2-.2.2-1v-6.6h1v6.6q0 1.1-.3 1.6-.3.6-1.2.6l-.8-.1zm3.9-5.6q0-1.7 1-2.5.8-.7 2-.7t2 .8q.8.8.8 2.3 0 1.2-.3 2-.4.6-1 1-.8.4-1.6.4-1.3 0-2.1-.9-.8-.8-.8-2.4zm1 0q0 1.2.6 1.8.5.6 1.3.6t1.3-.6q.5-.6.5-1.8 0-1.2-.5-1.8-.5-.6-1.3-.6t-1.3.6q-.5.6-.5 1.8zm6.4 3.1v-6.2h1v.9q.6-1 2-1l1 .2.7.5.3.8v4.8h-1v-3.8l-.1-1-.5-.4q-.3-.2-.7-.2-.7 0-1.2.4t-.5 1.6v3.4h-1zm7-7.3v-1.3h1v1.3h-1zm0 7.3v-6.2h1v6.2h-1zm10.2-2l1.1.2q-.2 1-1 1.4-.6.6-1.7.6-1.4 0-2.2-.9-.8-.8-.8-2.3 0-1.6.8-2.5.9-.8 2.1-.8 1.3 0 2 .8.9.9.9 2.4v.3H476q0 1 .6 1.6.5.5 1.3.5.6 0 1-.3t.6-1zm-3.4-1.7h3.5q-.1-.8-.4-1.2-.5-.6-1.3-.6t-1.3.5q-.5.5-.5 1.3zm6.2-3.6v-1.3h1v1.3h-1zm0 7.3v-6.2h1v6.2h-1zm3 0v-6.2h1v1q.3-.7.6-1l.7-.1q.5 0 1 .3l-.3 1q-.4-.3-.8-.3-.3 0-.6.3-.3.2-.4.5-.2.6-.2 1.3v3.2h-1zm3.6-3q0-1.8 1-2.6.8-.7 2-.7t2 .8q.8.8.8 2.3 0 1.2-.3 2-.4.6-1 1-.8.4-1.6.4-1.3 0-2.1-.9-.8-.8-.8-2.4zm1 0q0 1.1.6 1.7.5.6 1.3.6t1.3-.6q.5-.6.5-1.8 0-1.2-.5-1.8-.5-.6-1.3-.6t-1.3.6q-.5.6-.5 1.8z"/>
  <path fill="#000" d="M88.6 73.4l-4-10h1.5l2.6 7.2.6 1.7.5-1.7 2.7-7.2H94l-4 10h-1.3zm10.7-1q-.7.7-1.3 1-.6.2-1.4.2-1.2 0-1.8-.6-.7-.6-.7-1.5 0-.6.3-1 .2-.4.6-.7.4-.3.9-.4l1-.2 2.3-.4v-.3q0-.8-.3-1.1-.5-.4-1.5-.4-.8 0-1.2.3-.4.3-.6 1l-1.2-.1q.1-.8.5-1.3l1-.7q.8-.2 1.7-.2 1 0 1.5.2.6.2.9.5.3.4.4.9v2.7l.1 2.2q0 .5.3.9h-1.3l-.2-1zm-.1-2.7q-.7.3-2 .5-.8.1-1.1.3-.3 0-.5.3l-.2.6q0 .5.4.9.4.3 1.1.3.7 0 1.3-.3.5-.3.8-.9.2-.4.2-1.2v-.5zm3.3 3.7v-10h1.3v10h-1.3zm2.6-2.2l1.2-.2q0 .8.6 1.1.4.4 1.3.4.8 0 1.2-.3.4-.4.4-.8t-.3-.7l-1.3-.4q-1.3-.3-1.9-.6-.5-.2-.8-.7-.2-.4-.2-1l.2-.8q.2-.5.6-.7l.8-.4 1-.1q.9 0 1.5.2.7.2 1 .7.3.4.4 1l-1.2.3q0-.6-.5-1-.4-.2-1-.2-1 0-1.3.3-.3.2-.3.6l.1.4.5.4 1 .3q1.4.3 1.9.6.5.2.8.6.3.4.3 1 0 .7-.4 1.2-.3.5-1 .9-.7.3-1.5.3-1.4 0-2.2-.6-.7-.6-1-1.8zm10.1 1l.2 1.2h-1l-1-.1q-.3-.2-.5-.6l-.1-1.4V67h-1v-1h1v-1.8l1.2-.7V66h1.2v1H114V72l.3.2.4.1h.5zm.9-1l1.2-.2q0 .8.6 1.1.4.4 1.3.4.8 0 1.2-.3.4-.4.4-.8t-.3-.7l-1.3-.4q-1.3-.3-1.9-.6-.5-.2-.8-.7-.2-.4-.2-1l.2-.8q.2-.5.6-.7l.8-.4 1-.1q.9 0 1.5.2.7.2 1 .7.3.4.4 1l-1.2.3q0-.6-.5-1-.4-.2-1-.2-1 0-1.3.3-.3.2-.3.6l.1.4.5.4 1 .3q1.4.3 1.9.6.5.2.8.6.3.4.3 1 0 .7-.4 1.2-.3.5-1 .9-.7.3-1.5.3-1.4 0-2.2-.6-.7-.6-1-1.8zm11.5 5v-10h1v.9q.5-.6 1-.9.5-.2 1.2-.2 1 0 1.6.4.7.5 1 1.4.5.9.5 1.9 0 1.1-.5 2-.3.9-1.1 1.4-.8.5-1.6.5-.6 0-1.1-.3-.5-.3-.8-.7v3.6h-1.2zm1-6.4q0 1.4.6 2 .6.7 1.4.7.8 0 1.4-.7.6-.7.6-2.1 0-1.4-.6-2-.5-.8-1.3-.8t-1.4.8q-.6.7-.6 2zm11.7 2.7q-.7.6-1.3.8-.6.3-1.4.3-1.2 0-1.8-.6-.7-.6-.7-1.5 0-.6.3-1 .2-.4.6-.7.4-.3.9-.4l1-.2 2.3-.4v-.3q0-.8-.3-1.1-.5-.4-1.5-.4-.8 0-1.2.3-.4.3-.6 1l-1.2-.1q.1-.8.5-1.3l1-.7q.8-.2 1.7-.2 1 0 1.5.2.6.2.9.5.3.4.4.9v2.7l.1 2.2q0 .5.3.9h-1.3l-.2-1zm-.1-2.8q-.7.3-2 .5-.8.1-1.1.3-.3 0-.5.3l-.2.6q0 .5.4.9.4.3 1.1.3.7 0 1.3-.3.5-.3.8-.9.2-.4.2-1.2v-.5zm3.4 3.7V66h1v1q.4-.5 1-.8.5-.3 1.3-.3t1.3.3q.5.3.7 1 .9-1.3 2.2-1.3 1.1 0 1.7.6.6.5.6 1.8v5h-1.2v-4.6q0-.7-.2-1 0-.4-.4-.6-.3-.2-.7-.2-.8 0-1.3.5t-.5 1.7v4.2h-1.2v-4.7q0-.9-.3-1.3t-1-.4q-.5 0-1 .3-.4.3-.6.8-.2.5-.2 1.5v3.8h-1.2zm16.7-1q-.7.7-1.3 1-.6.2-1.4.2-1.2 0-1.8-.6-.7-.6-.7-1.5 0-.6.3-1 .2-.4.6-.7.4-.3.9-.4l1-.2 2.3-.4v-.3q0-.8-.3-1.1-.5-.4-1.5-.4-.8 0-1.2.3-.4.3-.6 1l-1.2-.1q.1-.8.5-1.3l1-.7q.8-.2 1.7-.2 1 0 1.5.2.6.2.9.5.3.4.4.9v2.7l.1 2.2q0 .5.3.9h-1.3l-.2-1zm-.1-2.7q-.7.3-2 .5-.8.1-1.1.3-.3 0-.5.3l-.2.6q0 .5.4.9.4.3 1.1.3.7 0 1.3-.3.5-.3.8-.9.2-.4.2-1.2v-.5zm6 2.6l.2 1-1 .2q-.6 0-1-.2-.3-.2-.5-.6l-.1-1.4V67h-1v-1h1v-1.8l1.2-.7V66h1.2v1H165V72l.3.2.4.1h.5zm2.5 1h-1.1v-10h1.2V67q.8-1 2-1 .6 0 1.2.3t1 .8q.4.5.6 1.2.3.6.3 1.4 0 2-1 3t-2.2 1q-1.3 0-2-1.1v.9zm0-3.6q0 1.3.3 1.9.6 1 1.6 1 .8 0 1.4-.8.6-.7.6-2 0-1.5-.6-2.2-.5-.6-1.3-.6t-1.4.7q-.6.7-.6 2zm11.6 3.7v-1q-.8 1.2-2.3 1.2-.6 0-1.2-.3-.5-.2-.8-.6-.3-.4-.4-1v-5.6h1.2v5.3q.1.5.5.8.4.3 1 .3.5 0 1-.3t.7-.8q.2-.5.2-1.4v-3.9h1.2v7.3h-1zm8 0v-1q-.7 1.2-2 1.2-1 0-1.7-.5t-1-1.4q-.5-.8-.5-2 0-1 .4-2 .3-.8 1-1.3.8-.4 1.7-.4l1.2.2q.5.3.8.8v-3.6h1.2v10h-1.1zm-4-3.6q0 1.3.7 2 .6.7 1.4.7.8 0 1.3-.6.6-.7.6-2 0-1.5-.6-2.2-.6-.7-1.4-.7-.8 0-1.4.6-.5.7-.5 2.2zm6.6 3.6v-1l4.6-5.3h-4.4v-1h6v.8l-4 4.6-.7.9h4.9v1H191zm5.4-10.3l-1.6 2h-1.3l-1.4-2h1.4l.7 1.2.8-1.2h1.4zm7.2 8h1.3q-.3 1.2-1.1 1.8-.8.7-2.1.7-1.6 0-2.5-1-1-1-1-2.8 0-1.8 1-2.8 1-1 2.4-1 1.5 0 2.4 1 1 1 1 2.7v.4h-5.5q0 1.2.7 1.8.6.6 1.5.6.7 0 1.2-.3.4-.4.7-1.2zm-4-2h4q0-1-.4-1.4-.6-.7-1.5-.7-1 0-1.5.5-.5.6-.6 1.6zm9.7 3.2l.2 1-1 .2q-.6 0-1-.2-.3-.2-.5-.6l-.1-1.4V67h-1v-1h1v-1.8l1.2-.7V66h1.2v1H208V72l.3.2.4.1h.5zm.9-1l1.2-.3q0 .8.6 1.1.4.4 1.3.4.8 0 1.2-.3.4-.4.4-.8t-.3-.7l-1.3-.4q-1.3-.3-1.9-.6-.5-.2-.8-.7-.2-.4-.2-1l.2-.8q.2-.5.6-.7l.8-.4 1-.1q.9 0 1.5.2.7.2 1 .7.3.4.4 1l-1.2.3q0-.6-.5-1-.4-.2-1-.2-1 0-1.3.3-.3.2-.3.6l.1.4.5.4 1 .3q1.4.3 1.9.6.5.2.8.6.3.4.3 1 0 .7-.4 1.2-.3.5-1 .9-.7.3-1.5.3-1.4 0-2.2-.6-.7-.6-1-1.8zM22.6 99.2l-4-10h1.5l2.6 7.3.6 1.7.5-1.7 2.7-7.3H28l-4 10h-1.3zm10.7-.8l-1.3.8q-.6.2-1.4.2-1.2 0-1.8-.6-.7-.6-.7-1.5 0-.5.3-1 .2-.4.6-.6l.9-.5 1-.1q1.6-.2 2.3-.5v-.3q0-.7-.3-1-.5-.5-1.5-.5-.8 0-1.2.4-.4.2-.6 1l-1.2-.1q.1-.8.5-1.3t1-.7q.8-.3 1.7-.3 1 0 1.5.2l.9.6q.3.3.4.8v2.8l.1 2.2q0 .4.3.8h-1.3l-.2-.8zm-.1-2.8q-.7.3-2 .5-.8 0-1.1.2-.3.1-.5.4l-.2.6q0 .5.4.8.4.3 1.1.3.7 0 1.3-.3.5-.3.8-.8.2-.4.2-1.2v-.5zm3.3 3.6v-10h1.3v10h-1.3zm2.6-2.1l1.2-.2q0 .7.6 1.1.4.4 1.3.4.8 0 1.2-.3.4-.4.4-.9 0-.4-.3-.6-.3-.2-1.3-.4l-1.9-.6q-.5-.3-.8-.7l-.2-1q0-.5.2-.9t.6-.7l.8-.3 1-.2q.9 0 1.5.3.7.2 1 .6.3.5.4 1.2l-1.2.1q0-.5-.5-.8-.4-.4-1-.4-1 0-1.3.3-.3.3-.3.7l.1.4.5.3 1 .3 1.9.6q.5.2.8.7.3.4.3 1t-.4 1.2q-.3.5-1 .8-.7.3-1.5.3-1.4 0-2.2-.6-.7-.6-1-1.7zm10.1 1l.2 1.1-1 .1q-.6 0-1-.2l-.5-.5-.1-1.5V93h-1v-1h1v-1.7l1.2-.8V92h1.2v1H48v4.9l.3.2.4.1h.5zm.9-1l1.2-.2q0 .7.6 1.1.4.4 1.3.4.8 0 1.2-.3.4-.4.4-.9 0-.4-.3-.6-.3-.2-1.3-.4l-1.9-.6q-.5-.3-.8-.7l-.2-1q0-.5.2-.9t.6-.7l.8-.3 1-.2q.9 0 1.5.3.7.2 1 .6.3.5.4 1.2l-1.2.1q0-.5-.5-.8-.4-.4-1-.4-1 0-1.3.3-.3.3-.3.7l.1.4.5.3 1 .3 1.9.6q.5.2.8.7.3.4.3 1t-.4 1.2q-.3.5-1 .8-.7.3-1.5.3-1.4 0-2.2-.6-.7-.6-1-1.7zm11 0l1.2-.2q0 .7.6 1.1.4.4 1.3.4.8 0 1.2-.3.4-.4.4-.9 0-.4-.3-.6-.3-.2-1.3-.4l-1.9-.6q-.5-.3-.8-.7l-.2-1q0-.5.2-.9t.6-.7l.8-.3 1-.2q.9 0 1.5.3.7.2 1 .6.3.5.4 1.2l-1.2.1q0-.5-.5-.8-.4-.4-1-.4-1 0-1.3.3-.3.3-.3.7l.1.4.5.3 1 .3 1.9.6q.5.2.8.7.3.4.3 1t-.4 1.2q-.3.5-1 .8-.7.3-1.5.3-1.4 0-2.2-.6-.7-.6-1-1.7zm7-1.5q0-2 1.1-3 1-.8 2.3-.8 1.5 0 2.4 1 1 1 1 2.7 0 1.4-.4 2.2-.4.8-1.3 1.3-.8.4-1.7.4-1.5 0-2.5-1-.9-1-.9-2.8zm1.3 0q0 1.4.6 2.1.6.7 1.5.7 1 0 1.5-.7.6-.7.6-2.1 0-1.4-.6-2-.6-.8-1.5-.8-1 0-1.5.7-.6.7-.6 2.1zm11.9 1l1.2.1q-.2 1.3-1 2t-2 .7q-1.5 0-2.4-1-1-1-1-2.8 0-1.1.5-2 .4-.9 1.2-1.3.8-.5 1.7-.5 1.2 0 2 .6.7.6.9 1.7l-1.2.2q-.2-.7-.6-1-.5-.5-1-.5-1 0-1.6.7-.6.7-.6 2.1 0 1.5.6 2.1.6.7 1.5.7.7 0 1.2-.4.5-.5.6-1.4zm2.3-6v-1.4h1.2v1.4h-1.2zm0 8.6V92h1.2v7.2h-1.2zm7.7-.8l-1.3.8q-.6.2-1.4.2-1.2 0-1.8-.6-.7-.6-.7-1.5 0-.5.3-1 .2-.4.6-.6l.9-.5 1-.1q1.6-.2 2.3-.5v-.3q0-.7-.3-1-.5-.5-1.5-.5-.8 0-1.2.4-.4.2-.6 1l-1.2-.1q.1-.8.5-1.3t1-.7q.8-.3 1.7-.3 1 0 1.5.2l.9.6q.3.3.4.8v2.8l.1 2.2q0 .4.3.8h-1.3l-.2-.8zm-.1-2.8q-.7.3-2 .5-.8 0-1.1.2-.3.1-.5.4l-.2.6q0 .5.4.8.4.3 1.1.3.7 0 1.3-.3.5-.3.8-.8.2-.4.2-1.2v-.5zm.3-4.7h-4.3v-1h4.3v1zm3 8.3v-10h1.3v10h-1.3zm7.8-.8l-1.3.8q-.6.2-1.4.2-1.2 0-1.8-.6-.7-.6-.7-1.5 0-.5.3-1 .2-.4.6-.6l.9-.5 1-.1q1.6-.2 2.3-.5v-.3q0-.7-.3-1-.5-.5-1.5-.5-.8 0-1.2.4-.4.2-.6 1l-1.2-.1q.1-.8.5-1.3t1-.7q.8-.3 1.7-.3 1 0 1.5.2l.9.6q.3.3.4.8v2.8l.1 2.2q0 .4.3.8h-1.3l-.2-.8zm-.1-2.8q-.7.3-2 .5-.8 0-1.1.2-.3.1-.5.4l-.2.6q0 .5.4.8.4.3 1.1.3.7 0 1.3-.3.5-.3.8-.8.2-.4.2-1.2v-.5zm.3-4.7h-4.3v-1h4.3v1zm2.6 6.2l1.2-.2q0 .7.6 1.1.4.4 1.3.4.8 0 1.2-.3.4-.4.4-.9 0-.4-.3-.6-.3-.2-1.3-.4l-1.9-.6q-.5-.3-.8-.7l-.2-1q0-.5.2-.9t.6-.7l.8-.3 1-.2q.9 0 1.5.3.7.2 1 .6.3.5.4 1.2l-1.2.1q0-.5-.5-.8-.4-.4-1-.4-1 0-1.3.3-.3.3-.3.7l.1.4.5.3 1 .3 1.9.6q.5.2.8.7.3.4.3 1t-.4 1.2q-.3.5-1 .8-.7.3-1.5.3-1.4 0-2.2-.6-.7-.6-1-1.7zm16.2 1.3l-1.3.8q-.6.2-1.4.2-1.2 0-1.8-.6-.7-.6-.7-1.5 0-.5.3-1 .2-.4.6-.6l.9-.5 1-.1q1.6-.2 2.3-.5v-.3q0-.7-.3-1-.5-.5-1.5-.5-.8 0-1.2.4-.4.2-.6 1l-1.2-.1q.1-.8.5-1.3t1-.7q.8-.3 1.7-.3 1 0 1.5.2l.9.6q.3.3.4.8v2.8l.1 2.2q0 .4.3.8h-1.3l-.2-.8zm-.1-2.8q-.7.3-2 .5-.8 0-1.1.2-.3.1-.5.4l-.2.6q0 .5.4.8.4.3 1.1.3.7 0 1.3-.3.5-.3.8-.8.2-.4.2-1.2v-.5zm3.4 6.4V92h1v1q.5-.6 1-.9.5-.3 1.2-.3 1 0 1.6.5.7.5 1 1.4.5.8.5 1.9 0 1-.5 2-.3.9-1.1 1.3-.8.5-1.6.5-.6 0-1.1-.2-.5-.3-.8-.7v3.5h-1.2zm1-6.3q0 1.4.6 2 .6.7 1.4.7.8 0 1.4-.7.6-.7.6-2.1 0-1.4-.6-2.1-.5-.7-1.3-.7t-1.4.7q-.6.8-.6 2.2zm11.7 3.5v-.9q-.7 1.1-2 1.1-1 0-1.7-.5t-1-1.3q-.5-.9-.5-2 0-1 .4-2 .3-.8 1-1.3.8-.5 1.7-.5.6 0 1.2.3.5.3.8.7v-3.6h1.2v10h-1.1zm-4-3.6q0 1.4.7 2.1.6.7 1.4.7.8 0 1.3-.7.6-.6.6-2 0-1.5-.6-2.2-.6-.7-1.4-.7-.8 0-1.4.7-.5.7-.5 2.1zm7.2 3.6V92h1.1v1l.8-1 .8-.2q.7 0 1.3.4l-.4 1.2q-.5-.3-1-.3l-.7.2q-.3.3-.4.7l-.2 1.4v3.8h-1.3zm4.6-3.6q0-2 1.1-3 1-.8 2.3-.8 1.5 0 2.4 1 1 1 1 2.7 0 1.4-.4 2.2-.4.8-1.3 1.3-.8.4-1.7.4-1.5 0-2.5-1-.9-1-.9-2.8zm1.3 0q0 1.4.6 2.1.6.7 1.5.7 1 0 1.5-.7.6-.7.6-2.1 0-1.4-.6-2-.6-.8-1.5-.8-1 0-1.5.7-.6.7-.6 2.1zm6.7 1.5l1.2-.2q0 .7.6 1.1.4.4 1.3.4.8 0 1.2-.3.4-.4.4-.9 0-.4-.3-.6-.3-.2-1.3-.4l-1.9-.6q-.5-.3-.8-.7l-.2-1q0-.5.2-.9t.6-.7l.8-.3 1-.2q.9 0 1.5.3.7.2 1 .6.3.5.4 1.2l-1.2.1q0-.5-.5-.8-.4-.4-1-.4-1 0-1.3.3-.3.3-.3.7l.1.4.5.3 1 .3 1.9.6q.5.2.8.7.3.4.3 1t-.4 1.2q-.3.5-1 .8-.7.3-1.5.3-1.4 0-2.2-.6-.7-.6-1-1.7zm5-8.1l-1.5 2h-1.3l-1.5-2h1.4l.8 1.2.7-1.2h1.5zm2.5 1.6v-1.4h1.2v1.4h-1.2zm0 8.6V92h1.2v7.2h-1.2zm3 0V92h1v1q.9-1.2 2.4-1.2.6 0 1.2.3.5.2.8.6.3.4.4.9V99.2h-1.2v-4.4l-.1-1q-.2-.5-.5-.7-.4-.2-.9-.2-.8 0-1.3.5-.6.5-.6 1.9v4h-1.2zm12.7-.8l-1.3.8q-.6.2-1.4.2-1.2 0-1.8-.6-.7-.6-.7-1.5 0-.5.3-1 .2-.4.6-.6l.9-.5 1-.1q1.6-.2 2.3-.5v-.3q0-.7-.3-1-.5-.5-1.5-.5-.8 0-1.2.4-.4.2-.6 1l-1.2-.1q.1-.8.5-1.3t1-.7q.8-.3 1.7-.3 1 0 1.5.2l.9.6q.3.3.4.8v2.8l.1 2.2q0 .4.3.8h-1.3l-.2-.8zm-.1-2.8q-.7.3-2 .5-.8 0-1.1.2-.3.1-.5.4l-.2.6q0 .5.4.8.4.3 1.1.3.7 0 1.3-.3.5-.3.8-.8.2-.4.2-1.2v-.5zm.3-4.7h-4.3v-1h4.3v1zm2.6 6.2l1.2-.2q0 .7.6 1.1.4.4 1.3.4.8 0 1.2-.3.4-.4.4-.9 0-.4-.3-.6-.3-.2-1.3-.4l-1.9-.6q-.5-.3-.8-.7l-.2-1q0-.5.2-.9t.6-.7l.8-.3 1-.2q.9 0 1.5.3.7.2 1 .6.3.5.4 1.2l-1.2.1q0-.5-.5-.8-.4-.4-1-.4-1 0-1.3.3-.3.3-.3.7l.1.4.5.3 1 .3 1.9.6q.5.2.8.7.3.4.3 1t-.4 1.2q-.3.5-1 .8-.7.3-1.5.3-1.4 0-2.2-.6-.7-.6-1-1.7zm5-8.1l-1.5 2h-1.3l-1.5-2h1.4l.8 1.2.7-1.2h1.5zm7.2 9.4l-1.3.8q-.6.2-1.4.2-1.2 0-1.8-.6-.7-.6-.7-1.5 0-.5.3-1 .2-.4.6-.6l.9-.5 1-.1q1.6-.2 2.3-.5v-.3q0-.7-.3-1-.5-.5-1.5-.5-.8 0-1.2.4-.4.2-.6 1l-1.2-.1q.1-.8.5-1.3t1-.7q.8-.3 1.7-.3 1 0 1.5.2l.9.6q.3.3.4.8v2.8l.1 2.2q0 .4.3.8h-1.3l-.2-.8zm-.1-2.8q-.7.3-2 .5-.8 0-1.1.2-.3.1-.5.4l-.2.6q0 .5.4.8.4.3 1.1.3.7 0 1.3-.3.5-.3.8-.8.2-.4.2-1.2v-.5zm3.4 3.6V92h1v1q.9-1.2 2.4-1.2.6 0 1.2.3.5.2.8.6.3.4.4.9V99.2h-1.2v-4.4l-.1-1q-.2-.5-.5-.7-.4-.2-.9-.2-.8 0-1.3.5-.6.5-.6 1.9v4h-1.2zm12.7-.8l-1.3.8q-.6.2-1.4.2-1.2 0-1.8-.6-.7-.6-.7-1.5 0-.5.3-1 .2-.4.6-.6l.9-.5 1-.1q1.6-.2 2.3-.5v-.3q0-.7-.3-1-.5-.5-1.5-.5-.8 0-1.2.4-.4.2-.6 1l-1.2-.1q.1-.8.5-1.3t1-.7q.8-.3 1.7-.3 1 0 1.5.2l.9.6q.3.3.4.8v2.8l.1 2.2q0 .4.3.8h-1.3l-.2-.8zm-.1-2.8q-.7.3-2 .5-.8 0-1.1.2-.3.1-.5.4l-.2.6q0 .5.4.8.4.3 1.1.3.7 0 1.3-.3.5-.3.8-.8.2-.4.2-1.2v-.5zm2.9 1.5l1.2-.2q0 .7.6 1.1.4.4 1.3.4.8 0 1.2-.3.4-.4.4-.9 0-.4-.3-.6-.3-.2-1.3-.4l-1.9-.6q-.5-.3-.8-.7l-.2-1q0-.5.2-.9t.6-.7l.8-.3 1-.2q.9 0 1.5.3.7.2 1 .6.3.5.4 1.2l-1.2.1q0-.5-.5-.8-.4-.4-1-.4-1 0-1.3.3-.3.3-.3.7l.1.4.5.3 1 .3 1.9.6q.5.2.8.7.3.4.3 1t-.4 1.2q-.3.5-1 .8-.7.3-1.5.3-1.4 0-2.2-.6-.7-.6-1-1.7zM96.1 112.6q0-2 1.1-3 1-.8 2.3-.8 1.5 0 2.4 1 1 1 1 2.7 0 1.4-.4 2.2-.4.8-1.3 1.3-.8.4-1.7.4-1.5 0-2.5-1-.9-1-.9-2.8zm1.3 0q0 1.4.6 2.1.6.7 1.5.7 1 0 1.5-.7.6-.7.6-2.1 0-1.4-.6-2-.6-.8-1.5-.8-1 0-1.5.7-.6.7-.6 2.1zm8.3 3.6h-1.1v-10h1.2v3.6q.8-1 2-1 .6 0 1.2.3t1 .8q.4.4.6 1.1.3.7.3 1.5 0 1.9-1 2.9t-2.2 1q-1.3 0-2-1v.8zm0-3.6q0 1.3.3 1.8.6 1 1.6 1 .8 0 1.4-.7.6-.7.6-2 0-1.5-.6-2.2-.5-.7-1.3-.7t-1.4.7q-.6.7-.6 2zm6.8 3.6v-10h1.3v10h-1.3zm3-8.6v-1.4h1.3v1.4h-1.2zm0 8.6V109h1.3v7.2h-1.2zm2.8.7l1.2.1q.1.6.4.8.5.4 1.3.4.9 0 1.3-.4.5-.3.6-1l.1-1.5q-.8 1-2 1-1.5 0-2.3-1.1-.8-1.1-.8-2.6 0-1 .4-2 .3-.8 1-1.3.8-.5 1.7-.5 1.3 0 2.2 1v-.8h1v6.3q0 1.7-.3 2.4t-1 1q-.8.5-2 .5t-2-.6q-.8-.6-.8-1.7zm1-4.4q0 1.4.6 2 .6.7 1.4.7.9 0 1.5-.6.5-.7.5-2 0-1.4-.6-2-.6-.8-1.4-.8-.8 0-1.4.7-.5.7-.5 2zm12 2.9l-1.3.8q-.6.2-1.4.2-1.2 0-1.8-.6-.7-.6-.7-1.5 0-.5.3-1 .2-.4.6-.6l.9-.5 1-.1q1.6-.2 2.3-.5v-.3q0-.7-.3-1-.5-.5-1.5-.5-.8 0-1.2.4-.4.2-.6 1l-1.2-.1q.1-.8.5-1.3t1-.7q.8-.3 1.7-.3 1 0 1.5.2l.9.6q.3.3.4.8v2.8l.1 2.2q0 .4.3.8h-1.3l-.2-.8zm-.1-2.8q-.7.3-2 .5-.8 0-1.1.2-.3.1-.5.4l-.2.6q0 .5.4.8.4.3 1.1.3.7 0 1.3-.3.5-.3.8-.8.2-.4.2-1.2v-.5zm.3-4.7h-4.3v-1h4.3v1zm5.7 7.3l.2 1-1 .1q-.6 0-1-.2l-.5-.5-.1-1.5V110h-1v-1h1v-1.7l1.2-.8v2.6h1.2v1H136v4.9l.3.2.4.1h.5zm6 .2l-1.2.8q-.6.2-1.4.2-1.2 0-1.8-.6-.7-.6-.7-1.5 0-.5.3-1 .2-.4.6-.6l.9-.5 1-.1q1.6-.2 2.3-.5v-.3q0-.7-.3-1-.5-.5-1.5-.5-.8 0-1.2.4-.4.2-.6 1l-1.2-.1q.1-.8.5-1.3t1-.7q.8-.3 1.7-.3 1 0 1.5.2l.9.6q.3.3.4.8v2.8l.1 2.2q0 .4.3.8h-1.3l-.2-.8zm0-2.8q-.7.3-2 .5-.8 0-1.1.2-.3.1-.5.4l-.2.6q0 .5.4.8.4.3 1.1.3.7 0 1.3-.3.5-.3.8-.8.2-.4.2-1.2v-.5zm.3-4.7h-4.3v-1h4.3v1zm2.6 6.2l1.2-.2q0 .7.6 1.1.4.4 1.3.4.8 0 1.2-.3.4-.4.4-.9 0-.4-.3-.6-.3-.2-1.3-.4l-1.9-.6q-.5-.3-.8-.7l-.2-1q0-.5.2-.9t.6-.7l.8-.3 1-.2q.9 0 1.5.3.7.2 1 .6.3.5.4 1.2l-1.2.1q0-.5-.5-.8-.4-.4-1-.4-1 0-1.3.3-.3.3-.3.7l.1.4.5.3 1 .3 1.9.6q.5.2.8.7.3.4.3 1t-.4 1.2q-.3.5-1 .8-.7.3-1.5.3-1.4 0-2.2-.6-.7-.6-1-1.7zm11.5-6.5v-1.4h1.2v1.4h-1.2zm0 8.6V109h1.2v7.2h-1.2zm8-2.3l1.2.2q-.3 1-1.1 1.7-.8.6-2.1.6-1.6 0-2.5-1-1-1-1-2.7 0-1.9 1-2.9t2.4-1q1.5 0 2.4 1 1 1 1 2.8v.3h-5.5q0 1.2.7 1.9.6.6 1.5.6.7 0 1.2-.4.4-.3.7-1.1zm-4.1-2h4q0-.9-.4-1.4-.6-.7-1.5-.7-1 0-1.5.6t-.6 1.5zm7 4.3V109h1.2v1q.3-.5.9-.8.5-.4 1.3-.4t1.3.4q.5.3.7.9.9-1.3 2.2-1.3 1.1 0 1.7.6.6.6.6 1.9v5h-1.2v-4.6q0-.8-.2-1 0-.4-.4-.6-.3-.2-.7-.2-.8 0-1.3.5t-.5 1.6v4.2h-1.2v-4.7q0-.8-.3-1.2-.3-.4-1-.4-.5 0-1 .3-.4.2-.6.8-.2.5-.2 1.5v3.7h-1.2zm16.8-.8l-1.3.8q-.6.2-1.4.2-1.2 0-1.8-.6-.7-.6-.7-1.5 0-.5.3-1 .2-.4.6-.6l.9-.5 1-.1q1.6-.2 2.3-.5v-.3q0-.7-.3-1-.5-.5-1.5-.5-.8 0-1.2.4-.4.2-.6 1l-1.2-.1q.1-.8.5-1.3t1-.7q.8-.3 1.7-.3 1 0 1.5.2l.9.6q.3.3.4.8v2.8l.1 2.2q0 .4.3.8h-1.3l-.2-.8zm-.1-2.8q-.7.3-2 .5-.8 0-1.1.2-.3.1-.5.4l-.2.6q0 .5.4.8.4.3 1.1.3.7 0 1.3-.3.5-.3.8-.8.2-.4.2-1.2v-.5zm3.4 3.6v-10h1.2v5.7l3-3h1.5l-2.8 2.8 3 4.5h-1.4l-2.4-3.7-1 .9v2.8h-1.1zm6.5-2.1l1.2-.2q0 .7.6 1.1.4.4 1.3.4.8 0 1.2-.3.4-.4.4-.9 0-.4-.3-.6-.3-.2-1.3-.4l-1.9-.6q-.5-.3-.8-.7l-.2-1q0-.5.2-.9t.6-.7l.8-.3 1-.2q.9 0 1.5.3.7.2 1 .6.3.5.4 1.2l-1.2.1q0-.5-.5-.8-.4-.4-1-.4-1 0-1.3.3-.3.3-.3.7l.1.4.5.3 1 .3 1.9.6q.5.2.8.7.3.4.3 1t-.4 1.2q-.3.5-1 .8-.7.3-1.5.3-1.4 0-2.2-.6-.7-.6-1-1.7zm12.2 1.3l-1.3.8q-.6.2-1.4.2-1.2 0-1.8-.6-.7-.6-.7-1.5 0-.5.3-1 .2-.4.6-.6l.9-.5 1-.1q1.6-.2 2.3-.5v-.3q0-.7-.3-1-.5-.5-1.5-.5-.8 0-1.2.4-.4.2-.6 1l-1.2-.1q.1-.8.5-1.3t1-.7q.8-.3 1.7-.3 1 0 1.5.2l.9.6q.3.3.4.8v2.8l.1 2.2q0 .4.3.8h-1.3l-.2-.8zm-.1-2.8q-.7.3-2 .5-.8 0-1.1.2-.3.1-.5.4l-.2.6q0 .5.4.8.4.3 1.1.3.7 0 1.3-.3.5-.3.8-.8.2-.4.2-1.2v-.5zm2.9 1.5l1.2-.2q0 .7.6 1.1.4.4 1.3.4.8 0 1.2-.3.4-.4.4-.9 0-.4-.3-.6-.3-.2-1.3-.4l-1.9-.6q-.5-.3-.8-.7l-.2-1q0-.5.2-.9t.6-.7l.8-.3 1-.2q.9 0 1.5.3.7.2 1 .6.3.5.4 1.2l-1.2.1q0-.5-.5-.8-.4-.4-1-.4-1 0-1.3.3-.3.3-.3.7l.1.4.5.3 1 .3 1.9.6q.5.2.8.7.3.4.3 1t-.4 1.2q-.3.5-1 .8-.7.3-1.5.3-1.4 0-2.2-.6-.7-.6-1-1.7zM27 142.1v-10h1.3v10h-1.4zm8.5-2.3l1.3.1q-.3 1.1-1.1 1.8-.8.6-2.1.6-1.6 0-2.5-1-1-1-1-2.8 0-1.8 1-2.8 1-1 2.4-1 1.5 0 2.4 1 1 1 1 2.8v.3h-5.5q0 1.2.7 1.8.6.7 1.5.7.7 0 1.2-.4.4-.4.7-1.1zm-4-2h4q0-1-.4-1.4-.6-.7-1.5-.7-1 0-1.5.6-.5.5-.6 1.5zm11.8 4.3v-1q-.7 1.2-2 1.2-1 0-1.7-.5t-1-1.3q-.5-.9-.5-2 0-1 .4-2 .3-.9 1-1.3.8-.5 1.7-.5.6 0 1.2.3.5.2.8.7V132h1.2v10h-1.1zm-4-3.6q0 1.4.7 2 .6.8 1.4.8.8 0 1.3-.7.6-.7.6-2 0-1.5-.6-2.2-.6-.7-1.4-.7-.8 0-1.4.7-.5.6-.5 2zM46 142v-1l4.6-5.3h-4.4v-1h6v.9l-4 4.6-.7.8h4.9v1H46zm8 0v-7.3h1.3v7.3H54zm3-8.3h-4.4v-1h4.3v1zm2.7 8.3l-2.8-7.3h1.3l1.6 4.4.4 1.5.5-1.4 1.6-4.5h1.3l-2.8 7.3h-1.1zm4.5-3.6q0-2 1.1-3 1-.8 2.3-.8 1.5 0 2.4 1 1 1 1 2.7 0 1.4-.4 2.2-.4.8-1.3 1.2-.8.5-1.7.5-1.5 0-2.5-1-.9-1-.9-2.8zm1.3 0q0 1.4.6 2 .6.8 1.5.8 1 0 1.5-.7.6-.7.6-2.2 0-1.3-.6-2t-1.5-.7q-1 0-1.5.7-.6.7-.6 2zm9.8 2.5l.2 1.1-1 .1q-.6 0-1-.2-.3-.2-.5-.6l-.1-1.4v-4.2h-1v-1h1V133l1.2-.7v2.5h1.2v1H74v4.9l.3.3h.9zm6 .2q-.6.6-1.2.8-.6.3-1.4.3-1.2 0-1.8-.6-.7-.6-.7-1.5 0-.5.3-1 .2-.4.6-.7l.9-.4 1-.2q1.6-.1 2.3-.4v-.3q0-.8-.3-1-.5-.5-1.5-.5-.8 0-1.2.3-.4.3-.6 1h-1.2q.1-.9.5-1.3.4-.5 1-.7.8-.3 1.7-.3 1 0 1.5.2.6.2.9.6.3.3.4.8v2.8l.1 2.1q0 .5.3 1h-1.3l-.2-1zm0-2.7l-2 .4q-.8.1-1.1.3-.3.1-.5.4-.2.2-.2.6 0 .5.4.8.4.3 1.1.3.7 0 1.3-.3.5-.3.8-.9.2-.4.2-1.2v-.4zm.3-4.7h-4.3v-1h4.3v1zm3-.3v-1.4h1.3v1.4h-1.2zM83 145l.2-1h.6q.4 0 .6-.2.2-.2.2-1.2v-7.7h1.2v7.7q0 1.3-.4 1.9-.4.7-1.4.7l-1-.2zm9.3-2.8v-1q-.8 1.2-2.3 1.2-.6 0-1.2-.3-.5-.2-.8-.6-.3-.4-.4-.9v-5.7h1.2v5.4q.1.5.5.7.4.3 1 .3.5 0 1-.3t.7-.7q.2-.5.2-1.5v-3.9h1.2v7.3h-1zm7.3-8.6v-1.4h1.2v1.4h-1.2zm0 8.6v-7.3h1.2v7.3h-1.2zm8-2.3l1.2.1q-.3 1.1-1.1 1.8-.8.6-2.1.6-1.6 0-2.5-1-1-1-1-2.8 0-1.8 1-2.8 1-1 2.4-1 1.5 0 2.4 1 1 1 1 2.8v.3h-5.5q0 1.2.7 1.8.6.7 1.5.7.7 0 1.2-.4.4-.4.7-1.1zm-4.1-2h4q0-1-.4-1.4-.6-.7-1.5-.7-1 0-1.5.6-.5.5-.6 1.5zm7 4.3v-7.3h1.2v1q.8-1.1 2.3-1.1l1.2.2.8.6q.3.4.4 1v5.6h-1.2v-4.4l-.1-1.1q-.2-.4-.5-.6-.4-.2-.9-.2-.8 0-1.3.5-.6.5-.6 1.8v4h-1.2zm12.8-.9q-.7.6-1.3.8-.6.3-1.4.3-1.2 0-1.8-.6-.7-.6-.7-1.5 0-.5.3-1 .2-.4.6-.7l.9-.4 1-.2q1.6-.1 2.3-.4v-.3q0-.8-.3-1-.5-.5-1.5-.5-.8 0-1.2.3-.4.3-.6 1h-1.2q.1-.9.5-1.3.4-.5 1-.7.8-.3 1.7-.3 1 0 1.5.2.6.2.9.6.3.3.4.8v2.8l.1 2.1q0 .5.3 1h-1.3l-.2-1zm-.1-2.7l-2 .4q-.8.1-1.1.3-.3.1-.5.4-.2.2-.2.6 0 .5.4.8.4.3 1.1.3.7 0 1.3-.3.5-.3.8-.9.2-.4.2-1.2v-.4zm.3-4.7h-4.3v-1h4.3v1zm3 8.3v-10h1.3v5.7l3-3h1.5l-2.8 2.7 3 4.6h-1.4l-2.4-3.7-1 .8v3h-1.1zm11.8 0v-1q-.8 1.2-2.3 1.2-.6 0-1.2-.3-.5-.2-.8-.6-.3-.4-.4-.9v-5.7h1.2v5.4q.1.5.5.7.4.3 1 .3.5 0 1-.3t.7-.7q.2-.5.2-1.5v-3.9h1.2v7.3h-1zm3.3 0v-7.3h1v1q.4-.5 1-.8.5-.3 1.3-.3t1.3.3q.5.4.7 1 .9-1.3 2.2-1.3 1.1 0 1.7.6.6.6.6 1.8v5h-1.2v-4.6q0-.7-.2-1 0-.4-.4-.5-.3-.2-.7-.2-.8 0-1.3.5t-.5 1.6v4.2h-1.2v-4.7q0-.8-.3-1.2-.3-.4-1-.4l-1 .2q-.4.3-.6.8-.2.5-.2 1.5v3.8h-1.2zm16.7-.9q-.7.6-1.3.8-.6.3-1.4.3-1.2 0-1.8-.6-.7-.6-.7-1.5 0-.5.3-1 .2-.4.6-.7l.9-.4 1-.2q1.6-.1 2.3-.4v-.3q0-.8-.3-1-.5-.5-1.5-.5-.8 0-1.2.3-.4.3-.6 1h-1.2q.1-.9.5-1.3.4-.5 1-.7.8-.3 1.7-.3 1 0 1.5.2.6.2.9.6.3.3.4.8v2.8l.1 2.1q0 .5.3 1h-1.3l-.2-1zm-.1-2.7l-2 .4q-.8.1-1.1.3-.3.1-.5.4-.2.2-.2.6 0 .5.4.8.4.3 1.1.3.7 0 1.3-.3.5-.3.8-.9.2-.4.2-1.2v-.4zm7.4 3.6v-7.3h1v1q.9-1.1 2.4-1.1l1.2.2.8.6q.3.4.4 1v5.6h-1.2v-4.4l-.1-1.1q-.2-.4-.5-.6-.4-.2-.9-.2-.8 0-1.3.5-.6.5-.6 1.8v4h-1.2zm7.5-3.6q0-2 1.1-3 1-.8 2.3-.8 1.5 0 2.4 1 1 1 1 2.7 0 1.4-.4 2.2-.4.8-1.3 1.2-.8.5-1.7.5-1.5 0-2.5-1-.9-1-.9-2.8zm1.3 0q0 1.4.6 2 .6.8 1.5.8 1 0 1.5-.7.6-.7.6-2.2 0-1.3-.6-2t-1.5-.7q-1 0-1.5.7-.6.7-.6 2zm11.9 3.6v-1q-.7 1.2-2 1.2-1 0-1.7-.5t-1-1.3q-.5-.9-.5-2 0-1 .4-2 .3-.9 1-1.3.8-.5 1.7-.5.6 0 1.2.3.5.2.8.7V132h1.2v10h-1.1zm-4-3.6q0 1.4.7 2 .6.8 1.4.8.8 0 1.3-.7.6-.7.6-2 0-1.5-.6-2.2-.6-.7-1.4-.7-.8 0-1.4.7-.5.6-.5 2zm6.8 0q0-2 1.1-3 1-.8 2.3-.8 1.5 0 2.4 1 1 1 1 2.7 0 1.4-.4 2.2-.4.8-1.3 1.2-.8.5-1.7.5-1.5 0-2.5-1-.9-1-.9-2.8zm1.3 0q0 1.4.6 2 .6.8 1.5.8 1 0 1.5-.7.6-.7.6-2.2 0-1.3-.6-2t-1.5-.7q-1 0-1.5.7-.6.7-.6 2zm7.2 3.6v-10h1.2v5.7l3-3h1.5l-2.8 2.7 3 4.6h-1.4l-2.4-3.7-1 .8v3h-1.1zm7 0v-10h1.2v10h-1.3zm3-8.6v-1.4h1.2v1.4h-1.2zm0 8.6v-7.3h1.2v7.3h-1.2zm2.5-2.2l1.2-.1q0 .7.6 1 .4.5 1.3.5.8 0 1.2-.4.4-.3.4-.8 0-.4-.3-.6l-1.3-.5q-1.3-.3-1.9-.6-.5-.2-.8-.6l-.2-1 .2-1 .6-.6.8-.4 1-.1q.9 0 1.5.2.7.3 1 .7.3.4.4 1.1l-1.2.2q0-.6-.5-.9-.4-.3-1-.3-1 0-1.3.3-.3.3-.3.6l.1.5.5.3 1 .3 1.9.6q.5.2.8.6.3.4.3 1 0 .7-.4 1.2-.3.6-1 .9-.7.3-1.5.3-1.4 0-2.2-.6-.7-.6-1-1.8zM68.7 176.5v-10h3.5l1.7.1q.9.2 1.5.7.8.7 1.2 1.7.4 1 .4 2.4 0 1.2-.3 2-.2 1-.7 1.5-.4.6-.9.9l-1.2.5q-.7.2-1.6.2h-3.6zm1.3-1.2h2.2q1 0 1.5-.2l1-.5q.4-.5.7-1.3.2-.8.2-2 0-1.5-.5-2.3-.5-.9-1.2-1.2-.6-.2-1.8-.2h-2v7.7zm13.3.3q-.7.6-1.3.8-.6.2-1.4.2-1.2 0-1.8-.5-.7-.6-.7-1.5 0-.6.3-1 .2-.5.6-.7.4-.3.9-.4l1-.2 2.3-.4v-.3q0-.8-.3-1.1-.5-.4-1.5-.4-.8 0-1.2.3-.4.3-.6 1l-1.2-.1q.1-.8.5-1.3l1-.7q.8-.2 1.7-.2 1 0 1.5.2.6.2.9.5.3.3.4.9v2.7l.1 2.2q0 .5.3.9h-1.3l-.2-1zm-.1-2.8q-.7.3-2 .5-.8.1-1.1.3-.3 0-.5.3l-.2.6q0 .5.4.9.4.3 1.1.3.7 0 1.3-.3.5-.3.8-.9.2-.4.2-1.2v-.5zm4.5 3.7h-1.1v-10h1.2v3.5q.8-1 2-1 .6 0 1.2.3t1 .8q.4.5.6 1.2.3.6.3 1.4 0 1.9-1 3-1 1-2.2 1-1.3 0-2-1.1v.9zm0-3.7q0 1.3.3 1.9.6 1 1.6 1 .8 0 1.4-.8.6-.7.6-2 0-1.5-.6-2.2-.5-.6-1.3-.6t-1.4.7q-.6.7-.6 2zm11.6 2.8q-.7.6-1.3.8-.6.2-1.4.2-1.2 0-1.8-.5-.7-.6-.7-1.5 0-.6.3-1 .2-.5.6-.7.4-.3.9-.4l1-.2 2.3-.4v-.3q0-.8-.3-1.1-.5-.4-1.5-.4-.8 0-1.2.3-.4.3-.6 1l-1.2-.1q.1-.8.5-1.3l1-.7q.8-.2 1.7-.2 1 0 1.5.2.6.2.9.5.3.3.4.9v2.7l.1 2.2q0 .5.3.9h-1.3l-.2-1zm-.1-2.8q-.7.3-2 .5-.8.1-1.1.3-.3 0-.5.3l-.2.6q0 .5.4.9.4.3 1.1.3.7 0 1.3-.3.5-.3.8-.9.2-.4.2-1.2v-.5zm2.9 1.5l1.2-.2q0 .8.6 1.1.4.4 1.3.4.8 0 1.2-.3.4-.4.4-.8t-.3-.7q-.3-.2-1.3-.4-1.3-.3-1.9-.6-.5-.2-.8-.7-.2-.4-.2-1l.2-.8q.2-.5.6-.7l.8-.4 1-.1q.9 0 1.5.2.7.2 1 .7.3.4.4 1l-1.2.3q0-.6-.5-1-.4-.2-1-.2-1 0-1.3.3-.3.2-.3.6l.1.4.5.4 1 .3 1.9.5q.5.3.8.7.3.4.3 1 0 .7-.4 1.2-.3.5-1 .9-.7.2-1.5.2-1.4 0-2.2-.5-.7-.6-1-1.8zm11.4 2.2v-7.3h1.1v1.1q.5-.8.8-1l.8-.2q.7 0 1.3.3l-.4 1.2q-.5-.3-1-.3-.3 0-.7.3-.3.2-.4.6-.2.7-.2 1.5v3.8h-1.3zm10-2.4l1.3.2q-.3 1.1-1.1 1.7-.8.6-2.1.6-1.6 0-2.5-1-1-1-1-2.7 0-1.8 1-2.8 1-1 2.4-1 1.5 0 2.4 1 1 1 1 2.7v.4h-5.5q0 1.2.7 1.8.6.6 1.5.6.7 0 1.2-.3.4-.4.7-1.2zm-4-2h4q0-.9-.4-1.3-.6-.7-1.5-.7-1 0-1.5.5-.5.6-.6 1.5zm6.6 2.2l1.2-.2q0 .8.6 1.1.4.4 1.3.4.8 0 1.2-.3.4-.4.4-.8t-.3-.7q-.3-.2-1.3-.4-1.3-.3-1.9-.6-.5-.2-.8-.7-.2-.4-.2-1l.2-.8q.2-.5.6-.7l.8-.4 1-.1q.9 0 1.5.2.7.2 1 .7.3.4.4 1l-1.2.3q0-.6-.5-1-.4-.2-1-.2-1 0-1.3.3-.3.2-.3.6l.1.4.5.4 1 .3 1.9.5q.5.3.8.7.3.4.3 1 0 .7-.4 1.2-.3.5-1 .9-.7.2-1.5.2-1.4 0-2.2-.5-.7-.6-1-1.8zm12.2 2.2v-1q-.8 1.1-2.3 1.1l-1.2-.2-.8-.6q-.3-.4-.4-1v-5.6h1.2v5.3q.1.5.5.8.4.3 1 .3.5 0 1-.3t.7-.8q.2-.5.2-1.4v-3.9h1.2v7.3h-1zm3.2 0v-7.3h1.1v1.1q.5-.8.8-1l.8-.2q.7 0 1.3.3l-.4 1.2q-.5-.3-1-.3-.3 0-.7.3-.3.2-.4.6-.2.7-.2 1.5v3.8h-1.3zm4.6-2.2l1.2-.2q0 .8.6 1.1.4.4 1.3.4.8 0 1.2-.3.4-.4.4-.8t-.3-.7q-.3-.2-1.3-.4-1.3-.3-1.9-.6-.5-.2-.8-.7-.2-.4-.2-1l.2-.8q.2-.5.6-.7l.8-.4 1-.1q.9 0 1.5.2.7.2 1 .7.3.4.4 1l-1.2.3q0-.6-.5-1-.4-.2-1-.2-1 0-1.3.3-.3.2-.3.6l.1.4.5.4 1 .3 1.9.5q.5.3.8.7.3.4.3 1 0 .7-.4 1.2-.3.5-1 .9-.7.2-1.5.2-1.4 0-2.2-.5-.7-.6-1-1.8zm12.2 2.2v-1q-.8 1.1-2.3 1.1l-1.2-.2-.8-.6q-.3-.4-.4-1v-5.6h1.2v5.3q.1.5.5.8.4.3 1 .3.5 0 1-.3t.7-.8q.2-.5.2-1.4v-3.9h1.2v7.3h-1zm7.3 0v-7.3h1v1q.9-1.1 2.4-1.1l1.2.2q.5.2.8.6.3.4.4 1v5.6h-1.2V172l-.1-1.2-.5-.5q-.4-.3-.9-.3-.8 0-1.3.5-.6.5-.6 2v3.9h-1.2zm7.5-3.6q0-2 1.1-3 1-.8 2.3-.8 1.5 0 2.4 1 1 1 1 2.6 0 1.4-.4 2.3-.4.8-1.3 1.2-.8.4-1.7.4-1.5 0-2.5-1-.9-1-.9-2.7zm1.3 0q0 1.3.6 2t1.5.7q1 0 1.5-.7.6-.7.6-2.1 0-1.3-.6-2t-1.5-.7q-1 0-1.5.7-.6.6-.6 2zm11.9 3.6v-1q-.7 1.1-2 1.1-1 0-1.7-.4-.7-.5-1-1.4-.5-.8-.5-2 0-1 .4-2 .3-.8 1-1.3.8-.4 1.7-.4l1.2.2q.5.3.8.8v-3.6h1.2v10h-1.1zm-4-3.6q0 1.3.7 2 .6.7 1.4.7.8 0 1.3-.6.6-.7.6-2 0-1.5-.6-2.2-.6-.7-1.4-.7-.8 0-1.4.6-.5.7-.5 2.2zm6.8 0q0-2 1.1-3 1-.8 2.3-.8 1.5 0 2.4 1 1 1 1 2.6 0 1.4-.4 2.3-.4.8-1.3 1.2-.8.4-1.7.4-1.5 0-2.5-1-.9-1-.9-2.7zm1.3 0q0 1.3.6 2t1.5.7q1 0 1.5-.7.6-.7.6-2.1 0-1.3-.6-2t-1.5-.7q-1 0-1.5.7-.6.6-.6 2zm7.2 3.6v-10h1.2v5.7l3-3h1.5l-2.8 2.7 3 4.6h-1.4l-2.4-3.7-1 .8v2.9h-1.1zm7 0v-10h1.2v10h-1.3zm3-8.6v-1.4h1.2v1.4h-1.2zm0 8.6v-7.3h1.2v7.3h-1.2zm2.5-2.2l1.2-.2q0 .8.6 1.1.4.4 1.3.4.8 0 1.2-.3.4-.4.4-.8t-.3-.7q-.3-.2-1.3-.4-1.3-.3-1.9-.6-.5-.2-.8-.7-.2-.4-.2-1l.2-.8q.2-.5.6-.7l.8-.4 1-.1q.9 0 1.5.2.7.2 1 .7.3.4.4 1l-1.2.3q0-.6-.5-1-.4-.2-1-.2-1 0-1.3.3-.3.2-.3.6l.1.4.5.4 1 .3 1.9.5q.5.3.8.7.3.4.3 1 0 .7-.4 1.2-.3.5-1 .9-.7.2-1.5.2-1.4 0-2.2-.5-.7-.6-1-1.8zM55.7 210.8v-10h2L60 208l.5 1.5.6-1.6 2.3-7h1.8v10H64v-8.3l-3 8.3H60l-3-8.5v8.5h-1.2zm11.9-8.6v-1.4h1.2v1.4h-1.2zm0 8.6v-7.2h1.2v7.2h-1.2zm3 0v-10h1.2v5.7l3-3h1.5l-2.8 2.8 3 4.5h-1.4l-2.4-3.7-1 .9v2.8h-1.1zm7 0v-7.2h1v1l.8-1 .8-.2q.7 0 1.3.4L81 205q-.5-.3-1-.3l-.7.2q-.3.3-.4.7l-.2 1.4v3.8h-1.3zm4.5-3.6q0-2 1.1-3 1-.8 2.3-.8 1.5 0 2.4 1 1 1 1 2.7 0 1.4-.4 2.2-.4.8-1.3 1.3-.8.4-1.7.4-1.5 0-2.5-1-.9-1-.9-2.8zm1.3 0q0 1.4.6 2.1.6.7 1.5.7 1 0 1.5-.7.6-.7.6-2.1 0-1.4-.6-2-.6-.8-1.5-.8-1 0-1.5.7-.6.7-.6 2.1zm12 3.6v-1q-1 1.2-2.4 1.2l-1.2-.2q-.5-.3-.8-.7-.3-.3-.4-.9v-5.6h1.2v5.3q.1.5.5.8.4.3 1 .3.5 0 1-.3t.7-.8q.2-.5.2-1.4v-4h1.2v7.3h-1zm2.5 0v-1l4.6-5.3h-4.4v-1h6v.9l-4 4.6-.7.8h4.9v1H98zm7.7 0v-7.2h1v1q.9-1.2 2.4-1.2.6 0 1.2.3.5.2.8.6.3.4.4.9V210.8h-1.2v-4.4l-.1-1q-.2-.5-.5-.7-.4-.2-.9-.2-.8 0-1.3.5-.6.5-.6 1.9v4h-1.2zm4.5 2q0 .6-.7 1-.5.3-1.3.3l-1-.1.1-.8h.6q1.2 0 1.2-.5 0-.3-.4-.4h-.7l.3-1.3h1l-.3.8q1.2.1 1.2 1zm8.4-4.3l1.3.2q-.3 1-1.1 1.7-.8.6-2.1.6-1.6 0-2.5-1-1-1-1-2.7 0-1.9 1-2.9t2.4-1q1.5 0 2.4 1 1 1 1 2.8v.3h-5.5q0 1.2.7 1.9.6.6 1.5.6.7 0 1.2-.4.4-.3.7-1.1zm-4-2h4q0-1-.4-1.4-.6-.7-1.5-.7-1 0-1.5.6t-.6 1.5zm4.2-4h-4.2v-1h4.2v1zm2.9 8.3v-7.2h1v1q.4-.5 1-.9.5-.3 1.3-.3t1.3.4q.5.3.7.9.9-1.3 2.2-1.3 1.1 0 1.7.6.6.6.6 1.9v5h-1.2v-4.6q0-.8-.2-1.1 0-.3-.4-.5-.3-.2-.7-.2-.8 0-1.3.5t-.5 1.6v4.2h-1.2v-4.7q0-.8-.3-1.2-.3-.4-1-.4-.5 0-1 .3-.4.2-.6.8-.2.5-.2 1.5v3.7h-1.2zm16.7 0v-1q-.8 1.2-2.3 1.2l-1.2-.2q-.5-.3-.8-.7-.3-.3-.4-.9v-5.6h1.2v5.3q.1.5.5.8.4.3 1 .3.5 0 1-.3t.7-.8q.2-.5.2-1.4v-4h1.2v7.3h-1zm3.3 0v-7.2h1v1q.4-.5 1-.9.5-.3 1.3-.3t1.3.4q.5.3.7.9.9-1.3 2.2-1.3 1.1 0 1.7.6.6.6.6 1.9v5h-1.2v-4.6q0-.8-.2-1.1 0-.3-.4-.5-.3-.2-.7-.2-.8 0-1.3.5t-.5 1.6v4.2h-1.2v-4.7q0-.8-.3-1.2-.3-.4-1-.4-.5 0-1 .3-.4.2-.6.8-.2.5-.2 1.5v3.7h-1.2zm16.7 0v-1q-.8 1.2-2.3 1.2l-1.2-.2q-.5-.3-.8-.7-.3-.3-.4-.9v-5.6h1.2v5.3q.1.5.5.8.4.3 1 .3.5 0 1-.3t.7-.8q.2-.5.2-1.4v-4h1.2v7.3h-1zm7.3 0v-7.2h1v1q.9-1.2 2.4-1.2.6 0 1.2.3.5.2.8.6.3.4.4.9V210.8h-1.2v-4.4l-.1-1q-.2-.5-.5-.7-.4-.2-.9-.2-.8 0-1.3.5-.6.5-.6 1.9v4h-1.2zm7.5-3.6q0-2 1.1-3 1-.8 2.3-.8 1.5 0 2.4 1 1 1 1 2.7 0 1.4-.4 2.2-.4.8-1.3 1.3-.8.4-1.7.4-1.5 0-2.5-1-.9-1-.9-2.8zm1.3 0q0 1.4.6 2.1.6.7 1.5.7 1 0 1.5-.7.6-.7.6-2.1 0-1.4-.6-2-.6-.8-1.5-.8-1 0-1.5.7-.6.7-.6 2.1zm11.9 3.6v-.9q-.7 1.1-2 1.1-1 0-1.7-.5t-1-1.3q-.5-.9-.5-2 0-1 .4-2 .3-.8 1-1.3.8-.5 1.7-.5.6 0 1.2.3.5.3.8.7v-3.6h1.2v10h-1.1zm-4-3.6q0 1.4.7 2.1.6.7 1.4.7.8 0 1.3-.7.6-.6.6-2 0-1.5-.6-2.2-.6-.7-1.4-.7-.8 0-1.4.7-.5.7-.5 2.1zm6.8 0q0-2 1.1-3 1-.8 2.3-.8 1.5 0 2.4 1 1 1 1 2.7 0 1.4-.4 2.2-.4.8-1.3 1.3-.8.4-1.7.4-1.5 0-2.5-1-.9-1-.9-2.8zm1.3 0q0 1.4.6 2.1.6.7 1.5.7 1 0 1.5-.7.6-.7.6-2.1 0-1.4-.6-2-.6-.8-1.5-.8-1 0-1.5.7-.6.7-.6 2.1zm7.2 3.6v-10h1.2v5.7l3-3h1.5l-2.8 2.8 3 4.5h-1.4l-2.4-3.7-1 .9v2.8h-1.1zm7 0v-10h1.2v10h-1.3zm3-8.6v-1.4h1.2v1.4h-1.2zm0 8.6v-7.2h1.2v7.2h-1.2zm2.5-2.1l1.2-.2q0 .7.6 1.1.4.4 1.3.4.8 0 1.2-.3.4-.4.4-.9 0-.4-.3-.6-.3-.2-1.3-.4l-1.9-.6q-.5-.3-.8-.7l-.2-1q0-.5.2-.9t.6-.7l.8-.3 1-.2q.9 0 1.5.3.7.2 1 .6.3.4.4 1.2l-1.2.1q0-.5-.5-.9-.4-.3-1-.3-1 0-1.3.3-.3.3-.3.7l.1.4.5.3 1 .3 1.9.6q.5.2.8.7.3.4.3 1t-.4 1.2q-.3.5-1 .8-.7.3-1.5.3-1.4 0-2.2-.6-.7-.6-1-1.7z"/>
  <path fill="#757575" d="M220.6 241.8q0-1.5.3-2.4.4-1 1-1.5t1.5-.5q.7 0 1.2.3.6.3 1 .8.3.5.4 1.3.2.7.2 2 0 1.5-.3 2.4-.3 1-1 1.5-.5.5-1.5.5-1.2 0-2-1t-.8-3.4zm1.1 0q0 2.1.5 2.8.5.7 1.2.7.8 0 1.2-.7.5-.7.5-2.8 0-2.1-.5-2.8-.4-.7-1.2-.7-.7 0-1.1.6-.6.8-.6 2.9zM267.4 243.8l1-.1q.2.8.7 1.2.4.4 1 .4.8 0 1.3-.6.6-.5.6-1.5 0-.9-.6-1.4-.5-.5-1.3-.5l-1 .2q-.3.2-.5.6l-1-.1.8-4.4h4.3v1h-3.5l-.4 2.3q.8-.6 1.6-.6 1.1 0 1.9.8.8.8.8 2t-.7 2q-.8 1-2.3 1-1.1 0-1.9-.6-.7-.6-.8-1.7zm7-2q0-1.5.3-2.4.3-1 1-1.5.5-.5 1.5-.5.7 0 1.2.3t.9.8q.3.5.5 1.3.2.7.2 2 0 1.5-.3 2.4-.3 1-1 1.5-.6.5-1.5.5-1.3 0-2-1-.8-1-.8-3.4zm1 0q0 2.1.6 2.8.5.7 1.2.7t1.2-.7q.5-.7.5-2.8 0-2.1-.5-2.8-.5-.7-1.2-.7-.8 0-1.2.6-.5.8-.5 2.9zm6 0q0-1.5.3-2.4.3-1 1-1.5.5-.5 1.5-.5.7 0 1.2.3t.9.8q.3.5.5 1.3.2.7.2 2 0 1.5-.3 2.4-.3 1-1 1.5-.6.5-1.5.5-1.3 0-2-1-.8-1-.8-3.4zm1 0q0 2.1.6 2.8.5.7 1.2.7t1.2-.7q.5-.7.5-2.8 0-2.1-.5-2.8-.5-.7-1.2-.7-.8 0-1.2.6-.5.8-.5 2.9zM321.6 246h-1v-6.7l-1 .8-1.2.5v-1q1-.5 1.6-1l1-1.2h.6v8.6zm3-4.2q0-1.5.3-2.4.4-1 1-1.5t1.5-.5q.7 0 1.2.3.6.3.9.8.3.5.5 1.3.2.7.2 2 0 1.5-.3 2.4-.3 1-1 1.5-.5.5-1.5.5-1.2 0-2-1t-.8-3.4zm1.1 0q0 2.1.5 2.8.5.7 1.2.7.8 0 1.2-.7.5-.7.5-2.8 0-2.1-.5-2.8-.4-.7-1.2-.7-.7 0-1.1.6-.6.8-.6 2.9zm6 0q0-1.5.2-2.4.4-1 1-1.5t1.5-.5q.7 0 1.2.3.6.3.9.8.3.5.5 1.3.2.7.2 2 0 1.5-.3 2.4-.3 1-1 1.5-.5.5-1.5.5-1.2 0-2-1t-.8-3.4zm1 0q0 2.1.5 2.8.5.7 1.2.7.8 0 1.2-.7.5-.7.5-2.8 0-2.1-.5-2.8-.4-.7-1.2-.7-.7 0-1.1.6-.6.8-.6 2.9zm6 0q0-1.5.2-2.4.4-1 1-1.5t1.5-.5q.7 0 1.2.3.6.3.9.8.3.5.5 1.3.2.7.2 2 0 1.5-.3 2.4-.3 1-1 1.5-.5.5-1.5.5-1.2 0-2-1t-.8-3.4zm1 0q0 2.1.5 2.8.5.7 1.2.7.8 0 1.2-.7.5-.7.5-2.8 0-2.1-.5-2.8-.4-.7-1.2-.7-.7 0-1.1.6-.6.8-.6 2.9zM375.3 246h-1v-6.7l-1 .8-1.1.5v-1l1.5-1q.7-.6 1-1.2h.6v8.6zm3-2.2l1.2-.1q.1.8.5 1.2.5.4 1.1.4.8 0 1.3-.6.6-.5.6-1.5 0-.9-.6-1.4-.5-.5-1.3-.5l-1 .2-.6.6-1-.1.9-4.4h4.3v1h-3.5l-.4 2.3q.7-.6 1.6-.6 1.1 0 1.9.8.8.8.8 2t-.7 2q-.8 1-2.3 1-1.1 0-1.9-.6-.7-.6-.8-1.7zm7-2q0-1.5.4-2.4.3-1 1-1.5.5-.5 1.5-.5.7 0 1.2.3t.9.8q.3.5.5 1.3.2.7.2 2 0 1.5-.3 2.4-.3 1-1 1.5-.6.5-1.5.5-1.3 0-2-1-.8-1-.8-3.4zm1.2 0q0 2.1.5 2.8.5.7 1.2.7t1.2-.7q.5-.7.5-2.8 0-2.1-.5-2.8-.5-.7-1.2-.7-.8 0-1.2.6-.5.8-.5 2.9zm5.9 0q0-1.5.3-2.4.3-1 1-1.5.5-.5 1.5-.5.7 0 1.2.3t.9.8q.3.5.5 1.3.2.7.2 2 0 1.5-.3 2.4-.3 1-1 1.5-.6.5-1.5.5-1.3 0-2-1-.8-1-.8-3.4zm1 0q0 2.1.6 2.8.5.7 1.2.7t1.2-.7q.5-.7.5-2.8 0-2.1-.5-2.8-.5-.7-1.2-.7-.8 0-1.2.6-.5.8-.5 2.9zM430.7 245v1H425l.1-.7q.2-.6.7-1.1l1.4-1.3q1.4-1.2 1.9-1.9.5-.6.5-1.2 0-.7-.5-1-.4-.5-1.1-.5-.8 0-1.3.4-.4.5-.4 1.3l-1.1-.1q.1-1.2.8-1.8.7-.7 2-.7 1.2 0 2 .7.7.7.7 1.7 0 .5-.3 1-.2.5-.7 1l-1.6 1.6-1.2 1-.4.6h4.2zm1.4-3.2q0-1.5.3-2.4.3-1 1-1.5.6-.5 1.5-.5.7 0 1.2.3.6.3.9.8.3.5.5 1.3.2.7.2 2 0 1.5-.3 2.4-.3 1-1 1.5-.5.5-1.5.5-1.2 0-2-1t-.8-3.4zm1.1 0q0 2.1.5 2.8.5.7 1.2.7.8 0 1.2-.7.5-.7.5-2.8 0-2.1-.5-2.8-.4-.7-1.2-.7-.7 0-1.2.6-.5.8-.5 2.9zm6 0q0-1.5.2-2.4.3-1 1-1.5.6-.5 1.5-.5.7 0 1.2.3.6.3.9.8.3.5.5 1.3.2.7.2 2 0 1.5-.3 2.4-.3 1-1 1.5-.5.5-1.5.5-1.2 0-2-1t-.8-3.4zm1 0q0 2.1.5 2.8.5.7 1.2.7.8 0 1.2-.7.5-.7.5-2.8 0-2.1-.5-2.8-.4-.7-1.2-.7-.7 0-1.2.6-.5.8-.5 2.9zm6 0q0-1.5.2-2.4.3-1 1-1.5.6-.5 1.5-.5.7 0 1.2.3.6.3.9.8.3.5.5 1.3.2.7.2 2 0 1.5-.3 2.4-.3 1-1 1.5-.5.5-1.5.5-1.2 0-2-1t-.8-3.4zm1 0q0 2.1.5 2.8.5.7 1.2.7.8 0 1.2-.7.5-.7.5-2.8 0-2.1-.5-2.8-.4-.7-1.2-.7-.7 0-1.2.6-.5.8-.5 2.9zM484.4 245v1h-5.7l.2-.7q.2-.6.6-1.1l1.4-1.3 2-1.9q.4-.6.4-1.2 0-.7-.4-1-.5-.5-1.2-.5-.8 0-1.2.4-.5.5-.5 1.3l-1-.1q0-1.2.8-1.8.7-.7 2-.7 1.2 0 1.9.7t.7 1.7l-.2 1q-.2.5-.7 1l-1.6 1.6-1.3 1-.4.6h4.2zm1.5-1.2l1-.1q.2.8.6 1.2.5.4 1.1.4.8 0 1.3-.6.5-.5.5-1.5 0-.9-.5-1.4-.5-.5-1.3-.5l-1 .2-.6.6-1-.1.9-4.4h4.3v1h-3.5l-.4 2.3q.7-.6 1.6-.6 1.1 0 1.9.8.8.8.8 2t-.7 2q-.8 1-2.3 1-1.1 0-1.9-.6-.7-.6-.8-1.7zm7-2q0-1.5.3-2.4.3-1 1-1.5.5-.5 1.5-.5.7 0 1.2.3t.8.8q.4.5.6 1.3.2.7.2 2 0 1.5-.3 2.4-.3 1-1 1.5-.6.5-1.5.5-1.3 0-2-1-.8-1-.8-3.4zm1 0q0 2.1.5 2.8.5.7 1.3.7.7 0 1.2-.7t.5-2.8q0-2.1-.5-2.8-.5-.7-1.2-.7-.8 0-1.2.6-.6.8-.6 2.9zm6 0q0-1.5.3-2.4.3-1 1-1.5.5-.5 1.5-.5.7 0 1.2.3t.8.8q.4.5.6 1.3.2.7.2 2 0 1.5-.3 2.4-.3 1-1 1.5-.6.5-1.5.5-1.3 0-2-1-.8-1-.8-3.4zm1 0q0 2.1.5 2.8.5.7 1.3.7.7 0 1.2-.7t.5-2.8q0-2.1-.5-2.8-.5-.7-1.2-.7-.8 0-1.2.6-.6.8-.6 2.9zM532.6 243.8l1-.2q.3 1 .7 1.3.4.4 1 .4.8 0 1.3-.5t.5-1.3q0-.7-.4-1.2-.5-.4-1.3-.4h-.7l.1-.9h.2q.7 0 1.2-.3t.5-1q0-.7-.3-1-.4-.4-1-.4-.7 0-1 .4-.5.4-.6 1.1l-1-.2q.1-1 .8-1.6.7-.6 1.7-.6.7 0 1.3.3.6.3 1 .8l.2 1.1q0 .6-.3 1-.3.5-.8.8.7.2 1.1.7.4.6.4 1.4 0 1.1-.8 2-.8.7-2 .7t-2-.7q-.7-.7-.8-1.7zm7-2q0-1.5.3-2.4.3-1 1-1.5.6-.5 1.5-.5.7 0 1.2.3.6.3.9.8.3.5.5 1.3.2.7.2 2 0 1.5-.3 2.4-.3 1-1 1.5-.5.5-1.5.5-1.2 0-2-1t-.8-3.4zm1.1 0q0 2.1.5 2.8.5.7 1.2.7.8 0 1.2-.7.5-.7.5-2.8 0-2.1-.5-2.8-.4-.7-1.2-.7-.7 0-1.2.6-.5.8-.5 2.9zm6 0q0-1.5.2-2.4.3-1 1-1.5.6-.5 1.5-.5.7 0 1.2.3.6.3.9.8.3.5.5 1.3.2.7.2 2 0 1.5-.3 2.4-.3 1-1 1.5-.5.5-1.5.5-1.2 0-2-1t-.8-3.4zm1 0q0 2.1.5 2.8.5.7 1.2.7.8 0 1.2-.7.5-.7.5-2.8 0-2.1-.5-2.8-.4-.7-1.2-.7-.7 0-1.2.6-.5.8-.5 2.9zm6 0q0-1.5.2-2.4.3-1 1-1.5.6-.5 1.5-.5.7 0 1.2.3.6.3.9.8.3.5.5 1.3.2.7.2 2 0 1.5-.3 2.4-.3 1-1 1.5-.5.5-1.5.5-1.2 0-2-1t-.8-3.4zm1 0q0 2.1.5 2.8.5.7 1.2.7.8 0 1.2-.7.5-.7.5-2.8 0-2.1-.5-2.8-.4-.7-1.2-.7-.7 0-1.2.6-.5.8-.5 2.9zM586.4 243.8l1-.2q.2 1 .6 1.3.5.4 1.1.4.8 0 1.3-.5t.5-1.3q0-.7-.5-1.2-.5-.4-1.2-.4h-.8l.2-.9h.1q.7 0 1.2-.3.6-.3.6-1t-.4-1q-.4-.4-1-.4t-1 .4q-.5.4-.6 1.1l-1-.2q.2-1 .9-1.6.6-.6 1.7-.6.7 0 1.3.3.5.3.9.8.3.6.3 1.1 0 .6-.3 1-.3.5-.9.8.7.2 1.2.7.4.6.4 1.4 0 1.1-.8 2-.8.7-2.1.7-1.1 0-1.9-.7-.7-.7-.8-1.7zm7 0l1-.1q.2.8.6 1.2.5.4 1.1.4.8 0 1.3-.6.5-.5.5-1.5 0-.9-.5-1.4-.5-.5-1.3-.5l-1 .2-.6.6-1-.1.9-4.4h4.3v1h-3.5l-.4 2.3q.7-.6 1.6-.6 1.1 0 1.9.8.8.8.8 2t-.7 2q-.8 1-2.3 1-1.1 0-1.9-.6-.7-.6-.8-1.7zm7-2q0-1.5.3-2.4.3-1 .9-1.5.6-.5 1.6-.5.7 0 1.2.3t.8.8q.4.5.6 1.3.2.7.2 2 0 1.5-.4 2.4-.2 1-.9 1.5-.6.5-1.5.5-1.3 0-2-1-.8-1-.8-3.4zm1 0q0 2.1.5 2.8.5.7 1.3.7.7 0 1.2-.7t.5-2.8q0-2.1-.5-2.8-.5-.7-1.3-.7-.7 0-1.1.6-.6.8-.6 2.9zm6 0q0-1.5.3-2.4.3-1 .9-1.5.6-.5 1.6-.5.7 0 1.2.3t.8.8q.4.5.6 1.3.2.7.2 2 0 1.5-.4 2.4-.2 1-.9 1.5-.6.5-1.5.5-1.3 0-2-1-.8-1-.8-3.4zm1 0q0 2.1.5 2.8.5.7 1.3.7.7 0 1.2-.7t.5-2.8q0-2.1-.5-2.8-.5-.7-1.3-.7-.7 0-1.1.6-.6.8-.6 2.9zM643.5 246v-2h-3.7v-1l3.9-5.6h.9v5.6h1.1v1h-1.1v2h-1.1zm0-3v-3.9l-2.7 4h2.7zm3.6-1.2q0-1.5.3-2.4.3-1 1-1.5.6-.5 1.5-.5.7 0 1.2.3t.9.8q.3.5.5 1.3.2.7.2 2 0 1.5-.3 2.4-.3 1-1 1.5-.5.5-1.5.5-1.2 0-2-1t-.8-3.4zm1 0q0 2.1.6 2.8.5.7 1.2.7t1.2-.7q.5-.7.5-2.8 0-2.1-.5-2.8-.5-.7-1.2-.7t-1.2.6q-.5.8-.5 2.9zm6 0q0-1.5.3-2.4.3-1 1-1.5.6-.5 1.5-.5.7 0 1.2.3t.9.8q.3.5.5 1.3.2.7.2 2 0 1.5-.3 2.4-.3 1-1 1.5-.5.5-1.5.5-1.2 0-2-1t-.8-3.4zm1 0q0 2.1.6 2.8.5.7 1.2.7t1.2-.7q.5-.7.5-2.8 0-2.1-.5-2.8-.5-.7-1.2-.7t-1.2.6q-.5.8-.5 2.9zm6 0q0-1.5.3-2.4.3-1 1-1.5.6-.5 1.5-.5.7 0 1.2.3t.9.8q.3.5.5 1.3.2.7.2 2 0 1.5-.3 2.4-.3 1-1 1.5-.5.5-1.5.5-1.2 0-2-1t-.8-3.4zm1 0q0 2.1.6 2.8.5.7 1.2.7t1.2-.7q.5-.7.5-2.8 0-2.1-.5-2.8-.5-.7-1.2-.7t-1.2.6q-.5.8-.5 2.9z"/>
  <path fill="#000" d="M18.7 28.1l-3.5-10h2.1l2.6 7.4 2.4-7.4h2.2l-3.6 10h-2.2zm7.9-5l-1.7-.3q.2-1 1-1.6.7-.5 2-.5 1.4 0 2 .3.6.3.9.8.2.5.2 1.7v2.3l.1 1.4.4 1h-2l-.1-.6v-.2l-1.1.7-1.2.2q-1.2 0-1.8-.6-.7-.6-.7-1.5 0-.6.3-1.1.3-.5.9-.8l1.5-.4 1.9-.5v-.2q0-.5-.3-.8-.3-.2-1-.2-.6 0-.8.2-.3.2-.5.7zm2.6 1.6L28 25q-.8.1-1 .3-.4.3-.4.7 0 .4.3.7.3.3.7.3.5 0 1-.4.4-.2.5-.6v-1.3zm4 3.4v-10H35v10h-2zm3.3-2l1.9-.3q.1.5.5.8.4.3 1 .3.8 0 1.2-.3.2-.1.2-.5l-.1-.3q-.1-.2-.6-.3-2.4-.5-3-1-.9-.5-.9-1.6 0-.9.8-1.5.7-.7 2.3-.7 1.5 0 2.2.5.7.5 1 1.4l-1.8.4q-.1-.4-.4-.7-.4-.2-1-.2-.7 0-1 .2-.3.2-.3.4l.2.4 1.8.5q1.6.3 2.2.8.6.6.6 1.5 0 1-.9 1.7-.8.7-2.4.7-1.5 0-2.4-.6-.9-.6-1.1-1.6zm12-5.2v1.5h-1.3v4l.2.2.3.1.8-.2.1 1.5q-.6.3-1.5.3l-1-.2q-.3-.1-.5-.4l-.3-.8v-4.5h-1V21h1v-1.5l1.9-1v2.5h1.3zm1 5.2l1.9-.3q.1.5.5.8.4.3 1 .3.8 0 1.2-.3.2-.1.2-.5l-.1-.3q-.1-.2-.6-.3-2.4-.5-3-1-.9-.5-.9-1.6 0-.9.8-1.5.7-.7 2.3-.7 1.5 0 2.2.5.7.5 1 1.4l-1.8.4q-.1-.4-.4-.7-.4-.2-1-.2-.7 0-1 .2-.3.2-.3.4l.2.4 1.8.5q1.6.3 2.2.8.6.6.6 1.5 0 1-.9 1.7-.8.7-2.4.7-1.5 0-2.4-.6-.9-.6-1.1-1.6zM62 28v-10H64v3.6q.9-1 2.1-1 1.3 0 2.2 1 .9 1 .9 2.7 0 2-1 3-.8 1-2 1-.7 0-1.3-.4-.6-.3-1-1v1.1H62zm1.9-3.7q0 1 .3 1.6.5.8 1.4.8.6 0 1-.5.5-.6.5-1.8 0-1.2-.5-1.8-.4-.5-1.1-.5-.7 0-1.2.5-.4.6-.4 1.7zm12 3.8V27l-1.1.9q-.7.3-1.4.3t-1.3-.3q-.6-.3-.8-1-.3-.5-.3-1.5v-4.6h2V26q.1.3.4.5.3.3.7.3.5 0 1-.3l.5-.7v-5h2v7.3H76zm10.8 0H85V27q-.4.6-1 1l-1.2.2q-1.3 0-2.2-1-.9-1-.9-2.8 0-1.9.9-2.8.9-1 2.2-1 1.2 0 2.1 1v-3.6h2v10zm-5.1-3.8q0 1.1.3 1.6.5.8 1.3.8.7 0 1.1-.6.5-.5.5-1.7t-.5-1.8q-.4-.5-1.1-.5-.7 0-1.2.5-.4.6-.4 1.7zm6.7 3.8v-1.6l2.7-3 1-1.2h-3.4V21h6v1.3l-2.8 3.2-1 1.1h4V28h-6.5zm.8-10.2h1.5l.8 1 .8-1h1.5l-1.4 2h-1.8l-1.4-2zm11.2 7.8l1.9.4q-.4 1-1.2 1.6-.8.5-2 .5-1.9 0-2.8-1.2-.7-1-.7-2.5 0-1.8 1-2.8.9-1 2.3-1 1.6 0 2.6 1t.9 3.3h-4.8q0 .8.4 1.3.5.5 1.1.5.5 0 .8-.3.3-.2.5-.8zm0-1.9q0-.8-.4-1.3-.4-.4-1-.4t-1 .4q-.4.5-.4 1.3h2.9zm7-3v1.5h-1.2v4l.2.2.3.1.8-.2.1 1.5q-.6.3-1.5.3l-1-.2q-.3-.1-.5-.4l-.3-.8v-4.5h-1V21h1v-1.5l1.9-1v2.5h1.3zm3.2 2.2l-1.7-.3q.2-1 1-1.6.7-.5 2-.5 1.4 0 2 .3.6.3.9.8.2.5.2 1.7v2.3l.1 1.4.4 1h-2l-.1-.6v-.2l-1.1.7-1.2.2q-1.2 0-1.8-.6-.6-.6-.6-1.5 0-.6.2-1.1.3-.5.9-.8l1.5-.4 1.9-.5v-.2q0-.5-.3-.8-.3-.2-1-.2-.6 0-.8.2-.3.2-.5.7zm2.6 1.6l-1.2.3q-.8.1-1 .3-.4.3-.4.7 0 .4.3.7.3.3.7.3.6 0 1-.4.4-.2.5-.6v-1.3zm8-4.8v-1.8h1.9V20h-2zm0 8.3v-7.3h1.9v7.3h-2zm8.2-2.4l1.9.4q-.4 1-1.2 1.6-.8.5-2 .5-1.9 0-2.8-1.2-.7-1-.7-2.5 0-1.8 1-2.8.9-1 2.3-1 1.6 0 2.6 1t.9 3.3h-4.8q0 .8.4 1.3.5.5 1.1.5.5 0 .8-.3.3-.2.5-.8zm0-1.9q0-.8-.4-1.3-.4-.4-1-.4t-1 .4q-.4.5-.4 1.3h2.9zm10.4 4.3h-2v-3.8V23l-.5-.5q-.3-.2-.7-.2-.4 0-.9.3-.3.2-.5.7l-.1 1.7v3.3h-2v-7.3h1.8v1q1-1.2 2.4-1.2.6 0 1.2.3l.8.5.3.9q.2.4.2 1.2v4.5zm3.8-5.1l-1.7-.3q.2-1 1-1.6.7-.5 2-.5 1.4 0 2 .3.6.3.9.8.2.5.2 1.7v2.3l.1 1.4.4 1h-2l-.1-.6v-.2l-1.1.7-1.2.2q-1.2 0-1.8-.6-.7-.6-.7-1.5 0-.6.3-1.1.3-.5.9-.8l1.5-.4 1.9-.5v-.2q0-.5-.3-.8-.3-.2-1-.2-.6 0-.8.2-.3.2-.5.7zm2.6 1.6l-1.2.3q-.8.1-1 .3-.4.3-.4.7 0 .4.3.7.3.3.7.3.6 0 1-.4.4-.2.5-.6v-1.3zm-3-5v-1.3h4.5v1.3h-4.4zm6.9 8.4v-10h2v5.3l2.2-2.5h2.3l-2.5 2.6 2.7 4.6h-2l-1.9-3.2-.9 1v2.3h-2zm12.8 0v-1q-.4.5-1 .9-.7.3-1.4.3t-1.3-.3q-.6-.3-.8-1-.3-.5-.3-1.5v-4.6h2V26q.1.3.4.5.3.3.7.3.5 0 1-.3l.5-.7v-5h2v7.3H163zM167 21h1.8v1q1-1.2 2.2-1.2.7 0 1.3.3.5.3.8.9.5-.6 1-.9.6-.3 1.2-.3.8 0 1.3.4.6.3.9 1 .2.4.2 1.4v4.6h-2V24l-.1-1.4q-.3-.4-.9-.4l-.7.2q-.4.3-.5.8-.2.4-.2 1.5V28h-1.9v-4l-.1-1.3-.3-.4q-.2-.2-.6-.2-.5 0-.8.2-.4.3-.5.7-.2.5-.2 1.5v3.5H167V21zm12.2-1v-1.8h1.9V20h-2zm0 8.3v-7.3h1.9v7.3h-2zm14-1.8v1.8h-6.7q.1-1 .7-2 .5-.9 2.1-2.4l1.6-1.6q.4-.6.4-1.2t-.3-1q-.4-.3-1-.3t-1 .3q-.3.4-.4 1.2l-1.9-.1q.2-1.6 1-2.3 1-.7 2.4-.7t2.3.8q.8.8.8 2 0 .7-.2 1.3l-.8 1.2q-.3.5-1.2 1.3l-1.2 1.1-.4.6h3.8zM198 18q1.4 0 2.3 1 1 1.3 1 4.1 0 2.9-1 4-.9 1.1-2.3 1.1-1.5 0-2.4-1.1-.9-1.1-.9-4 0-2.8 1-4 .8-1.1 2.3-1.1zm0 1.6l-.6.2q-.3.2-.5.8-.2.7-.2 2.5t.2 2.4q.2.7.5 1l.6.1.6-.2q.3-.2.4-.8.2-.7.2-2.5l-.1-2.4q-.2-.7-.5-.9l-.6-.2zm9.7 8.4h-2V21q-1 1-2.4 1.5v-1.8q.7-.2 1.6-.9.9-.7 1.2-1.6h1.6v10zm4.7-5.4q-.8-.3-1-.8-.4-.6-.4-1.2 0-1.1.8-1.9.7-.7 2.2-.7 1.4 0 2.2.7.8.8.8 1.9 0 .7-.4 1.2-.3.6-1 .8.8.4 1.3 1 .4.7.4 1.5 0 1.4-.9 2.3-.9.8-2.3.8t-2.3-.7q-1-.8-1-2.3 0-.8.3-1.5.4-.7 1.3-1zm.4-1.9q0 .6.3 1 .3.2.9.2.5 0 .9-.3.3-.3.3-.9 0-.5-.3-.9-.4-.3-1-.3-.5 0-.8.3-.3.4-.3 1zm-.2 4.3q0 .8.4 1.2.4.5 1 .5t1-.4q.4-.5.4-1.3 0-.7-.4-1.1-.4-.4-1-.4-.7 0-1 .5-.4.4-.4 1zm6.6 3v-1.9h1.9v2h-2zm7.8.5l2.2.3q0 .4.2.5.3.2.9.2.7 0 1.1-.2.3-.2.4-.5V27q-.8 1.1-2 1.1-1.6 0-2.4-1.2-.7-1-.7-2.4 0-1.9.9-2.8.9-1 2.2-1 1.3 0 2.2 1.2v-1h1.8v6.5q0 1.3-.2 2-.2.6-.6 1l-1 .5q-.7.2-1.6.2-1.9 0-2.7-.6-.7-.7-.7-1.6v-.3zm1.7-4.2q0 1.1.4 1.7.5.5 1.1.5.7 0 1.2-.5.5-.6.5-1.7t-.5-1.7q-.4-.5-1.1-.5-.7 0-1.2.5-.4.6-.4 1.7zm8.9-1.3l-1.7-.3q.2-1 1-1.6.7-.5 2-.5 1.4 0 2 .3.6.3.9.8.2.5.2 1.7v2.3l.1 1.4.4 1h-2l-.1-.6v-.2l-1.1.7-1.2.2q-1.2 0-1.8-.6-.7-.6-.7-1.5 0-.6.3-1.1.3-.5.9-.8l1.5-.4 1.9-.5v-.2q0-.5-.3-.8-.3-.2-1-.2-.6 0-.8.2-.3.2-.5.7zm2.6 1.6l-1.2.3q-.8.1-1 .3-.4.3-.4.7 0 .4.3.7.3.3.7.3.6 0 1-.4.4-.2.5-.6v-1.3zm10.6 3.4H249v-1q-.4.6-1 1l-1.2.2q-1.3 0-2.2-1-.9-1-.9-2.8 0-1.9.9-2.8.9-1 2.2-1 1.2 0 2.1 1v-3.6h2v10zm-5.1-3.7q0 1.1.3 1.6.5.8 1.3.8.7 0 1.1-.6.5-.5.5-1.7t-.5-1.8q-.4-.5-1.1-.5-.7 0-1.2.5-.4.6-.4 1.7zm8.9-1.3l-1.7-.3q.2-1 1-1.6.7-.5 2-.5 1.4 0 2 .3.6.3.9.8.2.5.2 1.7v2.3l.1 1.4.4 1h-2l-.1-.6v-.2l-1.1.7-1.2.2q-1.2 0-1.8-.6-.7-.6-.7-1.5 0-.6.3-1.1.3-.5.9-.8l1.5-.4 1.9-.5v-.2q0-.5-.3-.8-.3-.2-1-.2-.6 0-.8.2-.3.2-.5.7zm2.6 1.6l-1.2.3q-.8.1-1 .3-.4.3-.4.7 0 .4.3.7.3.3.7.3.5 0 1-.4.4-.2.5-.6v-1.3zm7.9-3.8h1.8v1q.3-.5 1-.8.5-.4 1.3-.4 1.2 0 2 1 1 1 1 2.8 0 1.8-1 2.8-.8 1-2 1-.7 0-1.2-.2l-1-.8v3.6h-1.9V21zm1.9 3.5q0 1.2.5 1.8.5.6 1.2.6.6 0 1-.5.5-.6.5-1.8 0-1.1-.4-1.7-.5-.6-1.2-.6t-1.1.6q-.5.5-.5 1.6zm7.1-4.5v-1.8h2V20h-2zm0 8.3v-7.3h2v7.3h-2zm5.9 0h-2v-7.3h1.9v1q.4-.7.8-1 .3-.2.8-.2.7 0 1.3.4l-.6 1.7q-.5-.4-1-.4-.3 0-.6.3-.3.2-.5.8l-.1 2.4v2.3zm3-7.3h1.8v1q1-1.2 2.2-1.2.7 0 1.3.3.5.3.8.9.5-.6 1-.9.6-.3 1.2-.3.8 0 1.3.4.6.3.9 1 .2.4.2 1.4v4.6h-2V24l-.1-1.4q-.3-.4-.9-.4l-.7.2q-.4.3-.5.8-.2.4-.2 1.5V28h-1.9v-4l-.1-1.3-.3-.4q-.2-.2-.6-.2-.5 0-.8.2-.4.3-.5.7-.2.5-.2 1.5v3.5H283V21zm13.6 2.2l-1.7-.3q.2-1 1-1.6.7-.5 2-.5 1.4 0 2 .3.6.3.9.8.2.5.2 1.7v2.3l.1 1.4.4 1h-2l-.1-.6v-.2l-1.1.7-1.2.2q-1.2 0-1.8-.6-.7-.6-.7-1.5 0-.6.3-1.1.3-.5.9-.8l1.5-.4 1.9-.5v-.2q0-.5-.3-.8-.3-.2-1-.2-.6 0-.8.2-.3.2-.5.7zm2.6 1.6l-1.2.3q-.8.1-1 .3-.4.3-.4.7 0 .4.3.7.3.3.7.3.5 0 1-.4.4-.2.5-.6v-1.3zm4-4.8v-1.8h1.8V20h-1.9zm1.8 1v7l-.1 2q-.2.5-.8.9-.5.3-1.3.3h-.6l-.7-.2.3-1.7h.3l.2.1.5-.1.3-.3v-8h2zm1.7 3.5q0-1 .5-1.8.4-1 1.3-1.4.9-.5 2-.5 1.6 0 2.6 1.1 1.1 1 1.1 2.7 0 1.6-1 2.7-1.1 1.1-2.7 1.1-1 0-2-.4-.9-.5-1.3-1.4-.5-.8-.5-2zm2 .1q0 1.1.5 1.7.5.5 1.3.5.7 0 1.2-.5.5-.6.5-1.7 0-1-.5-1.6-.5-.6-1.2-.6-.8 0-1.3.6-.5.5-.5 1.6zm6.8 1.6l1.9-.3q.1.5.5.8.4.3 1 .3.8 0 1.2-.3.2-.1.2-.5l-.1-.3q-.1-.2-.6-.3-2.4-.5-3-1-.9-.5-.9-1.6 0-.9.8-1.5.7-.7 2.3-.7 1.5 0 2.2.5.7.5 1 1.4l-1.8.4q-.1-.4-.4-.7-.4-.2-1-.2-.7 0-1 .2-.3.2-.3.4l.2.4 1.8.5q1.6.3 2.2.8.6.6.6 1.5 0 1-.9 1.7-.8.7-2.4.7-1.5 0-2.4-.6-.9-.6-1.1-1.6zm17.2 2h-2V21q-1 1-2.4 1.5v-1.8q.7-.2 1.6-.9.9-.7 1.2-1.6h1.6v10zm8 0h-2V21q-1 1-2.4 1.5v-1.8q.7-.2 1.6-.9.9-.7 1.2-1.6h1.6v10zM348 21h1.8v1q1-1.2 2.2-1.2.7 0 1.3.3.5.3.8.9.5-.6 1-.9.6-.3 1.2-.3.8 0 1.3.4.6.3.9 1 .2.4.2 1.4v4.6h-2V24l-.1-1.4q-.3-.4-.9-.4l-.7.2q-.4.3-.5.8-.2.4-.2 1.5V28h-1.9v-4l-.1-1.3-.3-.4q-.2-.2-.6-.2-.5 0-.8.2-.4.3-.5.7-.2.5-.2 1.5v3.5H348V21zm16.4 5l1.9.3q-.4 1-1.2 1.6-.8.5-2 .5-1.9 0-2.8-1.2-.7-1-.7-2.5 0-1.8 1-2.8.9-1 2.3-1 1.6 0 2.6 1t.9 3.3h-4.8q0 .8.4 1.3.5.5 1.1.5.5 0 .8-.3.3-.2.5-.8zm0-2q0-.8-.4-1.3-.4-.4-1-.4t-1 .4q-.4.5-.4 1.3h2.9zm-3.1-4.2v-1.3h4.4v1.3h-4.4zm13.5 8.4h-2v-3.7V23l-.5-.5q-.3-.2-.7-.2-.5 0-.9.3-.3.2-.5.7l-.1 1.7v3.3h-2v-7.3h1.8v1q1-1.2 2.4-1.2.6 0 1.2.3l.8.5.3.9q.2.4.2 1.2v4.5zm6.6-2.3l1.9.4q-.4 1-1.2 1.6-.8.5-2 .5-1.9 0-2.8-1.2-.7-1-.7-2.5 0-1.8 1-2.8.9-1 2.3-1 1.6 0 2.6 1t.9 3.3h-4.8q0 .8.4 1.3.5.5 1.1.5.5 0 .8-.3.3-.2.5-.8zm0-1.9q0-.8-.4-1.3-.4-.4-1-.4t-1 .4q-.4.5-.4 1.3h2.9zm3 2.2l2-.3q.1.5.5.8.4.3 1 .3.8 0 1.2-.3.2-.1.2-.5l-.1-.3q-.1-.2-.6-.3-2.4-.5-3-1-.9-.5-.9-1.6 0-.9.8-1.5.7-.7 2.3-.7 1.5 0 2.2.5.7.5 1 1.4l-1.8.4q-.1-.4-.4-.7-.4-.2-1-.2-.7 0-1 .2-.3.2-.3.4l.2.4 1.8.5q1.6.3 2.2.8.6.6.6 1.5 0 1-.9 1.7-.8.7-2.4.7-1.5 0-2.4-.6-.9-.6-1.1-1.6zm.8-8.1h1.5l.8 1 .8-1h1.5l-1.4 2h-1.8l-1.4-2zm7.5 6.4q0-1 .5-1.8.4-1 1.3-1.4.9-.5 2-.5 1.6 0 2.6 1.1 1.1 1 1.1 2.7 0 1.6-1 2.7-1.1 1.1-2.7 1.1-1 0-2-.4-.9-.5-1.3-1.4-.5-.8-.5-2zm2 .1q0 1.1.5 1.7.5.5 1.3.5.7 0 1.2-.5.5-.6.5-1.7 0-1-.5-1.6-.5-.6-1.2-.6-.8 0-1.3.6-.5.5-.5 1.6zm6.8 1.6l1.9-.3q.1.5.5.8.4.3 1 .3.8 0 1.2-.3.2-.1.2-.5l-.1-.3q-.1-.2-.6-.3-2.4-.5-3-1-.9-.5-.9-1.6 0-.9.8-1.5.7-.7 2.3-.7 1.5 0 2.2.5.7.5 1 1.4l-1.8.4q-.1-.4-.4-.7-.4-.2-1-.2-.7 0-1 .2-.3.2-.3.4l.2.4 1.8.5q1.6.3 2.2.8.6.6.6 1.5 0 1-.9 1.7-.8.7-2.4.7-1.5 0-2.4-.6-.9-.6-1.1-1.6z"/>
</svg>
