<svg xmlns="http://www.w3.org/2000/svg" width="808" height="496" fill="none" stroke-linecap="square" stroke-miterlimit="10">
  <path fill="#fff" d="M0 0h808v496H0V0z"/>
  <path fill="#fff" d="M0 0h808v496H0V0z"/>
  <path stroke="#333" stroke-linecap="butt" d="M305.5 56.5v385"/>
  <path stroke="#ccc" stroke-linecap="butt" d="M400.5 56.5v385M495.5 56.5v385M591.5 56.5v385M686.5 56.5v385M781.5 56.5v385"/>
  <clipPath id="a">
    <path d="M305.7 56.4h475.6v384.8H305.7V56.4z"/>
  </clipPath>
  <path d="M306 83V66h419a2 2 0 0 1 2 2v13a2 2 0 0 1-2 2z" clip-path="url(#a)"/>
  <path fill="#c00" d="M306 83V66h419a2 2 0 0 1 2 2v13a2 2 0 0 1-2 2z" clip-path="url(#a)"/>
  <path d="M306 110V93h178a2 2 0 0 1 2 2v13a2 2 0 0 1-2 2z" clip-path="url(#a)"/>
  <path fill="#c00" d="M306 110V93h178a2 2 0 0 1 2 2v13a2 2 0 0 1-2 2z" clip-path="url(#a)"/>
  <path d="M306 137v-17h55a2 2 0 0 1 2 2v13a2 2 0 0 1-2 2z" clip-path="url(#a)"/>
  <path fill="#c00" d="M306 137v-17h55a2 2 0 0 1 2 2v13a2 2 0 0 1-2 2z" clip-path="url(#a)"/>
  <path d="M306 164v-17h44a2 2 0 0 1 2 2v13a2 2 0 0 1-2 2z" clip-path="url(#a)"/>
  <path fill="#c00" d="M306 164v-17h44a2 2 0 0 1 2 2v13a2 2 0 0 1-2 2z" clip-path="url(#a)"/>
  <path d="M306 191v-17h23a2 2 0 0 1 2 2v13a2 2 0 0 1-2 2z" clip-path="url(#a)"/>
  <path fill="#c00" d="M306 191v-17h23a2 2 0 0 1 2 2v13a2 2 0 0 1-2 2z" clip-path="url(#a)"/>
  <path d="M306 218v-17h15a2 2 0 0 1 2 2v13a2 2 0 0 1-2 2z" clip-path="url(#a)"/>
  <path fill="#c00" d="M306 218v-17h15a2 2 0 0 1 2 2v13a2 2 0 0 1-2 2z" clip-path="url(#a)"/>
  <path d="M306 244v-17h7a2 2 0 0 1 2 2v13a2 2 0 0 1-2 2z" clip-path="url(#a)"/>
  <path fill="#c00" d="M306 244v-17h7a2 2 0 0 1 2 2v13a2 2 0 0 1-2 2z" clip-path="url(#a)"/>
  <path d="M306 271v-17h4a2 2 0 0 1 2 2v13a2 2 0 0 1-2 2z" clip-path="url(#a)"/>
  <path fill="#c00" d="M306 271v-17h4a2 2 0 0 1 2 2v13a2 2 0 0 1-2 2z" clip-path="url(#a)"/>
  <path d="M306 298v-17h3a2 2 0 0 1 2 2v13a2 2 0 0 1-2 2z" clip-path="url(#a)"/>
  <path fill="#c00" d="M306 298v-17h3a2 2 0 0 1 2 2v13a2 2 0 0 1-2 2z" clip-path="url(#a)"/>
  <path d="M306 325v-17h1.5c.8 0 1.5.7 1.5 1.5v14c0 .8-.7 1.5-1.5 1.5z" clip-path="url(#a)"/>
  <path fill="#c00" d="M306 325v-17h1.5c.8 0 1.5.7 1.5 1.5v14c0 .8-.7 1.5-1.5 1.5z" clip-path="url(#a)"/>
  <path d="M306 352v-17h1.5c.8 0 1.5.7 1.5 1.5v14c0 .8-.7 1.5-1.5 1.5z" clip-path="url(#a)"/>
  <path fill="#c00" d="M306 352v-17h1.5c.8 0 1.5.7 1.5 1.5v14c0 .8-.7 1.5-1.5 1.5z" clip-path="url(#a)"/>
  <path d="M306 378v-17h.5c.3 0 .5.2.5.5v16c0 .3-.2.5-.5.5z" clip-path="url(#a)"/>
  <path fill="#c00" d="M306 378v-17h.5c.3 0 .5.2.5.5v16c0 .3-.2.5-.5.5z" clip-path="url(#a)"/>
  <path d="M306 405v-17h.5c.3 0 .5.2.5.5v16c0 .3-.2.5-.5.5z" clip-path="url(#a)"/>
  <path fill="#c00" d="M306 405v-17h.5c.3 0 .5.2.5.5v16c0 .3-.2.5-.5.5z" clip-path="url(#a)"/>
  <path d="M306 432v-17 17z" clip-path="url(#a)"/>
  <path fill="#c00" d="M306 432v-17 17z" clip-path="url(#a)"/>
  <path stroke="#fff" stroke-linecap="round" stroke-linejoin="round" stroke-width="3" d="M745.5 78.5h-5.6v-.8l3-3.3q.6-.7.8-1.2.3-.4.3-1t-.4-1q-.4-.5-1.1-.5-.8 0-1.2.5-.5.5-.5 1.3h-1q0-1.2.7-2 .7-.7 2-.7 1.2 0 1.9.7.7.6.7 1.6 0 1.3-1.6 3l-2.3 2.5h4.3v.9zm7 0h-5.6v-.8l3-3.3q.6-.7.8-1.2.3-.4.3-1t-.4-1q-.4-.5-1.1-.5-.8 0-1.2.5-.5.5-.5 1.3h-1q0-1.2.7-2 .7-.7 2-.7 1.2 0 1.9.7.7.6.7 1.6 0 1.3-1.6 3l-2.3 2.5h4.3v.9zm5 0h-1.1v-7.2l-2.2.8v-1l3-1.2h.2v8.6zM765 70v.9h-.2q-1.2 0-2 .7-.7.8-.8 2 .6-.7 1.8-.7 1.1 0 1.8.8.6.8.6 2 0 1.3-.7 2.1t-2 .8q-1.1 0-1.9-1-.7-.9-.7-2.3v-.5q0-2.3 1-3.6 1-1.2 3-1.2h.1zm-1.4 3.8q-.5 0-1 .3-.5.4-.7.9v.4q0 1 .5 1.7.5.6 1.2.6t1.1-.5q.5-.6.5-1.4 0-1-.5-1.4-.4-.6-1-.6z"/>
  <path fill="#c00" d="M745.5 78.5h-5.6v-.8l3-3.3q.6-.7.8-1.2.3-.4.3-1t-.4-1q-.4-.5-1.1-.5-.8 0-1.2.5-.5.5-.5 1.3h-1q0-1.2.7-2 .7-.7 2-.7 1.2 0 1.9.7.7.6.7 1.6 0 1.3-1.6 3l-2.3 2.5h4.3v.9zm7 0h-5.6v-.8l3-3.3q.6-.7.8-1.2.3-.4.3-1t-.4-1q-.4-.5-1.1-.5-.8 0-1.2.5-.5.5-.5 1.3h-1q0-1.2.7-2 .7-.7 2-.7 1.2 0 1.9.7.7.6.7 1.6 0 1.3-1.6 3l-2.3 2.5h4.3v.9zm5 0h-1.1v-7.2l-2.2.8v-1l3-1.2h.2v8.6zM765 70v.9h-.2q-1.2 0-2 .7-.7.8-.8 2 .6-.7 1.8-.7 1.1 0 1.8.8.6.8.6 2 0 1.3-.7 2.1t-2 .8q-1.1 0-1.9-1-.7-.9-.7-2.3v-.5q0-2.3 1-3.6 1-1.2 3-1.2h.1zm-1.4 3.8q-.5 0-1 .3-.5.4-.7.9v.4q0 1 .5 1.7.5.6 1.2.6t1.1-.5q.5-.6.5-1.4 0-1-.5-1.4-.4-.6-1-.6z"/>
  <path stroke="#fff" stroke-linecap="round" stroke-linejoin="round" stroke-width="3" d="M502.7 101.8q-.3.4-.8.6l-1 .2q-.8 0-1.3-.3-.6-.4-.9-1-.3-.7-.3-1.5t.4-1.5q.3-.7.9-1 .6-.5 1.4-.5 1.3 0 2 1t.7 2.6v.3q0 2.5-1 3.6-1 1.2-3 1.2h-.2v-1h.3q1.3 0 2-.6.8-.7.8-2.2zm-1.7 0q.6 0 1-.4.5-.3.7-.8v-.4q0-1.1-.4-1.8-.5-.7-1.2-.7t-1.2.6q-.4.5-.4 1.5 0 .8.4 1.4.4.5 1.1.5zm9.1.8h1.2v1h-1.2v1.9h-1v-2h-4v-.6l3.9-6h1.1v5.7zm-3.7 0h2.7v-4.1l-.2.2-2.5 4zm11.7-5l-3.6 7.9h-1.1l3.5-7.6h-4.6v-1h5.8v.7z"/>
  <path fill="#c00" d="M502.7 101.8q-.3.4-.8.6l-1 .2q-.8 0-1.3-.3-.6-.4-.9-1-.3-.7-.3-1.5t.4-1.5q.3-.7.9-1 .6-.5 1.4-.5 1.3 0 2 1t.7 2.6v.3q0 2.5-1 3.6-1 1.2-3 1.2h-.2v-1h.3q1.3 0 2-.6.8-.7.8-2.2zm-1.7 0q.6 0 1-.4.5-.3.7-.8v-.4q0-1.1-.4-1.8-.5-.7-1.2-.7t-1.2.6q-.4.5-.4 1.5 0 .8.4 1.4.4.5 1.1.5zm9.1.8h1.2v1h-1.2v1.9h-1v-2h-4v-.6l3.9-6h1.1v5.7zm-3.7 0h2.7v-4.1l-.2.2-2.5 4zm11.7-5l-3.6 7.9h-1.1l3.5-7.6h-4.6v-1h5.8v.7z"/>
  <path stroke="#fff" stroke-linecap="round" stroke-linejoin="round" stroke-width="3" d="M377.4 127.7h.8q.8 0 1.2-.4.4-.4.4-1 0-1.6-1.5-1.6-.7 0-1 .4-.5.4-.5 1.1h-1q0-1 .6-1.7.8-.7 2-.7 1.1 0 1.8.7.7.6.7 1.8 0 .5-.4 1-.3.6-1 .8.8.2 1.1.8.4.5.4 1.2 0 1.2-.7 1.9-.8.6-2 .6t-2-.6q-.7-.7-.7-1.8h1.1q0 .7.5 1.1.4.4 1.1.4.8 0 1.2-.4.5-.4.5-1.2 0-.7-.5-1-.5-.5-1.3-.5h-.8v-.9zm10.7 1.2q0 1.9-.6 2.8-.7 1-2 1-1.4 0-2-1-.7-.9-.7-2.7v-1.4q0-2 .6-2.8.6-1 2-1t2 1q.7.8.7 2.7v1.4zm-1-1.5q0-1.4-.4-2-.4-.7-1.3-.7-.8 0-1.2.7-.4.6-.4 1.9v1.7q0 1.4.4 2 .4.7 1.3.7.8 0 1.1-.6.4-.6.4-2v-1.7zm6.2 5.1h-1v-7.2l-2.2.8v-1l3-1.2h.2v8.6z"/>
  <path fill="#c00" d="M377.4 127.7h.8q.8 0 1.2-.4.4-.4.4-1 0-1.6-1.5-1.6-.7 0-1 .4-.5.4-.5 1.1h-1q0-1 .6-1.7.8-.7 2-.7 1.1 0 1.8.7.7.6.7 1.8 0 .5-.4 1-.3.6-1 .8.8.2 1.1.8.4.5.4 1.2 0 1.2-.7 1.9-.8.6-2 .6t-2-.6q-.7-.7-.7-1.8h1.1q0 .7.5 1.1.4.4 1.1.4.8 0 1.2-.4.5-.4.5-1.2 0-.7-.5-1-.5-.5-1.3-.5h-.8v-.9zm10.7 1.2q0 1.9-.6 2.8-.7 1-2 1-1.4 0-2-1-.7-.9-.7-2.7v-1.4q0-2 .6-2.8.6-1 2-1t2 1q.7.8.7 2.7v1.4zm-1-1.5q0-1.4-.4-2-.4-.7-1.3-.7-.8 0-1.2.7-.4.6-.4 1.9v1.7q0 1.4.4 2 .4.7 1.3.7.8 0 1.1-.6.4-.6.4-2v-1.7zm6.2 5.1h-1v-7.2l-2.2.8v-1l3-1.2h.2v8.6z"/>
  <path stroke="#fff" stroke-linecap="round" stroke-linejoin="round" stroke-width="3" d="M370.6 159.5H365v-.8l3-3.3q.6-.7.8-1.2.3-.4.3-1t-.4-1q-.4-.5-1.1-.5-.8 0-1.2.5-.5.5-.5 1.3h-1q0-1.2.7-2 .7-.7 2-.7 1.2 0 1.9.7.7.6.7 1.6 0 1.3-1.6 3l-2.3 2.5h4.3v.9zm6-2.9h1.1v1h-1.1v1.9h-1.1v-2h-4v-.6l3.9-6h1.2v5.7zm-3.8 0h2.7v-4.1l-.2.2-2.5 4zm6.7-1.4l.4-4.2h4.4v1h-3.5l-.2 2.3q.6-.4 1.4-.4 1.2 0 1.9.8.6.8.6 2 0 1.4-.7 2.2-.7.7-2 .7-1 0-1.8-.6-.7-.6-.8-1.8h1q.1.8.5 1.2.4.3 1.1.3.8 0 1.2-.5.5-.5.5-1.4 0-.9-.5-1.4-.5-.5-1.3-.5-.7 0-1 .3l-.3.2-1-.2z"/>
  <path fill="#c00" d="M370.6 159.5H365v-.8l3-3.3q.6-.7.8-1.2.3-.4.3-1t-.4-1q-.4-.5-1.1-.5-.8 0-1.2.5-.5.5-.5 1.3h-1q0-1.2.7-2 .7-.7 2-.7 1.2 0 1.9.7.7.6.7 1.6 0 1.3-1.6 3l-2.3 2.5h4.3v.9zm6-2.9h1.1v1h-1.1v1.9h-1.1v-2h-4v-.6l3.9-6h1.2v5.7zm-3.8 0h2.7v-4.1l-.2.2-2.5 4zm6.7-1.4l.4-4.2h4.4v1h-3.5l-.2 2.3q.6-.4 1.4-.4 1.2 0 1.9.8.6.8.6 2 0 1.4-.7 2.2-.7.7-2 .7-1 0-1.8-.6-.7-.6-.8-1.8h1q.1.8.5 1.2.4.3 1.1.3.8 0 1.2-.5.5-.5.5-1.4 0-.9-.5-1.4-.5-.5-1.3-.5-.7 0-1 .3l-.3.2-1-.2z"/>
  <path stroke="#fff" stroke-linecap="round" stroke-linejoin="round" stroke-width="3" d="M347.5 186.5h-1v-7.2l-2.3.8v-1l3.2-1.2h.1v8.6zm5-4.8h.8q.8 0 1.3-.4.4-.4.4-1 0-1.6-1.5-1.6-.7 0-1.1.4-.4.4-.4 1.1h-1.1q0-1 .7-1.7.8-.7 1.9-.7 1.2 0 1.9.7.7.6.7 1.8 0 .5-.4 1-.3.6-1 .8.7.2 1.1.8.4.5.4 1.2 0 1.2-.8 1.9-.7.6-1.9.6t-2-.6q-.7-.7-.7-1.8h1q0 .7.5 1.1.5.4 1.2.4.8 0 1.2-.4.4-.4.4-1.2 0-.7-.4-1-.5-.5-1.4-.5h-.8v-.9zm10 2h1.2v.8h-1.2v2h-1v-2h-4v-.6l3.9-6h1.1v5.7zm-3.7 0h2.6v-4.2.2l-2.6 4z"/>
  <path fill="#c00" d="M347.5 186.5h-1v-7.2l-2.3.8v-1l3.2-1.2h.1v8.6zm5-4.8h.8q.8 0 1.3-.4.4-.4.4-1 0-1.6-1.5-1.6-.7 0-1.1.4-.4.4-.4 1.1h-1.1q0-1 .7-1.7.8-.7 1.9-.7 1.2 0 1.9.7.7.6.7 1.8 0 .5-.4 1-.3.6-1 .8.7.2 1.1.8.4.5.4 1.2 0 1.2-.8 1.9-.7.6-1.9.6t-2-.6q-.7-.7-.7-1.8h1q0 .7.5 1.1.5.4 1.2.4.8 0 1.2-.4.4-.4.4-1.2 0-.7-.4-1-.5-.5-1.4-.5h-.8v-.9zm10 2h1.2v.8h-1.2v2h-1v-2h-4v-.6l3.9-6h1.1v5.7zm-3.7 0h2.6v-4.2.2l-2.6 4z"/>
  <path stroke="#fff" stroke-linecap="round" stroke-linejoin="round" stroke-width="3" d="M340.5 207.2q0 .6-.3 1.1-.4.5-1 .8.7.3 1.1.9.4.5.4 1.2 0 1.1-.8 1.8-.7.6-1.9.6t-2-.6q-.7-.7-.7-1.8 0-.7.4-1.2.3-.6 1-.9-.6-.3-.9-.8-.3-.5-.3-1.1 0-1 .7-1.7t1.8-.7q1.1 0 1.8.7.7.6.7 1.7zm-.9 4q0-.7-.4-1.2-.5-.4-1.2-.4-.8 0-1.2.4-.4.5-.4 1.2t.4 1.1q.4.4 1.2.4.7 0 1.2-.4.4-.4.4-1.1zm-1.6-5.5q-.6 0-1 .4t-.4 1.1q0 .7.3 1 .4.5 1 .5.7 0 1.1-.4.4-.4.4-1 0-.7-.4-1.1-.4-.5-1-.5zm8.5 4q-.3.5-.8.7l-1 .2q-.8 0-1.3-.3-.6-.4-.9-1-.3-.7-.3-1.5t.3-1.5q.4-.7 1-1 .6-.5 1.4-.5 1.2 0 2 1 .7 1 .7 2.6v.3q0 2.5-1 3.6-1 1.2-3 1.2h-.2v-1h.2q1.4 0 2.1-.6.7-.7.8-2.2zm-1.7 0q.6 0 1-.3.5-.3.7-.8v-.4q0-1.1-.5-1.8-.4-.7-1.1-.7-.8 0-1.2.6-.4.5-.4 1.4 0 1 .4 1.5.4.6 1.1.6z"/>
  <path fill="#c00" d="M340.5 207.2q0 .6-.3 1.1-.4.5-1 .8.7.3 1.1.9.4.5.4 1.2 0 1.1-.8 1.8-.7.6-1.9.6t-2-.6q-.7-.7-.7-1.8 0-.7.4-1.2.3-.6 1-.9-.6-.3-.9-.8-.3-.5-.3-1.1 0-1 .7-1.7t1.8-.7q1.1 0 1.8.7.7.6.7 1.7zm-.9 4q0-.7-.4-1.2-.5-.4-1.2-.4-.8 0-1.2.4-.4.5-.4 1.2t.4 1.1q.4.4 1.2.4.7 0 1.2-.4.4-.4.4-1.1zm-1.6-5.5q-.6 0-1 .4t-.4 1.1q0 .7.3 1 .4.5 1 .5.7 0 1.1-.4.4-.4.4-1 0-.7-.4-1.1-.4-.5-1-.5zm8.5 4q-.3.5-.8.7l-1 .2q-.8 0-1.3-.3-.6-.4-.9-1-.3-.7-.3-1.5t.3-1.5q.4-.7 1-1 .6-.5 1.4-.5 1.2 0 2 1 .7 1 .7 2.6v.3q0 2.5-1 3.6-1 1.2-3 1.2h-.2v-1h.2q1.4 0 2.1-.6.7-.7.8-2.2zm-1.7 0q.6 0 1-.3.5-.3.7-.8v-.4q0-1.1-.5-1.8-.4-.7-1.1-.7-.8 0-1.2.6-.4.5-.4 1.4 0 1 .4 1.5.4.6 1.1.6z"/>
  <path stroke="#fff" stroke-linecap="round" stroke-linejoin="round" stroke-width="3" d="M332.3 236.6h1.2v1h-1.2v1.9h-1.1v-2h-3.9v-.6l3.8-6h1.2v5.7zm-3.8 0h2.7v-4.1l-.1.2-2.6 4zm10.4-.8q-.4.4-.9.6-.4.2-1 .2-.7 0-1.3-.3-.5-.4-.8-1-.3-.7-.3-1.5t.3-1.5q.3-.7 1-1 .5-.5 1.3-.5 1.3 0 2 1 .8 1 .8 2.6v.3q0 2.5-1 3.6-1 1.2-3 1.2h-.2v-1h.2q1.4 0 2-.6.8-.7.9-2.2zm-1.7 0q.5 0 1-.4.5-.3.7-.8v-.4q0-1.1-.5-1.8t-1.2-.7q-.7 0-1.1.6-.4.5-.4 1.4 0 1 .4 1.5.4.6 1 .6z"/>
  <path fill="#c00" d="M332.3 236.6h1.2v1h-1.2v1.9h-1.1v-2h-3.9v-.6l3.8-6h1.2v5.7zm-3.8 0h2.7v-4.1l-.1.2-2.6 4zm10.4-.8q-.4.4-.9.6-.4.2-1 .2-.7 0-1.3-.3-.5-.4-.8-1-.3-.7-.3-1.5t.3-1.5q.3-.7 1-1 .5-.5 1.3-.5 1.3 0 2 1 .8 1 .8 2.6v.3q0 2.5-1 3.6-1 1.2-3 1.2h-.2v-1h.2q1.4 0 2-.6.8-.7.9-2.2zm-1.7 0q.5 0 1-.4.5-.3.7-.8v-.4q0-1.1-.5-1.8t-1.2-.7q-.7 0-1.1.6-.4.5-.4 1.4 0 1 .4 1.5.4.6 1 .6z"/>
  <path stroke="#fff" stroke-linecap="round" stroke-linejoin="round" stroke-width="3" d="M326 261.7h1q.7 0 1.1-.4.5-.4.5-1 0-1.6-1.5-1.6-.7 0-1.2.4-.4.4-.4 1.1h-1q0-1 .7-1.7t1.9-.7q1.2 0 1.9.7.6.6.6 1.8 0 .5-.3 1-.4.6-1 .8.7.2 1 .8.5.5.5 1.2 0 1.2-.8 1.9-.7.6-2 .6-1.1 0-1.9-.6-.7-.7-.7-1.8h1q0 .7.5 1.1.4.4 1.2.4.8 0 1.2-.4.4-.4.4-1.2 0-.7-.5-1-.4-.5-1.3-.5h-.8v-.9zm11.1 4.8h-5.6v-.8l3-3.3.9-1.2q.2-.4.2-1t-.4-1q-.4-.5-1-.5-.9 0-1.3.5-.5.5-.5 1.3h-1q0-1.2.7-2 .8-.7 2-.7t2 .7q.6.6.6 1.6 0 1.3-1.6 3l-2.3 2.5h4.3v.9z"/>
  <path fill="#c00" d="M326 261.7h1q.7 0 1.1-.4.5-.4.5-1 0-1.6-1.5-1.6-.7 0-1.2.4-.4.4-.4 1.1h-1q0-1 .7-1.7t1.9-.7q1.2 0 1.9.7.6.6.6 1.8 0 .5-.3 1-.4.6-1 .8.7.2 1 .8.5.5.5 1.2 0 1.2-.8 1.9-.7.6-2 .6-1.1 0-1.9-.6-.7-.7-.7-1.8h1q0 .7.5 1.1.4.4 1.2.4.8 0 1.2-.4.4-.4.4-1.2 0-.7-.5-1-.4-.5-1.3-.5h-.8v-.9zm11.1 4.8h-5.6v-.8l3-3.3.9-1.2q.2-.4.2-1t-.4-1q-.4-.5-1-.5-.9 0-1.3.5-.5.5-.5 1.3h-1q0-1.2.7-2 .8-.7 2-.7t2 .7q.6.6.6 1.6 0 1.3-1.6 3l-2.3 2.5h4.3v.9z"/>
  <path stroke="#fff" stroke-linecap="round" stroke-linejoin="round" stroke-width="3" d="M329.4 293.5h-5.6v-.8l3-3.3.9-1.2q.2-.4.2-1t-.4-1q-.4-.5-1-.5-.8 0-1.3.5-.4.5-.4 1.3h-1.1q0-1.2.7-2 .8-.7 2-.7 1.3 0 2 .7.6.6.6 1.6 0 1.3-1.6 3l-2.3 2.5h4.3v.9zm6.6-6.3q0 .6-.3 1.1-.4.5-1 .8.7.3 1.1.9.4.5.4 1.2 0 1.1-.7 1.8-.8.6-2 .6t-2-.6q-.7-.7-.7-1.8 0-.7.4-1.2.3-.6 1-.9-.6-.3-.9-.8-.3-.5-.3-1.1 0-1 .7-1.7t1.8-.7q1.1 0 1.8.7.7.6.7 1.7zm-.9 4q0-.7-.4-1.2-.5-.4-1.2-.4t-1.2.4q-.4.5-.4 1.2t.4 1.1q.4.4 1.2.4.8 0 1.2-.4.4-.4.4-1.1zm-1.6-5.5q-.6 0-1 .4t-.4 1.1q0 .7.4 1 .3.5 1 .5.6 0 1-.4t.4-1q0-.7-.4-1.1-.4-.5-1-.5z"/>
  <path fill="#c00" d="M329.4 293.5h-5.6v-.8l3-3.3.9-1.2q.2-.4.2-1t-.4-1q-.4-.5-1-.5-.8 0-1.3.5-.4.5-.4 1.3h-1.1q0-1.2.7-2 .8-.7 2-.7 1.3 0 2 .7.6.6.6 1.6 0 1.3-1.6 3l-2.3 2.5h4.3v.9zm6.6-6.3q0 .6-.3 1.1-.4.5-1 .8.7.3 1.1.9.4.5.4 1.2 0 1.1-.7 1.8-.8.6-2 .6t-2-.6q-.7-.7-.7-1.8 0-.7.4-1.2.3-.6 1-.9-.6-.3-.9-.8-.3-.5-.3-1.1 0-1 .7-1.7t1.8-.7q1.1 0 1.8.7.7.6.7 1.7zm-.9 4q0-.7-.4-1.2-.5-.4-1.2-.4t-1.2.4q-.4.5-.4 1.2t.4 1.1q.4.4 1.2.4.8 0 1.2-.4.4-.4.4-1.1zm-1.6-5.5q-.6 0-1 .4t-.4 1.1q0 .7.4 1 .3.5 1 .5.6 0 1-.4t.4-1q0-.7-.4-1.1-.4-.5-1-.5z"/>
  <path stroke="#fff" stroke-linecap="round" stroke-linejoin="round" stroke-width="3" d="M325.6 320.5h-1v-7.2l-2.2.8v-1l3-1.2h.2v8.6zm7.6-3.8q-.3.5-.8.7l-1 .2q-.8 0-1.3-.3-.6-.4-.8-1-.3-.7-.3-1.5t.3-1.5q.3-.7.9-1 .6-.5 1.4-.5 1.3 0 2 1t.7 2.6v.3q0 2.5-1 3.6-1 1.2-3 1.2h-.2v-1h.3q1.3 0 2-.6.8-.7.8-2.1zm-1.7 0q.6 0 1-.3.5-.3.7-.8v-.4q0-1.1-.4-1.8-.5-.6-1.2-.6t-1.2.5q-.4.5-.4 1.4 0 1 .4 1.5.4.6 1.1.6z"/>
  <path fill="#c00" d="M325.6 320.5h-1v-7.2l-2.2.8v-1l3-1.2h.2v8.6zm7.6-3.8q-.3.5-.8.7l-1 .2q-.8 0-1.3-.3-.6-.4-.8-1-.3-.7-.3-1.5t.3-1.5q.3-.7.9-1 .6-.5 1.4-.5 1.3 0 2 1t.7 2.6v.3q0 2.5-1 3.6-1 1.2-3 1.2h-.2v-1h.3q1.3 0 2-.6.8-.7.8-2.1zm-1.7 0q.6 0 1-.3.5-.3.7-.8v-.4q0-1.1-.4-1.8-.5-.6-1.2-.6t-1.2.5q-.4.5-.4 1.4 0 1 .4 1.5.4.6 1.1.6z"/>
  <path stroke="#fff" stroke-linecap="round" stroke-linejoin="round" stroke-width="3" d="M325 347.5h-1.1v-7.2l-2.2.8v-1l3.1-1.2h.2v8.6zm7.7-8.5v.9h-.2q-1.3 0-2 .7-.8.8-1 2 .8-.7 2-.7 1 0 1.7.8t.7 2q0 1.3-.7 2.1-.8.8-2 .8t-2-1q-.7-.9-.7-2.4v-.4q0-2.3 1-3.6 1-1.2 3-1.2h.2zm-1.4 3.8q-.6 0-1 .3-.5.4-.7.9v.4q0 1 .4 1.7.5.6 1.2.6.8 0 1.2-.5.4-.6.4-1.4 0-1-.4-1.4-.4-.6-1.1-.6z"/>
  <path fill="#c00" d="M325 347.5h-1.1v-7.2l-2.2.8v-1l3.1-1.2h.2v8.6zm7.7-8.5v.9h-.2q-1.3 0-2 .7-.8.8-1 2 .8-.7 2-.7 1 0 1.7.8t.7 2q0 1.3-.7 2.1-.8.8-2 .8t-2-1q-.7-.9-.7-2.4v-.4q0-2.3 1-3.6 1-1.2 3-1.2h.2zm-1.4 3.8q-.6 0-1 .3-.5.4-.7.9v.4q0 1 .4 1.7.5.6 1.2.6.8 0 1.2-.5.4-.6.4-1.4 0-1-.4-1.4-.4-.6-1.1-.6z"/>
  <path stroke="#fff" stroke-linecap="round" stroke-linejoin="round" stroke-width="3" d="M320 369.2l.4-4.2h4.4v1h-3.5l-.3 2.3q.7-.4 1.5-.4 1.1 0 1.8.8t.7 2q0 1.4-.7 2.2-.7.7-2 .7-1.1 0-1.8-.6-.8-.6-.9-1.8h1q.2.8.6 1.2.4.3 1.1.3.8 0 1.2-.5.4-.5.4-1.4 0-.9-.4-1.4-.5-.5-1.3-.5-.7 0-1.1.3l-.3.2-.9-.2z"/>
  <path fill="#c00" d="M320 369.2l.4-4.2h4.4v1h-3.5l-.3 2.3q.7-.4 1.5-.4 1.1 0 1.8.8t.7 2q0 1.4-.7 2.2-.7.7-2 .7-1.1 0-1.8-.6-.8-.6-.9-1.8h1q.2.8.6 1.2.4.3 1.1.3.8 0 1.2-.5.4-.5.4-1.4 0-.9-.4-1.4-.5-.5-1.3-.5-.7 0-1.1.3l-.3.2-.9-.2z"/>
  <path stroke="#fff" stroke-linecap="round" stroke-linejoin="round" stroke-width="3" d="M319.8 396.2l.5-4.2h4.3v1h-3.4l-.3 2.3q.7-.4 1.5-.4 1.1 0 1.8.8t.7 2q0 1.4-.7 2.2-.7.7-2 .7-1.1 0-1.9-.6-.7-.6-.8-1.8h1q.2.8.6 1.2.4.3 1 .3.8 0 1.3-.5.4-.5.4-1.4 0-.9-.5-1.4-.4-.5-1.2-.5-.7 0-1.1.3l-.3.2-.9-.2z"/>
  <path fill="#c00" d="M319.8 396.2l.5-4.2h4.3v1h-3.4l-.3 2.3q.7-.4 1.5-.4 1.1 0 1.8.8t.7 2q0 1.4-.7 2.2-.7.7-2 .7-1.1 0-1.9-.6-.7-.6-.8-1.8h1q.2.8.6 1.2.4.3 1 .3.8 0 1.3-.5.4-.5.4-1.4 0-.9-.5-1.4-.4-.5-1.2-.5-.7 0-1.1.3l-.3.2-.9-.2z"/>
  <path stroke="#fff" stroke-linecap="round" stroke-linejoin="round" stroke-width="3" d="M323.7 424.6h1.2v1h-1.2v1.9h-1v-2h-4v-.6l3.8-6h1.2v5.7zm-3.7 0h2.6v-4.1l-.1.2-2.5 4z"/>
  <path fill="#c00" d="M323.7 424.6h1.2v1h-1.2v1.9h-1v-2h-4v-.6l3.8-6h1.2v5.7zm-3.7 0h2.6v-4.1l-.1.2-2.5 4z"/>
  <path fill="#424242" d="M516.4 471.4l2.8 7 2.8-7h1.5v8.5h-1.1V473l-2.7 7h-.9l-2.8-7 .1 3.6v3.3H515v-8.5h1.4zm9.6 8.5h-1v-6.3h1v6.3zm-1.2-8l.2-.4q.2-.2.5-.2t.4.2l.2.4q0 .3-.2.5l-.4.1-.5-.1q-.2-.2-.2-.5zm4.2 8h-1v-9h1v9zm3-6.3v7q0 2-1.7 2-.4 0-.7-.2v-.9h.5l.6-.1q.2-.2.2-.7v-7.1h1zm-1.3-1.7l.2-.4q.2-.2.5-.2t.4.2l.2.4q0 .3-.2.5l-.4.1-.5-.1q-.2-.2-.2-.5zm2.8 4.8q0-1 .4-1.7t1-1.1q.7-.4 1.5-.4 1.3 0 2.1.9t.8 2.4q0 1-.3 1.7-.4.7-1 1.2-.7.4-1.6.4-1.3 0-2-1-.9-.8-.9-2.3zm1.1.2q0 1 .5 1.6.5.7 1.3.7t1.3-.7q.5-.6.5-1.8 0-1-.5-1.7-.5-.6-1.3-.6t-1.3.6q-.5.7-.5 1.9zm7.2-3.3v.8q.8-.9 2-.9 2 0 2 2.3v4.1h-1v-4.2q0-.6-.4-1-.3-.3-1-.3-.5 0-.9.3t-.6.7v4.5h-1v-6.3h1zm7.2 6.3h-1v-6.3h1v6.3zm-1.2-8l.2-.4q.2-.2.5-.2t.4.2l.2.4q0 .3-.2.5l-.4.1-.5-.1q-.2-.2-.2-.5zm8.7 8.2q-1.3 0-2.2-.9-.8-.8-.8-2.3v-.1q0-1 .4-1.7.4-.8 1-1.2.7-.4 1.4-.4 1.2 0 2 .8.6.8.6 2.3v.5h-4.3q0 1 .6 1.5.5.6 1.3.6.6 0 1-.3.4-.2.7-.6l.6.5q-.8 1.3-2.3 1.3zm-.2-5.7q-.6 0-1.1.5-.4.4-.5 1.3h3.1q0-1-.4-1.4-.4-.4-1-.4zm4.7 5.5h-1v-6.3h1v6.3zm-1.2-8l.2-.4q.2-.2.5-.2t.4.2l.2.4q0 .3-.2.5l-.4.1-.5-.1q-.2-.2-.2-.5zm6 2.7h-.4q-1.1 0-1.5.8v4.5h-1v-6.3h1v.7q.5-.8 1.5-.8h.5v1zm.7 2.1q0-1 .4-1.7t1-1.1q.7-.4 1.5-.4 1.3 0 2.1.9t.8 2.4q0 1-.3 1.7-.4.7-1 1.2-.7.4-1.6.4-1.3 0-2-1-.9-.8-.9-2.3zm1.1.2q0 1 .5 1.6.5.7 1.3.7t1.3-.7q.5-.6.5-1.8 0-1-.5-1.7-.5-.6-1.3-.6t-1.3.6q-.5.7-.5 1.9z"/>
  <path fill="#000" d="M115.8 79.5v-10h5.3q.8.2 1.3.5.5.4.8 1 .3.6.3 1.4 0 1.2-.8 2.1-.8 1-3 1h-2.6v4h-1.3zm1.3-5.3h2.6q1.3 0 1.9-.4.5-.5.5-1.4 0-.6-.3-1-.3-.5-.9-.7h-3.8v3.5zm7.6-3.3v-1.4h1.2v1.4h-1.2zm0 8.6v-7.3h1.2v7.3h-1.2zm8-2.4l1.2.2q-.3 1.1-1.1 1.7-.8.7-2 .7-1.7 0-2.6-1-1-1-1-2.8 0-1.8 1-2.8 1-1 2.4-1 1.5 0 2.4 1 1 1 1 2.7v.4h-5.5q.1 1.2.7 1.8.6.6 1.5.6.7 0 1.2-.3.5-.4.7-1.2zm-4.1-2h4q0-.9-.4-1.3-.6-.7-1.5-.7t-1.5.5q-.5.6-.6 1.6zm9 4.4l-2.7-7.3h1.3l1.6 4.4.4 1.4.5-1.3 1.6-4.5h1.3l-2.8 7.3h-1.1zm5-8.6v-1.4h1.3v1.4h-1.2zm0 8.6v-7.3h1.3v7.3h-1.2zm8-2.4l1.3.2q-.3 1.1-1.1 1.7-.8.7-2 .7-1.7 0-2.6-1-1-1-1-2.8 0-1.8 1-2.8 1-1 2.4-1 1.5 0 2.4 1 1 1 1 2.7v.4h-5.5q.1 1.2.7 1.8.6.6 1.5.6.7 0 1.2-.3.5-.4.7-1.2zm-4-2h4q0-.9-.4-1.3-.6-.7-1.5-.7t-1.5.5q-.5.6-.6 1.6zm7 4.4v-7.3h1.2v1q.8-1.1 2.3-1.1l1.2.2q.5.2.8.6.3.4.4 1v5.6h-1.2V75l-.1-1.1q-.1-.4-.5-.6-.4-.3-.9-.3-.8 0-1.3.5-.6.5-.6 2v3.9h-1.2zm7.6-3.6q0-2 1.1-3 1-.8 2.3-.8 1.5 0 2.5 1t1 2.7q0 1.4-.5 2.2-.4.8-1.2 1.2-.8.5-1.8.5-1.5 0-2.5-1-.9-1-.9-2.8zm1.3 0q0 1.4.6 2 .6.7 1.5.7 1 0 1.5-.7.6-.7.6-2 0-1.4-.6-2.1-.6-.7-1.5-.7t-1.5.7q-.6.7-.6 2zm9.9 2.5l.1 1-.9.2q-.7 0-1-.2-.4-.2-.6-.6l-.1-1.4v-4.2h-1v-1h1v-1.8l1.2-.7v2.5h1.3v1H171V78q.1.2.3.2l.4.1h.6zm6 .2q-.7.6-1.3.8-.6.3-1.4.3-1.2 0-1.8-.6-.7-.6-.7-1.5 0-.6.3-1 .2-.4.6-.7.4-.3 1-.4l1-.2 2.2-.4v-.3q0-.8-.3-1.1-.5-.4-1.4-.4-.9 0-1.3.3t-.6 1l-1.2-.1q.1-.8.5-1.3l1-.7q.8-.2 1.7-.2 1 0 1.5.2.6.2.9.5.3.4.4.9v2.7l.1 2.2.3.9h-1.3l-.2-.9zm0-2.8q-.8.3-2.1.5-.8.1-1 .3-.4 0-.6.4l-.1.5q0 .5.3.9.4.3 1.1.3.7 0 1.3-.3.5-.3.8-.9.2-.4.2-1.2v-.5zm.2-4.7h-4.3v-1h4.3v1zm2.6 6.2l1.2-.2q0 .8.6 1.2.4.3 1.3.3.8 0 1.2-.3.4-.3.4-.8 0-.4-.3-.7l-1.3-.4q-1.3-.3-1.9-.6-.5-.2-.8-.7-.2-.4-.2-1l.2-.8q.2-.5.6-.7l.8-.4 1-.1q.9 0 1.5.2.7.2 1 .7.3.4.4 1.1l-1.2.2q0-.6-.5-1-.3-.2-1-.2-1 0-1.3.3-.3.2-.3.6l.1.4.5.4 1 .3q1.4.3 1.9.6.5.2.8.6.3.4.3 1 0 .7-.4 1.2-.3.5-1 .9-.7.3-1.5.3-1.4 0-2.2-.6-.7-.6-1-1.8zm13.5 2.2l-2.8-7.3h1.3l1.6 4.4.4 1.4.5-1.3 1.6-4.5h1.3l-2.8 7.3h-1.1zm10-2.4l1.2.2q-.3 1.1-1.1 1.7-.8.7-2 .7-1.7 0-2.6-1-1-1-1-2.8 0-1.8 1-2.8 1-1 2.4-1 1.5 0 2.4 1 1 1 1 2.7v.4h-5.5q.1 1.2.7 1.8.6.6 1.5.6.7 0 1.2-.3.5-.4.7-1.2zm-4.1-2h4q0-.9-.4-1.3-.6-.7-1.5-.7t-1.5.5q-.5.6-.6 1.6zm4.2-4h-4.2v-1h4.2v1zm2.8 8.4v-7.3h1.2v1.1q.4-.8.7-1l.8-.2q.7 0 1.3.4l-.4 1.1q-.5-.3-1-.3-.3 0-.7.3-.3.2-.4.7-.2.6-.2 1.4v3.8h-1.3zm7.8-1.1l.1 1-.9.2q-.7 0-1-.2-.4-.2-.6-.6l-.1-1.4v-4.2h-1v-1h1v-1.8l1.2-.7v2.5h1.3v1H214V78q.1.2.3.2l.4.1h.6zm1.7 1v-7.2h1.2v7.3h-1.2zm2.8-8.3h-4.2v-1h4.2v1zm2 8.4h-1.2v-10h1.2V73q.8-1 2-1 .7 0 1.2.3.6.3 1 .8t.6 1.2q.3.7.3 1.5 0 1.8-1 2.8-.9 1-2.2 1-1.3 0-2-1v.9zm-.1-3.7q0 1.3.3 1.9.6 1 1.6 1 .8 0 1.4-.8.6-.7.6-2 0-1.5-.6-2.1-.5-.7-1.3-.7t-1.4.7q-.6.7-.6 2zm11.6 2.8q-.7.6-1.3.8-.6.3-1.4.3-1.2 0-1.8-.6-.7-.6-.7-1.5 0-.6.3-1 .2-.4.6-.7.4-.3 1-.4l1-.2 2.2-.4v-.3q0-.8-.3-1.1-.5-.4-1.4-.4-.9 0-1.3.3t-.6 1l-1.2-.1q.1-.8.5-1.3l1-.7q.8-.2 1.7-.2 1 0 1.5.2.6.2.9.5.3.4.4.9v2.7l.1 2.2.3.9h-1.3l-.2-.9zm0-2.8q-.8.3-2.1.5-.8.1-1 .3-.4 0-.6.4l-.1.5q0 .5.3.9.4.3 1.1.3.7 0 1.3-.3.5-.3.8-.9.2-.4.2-1.2v-.5zm2.8 1.5l1.2-.2q0 .8.6 1.2.4.3 1.3.3.8 0 1.2-.3.4-.3.4-.8 0-.4-.3-.7l-1.3-.4q-1.3-.3-1.9-.6-.5-.2-.8-.7-.2-.4-.2-1l.2-.8q.2-.5.6-.7l.8-.4 1-.1q.9 0 1.5.2.7.2 1 .7.3.4.4 1.1l-1.2.2q0-.6-.5-1-.3-.2-1-.2-1 0-1.3.3-.3.2-.3.6l.1.4.5.4 1 .3q1.4.3 1.9.6.5.2.8.6.3.4.3 1 0 .7-.4 1.2-.3.5-1 .9-.7.3-1.5.3-1.4 0-2.2-.6-.7-.6-1-1.8zm11.5 2.2v-7.3h1v1q.9-1.1 2.4-1.1l1.2.2q.5.2.8.6.3.4.4 1v5.6h-1.2V75l-.1-1.1q-.1-.4-.5-.6-.4-.3-.9-.3-.8 0-1.3.5-.6.5-.6 2v3.9h-1.2zm7.5-3.6q0-2 1.1-3 1-.8 2.3-.8 1.5 0 2.5 1t1 2.7q0 1.4-.5 2.2-.4.8-1.2 1.2-.8.5-1.8.5-1.5 0-2.5-1-.9-1-.9-2.8zm1.3 0q0 1.4.6 2 .6.7 1.5.7 1 0 1.5-.7.6-.7.6-2 0-1.4-.6-2.1-.6-.7-1.5-.7t-1.5.7q-.6.7-.6 2zm11.9 3.6v-1q-.7 1.2-2 1.2-1 0-1.7-.5t-1-1.4q-.5-.8-.5-2 0-1 .4-2 .3-.8 1-1.3.8-.4 1.7-.4l1.2.2q.5.3.8.8v-3.6h1.2v10h-1.1zm-4-3.6q0 1.4.7 2 .6.7 1.4.7.8 0 1.3-.6.6-.7.6-2 0-1.5-.6-2.2-.6-.7-1.4-.7-.8 0-1.4.7-.5.6-.5 2zm6.8 0q0-2 1.1-3 1-.8 2.3-.8 1.5 0 2.5 1t1 2.7q0 1.4-.5 2.2-.4.8-1.2 1.2-.8.5-1.8.5-1.5 0-2.5-1-.9-1-.9-2.8zm1.3 0q0 1.4.6 2 .6.7 1.5.7 1 0 1.5-.7.6-.7.6-2 0-1.4-.6-2.1-.6-.7-1.5-.7t-1.5.7q-.6.7-.6 2zm7.2 3.6v-10h1.2v5.7l3-3h1.5l-2.8 2.7 3.1 4.6h-1.5l-2.4-3.7-.9.8v2.9h-1.2zm7 0v-10h1.2v10h-1.3zm3-8.6v-1.4h1.2v1.4h-1.2zm0 8.6v-7.3h1.2v7.3h-1.2zm2.5-2.2l1.2-.2q0 .8.6 1.2.4.3 1.3.3.8 0 1.2-.3.4-.3.4-.8 0-.4-.3-.7l-1.3-.4q-1.3-.3-1.9-.6-.5-.2-.8-.7-.2-.4-.2-1l.2-.8q.2-.5.6-.7l.8-.4 1-.1q.9 0 1.5.2.7.2 1 .7.3.4.4 1.1l-1.2.2q0-.6-.5-1-.3-.2-1-.2-1 0-1.3.3-.3.2-.3.6l.1.4.5.4 1 .3q1.4.3 1.9.6.5.2.8.6.3.4.3 1 0 .7-.4 1.2-.3.5-1 .9-.7.3-1.5.3-1.4 0-2.2-.6-.7-.6-1-1.8zM193.7 106.3l3.9-10h1.4l4.1 10h-1.5l-1.2-3h-4.2l-1 3h-1.5zm3-4.1h3.3l-1-2.8-.7-2-.6 1.8-1 3zm7 4.1v-10h1.2v5.7l3-3h1.5l-2.8 2.7 3.1 4.6h-1.5l-2.4-3.7-.9.8v2.9h-1.2zm11.7-2.7l1.2.2q-.2 1.2-1 2-.8.7-2 .7-1.5 0-2.4-1-1-1-1-2.8 0-1.2.5-2 .4-1 1.2-1.4.8-.4 1.7-.4 1.2 0 2 .6.7.6.9 1.7l-1.2.2q-.2-.8-.6-1.1-.4-.4-1-.4-1 0-1.6.7-.5.6-.5 2 0 1.5.5 2.2.6.7 1.5.7.7 0 1.2-.5.5-.4.6-1.4zm2.7 2.7V99h1.2v7.3h-1.2zm2.8-8.3h-4.2v-1h4.2v1zm.1 8.3v-1l4.6-5.3h-4.4v-1h6v.8l-4 4.7-.7.8h4.9v1H221zm12.6-2.3l1.3.1q-.3 1.1-1.1 1.8-.8.6-2 .6-1.7 0-2.6-1-1-1-1-2.8 0-1.8 1-2.8 1-1 2.4-1 1.5 0 2.4 1 1 1 1 2.8v.3h-5.5q.1 1.2.7 1.8.6.7 1.5.7.7 0 1.2-.4t.7-1.1zm-4-2h4q0-1-.4-1.4-.6-.7-1.5-.7t-1.5.6q-.5.5-.6 1.5zm6.6 2.1l1.2-.2q0 .8.6 1.2.4.4 1.3.4.8 0 1.2-.4.4-.3.4-.8 0-.4-.3-.7l-1.3-.4q-1.3-.3-1.9-.6-.5-.2-.8-.7-.2-.4-.2-1l.2-.8q.2-.4.6-.7l.8-.4 1-.1q.9 0 1.5.2.7.3 1 .7.3.4.4 1.1l-1.2.2q0-.6-.5-.9-.3-.3-1-.3-1 0-1.3.3-.3.2-.3.6l.1.5.5.3 1 .3 1.9.6q.5.2.8.6.3.4.3 1 0 .7-.4 1.2-.3.6-1 .9-.7.3-1.5.3-1.4 0-2.2-.6-.7-.6-1-1.8zm11.5 2.2V99h1v1q.9-1.1 2.4-1.1l1.2.2q.5.2.8.6.3.4.4 1v5.6h-1.2v-4.4l-.1-1.1q-.1-.4-.5-.6-.4-.3-.9-.3-.8 0-1.3.5-.6.5-.6 2v3.9h-1.2zm7.5-3.6q0-2 1.1-3 1-.8 2.3-.8 1.5 0 2.5 1t1 2.7q0 1.4-.5 2.2-.4.8-1.2 1.2-.8.5-1.8.5-1.5 0-2.5-1-.9-1-.9-2.8zm1.3 0q0 1.4.6 2 .6.8 1.5.8 1 0 1.5-.7.6-.8.6-2.2 0-1.3-.6-2t-1.5-.7q-.9 0-1.5.7t-.6 2zm11.9 3.6v-1q-.7 1.2-2 1.2-1 0-1.7-.5t-1-1.4q-.5-.8-.5-2 0-1 .4-1.9.3-.9 1-1.4.8-.4 1.7-.4.6 0 1.2.3.5.2.8.7v-3.6h1.2v10h-1.1zm-4-3.6q0 1.4.7 2 .6.8 1.4.8.8 0 1.3-.7.6-.7.6-2 0-1.5-.6-2.2-.6-.7-1.4-.7-.8 0-1.4.7-.5.6-.5 2zm6.8 0q0-2 1.1-3 1-.8 2.3-.8 1.5 0 2.5 1t1 2.7q0 1.4-.5 2.2-.4.8-1.2 1.2-.8.5-1.8.5-1.5 0-2.5-1-.9-1-.9-2.8zm1.3 0q0 1.4.6 2 .6.8 1.5.8 1 0 1.5-.7.6-.8.6-2.2 0-1.3-.6-2t-1.5-.7q-.9 0-1.5.7t-.6 2zm7.2 3.6v-10h1.2v5.7l3-3h1.5l-2.8 2.7 3.1 4.6h-1.5l-2.4-3.7-.9.8v2.9h-1.2zm7 0v-10h1.2v10h-1.3zm3-8.6v-1.4h1.2v1.4h-1.2zm0 8.6V99h1.2v7.3h-1.2zm2.5-2.2l1.2-.2q0 .8.6 1.2.4.4 1.3.4.8 0 1.2-.4.4-.3.4-.8 0-.4-.3-.7l-1.3-.4q-1.3-.3-1.9-.6-.5-.2-.8-.7-.2-.4-.2-1l.2-.8q.2-.4.6-.7l.8-.4 1-.1q.9 0 1.5.2.7.3 1 .7.3.4.4 1.1l-1.2.2q0-.6-.5-.9-.3-.3-1-.3-1 0-1.3.3-.3.2-.3.6l.1.5.5.3 1 .3 1.9.6q.5.2.8.6.3.4.3 1 0 .7-.4 1.2-.3.6-1 .9-.7.3-1.5.3-1.4 0-2.2-.6-.7-.6-1-1.8zM111.4 123.1h1.3v5.8q0 1.5-.3 2.4-.4.9-1.3 1.4-.8.6-2.3.6-1.4 0-2.3-.5-.9-.5-1.3-1.4-.4-1-.4-2.5V123h1.4v5.8q0 1.3.2 1.9.2.6.8 1 .6.3 1.5.3 1.4 0 2-.7.7-.6.7-2.5V123zm2.6 10v-1l4.6-5.3h-4.4v-1h6v.9l-4 4.6-.7.8h4.9v1H114zm7.7 0v-7.3h1v1q.9-1.1 2.4-1.1l1.2.2q.5.3.8.7.3.3.4.9v5.6h-1.2v-4.4l-.1-1.1q-.1-.4-.5-.6-.4-.2-.9-.2-.8 0-1.3.5-.6.5-.6 1.8v4h-1.2zm4.5 2q0 .6-.7 1-.5.2-1.3.2h-1l.1-.8h.7q1 0 1-.5 0-.3-.3-.4l-.7-.1.3-1.2h1l-.3.7q1.2.2 1.2 1zm8.4-4.3l1.3.1q-.3 1.2-1.1 1.8-.8.6-2 .6-1.7 0-2.6-1-1-1-1-2.7 0-1.9 1-2.9t2.4-1q1.5 0 2.4 1 1 1 1 2.8v.3h-5.5q.1 1.2.7 1.8.6.7 1.5.7.7 0 1.2-.4.5-.3.7-1.1zm-4-2h4q0-1-.4-1.4-.6-.7-1.5-.7t-1.5.6q-.5.5-.6 1.5zm4.2-4h-4.2v-1h4.2v1zm2.9 8.3v-7.3h1v1q.4-.5 1-.8.5-.3 1.3-.3t1.3.3q.5.4.7 1 .9-1.3 2.3-1.3 1 0 1.6.6.6.6.6 1.8v5h-1.2v-4.6q0-.7-.2-1 0-.4-.4-.5-.3-.2-.7-.2-.8 0-1.3.5t-.5 1.6v4.2H142v-4.7q0-.8-.3-1.2-.3-.4-1-.4l-1 .2q-.4.3-.6.8-.2.5-.2 1.5v3.8h-1.2zm16.7 0v-1q-.8 1.2-2.3 1.2-.6 0-1.2-.3-.5-.2-.8-.6-.3-.4-.4-.9v-5.7h1.2v5.4q.2.5.5.7.4.3 1 .3.5 0 1-.3t.7-.7q.2-.5.2-1.5v-3.9h1.2v7.3h-1zm3.3 0v-7.3h1v1q.4-.5 1-.8.5-.3 1.3-.3t1.3.3q.5.4.7 1 .9-1.3 2.3-1.3 1 0 1.6.6.6.6.6 1.8v5h-1.2v-4.6q0-.7-.2-1 0-.4-.4-.5-.3-.2-.7-.2-.8 0-1.3.5t-.5 1.6v4.2H162v-4.7q0-.8-.3-1.2-.3-.4-1-.4l-1 .2q-.4.3-.6.8-.2.5-.2 1.5v3.8h-1.2zm16.7 0v-1q-.8 1.2-2.3 1.2-.6 0-1.2-.3-.5-.2-.8-.6-.3-.4-.4-.9v-5.7h1.2v5.4q.2.5.5.7.4.3 1 .3.5 0 1-.3t.7-.7q.2-.5.2-1.5v-3.9h1.2v7.3h-1zm7.3-8.6v-1.4h1.2v1.4h-1.2zm0 8.6v-7.3h1.2v7.3h-1.2zm8-2.3l1.2.1q-.3 1.2-1.1 1.8-.8.6-2 .6-1.7 0-2.6-1-1-1-1-2.7 0-1.9 1-2.9t2.4-1q1.5 0 2.4 1 1 1 1 2.8v.3h-5.5q.1 1.2.7 1.8.6.7 1.5.7.7 0 1.2-.4.5-.3.7-1.1zm-4.1-2h4q0-1-.4-1.4-.6-.7-1.5-.7t-1.5.6q-.5.5-.6 1.5zm7 4.3v-7.3h1.2v1q.8-1.1 2.3-1.1l1.2.2q.5.3.8.7.3.3.4.9v5.6h-1.2v-4.4l-.1-1.1q-.1-.4-.5-.6-.4-.2-.9-.2-.8 0-1.3.5-.6.5-.6 1.8v4h-1.2zm12.8-.9l-1.3.9q-.6.2-1.4.2-1.2 0-1.8-.6-.7-.6-.7-1.5 0-.5.3-1 .2-.4.6-.7l1-.4 1-.2q1.5-.1 2.2-.4v-.3q0-.8-.3-1-.5-.5-1.4-.5-.9 0-1.3.3t-.6 1h-1.2q.1-.9.5-1.3.4-.5 1-.7.8-.3 1.7-.3 1 0 1.5.2.6.2.9.6.3.3.4.8v2.8l.1 2.1.3 1h-1.3l-.2-1zm0-2.7l-2.1.4-1 .3q-.4.1-.6.4l-.1.6q0 .5.3.8.4.3 1.1.3.7 0 1.3-.3.5-.3.8-.9.2-.4.2-1.2v-.4zm.2-4.7h-4.3v-1h4.3v1zm3 8.3v-10h1.3v5.7l3-3h1.5l-2.8 2.8 3.1 4.5h-1.5l-2.4-3.7-.9.8v3h-1.2zm11.8 0v-1q-.8 1.2-2.3 1.2-.6 0-1.2-.3-.5-.2-.8-.6-.3-.4-.4-.9v-5.7h1.2v5.4q.2.5.5.7.4.3 1 .3.5 0 1-.3t.7-.7q.2-.5.2-1.5v-3.9h1.2v7.3h-1zm3.3 0v-7.3h1v1q.4-.5 1-.8.5-.3 1.3-.3t1.3.3q.5.4.7 1 .9-1.3 2.3-1.3 1 0 1.6.6.6.6.6 1.8v5h-1.2v-4.6q0-.7-.2-1 0-.4-.4-.5-.3-.2-.7-.2-.8 0-1.3.5t-.5 1.6v4.2H228v-4.7q0-.8-.3-1.2-.3-.4-1-.4l-1 .2q-.4.3-.6.8-.2.5-.2 1.5v3.8h-1.2zm16.7-.9l-1.3.9q-.6.2-1.4.2-1.2 0-1.8-.6-.7-.6-.7-1.5 0-.5.3-1 .2-.4.6-.7l1-.4 1-.2q1.5-.1 2.2-.4v-.3q0-.8-.3-1-.5-.5-1.4-.5-.9 0-1.3.3t-.6 1h-1.2q.1-.9.5-1.3.4-.5 1-.7.8-.3 1.7-.3 1 0 1.5.2.6.2.9.6.3.3.4.8v2.8l.1 2.1.3 1h-1.3l-.2-1zm0-2.7l-2.1.4-1 .3q-.4.1-.6.4l-.1.6q0 .5.3.8.4.3 1.1.3.7 0 1.3-.3.5-.3.8-.9.2-.4.2-1.2v-.4zm7.3 3.6v-7.3h1v1q.9-1.1 2.4-1.1l1.2.2q.5.3.8.7.3.3.4.9v5.6h-1.2v-4.4l-.1-1.1q-.1-.4-.5-.6-.4-.2-.9-.2-.8 0-1.3.5-.6.5-.6 1.8v4h-1.2zm7.5-3.6q0-2 1.1-3 1-.8 2.3-.8 1.5 0 2.5 1t1 2.7q0 1.4-.5 2.2-.4.8-1.2 1.2-.8.5-1.8.5-1.5 0-2.5-1-.9-1-.9-2.8zm1.3 0q0 1.4.6 2 .6.8 1.5.8 1 0 1.5-.7.6-.7.6-2.2 0-1.3-.6-2t-1.5-.7q-.9 0-1.5.7t-.6 2zm11.9 3.6v-1q-.7 1.2-2 1.2-1 0-1.7-.5t-1-1.3q-.5-.9-.5-2 0-1 .4-2 .3-.9 1-1.3.8-.5 1.7-.5.6 0 1.2.3.5.2.8.7V123h1.2v10h-1.1zm-4-3.6q0 1.4.7 2 .6.8 1.4.8.8 0 1.3-.7.6-.7.6-2 0-1.5-.6-2.2-.6-.7-1.4-.7-.8 0-1.4.7-.5.7-.5 2zm6.8 0q0-2 1.1-3 1-.8 2.3-.8 1.5 0 2.5 1t1 2.7q0 1.4-.5 2.2-.4.8-1.2 1.2-.8.5-1.8.5-1.5 0-2.5-1-.9-1-.9-2.8zm1.3 0q0 1.4.6 2 .6.8 1.5.8 1 0 1.5-.7.6-.7.6-2.2 0-1.3-.6-2t-1.5-.7q-.9 0-1.5.7t-.6 2zm7.2 3.6v-10h1.2v5.7l3-3h1.5l-2.8 2.8 3.1 4.5h-1.5l-2.4-3.7-.9.8v3h-1.2zm7 0v-10h1.2v10h-1.3zm3-8.6v-1.4h1.2v1.4h-1.2zm0 8.6v-7.3h1.2v7.3h-1.2zm2.5-2.2l1.2-.1q0 .7.6 1 .4.5 1.3.5.8 0 1.2-.4.4-.3.4-.8 0-.4-.3-.6l-1.3-.5q-1.3-.3-1.9-.6-.5-.2-.8-.6l-.2-1 .2-1 .6-.6.8-.4 1-.1q.9 0 1.5.2.7.3 1 .7.3.4.4 1.1l-1.2.2q0-.6-.5-.9-.3-.3-1-.3-1 0-1.3.3-.3.3-.3.6l.1.5.5.3 1 .3 1.9.6q.5.2.8.6.3.4.3 1 0 .7-.4 1.2-.3.6-1 .9-.7.3-1.5.3-1.4 0-2.2-.6-.7-.6-1-1.8zM140 160v-10h1.4v10H140zm8.6-2.4l1.3.1q-.3 1.2-1.1 1.8-.8.6-2 .6-1.7 0-2.6-1-1-1-1-2.7 0-1.9 1-2.9t2.4-1q1.5 0 2.4 1 1 1 1 2.8v.3h-5.5q.1 1.2.7 1.8.6.7 1.5.7.7 0 1.2-.4.5-.3.7-1.1zm-4-2h4q0-1-.4-1.4-.6-.7-1.5-.7t-1.5.6q-.5.5-.6 1.5zm7 4.3v-7.2h1.2v1q.8-1.2 2.3-1.2l1.2.2q.5.3.8.7.3.3.4.9V159.9h-1.2v-4.4l-.1-1.1q-.1-.4-.5-.6-.4-.2-.9-.2-.8 0-1.3.5-.6.5-.6 1.9v4h-1.2zm4.6 2q0 .6-.7 1-.5.2-1.3.2h-1l.1-.8h.7q1 0 1-.5 0-.3-.3-.4h-.7l.3-1.3h1l-.3.7q1.2.2 1.2 1zm8.4-4.3l1.3.1q-.3 1.2-1.1 1.8-.8.6-2 .6-1.7 0-2.6-1-1-1-1-2.7 0-1.9 1-2.9t2.4-1q1.5 0 2.4 1 1 1 1 2.8v.3h-5.5q.1 1.2.7 1.8.6.7 1.5.7.7 0 1.2-.4.5-.3.7-1.1zm-4-2h4q0-1-.4-1.4-.6-.7-1.5-.7t-1.5.6q-.5.5-.6 1.5zm4.2-4h-4.2v-1h4.2v1zm2.9 8.3v-7.2h1v1q.4-.6 1-.9.5-.3 1.3-.3t1.3.3q.5.4.7 1 .9-1.3 2.3-1.3 1 0 1.6.6.6.6.6 1.8v5h-1.2v-4.6q0-.7-.2-1 0-.3-.4-.5-.3-.2-.7-.2-.8 0-1.3.5t-.5 1.6v4.2H172v-4.7q0-.8-.3-1.2-.3-.4-1-.4l-1 .2q-.4.3-.6.8-.2.6-.2 1.6v3.7h-1.2zm16.7 0v-1q-.8 1.2-2.3 1.2-.6 0-1.2-.3-.5-.2-.8-.6-.3-.4-.4-.9v-5.6h1.2v5.3l.5.8q.4.2 1 .2l1-.2q.5-.3.7-.8.2-.5.2-1.4v-4h1.2v7.3h-1zm3.3 0v-7.2h1v1q.4-.6 1-.9.5-.3 1.3-.3t1.3.3q.5.4.7 1 .9-1.3 2.3-1.3 1 0 1.6.6.6.6.6 1.8v5h-1.2v-4.6q0-.7-.2-1 0-.3-.4-.5-.3-.2-.7-.2-.8 0-1.3.5t-.5 1.6v4.2H192v-4.7q0-.8-.3-1.2-.3-.4-1-.4l-1 .2q-.4.3-.6.8-.2.6-.2 1.6v3.7h-1.2zm12-8.6V150h1.2v1.4h-1.2zm0 8.6v-7.2h1.2v7.2h-1.2zm7 0v-7.2h1v1q.9-1.2 2.4-1.2l1.2.2q.5.3.8.7.3.3.4.9V159.9h-1.2v-4.4l-.1-1.1q-.1-.4-.5-.6-.4-.2-.9-.2-.8 0-1.3.5-.6.5-.6 1.9v4h-1.2zm7.5-3.6q0-2 1.1-3 1-.8 2.3-.8 1.5 0 2.5 1t1 2.7q0 1.4-.5 2.2-.4.8-1.2 1.3-.8.4-1.8.4-1.5 0-2.5-1-.9-1-.9-2.8zm1.3 0q0 1.4.6 2.1.6.7 1.5.7 1 0 1.5-.7.6-.7.6-2.1 0-1.4-.6-2-.6-.8-1.5-.8t-1.5.7q-.6.7-.6 2.1zm15.9 3.6v-.9q-.7 1.1-2 1.1-1 0-1.7-.5t-1-1.3q-.5-.9-.5-2 0-1 .4-2 .3-.9 1-1.3.8-.5 1.7-.5.6 0 1.2.3.5.3.8.7V150h1.2v10h-1.1zm-4-3.6q0 1.4.7 2.1.6.7 1.4.7.8 0 1.3-.7.6-.6.6-2 0-1.5-.6-2.2-.6-.7-1.4-.7-.8 0-1.4.7-.5.7-.5 2.1zm7.3-5V150h1.2v1.4h-1.2zm0 8.6v-7.2h1.2v7.2h-1.2zm5 0l-2.8-7.2h1.3l1.6 4.3.4 1.5.5-1.4 1.6-4.4h1.3l-2.8 7.2h-1.1zm5-8.6V150h1.2v1.4h-1.2zm0 8.6v-7.2h1.2v7.2h-1.2zm7.7 0v-.9q-.7 1.1-2 1.1-1 0-1.7-.5t-1-1.3q-.5-.9-.5-2 0-1 .4-2 .3-.9 1-1.3.8-.5 1.7-.5.6 0 1.2.3.5.3.8.7V150h1.2v10h-1.1zm-4-3.6q0 1.4.7 2.1.6.7 1.4.7.8 0 1.3-.7.6-.6.6-2 0-1.5-.6-2.2-.6-.7-1.4-.7-.8 0-1.4.7-.5.7-.5 2.1zm12.2 1.3l1.3.1q-.3 1.2-1.1 1.8-.8.6-2 .6-1.7 0-2.6-1-1-1-1-2.7 0-1.9 1-2.9t2.4-1q1.5 0 2.4 1 1 1 1 2.8v.3h-5.5q.1 1.2.7 1.8.6.7 1.5.7.7 0 1.2-.4.5-.3.7-1.1zm-4-2h4q0-1-.4-1.4-.6-.7-1.5-.7t-1.5.6q-.5.5-.6 1.5zm7 4.3v-7.2h1.2v1q.8-1.2 2.3-1.2l1.2.2q.5.3.8.7.3.3.4.9V159.9h-1.2v-4.4l-.1-1.1q-.1-.4-.5-.6-.4-.2-.9-.2-.8 0-1.3.5-.6.5-.6 1.9v4h-1.2zm12.8 0v-.9q-.7 1.1-2 1.1-1 0-1.7-.5t-1-1.3q-.5-.9-.5-2 0-1 .4-2 .3-.9 1-1.3.8-.5 1.7-.5.6 0 1.2.3.5.3.8.7V150h1.2v10h-1.1zm-4-3.6q0 1.4.7 2.1.6.7 1.4.7.8 0 1.3-.7.6-.6.6-2 0-1.5-.6-2.2-.6-.7-1.4-.7-.8 0-1.4.7-.5.7-.5 2.1zm12.2 1.3l1.3.1q-.3 1.2-1.1 1.8-.8.6-2 .6-1.7 0-2.6-1-1-1-1-2.7 0-1.9 1-2.9t2.4-1q1.5 0 2.4 1 1 1 1 2.8v.3h-5.5q.1 1.2.7 1.8.6.7 1.5.7.7 0 1.2-.4.5-.3.7-1.1zm-4-2h4q0-1-.4-1.4-.6-.7-1.5-.7t-1.5.6q-.5.5-.6 1.5zm4.2-4h-4.2v-1h4.2v1zm2.9 8.3v-7.2h1v1q.4-.6 1-.9.5-.3 1.3-.3t1.3.3q.5.4.7 1 .9-1.3 2.3-1.3 1 0 1.6.6.6.6.6 1.8v5h-1.2v-4.6q0-.7-.2-1 0-.3-.4-.5-.3-.2-.7-.2-.8 0-1.3.5t-.5 1.6v4.2H292v-4.7q0-.8-.3-1.2-.3-.4-1-.4l-1 .2q-.4.3-.6.8-.2.6-.2 1.6v3.7h-1.2zM57.7 186.7l-3.9-10h1.4L58 184l.5 1.6.5-1.6 2.7-7.3H63l-4 10h-1.3zm10.7-.8l-1.3.8q-.6.2-1.4.2-1.2 0-1.8-.6-.7-.6-.7-1.5 0-.5.3-1 .2-.4.6-.7l1-.4 1-.1q1.5-.2 2.2-.5v-.3q0-.7-.3-1-.5-.5-1.4-.5-.9 0-1.3.3t-.6 1.1l-1.2-.1q.1-.8.5-1.3t1-.7q.8-.3 1.7-.3 1 0 1.5.2l.9.6q.3.3.4.8v2.8l.1 2.2.3.8h-1.3l-.2-.8zm0-2.8q-.8.3-2.1.5-.8 0-1 .2-.4.1-.6.4l-.1.6q0 .5.3.8.4.3 1.1.3.7 0 1.3-.3.5-.3.8-.8.2-.4.2-1.2v-.5zm3.2 3.6v-10H73v10h-1.3zm2.6-2.1l1.2-.2q0 .7.6 1.1.4.4 1.3.4.8 0 1.2-.3.4-.4.4-.9 0-.4-.3-.6-.3-.2-1.3-.4l-1.9-.6q-.5-.3-.8-.7l-.2-1q0-.5.2-.9t.6-.7l.8-.3 1-.2q.9 0 1.5.3.7.2 1 .6.3.4.4 1.2l-1.2.1q0-.5-.5-.9-.3-.3-1-.3-1 0-1.3.3-.3.3-.3.7l.1.4.5.3 1 .3 1.9.6q.5.2.8.7.3.4.3 1t-.4 1.2q-.3.5-1 .8-.7.3-1.5.3-1.4 0-2.2-.6-.7-.6-1-1.7zm10.2 1l.1 1.1-.9.1q-.7 0-1-.2-.4-.2-.6-.5l-.1-1.5v-4.2h-1v-1h1v-1.7l1.2-.8v2.6h1.3v1H83v4.9l.3.2h1zm.8-1l1.2-.2q0 .7.6 1.1.4.4 1.3.4.8 0 1.2-.3.4-.4.4-.9 0-.4-.3-.6-.3-.2-1.3-.4l-1.9-.6q-.5-.3-.8-.7l-.2-1q0-.5.2-.9t.6-.7l.8-.3 1-.2q.9 0 1.5.3.7.2 1 .6.3.4.4 1.2l-1.2.1q0-.5-.5-.9-.3-.3-1-.3-1 0-1.3.3-.3.3-.3.7l.1.4.5.3 1 .3 1.9.6q.5.2.8.7.3.4.3 1t-.4 1.2q-.3.5-1 .8-.7.3-1.5.3-1.4 0-2.2-.6-.7-.6-1-1.7zm11.5 2.1v-7.2h1v1q.9-1.2 2.4-1.2.6 0 1.2.3.5.2.8.6.3.4.4.9V186.7h-1.2v-4.4l-.1-1q-.1-.5-.5-.7-.4-.2-.9-.2-.8 0-1.3.5-.6.5-.6 1.9v4h-1.2zm7.5-3.6q0-2 1.1-3 1-.8 2.3-.8 1.5 0 2.5 1t1 2.7q0 1.4-.5 2.2-.4.8-1.2 1.3-.8.4-1.8.4-1.5 0-2.5-1-.9-1-.9-2.8zm1.3 0q0 1.4.6 2.1.6.7 1.5.7 1 0 1.5-.7.6-.7.6-2.1 0-1.4-.6-2-.6-.8-1.5-.8t-1.5.7q-.6.7-.6 2.1zm11.9 3.6v-.9q-.7 1.1-2 1.1-1 0-1.7-.5t-1-1.3q-.5-.9-.5-2 0-1 .4-2 .3-.8 1-1.3.8-.5 1.7-.5.6 0 1.2.3.5.3.8.7v-3.6h1.2v10h-1.1zm-4-3.6q0 1.4.7 2.1.6.7 1.4.7.8 0 1.3-.7.6-.6.6-2 0-1.5-.6-2.2-.6-.7-1.4-.7-.8 0-1.4.7-.5.7-.5 2.1zm12.2 1.3l1.3.2q-.3 1-1.1 1.7-.8.6-2 .6-1.7 0-2.6-1-1-1-1-2.7 0-1.9 1-2.9t2.4-1q1.5 0 2.4 1 1 1 1 2.8v.3h-5.5q.1 1.2.7 1.9.6.6 1.5.6.7 0 1.2-.4.5-.3.7-1.1zm-4-2h4q0-1-.4-1.4-.6-.7-1.5-.7t-1.5.6q-.5.6-.6 1.5zm9 4.3l-2.7-7.2h1.3l1.6 4.3.4 1.5.5-1.4 1.6-4.4h1.3l-2.8 7.2h-1.1zm9.8-.8l-1.3.8q-.6.2-1.4.2-1.2 0-1.8-.6-.7-.6-.7-1.5 0-.5.3-1 .2-.4.6-.7l1-.4 1-.1q1.5-.2 2.2-.5v-.3q0-.7-.3-1-.5-.5-1.4-.5-.9 0-1.3.3t-.6 1.1l-1.2-.1q.1-.8.5-1.3t1-.7q.8-.3 1.7-.3 1 0 1.5.2l.9.6q.3.3.4.8v2.8l.1 2.2.3.8h-1.3l-.2-.8zm0-2.8q-.8.3-2.1.5-.8 0-1 .2-.4.1-.6.4l-.1.6q0 .5.3.8.4.3 1.1.3.7 0 1.3-.3.5-.3.8-.8.2-.4.2-1.2v-.5zm2.8 1.5l1.2-.2q0 .7.6 1.1.4.4 1.3.4.8 0 1.2-.3.4-.4.4-.9 0-.4-.3-.6-.3-.2-1.3-.4l-1.9-.6q-.5-.3-.8-.7l-.2-1q0-.5.2-.9t.6-.7l.8-.3 1-.2q.9 0 1.5.3.7.2 1 .6.3.4.4 1.2l-1.2.1q0-.5-.5-.9-.3-.3-1-.3-1 0-1.3.3-.3.3-.3.7l.1.4.5.3 1 .3 1.9.6q.5.2.8.7.3.4.3 1t-.4 1.2q-.3.5-1 .8-.7.3-1.5.3-1.4 0-2.2-.6-.7-.6-1-1.7zm16.2 2.1v-1q-.8 1.2-2.3 1.2l-1.2-.2q-.5-.3-.8-.7-.3-.3-.4-.9v-5.6h1.2v5.3l.5.8q.4.3 1 .3.5 0 1-.3t.7-.8q.2-.5.2-1.4v-4h1.2v7.3h-1zm3.3 0v-7.2h1v1q.9-1.2 2.4-1.2.6 0 1.2.3.5.2.8.6.3.4.4.9V186.7h-1.2v-4.4l-.1-1q-.1-.5-.5-.7-.4-.2-.9-.2-.8 0-1.3.5-.6.5-.6 1.9v4h-1.2zm12 0v-10h1.2v5.7l3-3h1.5l-2.8 2.8 3.1 4.5h-1.5l-2.4-3.7-.9.9v2.8h-1.2zm11.7-.8l-1.3.8q-.6.2-1.4.2-1.2 0-1.8-.6-.7-.6-.7-1.5 0-.5.3-1 .2-.4.6-.7l1-.4 1-.1q1.5-.2 2.2-.5v-.3q0-.7-.3-1-.5-.5-1.4-.5-.9 0-1.3.3t-.6 1.1l-1.2-.1q.1-.8.5-1.3t1-.7q.8-.3 1.7-.3 1 0 1.5.2l.9.6q.3.3.4.8v2.8l.1 2.2.3.8h-1.3l-.2-.8zm0-2.8q-.8.3-2.1.5-.8 0-1 .2-.4.1-.6.4l-.1.6q0 .5.3.8.4.3 1.1.3.7 0 1.3-.3.5-.3.8-.8.2-.4.2-1.2v-.5zm3.3 3.6v-7.2h1v1q.9-1.2 2.4-1.2.6 0 1.2.3.5.2.8.6.3.4.4.9V186.7h-1.2v-4.4l-.1-1q-.1-.5-.5-.7-.4-.2-.9-.2-.8 0-1.3.5-.6.5-.6 1.9v4h-1.2zm12.7-2.6l1.2.1q-.2 1.3-1 2t-2 .7q-1.5 0-2.4-1-1-1-1-2.8 0-1.1.5-2 .4-1 1.2-1.3.8-.5 1.7-.5 1.2 0 2 .6.7.6.9 1.7l-1.2.2q-.2-.7-.6-1-.4-.5-1-.5-1 0-1.6.7-.5.7-.5 2.1 0 1.5.5 2.1.6.7 1.5.7.7 0 1.2-.4.5-.5.6-1.4zm7.2.3l1.3.2q-.3 1-1.1 1.7-.8.6-2 .6-1.7 0-2.6-1-1-1-1-2.7 0-1.9 1-2.9t2.4-1q1.5 0 2.4 1 1 1 1 2.8v.3h-5.5q.1 1.2.7 1.9.6.6 1.5.6.7 0 1.2-.4.5-.3.7-1.1zm-4-2h4q0-1-.4-1.4-.6-.7-1.5-.7t-1.5.6q-.5.6-.6 1.5zm7 4.3v-10h1.3v10h-1.3zm8-2.3l1.3.2q-.3 1-1.1 1.7-.8.6-2 .6-1.7 0-2.6-1-1-1-1-2.7 0-1.9 1-2.9t2.4-1q1.5 0 2.4 1 1 1 1 2.8v.3h-5.5q.1 1.2.7 1.9.6.6 1.5.6.7 0 1.2-.4.5-.3.7-1.1zm-4-2h4q0-1-.4-1.4-.6-.7-1.5-.7t-1.5.6q-.5.6-.6 1.5zm7-4.3v-1.4h1.3v1.4h-1.2zm-1.5 11.5l.2-1h.6q.4 0 .6-.2.2-.3.2-1.3v-7.6h1.2v7.6q0 1.4-.4 2-.4.6-1.4.6l-1-.1zm9.3-3.7l-1.3.8q-.6.2-1.4.2-1.2 0-1.8-.6-.7-.6-.7-1.5 0-.5.3-1 .2-.4.6-.7l1-.4 1-.1q1.5-.2 2.2-.5v-.3q0-.7-.3-1-.5-.5-1.4-.5-.9 0-1.3.3t-.6 1.1l-1.2-.1q.1-.8.5-1.3t1-.7q.8-.3 1.7-.3 1 0 1.5.2l.9.6q.3.3.4.8v2.8l.1 2.2.3.8h-1.3l-.2-.8zm0-2.8q-.8.3-2.1.5-.8 0-1 .2-.4.1-.6.4l-.1.6q0 .5.3.8.4.3 1.1.3.7 0 1.3-.3.5-.3.8-.8.2-.4.2-1.2v-.5zm2.8 1.5l1.2-.2q0 .7.6 1.1.4.4 1.3.4.8 0 1.2-.3.4-.4.4-.9 0-.4-.3-.6-.3-.2-1.3-.4l-1.9-.6q-.5-.3-.8-.7l-.2-1q0-.5.2-.9t.6-.7l.8-.3 1-.2q.9 0 1.5.3.7.2 1 .6.3.4.4 1.2l-1.2.1q0-.5-.5-.9-.3-.3-1-.3-1 0-1.3.3-.3.3-.3.7l.1.4.5.3 1 .3 1.9.6q.5.2.8.7.3.4.3 1t-.4 1.2q-.3.5-1 .8-.7.3-1.5.3-1.4 0-2.2-.6-.7-.6-1-1.7zm11.5 2.1v-7.2h1v1q.9-1.2 2.4-1.2.6 0 1.2.3.5.2.8.6.3.4.4.9V186.7h-1.2v-4.4l-.1-1q-.1-.5-.5-.7-.4-.2-.9-.2-.8 0-1.3.5-.6.5-.6 1.9v4h-1.2zm7.5-3.6q0-2 1.1-3 1-.8 2.3-.8 1.5 0 2.5 1t1 2.7q0 1.4-.5 2.2-.4.8-1.2 1.3-.8.4-1.8.4-1.5 0-2.5-1-.9-1-.9-2.8zm1.3 0q0 1.4.6 2.1.6.7 1.5.7 1 0 1.5-.7.6-.7.6-2.1 0-1.4-.6-2-.6-.8-1.5-.8t-1.5.7q-.6.7-.6 2.1zm11.9 3.6v-.9q-.7 1.1-2 1.1-1 0-1.7-.5t-1-1.3q-.5-.9-.5-2 0-1 .4-2 .3-.8 1-1.3.8-.5 1.7-.5.6 0 1.2.3.5.3.8.7v-3.6h1.2v10h-1.1zm-4-3.6q0 1.4.7 2.1.6.7 1.4.7.8 0 1.3-.7.6-.6.6-2 0-1.5-.6-2.2-.6-.7-1.4-.7-.8 0-1.4.7-.5.7-.5 2.1zm12.2 1.3l1.3.2q-.3 1-1.1 1.7-.8.6-2 .6-1.7 0-2.6-1-1-1-1-2.7 0-1.9 1-2.9t2.4-1q1.5 0 2.4 1 1 1 1 2.8v.3h-5.5q.1 1.2.7 1.9.6.6 1.5.6.7 0 1.2-.4.5-.3.7-1.1zm-4-2h4q0-1-.4-1.4-.6-.7-1.5-.7t-1.5.6q-.5.6-.6 1.5zm9 4.3l-2.7-7.2h1.3l1.6 4.3.4 1.5.5-1.4 1.6-4.4h1.3l-2.8 7.2h-1.1zm9.8-.8l-1.3.8q-.6.2-1.4.2-1.2 0-1.8-.6-.7-.6-.7-1.5 0-.5.3-1 .2-.4.6-.7l1-.4 1-.1q1.5-.2 2.2-.5v-.3q0-.7-.3-1-.5-.5-1.4-.5-.9 0-1.3.3t-.6 1.1l-1.2-.1q.1-.8.5-1.3t1-.7q.8-.3 1.7-.3 1 0 1.5.2l.9.6q.3.3.4.8v2.8l.1 2.2.3.8h-1.3l-.2-.8zm0-2.8q-.8.3-2.1.5-.8 0-1 .2-.4.1-.6.4l-.1.6q0 .5.3.8.4.3 1.1.3.7 0 1.3-.3.5-.3.8-.8.2-.4.2-1.2v-.5zm2.8 1.5l1.2-.2q0 .7.6 1.1.4.4 1.3.4.8 0 1.2-.3.4-.4.4-.9 0-.4-.3-.6-.3-.2-1.3-.4l-1.9-.6q-.5-.3-.8-.7l-.2-1q0-.5.2-.9t.6-.7l.8-.3 1-.2q.9 0 1.5.3.7.2 1 .6.3.4.4 1.2l-1.2.1q0-.5-.5-.9-.3-.3-1-.3-1 0-1.3.3-.3.3-.3.7l.1.4.5.3 1 .3 1.9.6q.5.2.8.7.3.4.3 1t-.4 1.2q-.3.5-1 .8-.7.3-1.5.3-1.4 0-2.2-.6-.7-.6-1-1.7zM43.4 213.6v-8.9H40v-1.2h8v1.2h-3.4v8.9h-1.3zm6.2 0v-7.3h1.2v1.1q.4-.8.7-1 .4-.3.8-.3.7 0 1.3.4l-.4 1.2q-.5-.3-1-.3l-.7.2q-.3.3-.4.7-.2.7-.2 1.5v3.8h-1.3zm9.8-1l-1.3.9q-.6.2-1.4.2-1.2 0-1.8-.6-.7-.5-.7-1.5 0-.5.3-1 .2-.4.6-.6.4-.3 1-.4l1-.2q1.5-.2 2.2-.5v-.3q0-.7-.3-1-.5-.5-1.4-.5-.9 0-1.3.4-.4.3-.6 1l-1.2-.1q.1-.8.5-1.3t1-.7q.8-.3 1.7-.3 1 0 1.5.3.6.2.9.5.3.3.4.8v2.8l.1 2.2.3.9h-1.3l-.2-1zm0-2.7q-.8.3-2.1.5-.8 0-1 .2l-.6.4-.1.6q0 .5.3.8.4.4 1.1.4.7 0 1.3-.4.5-.3.8-.8.2-.4.2-1.2v-.5zm3.3 3.7v-7.3h1v1q.9-1.2 2.4-1.2.6 0 1.2.3.5.2.8.6.3.4.4.9v5.7h-1.2V209l-.1-1q-.1-.5-.5-.7-.4-.2-.9-.2-.8 0-1.3.5-.6.5-.6 1.9v4h-1.2zm7.5-2.2l1.2-.2q0 .7.6 1.1.4.4 1.3.4.8 0 1.2-.3.4-.4.4-.8 0-.5-.3-.7-.3-.2-1.3-.4l-1.9-.6q-.5-.3-.8-.7-.2-.4-.2-1 0-.5.2-.9t.6-.7l.8-.3 1-.2q.9 0 1.5.3.7.2 1 .6.3.5.4 1.2l-1.2.1q0-.5-.5-.8-.3-.4-1-.4-1 0-1.3.3-.3.3-.3.7l.1.4.5.3 1 .3 1.9.6q.5.2.8.7.3.4.3 1t-.4 1.2q-.3.5-1 .8-.7.3-1.5.3-1.4 0-2.2-.6-.7-.6-1-1.7zm7.5 5v-10.1h1v1q.5-.6 1-.9.5-.3 1.2-.3 1 0 1.6.5.7.5 1.1 1.4.4.8.4 1.9 0 1-.4 2-.4.9-1.2 1.4-.8.4-1.6.4-.6 0-1.1-.2-.5-.3-.8-.7v3.5h-1.2zm1-6.4q0 1.4.6 2 .6.7 1.4.7.8 0 1.4-.7.6-.7.6-2.1 0-1.4-.6-2.1-.5-.7-1.3-.7t-1.4.7q-.6.8-.6 2.2zm6.5 0q0-2 1.1-3 1-.9 2.3-.9 1.5 0 2.5 1t1 2.7q0 1.4-.5 2.2-.4.8-1.2 1.3-.8.4-1.8.4-1.5 0-2.5-1-.9-1-.9-2.8zm1.3 0q0 1.3.6 2t1.5.7q1 0 1.5-.7.6-.7.6-2.1 0-1.4-.6-2-.6-.8-1.5-.8t-1.5.7q-.6.7-.6 2.1zm7.1 3.6v-7.3h1.2v1.1q.4-.8.7-1 .4-.3.8-.3.7 0 1.3.4l-.4 1.2q-.5-.3-1-.3l-.7.2q-.3.3-.4.7-.2.7-.2 1.5v3.8h-1.3zm7.8-1.1l.1 1-.9.1q-.7 0-1-.2-.4-.2-.6-.5l-.1-1.5v-4.1h-1v-1h1v-1.8l1.2-.7v2.5h1.3v1H100v4.9l.3.2.4.1h.6zm1.2 1v-10h1.3v10h-1.3zm3.5 0v-7.2h1.2v7.3h-1.2zm2.8-8.3h-4.2v-1h4.2v1zm5.5 8.4v-1q-.7 1.1-2 1.1-1 0-1.7-.5-.7-.4-1-1.3-.5-.9-.5-2 0-1 .4-2 .3-.8 1-1.3.8-.5 1.7-.5.6 0 1.2.3.5.3.8.7v-3.6h1.2v10h-1.1zm-4-3.7q0 1.4.7 2.1.6.7 1.4.7.8 0 1.3-.6.6-.7.6-2 0-1.6-.6-2.2-.6-.8-1.4-.8-.8 0-1.4.7-.5.7-.5 2.1zm6.6 3.7v-1l4.6-5.3h-4.4v-1h6v.8l-4 4.6-.7.9 1.6-.1h3.3v1H117zm12.6-2.4l1.3.2q-.3 1-1.1 1.7-.8.6-2 .6-1.7 0-2.6-1-1-1-1-2.7 0-1.9 1-2.9t2.4-1q1.5 0 2.4 1 1 1 1 2.8v.3h-5.5q.1 1.2.7 1.9.6.6 1.5.6.7 0 1.2-.3.5-.4.7-1.2zm-4-2h4q0-.9-.4-1.3-.6-.8-1.5-.8t-1.5.6q-.5.6-.6 1.5zm7 4.4v-10h1.3v5.6l3-3h1.5l-2.8 2.8 3.1 4.6h-1.5l-2.4-3.8-.9.9v2.9h-1.2zm7 0v-10h1.3v10h-1.3zm2.3 1.5q0 .7-.7 1-.6.3-1.3.3h-1v-.8h.7q1.1 0 1.1-.5 0-.3-.3-.4l-.7-.1.3-1.2h1l-.3.7q1.2.2 1.2 1zm5.5-2.4l-1.3.8q-.6.2-1.4.2-1.2 0-1.8-.6-.7-.5-.7-1.5 0-.5.3-1 .2-.4.6-.6.4-.3 1-.4l1-.2q1.5-.2 2.2-.5v-.3q0-.7-.3-1-.5-.5-1.4-.5-.9 0-1.3.4-.4.3-.6 1l-1.2-.1q.1-.8.5-1.3t1-.7q.8-.3 1.7-.3 1 0 1.5.3.6.2.9.5.3.3.4.8v2.8l.1 2.2.3.9h-1.3l-.2-1zm0-2.8q-.8.3-2.1.5-.8 0-1 .2l-.6.4-.1.6q0 .5.3.8.4.4 1.1.4.7 0 1.3-.4.5-.3.8-.8.2-.4.2-1.2v-.5zm12.2 1.3l1.3.2q-.3 1-1.1 1.7-.8.6-2 .6-1.7 0-2.6-1-1-1-1-2.7 0-1.9 1-2.9t2.4-1q1.5 0 2.4 1 1 1 1 2.8v.3h-5.5q.1 1.2.7 1.9.6.6 1.5.6.7 0 1.2-.3.5-.4.7-1.2zm-4-2h4q0-.9-.4-1.3-.6-.8-1.5-.8t-1.5.6q-.5.6-.6 1.5zm7 4.4v-10h1.3v5.6l3-3h1.5l-2.8 2.8 3.1 4.6h-1.5l-2.4-3.8-.9.9v2.9h-1.2zm6.6-2.2l1.2-.2q0 .7.6 1.1.4.4 1.3.4.8 0 1.2-.3.4-.4.4-.8 0-.5-.3-.7-.3-.2-1.3-.4l-1.9-.6q-.5-.3-.8-.7-.2-.4-.2-1 0-.5.2-.9t.6-.7l.8-.3 1-.2q.9 0 1.5.3.7.2 1 .6.3.5.4 1.2l-1.2.1q0-.5-.5-.8-.3-.4-1-.4-1 0-1.3.3-.3.3-.3.7l.1.4.5.3 1 .3 1.9.6q.5.2.8.7.3.4.3 1t-.4 1.2q-.3.5-1 .8-.7.3-1.5.3-1.4 0-2.2-.6-.7-.6-1-1.7zm7.5 5v-10.1h1v1q.5-.6 1-.9.5-.3 1.2-.3 1 0 1.6.5.7.5 1.1 1.4.4.8.4 1.9 0 1-.4 2-.4.9-1.2 1.4-.8.4-1.6.4-.6 0-1.1-.2-.5-.3-.8-.7v3.5h-1.2zm1-6.4q0 1.4.6 2 .6.7 1.4.7.8 0 1.4-.7.6-.7.6-2.1 0-1.4-.6-2.1-.5-.7-1.3-.7t-1.4.7q-.6.8-.6 2.2zm7 3.6v-10h1.2v10h-1.3zm7.7 0v-1.1q-.8 1.2-2.3 1.2l-1.2-.2-.8-.6q-.3-.4-.4-1v-5.6h1.2v5.3l.5.8q.4.3 1 .3.5 0 1-.3t.7-.8q.2-.5.2-1.4v-4h1.2v7.4h-1zm8-1l-1.3.9q-.6.2-1.4.2-1.2 0-1.8-.6-.7-.5-.7-1.5 0-.5.3-1 .2-.4.6-.6.4-.3 1-.4l1-.2q1.5-.2 2.2-.5v-.3q0-.7-.3-1-.5-.5-1.4-.5-.9 0-1.3.4-.4.3-.6 1l-1.2-.1q.1-.8.5-1.3t1-.7q.8-.3 1.7-.3 1 0 1.5.3.6.2.9.5.3.3.4.8v2.8l.1 2.2.3.9h-1.3l-.2-1zm0-2.7q-.8.3-2.1.5-.8 0-1 .2l-.6.4-.1.6q0 .5.3.8.4.4 1.1.4.7 0 1.3-.4.5-.3.8-.8.2-.4.2-1.2v-.5zm6 2.6l.1 1-.9.1q-.7 0-1-.2-.4-.2-.6-.5l-.1-1.5v-4.1h-1v-1h1v-1.8l1.2-.7v2.5h1.3v1H205v4.9l.3.2.4.1h.6zm6 .2l-1.3.8q-.6.2-1.4.2-1.2 0-1.8-.6-.7-.5-.7-1.5 0-.5.3-1 .2-.4.6-.6.4-.3 1-.4l1-.2q1.5-.2 2.2-.5v-.3q0-.7-.3-1-.5-.5-1.4-.5-.9 0-1.3.4-.4.3-.6 1l-1.2-.1q.1-.8.5-1.3t1-.7q.8-.3 1.7-.3 1 0 1.5.3.6.2.9.5.3.3.4.8v2.8l.1 2.2.3.9h-1.3l-.2-1zm0-2.8q-.8.3-2.1.5-.8 0-1 .2l-.6.4-.1.6q0 .5.3.8.4.4 1.1.4.7 0 1.3-.4.5-.3.8-.8.2-.4.2-1.2v-.5zm.2-4.7h-4.3v-1h4.3v1zm7.8 5.7l1.2.2q-.2 1.2-1 2-.8.6-2 .6-1.5 0-2.4-1-1-1-1-2.8 0-1.1.5-2 .4-.9 1.2-1.3.8-.5 1.7-.5 1.2 0 2 .6.7.6.9 1.7l-1.2.2q-.2-.7-.6-1-.4-.5-1-.5-1 0-1.6.7-.5.7-.5 2.1 0 1.5.5 2.2.6.6 1.5.6.7 0 1.2-.4.5-.5.6-1.4zm2.3-6v-1.4h1.2v1.4h-1.2zm0 8.7v-7.3h1.2v7.3h-1.2zm3-8.6v-1.5h1.2v1.5h-1.2zm-1.6 11.4l.2-1h.6q.4 0 .6-.2.2-.3.2-1.3v-7.6h1.2v7.6q0 1.4-.4 2-.4.6-1.4.6l-1-.1zm9.3-3.7l-1.3.8q-.6.2-1.4.2-1.2 0-1.8-.6-.7-.5-.7-1.5 0-.5.3-1 .2-.4.6-.6.4-.3 1-.4l1-.2q1.5-.2 2.2-.5v-.3q0-.7-.3-1-.5-.5-1.4-.5-.9 0-1.3.4-.4.3-.6 1l-1.2-.1q.1-.8.5-1.3t1-.7q.8-.3 1.7-.3 1 0 1.5.3.6.2.9.5.3.3.4.8v2.8l.1 2.2.3.9h-1.3l-.2-1zm0-2.8q-.8.3-2.1.5-.8 0-1 .2l-.6.4-.1.6q0 .5.3.8.4.4 1.1.4.7 0 1.3-.4.5-.3.8-.8.2-.4.2-1.2v-.5zm2.8 1.5l1.2-.2q0 .7.6 1.1.4.4 1.3.4.8 0 1.2-.3.4-.4.4-.8 0-.5-.3-.7-.3-.2-1.3-.4l-1.9-.6q-.5-.3-.8-.7-.2-.4-.2-1 0-.5.2-.9t.6-.7l.8-.3 1-.2q.9 0 1.5.3.7.2 1 .6.3.5.4 1.2l-1.2.1q0-.5-.5-.8-.3-.4-1-.4-1 0-1.3.3-.3.3-.3.7l.1.4.5.3 1 .3 1.9.6q.5.2.8.7.3.4.3 1t-.4 1.2q-.3.5-1 .8-.7.3-1.5.3-1.4 0-2.2-.6-.7-.6-1-1.7zm11.5 2.2v-7.3h1v1q.9-1.2 2.4-1.2.6 0 1.2.3.5.2.8.6.3.4.4.9v5.7h-1.2V209l-.1-1q-.1-.5-.5-.7-.4-.2-.9-.2-.8 0-1.3.5-.6.5-.6 1.9v4h-1.2zm7.5-3.7q0-2 1.1-3 1-.8 2.3-.8 1.5 0 2.5 1t1 2.7q0 1.4-.5 2.2-.4.8-1.2 1.3-.8.4-1.8.4-1.5 0-2.5-1-.9-1-.9-2.8zm1.3 0q0 1.4.6 2.1.6.7 1.5.7 1 0 1.5-.7.6-.7.6-2.1 0-1.4-.6-2-.6-.8-1.5-.8t-1.5.7q-.6.7-.6 2.1zm11.9 3.7v-1q-.7 1.1-2 1.1-1 0-1.7-.5-.7-.4-1-1.3-.5-.9-.5-2 0-1 .4-2 .3-.8 1-1.3.8-.5 1.7-.5.6 0 1.2.3.5.3.8.7v-3.6h1.2v10h-1.1zm-4-3.7q0 1.4.7 2.1.6.7 1.4.7.8 0 1.3-.6.6-.7.6-2 0-1.6-.6-2.2-.6-.8-1.4-.8-.8 0-1.4.7-.5.7-.5 2.1zm6.8 0q0-2 1.1-3 1-.8 2.3-.8 1.5 0 2.5 1t1 2.7q0 1.4-.5 2.2-.4.8-1.2 1.3-.8.4-1.8.4-1.5 0-2.5-1-.9-1-.9-2.8zm1.3 0q0 1.4.6 2.1.6.7 1.5.7 1 0 1.5-.7.6-.7.6-2.1 0-1.4-.6-2-.6-.8-1.5-.8t-1.5.7q-.6.7-.6 2.1zm7.2 3.7v-10h1.2v5.6l3-3h1.5l-2.8 2.8 3.1 4.6h-1.5l-2.4-3.8-.9.9v2.9h-1.2zm7 0v-10h1.2v10h-1.3zm3-8.7v-1.4h1.2v1.4h-1.2zm0 8.7v-7.3h1.2v7.3h-1.2zm2.5-2.2l1.2-.2q0 .7.6 1.1.4.4 1.3.4.8 0 1.2-.3.4-.4.4-.8 0-.5-.3-.7-.3-.2-1.3-.4l-1.9-.6q-.5-.3-.8-.7-.2-.4-.2-1 0-.5.2-.9t.6-.7l.8-.3 1-.2q.9 0 1.5.3.7.2 1 .6.3.5.4 1.2l-1.2.1q0-.5-.5-.8-.3-.4-1-.4-1 0-1.3.3-.3.3-.3.7l.1.4.5.3 1 .3 1.9.6q.5.2.8.7.3.4.3 1t-.4 1.2q-.3.5-1 .8-.7.3-1.5.3-1.4 0-2.2-.6-.7-.6-1-1.7zM201.8 240.4v-10h2l2.3 7 .5 1.5.6-1.6 2.4-7h1.8v10H210V232l-3 8.4H206l-3-8.6v8.6h-1.2zm16.6 0v-1q-.8 1.1-2.3 1.1l-1.2-.2-.8-.6q-.3-.4-.4-1v-5.6h1.2v5.3l.5.8q.4.3 1 .3.5 0 1-.3t.7-.8q.2-.5.2-1.4V233h1.2v7.3h-1zm3.3-8.6v-1.4h1.2v1.4h-1.2zm0 8.6V233h1.2v7.3h-1.2zm5.7-1.1l.1 1-.9.2q-.7 0-1-.2l-.6-.6-.1-1.5v-4.1h-1v-1h1v-1.8l1.2-.7v2.5h1.3v1H226v4.9l.3.2.4.1h.6zm6 .2q-.7.6-1.3.8-.6.2-1.4.2-1.2 0-1.8-.5-.7-.6-.7-1.6 0-.5.3-1 .2-.4.6-.6.4-.3 1-.4l1-.2 2.2-.4v-.4q0-.7-.3-1-.5-.4-1.4-.4-.9 0-1.3.3t-.6 1l-1.2-.1q.1-.8.5-1.3l1-.7q.8-.3 1.7-.3 1 0 1.5.3.6.2.9.5.3.3.4.9v2.7l.1 2.2.3.9h-1.3l-.2-1zm0-2.8q-.8.3-2.1.5l-1 .2-.6.4-.1.6q0 .5.3.8.4.4 1.1.4.7 0 1.3-.3.5-.4.8-.9.2-.4.2-1.2v-.5zm2.8 1.5l1.2-.2q0 .7.6 1.1.4.4 1.3.4.8 0 1.2-.3.4-.4.4-.8 0-.5-.3-.7-.3-.2-1.3-.4l-1.9-.6q-.5-.3-.8-.7-.2-.4-.2-1l.2-.8q.2-.5.6-.8l.8-.3 1-.2q.9 0 1.5.3.7.2 1 .7.3.4.4 1l-1.2.3q0-.6-.5-1-.3-.2-1-.2-1 0-1.3.2-.3.3-.3.7l.1.4.5.4 1 .3 1.9.5q.5.3.8.7.3.4.3 1 0 .7-.4 1.2-.3.5-1 .8-.7.3-1.5.3-1.4 0-2.2-.6-.7-.5-1-1.7zm11.5 2.2V233h1v1q.9-1.2 2.4-1.2.6 0 1.2.3.5.2.8.6.3.4.4 1v5.6h-1.2v-4.5l-.1-1q-.1-.4-.5-.7-.4-.2-.9-.2-.8 0-1.3.5-.6.5-.6 1.9v4h-1.2zm7.5-3.7q0-2 1.1-3 1-.8 2.3-.8 1.5 0 2.5 1t1 2.7q0 1.4-.5 2.3-.4.8-1.2 1.2-.8.4-1.8.4-1.5 0-2.5-1-.9-1-.9-2.8zm1.3 0q0 1.4.6 2.1.6.7 1.5.7 1 0 1.5-.7.6-.7.6-2.1 0-1.3-.6-2t-1.5-.7q-.9 0-1.5.7-.6.6-.6 2zm11.9 3.7v-1q-.7 1.1-2 1.1-1 0-1.7-.4-.7-.5-1-1.4-.5-.8-.5-2 0-1 .4-2 .3-.8 1-1.3.8-.5 1.7-.5.6 0 1.2.3.5.3.8.7v-3.5h1.2v10h-1.1zm-4-3.7q0 1.4.7 2.1.6.7 1.4.7.8 0 1.3-.6.6-.7.6-2 0-1.5-.6-2.2-.6-.7-1.4-.7-.8 0-1.4.6-.5.7-.5 2.1zm6.8 0q0-2 1.1-3 1-.8 2.3-.8 1.5 0 2.5 1t1 2.7q0 1.4-.5 2.3-.4.8-1.2 1.2-.8.4-1.8.4-1.5 0-2.5-1-.9-1-.9-2.8zm1.3 0q0 1.4.6 2.1.6.7 1.5.7 1 0 1.5-.7.6-.7.6-2.1 0-1.3-.6-2t-1.5-.7q-.9 0-1.5.7-.6.6-.6 2zm7.2 3.7v-10h1.2v5.7l3-3h1.5l-2.8 2.7 3.1 4.6h-1.5l-2.4-3.7-.9.8v2.9h-1.2zm7 0v-10h1.2v10h-1.3zm3-8.6v-1.4h1.2v1.4h-1.2zm0 8.6V233h1.2v7.3h-1.2zm2.5-2.2l1.2-.2q0 .7.6 1.1.4.4 1.3.4.8 0 1.2-.3.4-.4.4-.8 0-.5-.3-.7-.3-.2-1.3-.4l-1.9-.6q-.5-.3-.8-.7-.2-.4-.2-1l.2-.8q.2-.5.6-.8l.8-.3 1-.2q.9 0 1.5.3.7.2 1 .7.3.4.4 1l-1.2.3q0-.6-.5-1-.3-.2-1-.2-1 0-1.3.2-.3.3-.3.7l.1.4.5.4 1 .3 1.9.5q.5.3.8.7.3.4.3 1 0 .7-.4 1.2-.3.5-1 .8-.7.3-1.5.3-1.4 0-2.2-.6-.7-.5-1-1.7zM115.7 267.2l3.9-10h1.4l4.1 10h-1.5l-1.2-3h-4.2l-1 3h-1.5zm3-4.1h3.3l-1-2.8-.7-2-.6 1.8-1 3zm6.3 4v-1l4.6-5.2h-4.4v-1h6v.8l-4 4.6-.7.9h4.9v1H125zm12.4-.8q-.7.6-1.3.8-.6.3-1.4.3-1.2 0-1.8-.6-.7-.6-.7-1.5 0-.6.3-1 .2-.4.6-.7.4-.3 1-.4l1-.2 2.2-.4v-.3q0-.8-.3-1.1-.5-.4-1.4-.4-.9 0-1.3.3t-.6 1l-1.2-.1q.1-.8.5-1.3l1-.7q.8-.2 1.7-.2 1 0 1.5.2.6.2.9.5.3.4.4.9v2.7l.1 2.2.3.9h-1.3l-.2-1zm0-2.8q-.8.3-2.1.5-.8.1-1 .3-.4 0-.6.4l-.1.5q0 .5.3.9.4.3 1.1.3.7 0 1.3-.3.5-.3.8-.9.2-.4.2-1.2v-.5zm3.2 3.7v-7.3h1.2v1.1q.4-.8.7-1l.8-.2q.7 0 1.3.4l-.4 1-1-.2q-.3 0-.7.3-.3.2-.4.6-.2.7-.2 1.5v3.8h-1.3zm7.8-1.1l.1 1-.9.2q-.7 0-1-.2-.4-.2-.6-.6l-.1-1.4v-4.2h-1v-1h1v-1.8l1.2-.7v2.5h1.3v1H147v4.9l.3.2.4.1h.6zm.8-1l1.2-.3q0 .8.6 1.1.4.4 1.3.4.8 0 1.2-.3.4-.3.4-.8 0-.4-.3-.7l-1.3-.4q-1.3-.3-1.9-.6-.5-.2-.8-.7-.2-.4-.2-1l.2-.8q.2-.5.6-.7l.8-.4 1-.1q.9 0 1.5.2.7.2 1 .7.3.4.4 1l-1.2.3q0-.6-.5-1-.3-.2-1-.2-1 0-1.3.3-.3.2-.3.6l.1.4.5.4 1 .3q1.4.3 1.9.6.5.2.8.6.3.4.3 1 0 .7-.4 1.2-.3.5-1 .9-.7.3-1.5.3-1.4 0-2.2-.6-.7-.6-1-1.8zm7.5 4.9v-10h1v.9q.5-.6 1-.9.5-.2 1.2-.2 1 0 1.6.4.7.5 1.1 1.4.4.9.4 1.9 0 1.1-.4 2-.4.9-1.2 1.4-.8.5-1.6.5-.6 0-1.1-.3-.5-.3-.8-.7v3.6h-1.2zm1-6.4q0 1.4.6 2 .6.7 1.4.7.8 0 1.4-.6.6-.8.6-2.2 0-1.4-.6-2-.5-.8-1.3-.8t-1.4.8q-.6.7-.6 2zm12 1.2l1.2.2q-.3 1.1-1.1 1.7-.8.7-2 .7-1.7 0-2.6-1-1-1-1-2.8 0-1.8 1-2.8 1-1 2.4-1 1.5 0 2.4 1 1 1 1 2.7v.4h-5.5q.1 1.2.7 1.8.6.6 1.5.6.7 0 1.2-.3.5-.4.7-1.2zm-4.1-2h4q0-.9-.4-1.3-.6-.7-1.5-.7t-1.5.5q-.5.6-.6 1.6zm4.2-4h-4.2v-1h4.2v1zm2.8 8.4v-10h1.3v10h-1.3zm2.3 1.6q0 .6-.7 1-.6.3-1.3.3l-1-.1v-.8h.7q1.1 0 1.1-.5 0-.3-.3-.4h-.7l.3-1.3h1l-.3.8q1.2.1 1.2 1zm5.5-1.6v-1q-.8 1.2-2.3 1.2-.6 0-1.2-.3-.5-.2-.8-.6-.3-.4-.4-1V260h1.2v5.3l.5.8q.4.3 1 .3.5 0 1-.3t.7-.8q.2-.5.2-1.4V260h1.2v7.3h-1zm12 0v-1q-.8 1.2-2.3 1.2-.6 0-1.2-.3-.5-.2-.8-.6-.3-.4-.4-1V260h1.2v5.3l.5.8q.4.3 1 .3.5 0 1-.3t.7-.8q.2-.5.2-1.4V260h1.2v7.3h-1zm3.3 0v-7.3h1v1q.9-1.1 2.4-1.1l1.2.2q.5.2.8.6.3.4.4 1v5.6h-1.2v-4.4l-.1-1.1q-.1-.4-.5-.6-.4-.3-.9-.3-.8 0-1.3.5-.6.5-.6 2v3.9h-1.2zm12-8.6v-1.4h1.2v1.4h-1.2zm0 8.6v-7.3h1.2v7.3h-1.2zm2.3 0v-1l4.6-5.3h-4.4v-1h6v.8l-4 4.6-.7.9h4.9v1H210zm7.6 0v-10h1.3v10h-1.3zm2.6-3.6q0-2 1.1-3 1-.8 2.3-.8 1.5 0 2.5 1t1 2.6q0 1.5-.5 2.3-.4.8-1.2 1.2-.8.5-1.8.5-1.5 0-2.5-1-.9-1-.9-2.8zm1.3 0q0 1.3.6 2t1.5.7q1 0 1.5-.7.6-.7.6-2 0-1.4-.6-2.1-.6-.7-1.5-.7t-1.5.7q-.6.7-.6 2zm6.5 3.6v-1l4.6-5.3h-4.4v-1h6v.8l-4 4.6-.7.9h4.9v1H228zm5.4-10.3l-1.5 2h-1.4l-1.4-2h1.4l.7 1.2.8-1.2h1.4zm7 10.3v-1q-.8 1.2-2.3 1.2-.6 0-1.2-.3-.5-.2-.8-.6-.3-.4-.4-1V260h1.2v5.3l.5.8q.4.3 1 .3.5 0 1-.3t.7-.8q.2-.5.2-1.4V260h1.2v7.3h-1zm7.3 0v-7.3h1v1q.9-1.1 2.4-1.1l1.2.2q.5.2.8.6.3.4.4 1v5.6h-1.2v-4.4l-.1-1.1q-.1-.4-.5-.6-.4-.3-.9-.3-.8 0-1.3.5-.6.5-.6 2v3.9h-1.2zm7.5-3.6q0-2 1.1-3 1-.8 2.3-.8 1.5 0 2.5 1t1 2.6q0 1.5-.5 2.3-.4.8-1.2 1.2-.8.5-1.8.5-1.5 0-2.5-1-.9-1-.9-2.8zm1.3 0q0 1.3.6 2t1.5.7q1 0 1.5-.7.6-.7.6-2 0-1.4-.6-2.1-.6-.7-1.5-.7t-1.5.7q-.6.7-.6 2zm11.9 3.6v-1q-.7 1.2-2 1.2-1 0-1.7-.5t-1-1.4q-.5-.8-.5-2 0-1 .4-2 .3-.8 1-1.3.8-.4 1.7-.4l1.2.2q.5.3.8.8v-3.6h1.2v10h-1.1zm-4-3.6q0 1.3.7 2 .6.7 1.4.7.8 0 1.3-.6.6-.7.6-2 0-1.5-.6-2.2-.6-.7-1.4-.7-.8 0-1.4.6-.5.7-.5 2.2zm6.8 0q0-2 1.1-3 1-.8 2.3-.8 1.5 0 2.5 1t1 2.6q0 1.5-.5 2.3-.4.8-1.2 1.2-.8.5-1.8.5-1.5 0-2.5-1-.9-1-.9-2.8zm1.3 0q0 1.3.6 2t1.5.7q1 0 1.5-.7.6-.7.6-2 0-1.4-.6-2.1-.6-.7-1.5-.7t-1.5.7q-.6.7-.6 2zm7.2 3.6v-10h1.2v5.7l3-3h1.5l-2.8 2.7 3.1 4.6h-1.5l-2.4-3.7-.9.8v2.9h-1.2zm7 0v-10h1.2v10h-1.3zm3-8.6v-1.4h1.2v1.4h-1.2zm0 8.6v-7.3h1.2v7.3h-1.2zm2.5-2.2l1.2-.2q0 .8.6 1.1.4.4 1.3.4.8 0 1.2-.3.4-.3.4-.8 0-.4-.3-.7l-1.3-.4q-1.3-.3-1.9-.6-.5-.2-.8-.7-.2-.4-.2-1l.2-.8q.2-.5.6-.7l.8-.4 1-.1q.9 0 1.5.2.7.2 1 .7.3.4.4 1l-1.2.3q0-.6-.5-1-.3-.2-1-.2-1 0-1.3.3-.3.2-.3.6l.1.4.5.4 1 .3q1.4.3 1.9.6.5.2.8.6.3.4.3 1 0 .7-.4 1.2-.3.5-1 .9-.7.3-1.5.3-1.4 0-2.2-.6-.7-.6-1-1.8zM138.8 294v-10h1.4l5.2 7.8V284h1.3v10h-1.3l-5.3-7.9v7.9h-1.3zm14.6-.9q-.7.6-1.3.8-.6.3-1.4.3-1.2 0-1.8-.6-.7-.6-.7-1.5 0-.6.3-1 .2-.4.6-.7.4-.3 1-.4l1-.2 2.2-.4v-.3q0-.8-.3-1-.5-.5-1.4-.5-.9 0-1.3.3t-.6 1h-1.2q.1-.9.5-1.3.4-.5 1-.8.8-.2 1.7-.2 1 0 1.5.2.6.2.9.5.3.4.4.9v2.7l.1 2.2.3.9h-1.3l-.2-.9zm0-2.7l-2.1.4q-.8.1-1 .3-.4.1-.6.4l-.1.5q0 .5.3.9.4.3 1.1.3.7 0 1.3-.3.5-.3.8-.9.2-.4.2-1.2v-.4zm8 3.6v-1q-.8 1.2-2.3 1.2-.6 0-1.2-.3-.5-.2-.8-.6-.3-.4-.4-1v-5.6h1.2v5.4l.5.7q.4.3 1 .3.5 0 1-.3t.7-.8q.2-.4.2-1.4v-3.9h1.2v7.3h-1zm8 0v-1q-.7 1.2-2 1.2-1 0-1.7-.5t-1-1.4q-.5-.8-.5-2 0-1 .4-1.9.3-.9 1-1.4.8-.4 1.7-.4.6 0 1.2.3.5.2.8.7V284h1.2v10h-1.1zm-4-3.6q0 1.4.7 2 .6.8 1.4.8.8 0 1.3-.7.6-.7.6-2 0-1.5-.6-2.2-.6-.7-1.4-.7-.8 0-1.4.7-.5.6-.5 2zm12 2.7q-.7.6-1.3.8-.6.3-1.4.3-1.2 0-1.8-.6-.7-.6-.7-1.5 0-.6.3-1 .2-.4.6-.7.4-.3 1-.4l1-.2 2.2-.4v-.3q0-.8-.3-1-.5-.5-1.4-.5-.9 0-1.3.3t-.6 1h-1.2q.1-.9.5-1.3.4-.5 1-.8.8-.2 1.7-.2 1 0 1.5.2.6.2.9.5.3.4.4.9v2.7l.1 2.2.3.9h-1.3l-.2-.9zm0-2.7l-2.1.4q-.8.1-1 .3-.4.1-.6.4l-.1.5q0 .5.3.9.4.3 1.1.3.7 0 1.3-.3.5-.3.8-.9.2-.4.2-1.2v-.4zm2.8 1.4l1.2-.2q0 .8.6 1.2.4.4 1.3.4.8 0 1.2-.4.4-.3.4-.8 0-.4-.3-.7l-1.3-.4q-1.3-.3-1.9-.6-.5-.2-.8-.7-.2-.4-.2-1l.2-.8q.2-.4.6-.7l.8-.4 1-.1q.9 0 1.5.2.7.3 1 .7.3.4.4 1.1l-1.2.2q0-.6-.5-.9-.3-.3-1-.3-1 0-1.3.3-.3.2-.3.6l.1.4q.2.3.5.4l1 .3q1.4.3 1.9.6.5.2.8.6.3.4.3 1 0 .7-.4 1.2-.3.6-1 .9-.7.3-1.5.3-1.4 0-2.2-.6-.7-.6-1-1.8zm11 0l1.2-.2q0 .8.6 1.2.4.4 1.3.4.8 0 1.2-.4.4-.3.4-.8 0-.4-.3-.7l-1.3-.4q-1.3-.3-1.9-.6-.5-.2-.8-.7-.2-.4-.2-1l.2-.8q.2-.4.6-.7l.8-.4 1-.1q.9 0 1.5.2.7.3 1 .7.3.4.4 1.1l-1.2.2q0-.6-.5-.9-.3-.3-1-.3-1 0-1.3.3-.3.2-.3.6l.1.4q.2.3.5.4l1 .3q1.4.3 1.9.6.5.2.8.6.3.4.3 1 0 .7-.4 1.2-.3.6-1 .9-.7.3-1.5.3-1.4 0-2.2-.6-.7-.6-1-1.8zm7-1.4q0-2 1.1-3 1-.8 2.3-.8 1.5 0 2.5 1t1 2.7q0 1.4-.5 2.2-.4.8-1.2 1.2-.8.5-1.8.5-1.5 0-2.5-1-.9-1-.9-2.8zm1.3 0q0 1.4.6 2 .6.8 1.5.8 1 0 1.5-.8.6-.7.6-2 0-1.4-.6-2.1-.6-.7-1.5-.7t-1.5.7q-.6.7-.6 2zm11.9 3.6v-1q-.7 1.2-2 1.2-1 0-1.7-.5t-1-1.4q-.5-.8-.5-2 0-1 .4-1.9.3-.9 1-1.4.8-.4 1.7-.4.6 0 1.2.3.5.2.8.7V284h1.2v10h-1.1zm-4-3.6q0 1.4.7 2 .6.8 1.4.8.8 0 1.3-.7.6-.7.6-2 0-1.5-.6-2.2-.6-.7-1.4-.7-.8 0-1.4.7-.5.6-.5 2zm7.3-5V284h1.2v1.4h-1.2zm0 8.6v-7.3h1.2v7.3h-1.2zm11.7 0v-1q-.8 1.2-2.3 1.2-.6 0-1.2-.3-.5-.2-.8-.6-.3-.4-.4-1v-5.6h1.2v5.4l.5.7q.4.3 1 .3.5 0 1-.3t.7-.8q.2-.4.2-1.4v-3.9h1.2v7.3h-1zm3.3 0v-7.3h1v1q.9-1.1 2.4-1.1l1.2.2q.5.2.8.6.3.4.4 1v5.6h-1.2v-4.4l-.1-1.1q-.1-.4-.5-.6-.4-.3-.9-.3-.8 0-1.3.5-.6.5-.6 2v3.9h-1.2zm11.5-2.2l1.2-.2q0 .8.6 1.2.4.4 1.3.4.8 0 1.2-.4.4-.3.4-.8 0-.4-.3-.7l-1.3-.4q-1.3-.3-1.9-.6-.5-.2-.8-.7-.2-.4-.2-1l.2-.8q.2-.4.6-.7l.8-.4 1-.1q.9 0 1.5.2.7.3 1 .7.3.4.4 1.1l-1.2.2q0-.6-.5-.9-.3-.3-1-.3-1 0-1.3.3-.3.2-.3.6l.1.4q.2.3.5.4l1 .3q1.4.3 1.9.6.5.2.8.6.3.4.3 1 0 .7-.4 1.2-.3.6-1 .9-.7.3-1.5.3-1.4 0-2.2-.6-.7-.6-1-1.8zm12.2 1.3q-.7.6-1.3.8-.6.3-1.4.3-1.2 0-1.8-.6-.7-.6-.7-1.5 0-.6.3-1 .2-.4.6-.7.4-.3 1-.4l1-.2 2.2-.4v-.3q0-.8-.3-1-.5-.5-1.4-.5-.9 0-1.3.3t-.6 1h-1.2q.1-.9.5-1.3.4-.5 1-.8.8-.2 1.7-.2 1 0 1.5.2.6.2.9.5.3.4.4.9v2.7l.1 2.2.3.9h-1.3l-.2-.9zm0-2.7l-2.1.4q-.8.1-1 .3-.4.1-.6.4l-.1.5q0 .5.3.9.4.3 1.1.3.7 0 1.3-.3.5-.3.8-.9.2-.4.2-1.2v-.4zm3.3 3.6v-7.3h1v1q.9-1.1 2.4-1.1l1.2.2q.5.2.8.6.3.4.4 1v5.6h-1.2v-4.4l-.1-1.1q-.1-.4-.5-.6-.4-.3-.9-.3-.8 0-1.3.5-.6.5-.6 2v3.9h-1.2zm8 0v-10h1.2v5.7l3-3h1.5l-2.8 2.7 3.1 4.6h-1.5l-2.4-3.7-.9.8v2.9h-1.2zm11.7-2.7l1.2.2q-.2 1.2-1 2-.8.7-2 .7-1.5 0-2.4-1-1-1-1-2.8 0-1.2.5-2 .4-1 1.2-1.4.8-.4 1.7-.4 1.2 0 2 .6.7.6.9 1.7l-1.2.2q-.2-.8-.6-1.1-.4-.4-1-.4-1 0-1.6.7-.5.6-.5 2 0 1.5.5 2.2.6.7 1.5.7.7 0 1.2-.5.5-.4.6-1.4zm2.3-6V284h1.2v1.4h-1.2zm0 8.7v-7.3h1.2v7.3h-1.2zm3-8.6V284h1.2v1.4h-1.2zm-1.6 11.4l.2-1h.6q.4 0 .6-.2.2-.2.2-1.2v-7.7h1.2v7.7q0 1.3-.4 1.9-.4.6-1.4.6h-1zm9.3-3.7q-.7.6-1.3.8-.6.3-1.4.3-1.2 0-1.8-.6-.7-.6-.7-1.5 0-.6.3-1 .2-.4.6-.7.4-.3 1-.4l1-.2 2.2-.4v-.3q0-.8-.3-1-.5-.5-1.4-.5-.9 0-1.3.3t-.6 1h-1.2q.1-.9.5-1.3.4-.5 1-.8.8-.2 1.7-.2 1 0 1.5.2.6.2.9.5.3.4.4.9v2.7l.1 2.2.3.9h-1.3l-.2-.9zm0-2.7l-2.1.4q-.8.1-1 .3-.4.1-.6.4l-.1.5q0 .5.3.9.4.3 1.1.3.7 0 1.3-.3.5-.3.8-.9.2-.4.2-1.2v-.4zm2.8 1.4l1.2-.2q0 .8.6 1.2.4.4 1.3.4.8 0 1.2-.4.4-.3.4-.8 0-.4-.3-.7l-1.3-.4q-1.3-.3-1.9-.6-.5-.2-.8-.7-.2-.4-.2-1l.2-.8q.2-.4.6-.7l.8-.4 1-.1q.9 0 1.5.2.7.3 1 .7.3.4.4 1.1l-1.2.2q0-.6-.5-.9-.3-.3-1-.3-1 0-1.3.3-.3.2-.3.6l.1.4q.2.3.5.4l1 .3q1.4.3 1.9.6.5.2.8.6.3.4.3 1 0 .7-.4 1.2-.3.6-1 .9-.7.3-1.5.3-1.4 0-2.2-.6-.7-.6-1-1.8zM27.4 310.8h1.3v5.8q0 1.5-.3 2.4-.4.9-1.3 1.4-.8.6-2.3.6-1.4 0-2.3-.5-.9-.5-1.3-1.4-.4-1-.4-2.5v-5.8h1.4v5.8q0 1.3.2 1.9.2.6.8 1 .6.3 1.5.3 1.4 0 2-.7.7-.6.7-2.5v-5.8zm2.6 10v-1l4.6-5.3h-4.4v-1h6v.9l-4 4.6-.7.8h4.9v1H30zm7.7 0v-7.3h1v1q.9-1.1 2.4-1.1l1.2.2.8.6q.3.4.4 1v5.6h-1.2v-4.4l-.1-1.1q-.1-.4-.5-.6-.4-.2-.9-.2-.8 0-1.3.5-.6.5-.6 1.8v4h-1.2zm4.5 2q0 .6-.7 1-.5.2-1.3.2h-1l.1-.8h.7q1 0 1-.5 0-.3-.3-.4l-.7-.1.3-1.2h1l-.3.7q1.2.2 1.2 1zm8.4-4.3l1.3.1q-.3 1.1-1.1 1.8-.8.6-2 .6-1.7 0-2.6-1-1-1-1-2.8 0-1.8 1-2.8 1-1 2.4-1 1.5 0 2.4 1 1 1 1 2.8v.3h-5.5q.1 1.2.7 1.8.6.7 1.5.7.7 0 1.2-.4t.7-1.1zm-4-2h4q0-1-.4-1.4-.6-.7-1.5-.7t-1.5.6q-.5.5-.6 1.5zm4.2-4h-4.2v-1h4.2v1zm2.9 8.3v-7.3h1v1q.4-.5 1-.8.5-.3 1.3-.3t1.3.3q.5.4.7 1 .9-1.3 2.3-1.3 1 0 1.6.6.6.6.6 1.8v5h-1.2v-4.6q0-.7-.2-1 0-.4-.4-.5-.3-.2-.7-.2-.8 0-1.3.5t-.5 1.6v4.2H58v-4.7q0-.8-.3-1.2-.3-.4-1-.4l-1 .2q-.4.3-.6.8-.2.5-.2 1.5v3.8h-1.2zm16.7 0v-1q-.8 1.2-2.3 1.2-.6 0-1.2-.3-.5-.2-.8-.6-.3-.4-.4-.9v-5.7h1.2v5.4q.2.5.5.7.4.3 1 .3.5 0 1-.3t.7-.7q.2-.5.2-1.5v-3.9h1.2v7.3h-1zm3.3 0v-7.3h1v1q.4-.5 1-.8.5-.3 1.3-.3t1.3.3q.5.4.7 1 .9-1.3 2.3-1.3 1 0 1.6.6.6.6.6 1.8v5h-1.2v-4.6q0-.7-.2-1 0-.4-.4-.5-.3-.2-.7-.2-.8 0-1.3.5t-.5 1.6v4.2H78v-4.7q0-.8-.3-1.2-.3-.4-1-.4l-1 .2q-.4.3-.6.8-.2.5-.2 1.5v3.8h-1.2zm16.7 0v-1q-.8 1.2-2.3 1.2-.6 0-1.2-.3-.5-.2-.8-.6-.3-.4-.4-.9v-5.7h1.2v5.4q.2.5.5.7.4.3 1 .3.5 0 1-.3t.7-.7q.2-.5.2-1.5v-3.9h1.2v7.3h-1zm9.3 0l-2.8-7.3h1.3l1.6 4.4.4 1.5.5-1.4 1.6-4.5h1.3l-2.8 7.3h-1.1zm5-8.6v-1.4h1.2v1.4h-1.2zm0 8.6v-7.3h1.2v7.3h-1.2zm8-2.3l1.2.1q-.3 1.1-1.1 1.8-.8.6-2 .6-1.7 0-2.6-1-1-1-1-2.8 0-1.8 1-2.8 1-1 2.4-1 1.5 0 2.4 1 1 1 1 2.8v.3h-5.5q.1 1.2.7 1.8.6.7 1.5.7.7 0 1.2-.4t.7-1.1zm-4.1-2h4q0-1-.4-1.4-.6-.7-1.5-.7t-1.5.6q-.5.5-.6 1.5zm6.8 5h1.2q.1.6.5.9.4.3 1.2.3.9 0 1.3-.3.5-.3.7-1V320q-.8 1-2 1-1.5 0-2.3-1.2-.8-1-.8-2.6 0-1 .4-1.9.3-.9 1-1.3.8-.5 1.7-.5 1.3 0 2.2 1v-.9h1v6.3q0 1.7-.3 2.4t-1 1.1q-.8.5-1.9.5-1.3 0-2-.6-.9-.6-.9-1.8zm1-4.5q0 1.5.6 2.1.6.7 1.4.7.9 0 1.5-.7.5-.6.5-2 0-1.3-.5-2-.6-.7-1.5-.7-.8 0-1.4.7-.5.6-.5 2zm7.2 3.8v-10h1.3v10h-1.3zm2.6-3.6q0-2 1.1-3 1-.8 2.3-.8 1.5 0 2.5 1t1 2.7q0 1.4-.5 2.2-.4.8-1.2 1.2-.8.5-1.8.5-1.5 0-2.5-1-.9-1-.9-2.8zm1.3 0q0 1.4.6 2 .6.8 1.5.8 1 0 1.5-.7.6-.7.6-2.2 0-1.3-.6-2t-1.5-.7q-.9 0-1.5.7t-.6 2zm13.9 2.5l.1 1-.9.2q-.7 0-1-.2-.4-.2-.6-.6l-.1-1.4v-4.2h-1v-1h1v-1.8l1.2-.7v2.5h1.3v1H140v4.9l.3.3h1zm1.2 1.1v-7.3h1.2v1.2q.4-.8.7-1 .4-.3.8-.3.7 0 1.3.4l-.4 1.1-1-.2-.7.2q-.3.2-.4.7-.2.6-.2 1.4v3.8h-1.3zm9.8-.9q-.7.6-1.3.8-.6.3-1.4.3-1.2 0-1.8-.6-.7-.6-.7-1.5 0-.5.3-1 .2-.4.6-.7l1-.4 1-.2q1.5-.1 2.2-.4v-.3q0-.8-.3-1-.5-.5-1.4-.5-.9 0-1.3.3t-.6 1h-1.2q.1-.9.5-1.3.4-.5 1-.7.8-.3 1.7-.3 1 0 1.5.2.6.2.9.6.3.3.4.8v2.8l.1 2.1.3 1h-1.3l-.2-1zm0-2.7l-2.1.4q-.8.1-1 .3-.4.1-.6.4l-.1.6q0 .5.3.8.4.3 1.1.3.7 0 1.3-.3.5-.3.8-.9.2-.4.2-1.2v-.4zm3.3 3.6v-7.3h1v1q.9-1.1 2.4-1.1l1.2.2.8.6q.3.4.4 1v5.6h-1.2v-4.4l-.1-1.1q-.1-.4-.5-.6-.4-.2-.9-.2-.8 0-1.3.5-.6.5-.6 1.8v4h-1.2zm7.5-2.2l1.2-.1q0 .7.6 1 .4.5 1.3.5.8 0 1.2-.4.4-.3.4-.8 0-.4-.3-.6l-1.3-.5q-1.3-.3-1.9-.6-.5-.2-.8-.6l-.2-1 .2-1 .6-.6.8-.4 1-.1q.9 0 1.5.2.7.3 1 .7.3.4.4 1.1l-1.2.2q0-.6-.5-.9-.3-.3-1-.3-1 0-1.3.3-.3.3-.3.6l.1.5.5.3 1 .3 1.9.6q.5.2.8.6.3.4.3 1 0 .7-.4 1.2-.3.6-1 .9-.7.3-1.5.3-1.4 0-2.2-.6-.7-.6-1-1.8zm7.5 5v-10h1v.9q.5-.6 1-.8.5-.3 1.2-.3 1 0 1.6.5.7.4 1.1 1.3.4.9.4 2 0 1-.4 2-.4.8-1.2 1.3-.8.5-1.6.5-.6 0-1.1-.3-.5-.2-.8-.6v3.5h-1.2zm1-6.4q0 1.4.6 2 .6.8 1.4.8.8 0 1.4-.7.6-.7.6-2.2 0-1.4-.6-2-.5-.7-1.3-.7t-1.4.7q-.6.7-.6 2.1zm6.5 0q0-2 1.1-3 1-.8 2.3-.8 1.5 0 2.5 1t1 2.7q0 1.4-.5 2.2-.4.8-1.2 1.2-.8.5-1.8.5-1.5 0-2.5-1-.9-1-.9-2.8zm1.3 0q0 1.4.6 2 .6.8 1.5.8 1 0 1.5-.7.6-.7.6-2.2 0-1.3-.6-2t-1.5-.7q-.9 0-1.5.7t-.6 2zm7.1 3.6v-7.3h1.2v1.2q.4-.8.7-1 .4-.3.8-.3.7 0 1.3.4l-.4 1.1-1-.2-.7.2q-.3.2-.4.7-.2.6-.2 1.4v3.8h-1.3zm7.8-1l.1 1-.9.1q-.7 0-1-.2-.4-.2-.6-.6l-.1-1.4v-4.2h-1v-1h1v-1.8l1.2-.7v2.5h1.3v1H193v4.9l.3.3h1zm1.2 1v-10h1.3v10h-1.3zm3.5 0v-7.3h1.2v7.3h-1.2zm2.8-8.3h-4.2v-1h4.2v1zm5.5 8.3v-1q-.7 1.2-2 1.2-1 0-1.7-.5t-1-1.3q-.5-1-.5-2t.4-2q.3-.9 1-1.3.8-.5 1.7-.5.6 0 1.2.3.5.2.8.7v-3.6h1.2v10h-1.1zm-4-3.6q0 1.4.7 2 .6.8 1.4.8.8 0 1.3-.7.6-.7.6-2 0-1.5-.6-2.2-.6-.7-1.4-.7-.8 0-1.4.7-.5.6-.5 2zm6.6 3.6v-1l4.6-5.3h-4.4v-1h6v.9l-4 4.6-.7.8h4.9v1H210zm12.6-2.3l1.3.1q-.3 1.1-1.1 1.8-.8.6-2 .6-1.7 0-2.6-1-1-1-1-2.8 0-1.8 1-2.8 1-1 2.4-1 1.5 0 2.4 1 1 1 1 2.8v.3h-5.5q.1 1.2.7 1.8.6.7 1.5.7.7 0 1.2-.4t.7-1.1zm-4-2h4q0-1-.4-1.4-.6-.7-1.5-.7t-1.5.6q-.5.5-.6 1.5zm7 4.3v-10h1.3v5.7l3-3h1.5l-2.8 2.7 3.1 4.6h-1.5l-2.4-3.7-.9.8v3h-1.2zm7 0v-10h1.3v10h-1.3zm2.3 1.6q0 .7-.7 1-.6.3-1.3.3h-1v-.9h.7q1.1 0 1.1-.5 0-.2-.3-.4h-.7l.3-1.2h1l-.3.7q1.2.1 1.2 1zm5.5-1.6v-1q-.8 1.2-2.3 1.2-.6 0-1.2-.3-.5-.2-.8-.6-.3-.4-.4-.9v-5.7h1.2v5.4q.2.5.5.7.4.3 1 .3.5 0 1-.3t.7-.7q.2-.5.2-1.5v-3.9h1.2v7.3h-1zm7.3 0v-7.3h1v1q.9-1.1 2.4-1.1l1.2.2.8.6q.3.4.4 1v5.6h-1.2v-4.4l-.1-1.1q-.1-.4-.5-.6-.4-.2-.9-.2-.8 0-1.3.5-.6.5-.6 1.8v4h-1.2zm7.5-3.6q0-2 1.1-3 1-.8 2.3-.8 1.5 0 2.5 1t1 2.7q0 1.4-.5 2.2-.4.8-1.2 1.2-.8.5-1.8.5-1.5 0-2.5-1-.9-1-.9-2.8zm1.3 0q0 1.4.6 2 .6.8 1.5.8 1 0 1.5-.7.6-.7.6-2.2 0-1.3-.6-2t-1.5-.7q-.9 0-1.5.7t-.6 2zm11.9 3.6v-1q-.7 1.2-2 1.2-1 0-1.7-.5t-1-1.3q-.5-1-.5-2t.4-2q.3-.9 1-1.3.8-.5 1.7-.5.6 0 1.2.3.5.2.8.7v-3.6h1.2v10h-1.1zm-4-3.6q0 1.4.7 2 .6.8 1.4.8.8 0 1.3-.7.6-.7.6-2 0-1.5-.6-2.2-.6-.7-1.4-.7-.8 0-1.4.7-.5.6-.5 2zm6.8 0q0-2 1.1-3 1-.8 2.3-.8 1.5 0 2.5 1t1 2.7q0 1.4-.5 2.2-.4.8-1.2 1.2-.8.5-1.8.5-1.5 0-2.5-1-.9-1-.9-2.8zm1.3 0q0 1.4.6 2 .6.8 1.5.8 1 0 1.5-.7.6-.7.6-2.2 0-1.3-.6-2t-1.5-.7q-.9 0-1.5.7t-.6 2zm7.2 3.6v-10h1.2v5.7l3-3h1.5l-2.8 2.7 3.1 4.6h-1.5l-2.4-3.7-.9.8v3h-1.2zm7 0v-10h1.2v10h-1.3zm3-8.6v-1.4h1.2v1.4h-1.2zm0 8.6v-7.3h1.2v7.3h-1.2zm2.5-2.2l1.2-.1q0 .7.6 1 .4.5 1.3.5.8 0 1.2-.4.4-.3.4-.8 0-.4-.3-.6l-1.3-.5q-1.3-.3-1.9-.6-.5-.2-.8-.6l-.2-1 .2-1 .6-.6.8-.4 1-.1q.9 0 1.5.2.7.3 1 .7.3.4.4 1.1l-1.2.2q0-.6-.5-.9-.3-.3-1-.3-1 0-1.3.3-.3.3-.3.6l.1.5.5.3 1 .3 1.9.6q.5.2.8.6.3.4.3 1 0 .7-.4 1.2-.3.6-1 .9-.7.3-1.5.3-1.4 0-2.2-.6-.7-.6-1-1.8zM119.8 347.6v-10h3.8l1.5.1q.8.1 1.3.5.5.3.8 1 .3.5.3 1.3 0 1.3-.8 2.2-.8.8-3 .8h-2.6v4.1h-1.3zm1.3-5.2h2.6q1.3 0 1.9-.5.5-.5.5-1.4 0-.6-.3-1-.3-.5-.9-.6l-1.2-.1h-2.6v3.6zm12.3 4.3l-1.3.9q-.6.2-1.4.2-1.2 0-1.8-.6-.7-.6-.7-1.5 0-.5.3-1 .2-.4.6-.7l1-.4 1-.2q1.5-.1 2.2-.4v-.3q0-.8-.3-1-.5-.5-1.4-.5-.9 0-1.3.3t-.6 1h-1.2q.1-.8.5-1.3t1-.7q.8-.3 1.7-.3 1 0 1.5.2.6.2.9.6.3.3.4.8v2.8l.1 2.1.3 1h-1.3l-.2-1zm0-2.7l-2.1.5q-.8 0-1 .2-.4.1-.6.4l-.1.6q0 .5.3.8.4.3 1.1.3.7 0 1.3-.3.5-.3.8-.8.2-.5.2-1.3v-.4zm.2-4.7h-4.3v-1h4.3v1zm3 8.3v-7.2h1.2v1l.7-1 .8-.2q.7 0 1.3.4l-.4 1.1-1-.2-.7.2q-.3.3-.4.7-.2.6-.2 1.4v3.8h-1.3zm10-2.3l1.3.1q-.3 1.2-1.1 1.8-.8.6-2 .6-1.7 0-2.6-1-1-1-1-2.7 0-1.9 1-2.9t2.4-1q1.5 0 2.4 1 1 1 1 2.8v.3h-5.5q.1 1.2.7 1.8.6.7 1.5.7.7 0 1.2-.4.5-.3.7-1.1zm-4-2h4q0-1-.4-1.4-.6-.7-1.5-.7t-1.5.6q-.5.5-.6 1.5zm4.2-4h-4.2v-1h4.2v1zm2.9-.3v-1.4h1.2v1.4h-1.2zm-1.6 11.4l.2-1h.6q.4 0 .6-.2.2-.2.2-1.2v-7.6h1.2v7.6q0 1.4-.4 1.9-.4.7-1.4.7l-1-.2zm4.6-11.4v-1.4h1.2v1.4h-1.2zm0 8.6v-7.2h1.2v7.2h-1.2zm8-2.3l1.2.1q-.3 1.2-1.1 1.8-.8.6-2 .6-1.7 0-2.6-1-1-1-1-2.7 0-1.9 1-2.9t2.4-1q1.5 0 2.4 1 1 1 1 2.8v.3h-5.5q.1 1.2.7 1.8.6.7 1.5.7.7 0 1.2-.4.5-.3.7-1.1zm-4.1-2h4q0-1-.4-1.4-.6-.7-1.5-.7t-1.5.6q-.5.5-.6 1.5zm11 4.3v-7.2h1.2v1q.8-1.2 2.3-1.2l1.2.2q.5.3.8.7.3.3.4.9V347.6h-1.2v-4.4l-.1-1.1q-.1-.4-.5-.6-.4-.2-.9-.2-.8 0-1.3.5-.6.5-.6 1.9v4h-1.2zm13-2.3l1.3.1q-.3 1.2-1.1 1.8-.8.6-2 .6-1.7 0-2.6-1-1-1-1-2.7 0-1.9 1-2.9t2.4-1q1.5 0 2.4 1 1 1 1 2.8v.3h-5.5q.1 1.2.7 1.8.6.7 1.5.7.7 0 1.2-.4.5-.3.7-1.1zm-4-2h4q0-1-.4-1.4-.6-.7-1.5-.7t-1.5.6q-.5.5-.6 1.5zm7 4.3v-7.2h1.2v1q.8-1.2 2.3-1.2l1.2.2q.5.3.8.7.3.3.4.9V347.6h-1.2v-4.4l-.1-1.1q-.1-.4-.5-.6-.4-.2-.9-.2-.8 0-1.3.5-.6.5-.6 1.9v4h-1.2zm7.6-3.6q0-2 1.1-3 1-.8 2.3-.8 1.5 0 2.5 1t1 2.7q0 1.4-.5 2.2-.4.8-1.2 1.3-.8.4-1.8.4-1.5 0-2.5-1-.9-1-.9-2.8zm1.3 0q0 1.4.6 2 .6.8 1.5.8 1 0 1.5-.7.6-.7.6-2.1 0-1.4-.6-2-.6-.8-1.5-.8t-1.5.7q-.6.7-.6 2.1zm11.9 3.6v-.9q-.7 1.1-2 1.1-1 0-1.7-.5t-1-1.3q-.5-.9-.5-2 0-1 .4-2 .3-.9 1-1.3.8-.5 1.7-.5.6 0 1.2.3.5.2.8.7v-3.6h1.2v10h-1.1zm-4-3.6q0 1.4.7 2 .6.8 1.4.8.8 0 1.3-.7.6-.6.6-2 0-1.5-.6-2.2-.6-.7-1.4-.7-.8 0-1.4.7-.5.7-.5 2.1zm6.8 0q0-2 1.1-3 1-.8 2.3-.8 1.5 0 2.5 1t1 2.7q0 1.4-.5 2.2-.4.8-1.2 1.3-.8.4-1.8.4-1.5 0-2.5-1-.9-1-.9-2.8zm1.3 0q0 1.4.6 2 .6.8 1.5.8 1 0 1.5-.7.6-.7.6-2.1 0-1.4-.6-2-.6-.8-1.5-.8t-1.5.7q-.6.7-.6 2.1zm7.2 3.6v-10h1.2v5.7l3-3h1.5l-2.8 2.8 3.1 4.5h-1.5l-2.4-3.7-.9.8v3h-1.2zm7 0v-10h1.2v10h-1.3zm2.2 1.6q0 .7-.7 1-.6.3-1.3.3h-1v-.9h.7q1.1 0 1.1-.5 0-.2-.3-.4h-.7l.3-1.2h1l-.3.7q1.2.1 1.2 1zm5.5-1.6v-1q-.8 1.2-2.3 1.2-.6 0-1.2-.3-.5-.2-.8-.6-.3-.4-.4-.9v-5.6h1.2v5.3l.5.8q.4.2 1 .2l1-.2q.5-.3.7-.8.2-.5.2-1.5v-3.8h1.2v7.2h-1zm7.3-8.6v-1.4h1.2v1.4h-1.2zm0 8.6v-7.2h1.2v7.2h-1.2zm8-2.3l1.2.1q-.3 1.2-1.1 1.8-.8.6-2 .6-1.7 0-2.6-1-1-1-1-2.7 0-1.9 1-2.9t2.4-1q1.5 0 2.4 1 1 1 1 2.8v.3h-5.5q.1 1.2.7 1.8.6.7 1.5.7.7 0 1.2-.4.5-.3.7-1.1zm-4.1-2h4q0-1-.4-1.4-.6-.7-1.5-.7t-1.5.6q-.5.5-.6 1.5zm7 4.3v-7.2h1.2v1q.8-1.2 2.3-1.2l1.2.2q.5.3.8.7.3.3.4.9V347.6h-1.2v-4.4l-.1-1.1q-.1-.4-.5-.6-.4-.2-.9-.2-.8 0-1.3.5-.6.5-.6 1.9v4h-1.2zm4.6 2q0 .6-.7 1-.5.2-1.3.2h-1l.1-.8h.7q1 0 1-.5 0-.3-.3-.4h-.7l.3-1.3h1l-.3.7q1.2.2 1.2 1zm8.4-4.3l1.3.1q-.3 1.2-1.1 1.8-.8.6-2 .6-1.7 0-2.6-1-1-1-1-2.7 0-1.9 1-2.9t2.4-1q1.5 0 2.4 1 1 1 1 2.8v.3h-5.5q.1 1.2.7 1.8.6.7 1.5.7.7 0 1.2-.4.5-.3.7-1.1zm-4-2h4q0-1-.4-1.4-.6-.7-1.5-.7t-1.5.6q-.5.5-.6 1.5zm4.2-4h-4.2v-1h4.2v1zm2.9 8.3v-7.2h1v1q.4-.6 1-.9.5-.3 1.3-.3t1.3.3q.5.4.7 1 .9-1.3 2.3-1.3 1 0 1.6.6.6.6.6 1.8v5h-1.2V343q0-.7-.2-1 0-.3-.4-.5-.3-.2-.7-.2-.8 0-1.3.5t-.5 1.6v4.2H269V343q0-.8-.3-1.2-.3-.4-1-.4l-1 .2q-.4.3-.6.8-.2.6-.2 1.6v3.7h-1.2zm16.7 0v-1q-.8 1.2-2.3 1.2-.6 0-1.2-.3-.5-.2-.8-.6-.3-.4-.4-.9v-5.6h1.2v5.3l.5.8q.4.2 1 .2l1-.2q.5-.3.7-.8.2-.5.2-1.5v-3.8h1.2v7.2h-1zm3.3 0v-7.2h1v1q.4-.6 1-.9.5-.3 1.3-.3t1.3.3q.5.4.7 1 .9-1.3 2.3-1.3 1 0 1.6.6.6.6.6 1.8v5h-1.2V343q0-.7-.2-1 0-.3-.4-.5-.3-.2-.7-.2-.8 0-1.3.5t-.5 1.6v4.2H289V343q0-.8-.3-1.2-.3-.4-1-.4l-1 .2q-.4.3-.6.8-.2.6-.2 1.6v3.7h-1.2zm12-8.6v-1.4h1.2v1.4h-1.2zm0 8.6v-7.2h1.2v7.2h-1.2zM68.4 371.2h1.2q.1.7.4 1.1.4.5 1 .8.7.3 1.6.3.7 0 1.3-.2.6-.2.9-.6.3-.4.3-.9 0-.4-.3-.8t-.9-.6l-1.8-.5q-1.4-.3-2-.6-.6-.4-1-1-.3-.5-.3-1.2t.4-1.4q.4-.7 1.2-1 .9-.3 1.9-.3 1.1 0 2 .3.8.4 1.3 1 .4.8.5 1.6l-1.3.1q-.1-1-.7-1.4-.6-.5-1.8-.5-1.2 0-1.7.5-.6.4-.6 1t.4 1q.4.3 2 .6 1.6.4 2.2.7 1 .4 1.3 1 .5.6.5 1.4 0 .8-.5 1.5t-1.3 1.1q-.9.4-2 .4-1.3 0-2.2-.4-1-.4-1.5-1.2-.5-.8-.5-1.8zm14 3.2v-1q-.8 1.2-2.3 1.2l-1.2-.2q-.5-.3-.8-.7-.3-.3-.4-.9v-5.6h1.2v5.3l.5.8q.4.2 1 .2l1-.2q.5-.3.7-.8.2-.5.2-1.4v-4h1.2v7.3h-1zm4.4 0h-1.1v-10h1.2v3.6q.8-1 2-1 .7 0 1.2.3.6.2 1 .7.4.5.6 1.2.3.7.3 1.5 0 1.9-1 2.9-.9 1-2.2 1-1.3 0-2-1v.8zm0-3.6q0 1.3.3 1.8.6 1 1.6 1 .8 0 1.4-.7.6-.7.6-2.1 0-1.4-.6-2.1-.5-.7-1.3-.7t-1.4.7q-.6.7-.6 2zm6.4 1.5l1.2-.2q0 .7.6 1.1.4.4 1.3.4.8 0 1.2-.3.4-.4.4-.9 0-.4-.3-.6-.3-.2-1.3-.4l-1.9-.6q-.5-.3-.8-.7l-.2-1q0-.5.2-.9t.6-.7l.8-.3 1-.2q.9 0 1.5.3.7.2 1 .6.3.4.4 1.1l-1.2.2q0-.5-.5-.9-.3-.3-1-.3-1 0-1.3.3-.3.3-.3.7l.1.4.5.3 1 .3 1.9.6q.5.2.8.7.3.4.3 1t-.4 1.2q-.3.5-1 .8-.7.3-1.5.3-1.4 0-2.2-.6-.7-.6-1-1.7zm7.5-6.5v-1.4h1.2v1.4h-1.2zm0 8.6v-7.2h1.2v7.2h-1.2zm7.7 0v-.9q-.7 1.1-2 1.1-1 0-1.7-.5t-1-1.3q-.5-.9-.5-2 0-1 .4-2 .3-.8 1-1.3.8-.5 1.7-.5.6 0 1.2.3.5.3.8.7v-3.6h1.2v10h-1.1zm-4-3.6q0 1.4.7 2.1.6.7 1.4.7.8 0 1.3-.7.6-.6.6-2 0-1.5-.6-2.2-.6-.7-1.4-.7-.8 0-1.4.7-.5.7-.5 2.1zm12.2 1.3l1.3.2q-.3 1-1.1 1.7-.8.6-2 .6-1.7 0-2.6-1-1-1-1-2.7 0-1.9 1-2.9t2.4-1q1.5 0 2.4 1 1 1 1 2.8v.3h-5.5q.1 1.2.7 1.9.6.6 1.5.6.7 0 1.2-.4.5-.3.7-1.1zm-4-2h4q0-1-.4-1.4-.6-.7-1.5-.7t-1.5.6q-.5.6-.6 1.5zm4.2-4h-4.2v-1h4.2v1zm5.6 7.2l.1 1.1-.9.1q-.7 0-1-.2-.4-.2-.6-.5l-.1-1.5v-4.2h-1v-1h1v-1.7l1.2-.8v2.6h1.3v1H121v4.9l.3.2h1zm6 .2l-1.3.9q-.6.2-1.4.2-1.2 0-1.8-.6-.7-.6-.7-1.5 0-.5.3-1 .2-.4.6-.7l1-.4 1-.1q1.5-.2 2.2-.5v-.3q0-.7-.3-1-.5-.5-1.4-.5-.9 0-1.3.3t-.6 1.1l-1.2-.1q.1-.8.5-1.3t1-.7q.8-.3 1.7-.3 1 0 1.5.2l.9.6q.3.3.4.8v2.8l.1 2.2.3.8h-1.3l-.2-.9zm0-2.7q-.8.3-2.1.5-.8 0-1 .2-.4.1-.6.4l-.1.6q0 .5.3.8.4.3 1.1.3.7 0 1.3-.3.5-.3.8-.8.2-.4.2-1.2v-.5zm.2-4.7h-4.3v-1h4.3v1zm2.6 6.2l1.2-.2q0 .7.6 1.1.4.4 1.3.4.8 0 1.2-.3.4-.4.4-.9 0-.4-.3-.6-.3-.2-1.3-.4l-1.9-.6q-.5-.3-.8-.7l-.2-1q0-.5.2-.9t.6-.7l.8-.3 1-.2q.9 0 1.5.3.7.2 1 .6.3.4.4 1.1l-1.2.2q0-.5-.5-.9-.3-.3-1-.3-1 0-1.3.3-.3.3-.3.7l.1.4.5.3 1 .3 1.9.6q.5.2.8.7.3.4.3 1t-.4 1.2q-.3.5-1 .8-.7.3-1.5.3-1.4 0-2.2-.6-.7-.6-1-1.7zm16.4-.2l1.3.2q-.3 1-1.1 1.7-.8.6-2 .6-1.7 0-2.6-1-1-1-1-2.7 0-1.9 1-2.9t2.4-1q1.5 0 2.4 1 1 1 1 2.8v.3h-5.5q.1 1.2.7 1.9.6.6 1.5.6.7 0 1.2-.4.5-.3.7-1.1zm-4-2h4q0-1-.4-1.4-.6-.7-1.5-.7t-1.5.6q-.5.6-.6 1.5zm7 4.3v-10h1.3v10h-1.3zm8-2.3l1.3.2q-.3 1-1.1 1.7-.8.6-2 .6-1.7 0-2.6-1-1-1-1-2.7 0-1.9 1-2.9t2.4-1q1.5 0 2.4 1 1 1 1 2.8v.3h-5.5q.1 1.2.7 1.9.6.6 1.5.6.7 0 1.2-.4.5-.3.7-1.1zm-4-2h4q0-1-.4-1.4-.6-.7-1.5-.7t-1.5.6q-.5.6-.6 1.5zm7 4.3v-10h1.3v5.7l3-3h1.5l-2.8 2.8 3.1 4.5h-1.5l-2.4-3.7-.9.9v2.8h-1.2zm9.8-1l.1 1-.9.1q-.7 0-1-.2-.4-.2-.6-.5l-.1-1.5v-4.2h-1v-1h1v-1.7l1.2-.8v2.6h1.3v1H170v4.9l.3.2h1zm1.2 1v-7.2h1.2v1l.7-1 .8-.2q.7 0 1.3.4l-.4 1.1-1-.2-.7.2q-.3.3-.4.7l-.2 1.4v3.8h-1.3zm4.6-3.6q0-2 1.1-3 1-.8 2.3-.8 1.5 0 2.5 1t1 2.7q0 1.4-.5 2.2-.4.8-1.2 1.3-.8.4-1.8.4-1.5 0-2.5-1-.9-1-.9-2.8zm1.3 0q0 1.4.6 2.1.6.7 1.5.7 1 0 1.5-.7.6-.7.6-2.1 0-1.4-.6-2-.6-.8-1.5-.8t-1.5.7q-.6.7-.6 2.1zm12.1 1.3l1.3.2q-.3 1-1.1 1.7-.8.6-2 .6-1.7 0-2.6-1-1-1-1-2.7 0-1.9 1-2.9t2.4-1q1.5 0 2.4 1 1 1 1 2.8v.3h-5.5q.1 1.2.7 1.9.6.6 1.5.6.7 0 1.2-.4.5-.3.7-1.1zm-4-2h4q0-1-.4-1.4-.6-.7-1.5-.7t-1.5.6q-.5.6-.6 1.5zm7 4.3v-7.2h1.2v1q.8-1.2 2.3-1.2.6 0 1.2.3.5.2.8.6.3.4.4.9V374.4h-1.2V370l-.1-1q-.1-.5-.5-.7-.4-.2-.9-.2-.8 0-1.3.5-.6.5-.6 1.9v4h-1.2zm13-2.3l1.3.2q-.3 1-1.1 1.7-.8.6-2 .6-1.7 0-2.6-1-1-1-1-2.7 0-1.9 1-2.9t2.4-1q1.5 0 2.4 1 1 1 1 2.8v.3h-5.5q.1 1.2.7 1.9.6.6 1.5.6.7 0 1.2-.4.5-.3.7-1.1zm-4-2h4q0-1-.4-1.4-.6-.7-1.5-.7t-1.5.6q-.5.6-.6 1.5zm7 4.3v-7.2h1.2v1l.7-1 .8-.2q.7 0 1.3.4l-.4 1.1-1-.2-.7.2q-.3.3-.4.7l-.2 1.4v3.8h-1.3zm4.8.6l1.2.2q.1.6.5.8.4.4 1.2.4.9 0 1.3-.4.5-.3.7-1v-1.5q-.8 1-2 1-1.5 0-2.3-1.1-.8-1.1-.8-2.6 0-1 .4-2 .3-.8 1-1.3.8-.5 1.7-.5 1.3 0 2.2 1v-.8h1v6.3q0 1.7-.3 2.4t-1 1q-.8.5-1.9.5-1.3 0-2-.6-.9-.6-.9-1.8zm1-4.3q0 1.4.6 2 .6.7 1.4.7.9 0 1.5-.6.5-.7.5-2 0-1.4-.5-2-.6-.8-1.5-.8-.8 0-1.4.7-.5.7-.5 2zm3.7 8.2q0 .7-.7 1-.6.3-1.3.3h-1v-.9h.7q1.1 0 1.1-.5 0-.2-.3-.4h-.7l.3-1.2h1l-.3.7q1.2.1 1.2 1zm3.6-13v-1.5h1.2v1.4h-1.2zm0 8.5v-7.2h1.2v7.2h-1.2zm3-8.6v-1.4h1.2v1.4h-1.2zm-1.6 11.5l.2-1.1.6.1q.4 0 .6-.3.2-.2.2-1.2v-7.6h1.2v7.6q0 1.4-.4 1.9-.4.7-1.4.7l-1-.1zm9.3-3.8l-1.3.9q-.6.2-1.4.2-1.2 0-1.8-.6-.7-.6-.7-1.5 0-.5.3-1 .2-.4.6-.7l1-.4 1-.1q1.5-.2 2.2-.5v-.3q0-.7-.3-1-.5-.5-1.4-.5-.9 0-1.3.3t-.6 1.1l-1.2-.1q.1-.8.5-1.3t1-.7q.8-.3 1.7-.3 1 0 1.5.2l.9.6q.3.3.4.8v2.8l.1 2.2.3.8h-1.3l-.2-.9zm0-2.7q-.8.3-2.1.5-.8 0-1 .2-.4.1-.6.4l-.1.6q0 .5.3.8.4.3 1.1.3.7 0 1.3-.3.5-.3.8-.8.2-.4.2-1.2v-.5zm2.8 1.5l1.2-.2q0 .7.6 1.1.4.4 1.3.4.8 0 1.2-.3.4-.4.4-.9 0-.4-.3-.6-.3-.2-1.3-.4l-1.9-.6q-.5-.3-.8-.7l-.2-1q0-.5.2-.9t.6-.7l.8-.3 1-.2q.9 0 1.5.3.7.2 1 .6.3.4.4 1.1l-1.2.2q0-.5-.5-.9-.3-.3-1-.3-1 0-1.3.3-.3.3-.3.7l.1.4.5.3 1 .3 1.9.6q.5.2.8.7.3.4.3 1t-.4 1.2q-.3.5-1 .8-.7.3-1.5.3-1.4 0-2.2-.6-.7-.6-1-1.7zm11.5 2.1v-7.2h1v1q.9-1.2 2.4-1.2.6 0 1.2.3.5.2.8.6.3.4.4.9V374.4h-1.2V370l-.1-1q-.1-.5-.5-.7-.4-.2-.9-.2-.8 0-1.3.5-.6.5-.6 1.9v4h-1.2zm7.5-3.6q0-2 1.1-3 1-.8 2.3-.8 1.5 0 2.5 1t1 2.7q0 1.4-.5 2.2-.4.8-1.2 1.3-.8.4-1.8.4-1.5 0-2.5-1-.9-1-.9-2.8zm1.3 0q0 1.4.6 2.1.6.7 1.5.7 1 0 1.5-.7.6-.7.6-2.1 0-1.4-.6-2-.6-.8-1.5-.8t-1.5.7q-.6.7-.6 2.1zm11.9 3.6v-.9q-.7 1.1-2 1.1-1 0-1.7-.5t-1-1.3q-.5-.9-.5-2 0-1 .4-2 .3-.8 1-1.3.8-.5 1.7-.5.6 0 1.2.3.5.3.8.7v-3.6h1.2v10h-1.1zm-4-3.6q0 1.4.7 2.1.6.7 1.4.7.8 0 1.3-.7.6-.6.6-2 0-1.5-.6-2.2-.6-.7-1.4-.7-.8 0-1.4.7-.5.7-.5 2.1zm6.8 0q0-2 1.1-3 1-.8 2.3-.8 1.5 0 2.5 1t1 2.7q0 1.4-.5 2.2-.4.8-1.2 1.3-.8.4-1.8.4-1.5 0-2.5-1-.9-1-.9-2.8zm1.3 0q0 1.4.6 2.1.6.7 1.5.7 1 0 1.5-.7.6-.7.6-2.1 0-1.4-.6-2-.6-.8-1.5-.8t-1.5.7q-.6.7-.6 2.1zm7.2 3.6v-10h1.2v5.7l3-3h1.5l-2.8 2.8 3.1 4.5h-1.5l-2.4-3.7-.9.9v2.8h-1.2zm7 0v-10h1.2v10h-1.3zm3-8.6v-1.4h1.2v1.4h-1.2zm0 8.6v-7.2h1.2v7.2h-1.2zm2.5-2.1l1.2-.2q0 .7.6 1.1.4.4 1.3.4.8 0 1.2-.3.4-.4.4-.9 0-.4-.3-.6-.3-.2-1.3-.4l-1.9-.6q-.5-.3-.8-.7l-.2-1q0-.5.2-.9t.6-.7l.8-.3 1-.2q.9 0 1.5.3.7.2 1 .6.3.4.4 1.1l-1.2.2q0-.5-.5-.9-.3-.3-1-.3-1 0-1.3.3-.3.3-.3.7l.1.4.5.3 1 .3 1.9.6q.5.2.8.7.3.4.3 1t-.4 1.2q-.3.5-1 .8-.7.3-1.5.3-1.4 0-2.2-.6-.7-.6-1-1.7zM141.9 401.3v-10h7.2v1.1h-6v3h5.6v1.3h-5.5v3.4h6.1v1.2H142zm8.7 0v-10h1.3v10h-1.3zm8-2.4l1.3.2q-.3 1-1.1 1.7-.8.6-2 .6-1.7 0-2.6-1-1-1-1-2.7 0-1.9 1-2.9t2.4-1q1.5 0 2.4 1 1 1 1 2.8v.3h-5.5q.1 1.2.7 1.9.6.6 1.5.6.7 0 1.2-.4.5-.3.7-1zm-4-2h4q0-.9-.4-1.4-.6-.7-1.5-.7t-1.5.6q-.5.6-.6 1.5zm7 4.4v-10h1.3v5.6l3-3h1.5l-2.8 2.8 3.1 4.6h-1.5l-2.4-3.8-.9.9v2.9h-1.2zm9.8-1.1l.1 1-.9.1q-.7 0-1-.2-.4-.2-.6-.5l-.1-1.5V395h-1v-1h1v-1.8l1.2-.7v2.5h1.3v1H170v4.9l.3.2.4.1h.6zm1.2 1V394h1.2v1.1q.4-.8.7-1 .4-.3.8-.3.7 0 1.3.4l-.4 1.2q-.5-.3-1-.3l-.7.2q-.3.3-.4.7-.2.7-.2 1.5v3.8h-1.3zm4.6-3.6q0-2 1.1-3 1-.8 2.3-.8 1.5 0 2.5 1t1 2.7q0 1.4-.5 2.2-.4.8-1.2 1.3-.8.4-1.8.4-1.5 0-2.5-1-.9-1-.9-2.8zm1.3 0q0 1.4.6 2.1.6.7 1.5.7 1 0 1.5-.7.6-.7.6-2.1 0-1.4-.6-2-.6-.8-1.5-.8t-1.5.7q-.6.7-.6 2.1zm12.1 1.3l1.3.2q-.3 1-1.1 1.7-.8.6-2 .6-1.7 0-2.6-1-1-1-1-2.7 0-1.9 1-2.9t2.4-1q1.5 0 2.4 1 1 1 1 2.8v.3h-5.5q.1 1.2.7 1.9.6.6 1.5.6.7 0 1.2-.4.5-.3.7-1zm-4-2h4q0-.9-.4-1.4-.6-.7-1.5-.7t-1.5.6q-.5.6-.6 1.5zm7 4.4V394h1.2v1q.8-1.2 2.3-1.2.6 0 1.2.3.5.2.8.6.3.4.4.9v5.7h-1.2v-4.5l-.1-1q-.1-.5-.5-.7-.4-.2-.9-.2-.8 0-1.3.5-.6.5-.6 1.9v4h-1.2zm13-2.4l1.3.2q-.3 1-1.1 1.7-.8.6-2 .6-1.7 0-2.6-1-1-1-1-2.7 0-1.9 1-2.9t2.4-1q1.5 0 2.4 1 1 1 1 2.8v.3h-5.5q.1 1.2.7 1.9.6.6 1.5.6.7 0 1.2-.4.5-.3.7-1zm-4-2h4q0-.9-.4-1.4-.6-.7-1.5-.7t-1.5.6q-.5.6-.6 1.5zm7 4.4V394h1.2v1.1q.4-.8.7-1 .4-.3.8-.3.7 0 1.3.4l-.4 1.2q-.5-.3-1-.3l-.7.2q-.3.3-.4.7-.2.7-.2 1.5v3.8h-1.3zm4.8.6l1.2.1q.1.6.5.8.4.4 1.2.4.9 0 1.3-.4.5-.3.7-1v-1.5q-.8 1-2 1-1.5 0-2.3-1.1-.8-1.1-.8-2.6 0-1 .4-2 .3-.8 1-1.3.8-.5 1.7-.5 1.3 0 2.2 1v-.8h1v6.3q0 1.7-.3 2.4t-1 1q-.8.5-1.9.5-1.3 0-2-.6-.9-.6-.9-1.7zm1-4.4q0 1.4.6 2 .6.7 1.4.7.9 0 1.5-.6.5-.7.5-2 0-1.4-.5-2-.6-.8-1.5-.8-.8 0-1.4.7-.5.7-.5 2zm3.7 8.2q0 .7-.7 1-.6.3-1.3.3h-1v-.9h.7q1.1 0 1.1-.5 0-.2-.3-.4h-.7l.3-1.2h1l-.3.7q1.2.1 1.2 1zm3.6-13v-1.5h1.2v1.4h-1.2zm0 8.6V394h1.2v7.3h-1.2zm3-8.6v-1.5h1.2v1.5h-1.2zM224 404l.2-1h.6q.4 0 .6-.2.2-.3.2-1.3V394h1.2v7.6q0 1.4-.4 2-.4.6-1.4.6l-1-.1zm9.3-3.7l-1.3.8q-.6.2-1.4.2-1.2 0-1.8-.6-.7-.5-.7-1.5 0-.5.3-1 .2-.4.6-.6.4-.3 1-.4l1-.2q1.5-.2 2.2-.5v-.3q0-.7-.3-1-.5-.5-1.4-.5-.9 0-1.3.4-.4.3-.6 1l-1.2-.1q.1-.8.5-1.3t1-.7q.8-.3 1.7-.3 1 0 1.5.2l.9.6q.3.3.4.8v2.8l.1 2.2.3.9h-1.3l-.2-1zm0-2.8q-.8.3-2.1.5-.8 0-1 .2l-.6.4-.1.6q0 .5.3.8.4.4 1.1.4.7 0 1.3-.4.5-.3.8-.8.2-.4.2-1.2v-.5zm2.8 1.5l1.2-.2q0 .7.6 1.1.4.4 1.3.4.8 0 1.2-.3.4-.4.4-.8 0-.5-.3-.7-.3-.2-1.3-.4l-1.9-.6q-.5-.3-.8-.7-.2-.4-.2-1 0-.5.2-.9t.6-.7l.8-.3 1-.2q.9 0 1.5.3.7.2 1 .6.3.5.4 1.2l-1.2.1q0-.5-.5-.8-.3-.4-1-.4-1 0-1.3.3-.3.3-.3.7l.1.4.5.3 1 .3 1.9.6q.5.2.8.7.3.4.3 1t-.4 1.2q-.3.5-1 .8-.7.3-1.5.3-1.4 0-2.2-.6-.7-.6-1-1.7zm11.5 2.2V394h1v1q.9-1.2 2.4-1.2.6 0 1.2.3.5.2.8.6.3.4.4.9v5.7h-1.2v-4.5l-.1-1q-.1-.5-.5-.7-.4-.2-.9-.2-.8 0-1.3.5-.6.5-.6 1.9v4h-1.2zm7.5-3.7q0-2 1.1-3 1-.8 2.3-.8 1.5 0 2.5 1t1 2.7q0 1.4-.5 2.2-.4.8-1.2 1.3-.8.4-1.8.4-1.5 0-2.5-1-.9-1-.9-2.8zm1.3 0q0 1.4.6 2.1.6.7 1.5.7 1 0 1.5-.7.6-.7.6-2.1 0-1.4-.6-2-.6-.8-1.5-.8t-1.5.7q-.6.7-.6 2.1zm11.9 3.7v-1q-.7 1.1-2 1.1-1 0-1.7-.5-.7-.4-1-1.3-.5-.9-.5-2 0-1 .4-2 .3-.8 1-1.3.8-.5 1.7-.5.6 0 1.2.3.5.3.8.7v-3.6h1.2v10h-1.1zm-4-3.7q0 1.4.7 2.1.6.7 1.4.7.8 0 1.3-.6.6-.7.6-2 0-1.6-.6-2.3-.6-.7-1.4-.7-.8 0-1.4.7-.5.7-.5 2.1zm6.8 0q0-2 1.1-3 1-.8 2.3-.8 1.5 0 2.5 1t1 2.7q0 1.4-.5 2.2-.4.8-1.2 1.3-.8.4-1.8.4-1.5 0-2.5-1-.9-1-.9-2.8zm1.3 0q0 1.4.6 2.1.6.7 1.5.7 1 0 1.5-.7.6-.7.6-2.1 0-1.4-.6-2-.6-.8-1.5-.8t-1.5.7q-.6.7-.6 2.1zm7.2 3.7v-10h1.2v5.6l3-3h1.5l-2.8 2.8 3.1 4.6h-1.5l-2.4-3.8-.9.9v2.9h-1.2zm7 0v-10h1.2v10h-1.3zm3-8.7v-1.4h1.2v1.4h-1.2zm0 8.7V394h1.2v7.3h-1.2zm2.5-2.2l1.2-.2q0 .7.6 1.1.4.4 1.3.4.8 0 1.2-.3.4-.4.4-.8 0-.5-.3-.7-.3-.2-1.3-.4l-1.9-.6q-.5-.3-.8-.7-.2-.4-.2-1 0-.5.2-.9t.6-.7l.8-.3 1-.2q.9 0 1.5.3.7.2 1 .6.3.5.4 1.2l-1.2.1q0-.5-.5-.8-.3-.4-1-.4-1 0-1.3.3-.3.3-.3.7l.1.4.5.3 1 .3 1.9.6q.5.2.8.7.3.4.3 1t-.4 1.2q-.3.5-1 .8-.7.3-1.5.3-1.4 0-2.2-.6-.7-.6-1-1.7zM37 428v-10h1.4v10H37zm8.6-2.3l1.3.2q-.3 1.1-1.1 1.7-.8.6-2 .6-1.7 0-2.6-1-1-1-1-2.7 0-1.8 1-2.8 1-1 2.4-1 1.5 0 2.4 1 1 1 1 2.7v.4h-5.5q.1 1.1.7 1.8.6.6 1.5.6.7 0 1.2-.3.5-.4.7-1.2zm-4-2h4q0-.9-.4-1.3-.6-.7-1.5-.7t-1.5.5q-.5.6-.6 1.5zm7 4.4v-7.3h1.2v1q.8-1.2 2.3-1.2.6 0 1.2.3.5.2.8.6.3.4.4 1v5.6h-1.2v-4.5l-.1-1q-.1-.4-.5-.7-.4-.2-.9-.2-.8 0-1.3.5-.6.5-.6 1.9v4h-1.2zm4.6 1.9q0 .7-.7 1-.5.3-1.3.3l-1-.1.1-.8h.7q1 0 1-.5 0-.2-.3-.4H51l.3-1.2h1l-.3.7q1.2.1 1.2 1zm8.4-4.3l1.3.2q-.3 1.1-1.1 1.7-.8.6-2 .6-1.7 0-2.6-1-1-1-1-2.7 0-1.8 1-2.8 1-1 2.4-1 1.5 0 2.4 1 1 1 1 2.7v.4h-5.5q.1 1.1.7 1.8.6.6 1.5.6.7 0 1.2-.3.5-.4.7-1.2zm-4-2h4q0-.9-.4-1.3-.6-.7-1.5-.7t-1.5.5q-.5.6-.6 1.5zm4.2-4h-4.2v-1h4.2v1zm2.9 8.4v-7.3h1v1q.4-.5 1-.8.5-.4 1.3-.4t1.3.4q.5.3.7 1 .9-1.4 2.3-1.4 1 0 1.6.6.6.6.6 1.9v5h-1.2v-4.6q0-.7-.2-1 0-.4-.4-.6-.3-.2-.7-.2-.8 0-1.3.5t-.5 1.6v4.3H69v-4.8q0-.8-.3-1.2-.3-.4-1-.4-.5 0-1 .3-.4.3-.6.8-.2.5-.2 1.5v3.8h-1.2zm16.7 0V427q-.8 1.2-2.3 1.2L78 428l-.8-.6q-.3-.4-.4-1v-5.6h1.2v5.3l.5.8q.4.3 1 .3.5 0 1-.3t.7-.8q.2-.5.2-1.4v-3.9h1.2v7.3h-1zm3.3 0v-7.3h1v1q.4-.5 1-.8.5-.4 1.3-.4t1.3.4q.5.3.7 1 .9-1.4 2.3-1.4 1 0 1.6.6.6.6.6 1.9v5h-1.2v-4.6q0-.7-.2-1 0-.4-.4-.6-.3-.2-.7-.2-.8 0-1.3.5t-.5 1.6v4.3H89v-4.8q0-.8-.3-1.2-.3-.4-1-.4-.5 0-1 .3-.4.3-.6.8-.2.5-.2 1.5v3.8h-1.2zm12-8.6V418h1.2v1.4h-1.2zm0 8.6v-7.3h1.2v7.3h-1.2zm7 0v-7.3h1v1q.9-1.2 2.4-1.2.6 0 1.2.3.5.2.8.6.3.4.4 1v5.6h-1.2v-4.5l-.1-1q-.1-.4-.5-.7-.4-.2-.9-.2-.8 0-1.3.5-.6.5-.6 1.9v4h-1.2zm7.5-3.7q0-2 1.1-3 1-.8 2.3-.8 1.5 0 2.5 1t1 2.7q0 1.4-.5 2.3-.4.7-1.2 1.2-.8.4-1.8.4-1.5 0-2.5-1-.9-1-.9-2.8zm1.3 0q0 1.4.6 2.1.6.7 1.5.7 1 0 1.5-.7.6-.7.6-2.1 0-1.3-.6-2t-1.5-.7q-.9 0-1.5.6-.6.7-.6 2.1zm11.3 3.7v-10h1.3v8.8h5v1.2h-6.3zm12.6-1q-.7.7-1.3.9-.6.2-1.4.2-1.2 0-1.8-.5-.7-.6-.7-1.6 0-.5.3-1 .2-.4.6-.6.4-.3 1-.4l1-.2 2.2-.4v-.4q0-.7-.3-1-.5-.4-1.4-.4-.9 0-1.3.3t-.6 1l-1.2-.1q.1-.8.5-1.3l1-.7q.8-.3 1.7-.3 1 0 1.5.3.6.2.9.5.3.3.4.9v2.7l.1 2.2.3.9h-1.3l-.2-1zm0-2.7q-.8.3-2.1.5l-1 .2-.6.4-.1.6q0 .5.3.8.4.4 1.1.4.7 0 1.3-.3.5-.4.8-.9.2-.4.2-1.2v-.5zm6 2.6l.1 1-.9.2q-.7 0-1-.2l-.6-.6-.1-1.5v-4.1h-1v-1h1V419l1.2-.7v2.5h1.3v1H141v4.9l.3.2.4.1h.6zm3.3 1l-2.8-7.2h1.3l1.6 4.4.4 1.4.5-1.4 1.6-4.4h1.3l-2.8 7.3h-1.1zm5-8.5V418h1.2v1.4h-1.2zm0 8.6v-7.3h1.2v7.3h-1.2zm3-8.6V418h1.2v1.4h-1.2zm-1.6 11.4l.2-1h.6q.4 0 .6-.2.2-.3.2-1.3v-7.6h1.2v7.7q0 1.3-.4 1.8-.4.7-1.4.7l-1-.1zm9.3-3.7q-.7.6-1.3.8-.6.2-1.4.2-1.2 0-1.8-.5-.7-.6-.7-1.6 0-.5.3-1 .2-.4.6-.6.4-.3 1-.4l1-.2 2.2-.4v-.4q0-.7-.3-1-.5-.4-1.4-.4-.9 0-1.3.3t-.6 1l-1.2-.1q.1-.8.5-1.3l1-.7q.8-.3 1.7-.3 1 0 1.5.3.6.2.9.5.3.3.4.9v2.7l.1 2.2.3.9h-1.3l-.2-1zm0-2.8q-.8.3-2.1.5l-1 .2-.6.4-.1.6q0 .5.3.8.4.4 1.1.4.7 0 1.3-.3.5-.4.8-.9.2-.4.2-1.2v-.5zm2.8 1.5l1.2-.2q0 .7.6 1.1.4.4 1.3.4.8 0 1.2-.3.4-.4.4-.8 0-.5-.3-.7-.3-.2-1.3-.4l-1.9-.6q-.5-.3-.8-.7-.2-.4-.2-1l.2-.9q.2-.4.6-.7l.8-.3 1-.2q.9 0 1.5.3.7.2 1 .7.3.4.4 1l-1.2.2q0-.5-.5-.8-.3-.3-1-.3-1 0-1.3.2-.3.3-.3.7l.1.4.5.3 1 .4 1.9.5q.5.3.8.7.3.4.3 1 0 .7-.4 1.2-.3.5-1 .8-.7.3-1.5.3-1.4 0-2.2-.6-.7-.5-1-1.7zm11.6 2.2v-10h3.7q1.2 0 1.9.3t1 .9q.5.6.5 1.3 0 .7-.4 1.2-.4.6-1 1 .9.2 1.3.8.5.7.5 1.6 0 .7-.3 1.3l-.7 1-1.1.4q-.7.2-1.6.2h-3.8zm1.3-5.8h2.2q.8 0 1.2-.2.5-.1.8-.5.2-.3.2-.8l-.2-1q-.2-.3-.7-.4-.4-.2-1.5-.2h-2v3zm0 4.6h3.4l.8-.3q.3-.2.5-.6l.2-.8q0-.6-.3-1t-.8-.6q-.5-.2-1.5-.2h-2.3v3.5zm12.3.3q-.7.6-1.3.8-.6.2-1.4.2-1.2 0-1.8-.5-.7-.6-.7-1.6 0-.5.3-1 .2-.4.6-.6.4-.3 1-.4l1-.2 2.2-.4v-.4q0-.7-.3-1-.5-.4-1.4-.4-.9 0-1.3.3t-.6 1l-1.2-.1q.1-.8.5-1.3l1-.7q.8-.3 1.7-.3 1 0 1.5.3.6.2.9.5.3.3.4.9v2.7l.1 2.2.3.9h-1.3l-.2-1zm0-2.8q-.8.3-2.1.5l-1 .2-.6.4-.1.6q0 .5.3.8.4.4 1.1.4.7 0 1.3-.3.5-.4.8-.9.2-.4.2-1.2v-.5zm3.3 3.7v-7.3h1v1q.9-1.2 2.4-1.2.6 0 1.2.3.5.2.8.6.3.4.4 1v5.6h-1.2v-4.5l-.1-1q-.1-.4-.5-.7-.4-.2-.9-.2-.8 0-1.3.5-.6.5-.6 1.9v4h-1.2zm8 0v-10h1.2v5.7l3-3h1.5l-2.8 2.7 3.1 4.6h-1.5l-2.4-3.8-.9.9v2.9h-1.2zm11.7-1q-.7.7-1.3.9-.6.2-1.4.2-1.2 0-1.8-.5-.7-.6-.7-1.6 0-.5.3-1 .2-.4.6-.6.4-.3 1-.4l1-.2 2.2-.4v-.4q0-.7-.3-1-.5-.4-1.4-.4-.9 0-1.3.3t-.6 1l-1.2-.1q.1-.8.5-1.3l1-.7q.8-.3 1.7-.3 1 0 1.5.3.6.2.9.5.3.3.4.9v2.7l.1 2.2.3.9h-1.3l-.2-1zm0-2.7q-.8.3-2.1.5l-1 .2-.6.4-.1.6q0 .5.3.8.4.4 1.1.4.7 0 1.3-.3.5-.4.8-.9.2-.4.2-1.2v-.5zm2.8 1.5l1.2-.2q0 .7.6 1.1.4.4 1.3.4.8 0 1.2-.3.4-.4.4-.8 0-.5-.3-.7-.3-.2-1.3-.4l-1.9-.6q-.5-.3-.8-.7-.2-.4-.2-1l.2-.9q.2-.4.6-.7l.8-.3 1-.2q.9 0 1.5.3.7.2 1 .7.3.4.4 1l-1.2.2q0-.5-.5-.8-.3-.3-1-.3-1 0-1.3.2-.3.3-.3.7l.1.4.5.3 1 .4 1.9.5q.5.3.8.7.3.4.3 1 0 .7-.4 1.2-.3.5-1 .8-.7.3-1.5.3-1.4 0-2.2-.6-.7-.5-1-1.7zm11.5 2.2v-7.3h1v1q.4-.5 1-.8.5-.4 1.3-.4t1.3.4q.5.3.7 1 .9-1.4 2.3-1.4 1 0 1.6.6.6.6.6 1.9v5h-1.2v-4.6q0-.7-.2-1 0-.4-.4-.6-.3-.2-.7-.2-.8 0-1.3.5t-.5 1.6v4.3H231v-4.8q0-.8-.3-1.2-.3-.4-1-.4-.5 0-1 .3-.4.3-.6.8-.2.5-.2 1.5v3.8h-1.2zm16.7-1q-.7.7-1.3.9-.6.2-1.4.2-1.2 0-1.8-.5-.7-.6-.7-1.6 0-.5.3-1 .2-.4.6-.6.4-.3 1-.4l1-.2 2.2-.4v-.4q0-.7-.3-1-.5-.4-1.4-.4-.9 0-1.3.3t-.6 1l-1.2-.1q.1-.8.5-1.3l1-.7q.8-.3 1.7-.3 1 0 1.5.3.6.2.9.5.3.3.4.9v2.7l.1 2.2.3.9h-1.3l-.2-1zm0-2.7q-.8.3-2.1.5l-1 .2-.6.4-.1.6q0 .5.3.8.4.4 1.1.4.7 0 1.3-.3.5-.4.8-.9.2-.4.2-1.2v-.5zm3.3 3.7v-10h1.2v5.7l3-3h1.5l-2.8 2.7 3.1 4.6h-1.5l-2.4-3.8-.9.9v2.9h-1.2zm6.5-2.2l1.2-.2q0 .7.6 1.1.4.4 1.3.4.8 0 1.2-.3.4-.4.4-.8 0-.5-.3-.7-.3-.2-1.3-.4l-1.9-.6q-.5-.3-.8-.7-.2-.4-.2-1l.2-.9q.2-.4.6-.7l.8-.3 1-.2q.9 0 1.5.3.7.2 1 .7.3.4.4 1l-1.2.2q0-.5-.5-.8-.3-.3-1-.3-1 0-1.3.2-.3.3-.3.7l.1.4.5.3 1 .4 1.9.5q.5.3.8.7.3.4.3 1 0 .7-.4 1.2-.3.5-1 .8-.7.3-1.5.3-1.4 0-2.2-.6-.7-.5-1-1.7zm12.2 1.3q-.7.6-1.3.8-.6.2-1.4.2-1.2 0-1.8-.5-.7-.6-.7-1.6 0-.5.3-1 .2-.4.6-.6.4-.3 1-.4l1-.2 2.2-.4v-.4q0-.7-.3-1-.5-.4-1.4-.4-.9 0-1.3.3t-.6 1l-1.2-.1q.1-.8.5-1.3l1-.7q.8-.3 1.7-.3 1 0 1.5.3.6.2.9.5.3.3.4.9v2.7l.1 2.2.3.9h-1.3l-.2-1zm0-2.8q-.8.3-2.1.5l-1 .2-.6.4-.1.6q0 .5.3.8.4.4 1.1.4.7 0 1.3-.3.5-.4.8-.9.2-.4.2-1.2v-.5zm.2-4.7h-4.3v-1h4.3v1zm3-.2V418h1.3v1.4h-1.2zm-1.5 11.4l.2-1h.6q.4 0 .6-.2.2-.3.2-1.3v-7.6h1.2v7.7q0 1.3-.4 1.8-.4.7-1.4.7l-1-.1zm9.3-2.8V427q-.8 1.2-2.3 1.2l-1.2-.2-.8-.6q-.3-.4-.4-1v-5.6h1.2v5.3l.5.8q.4.3 1 .3.5 0 1-.3t.7-.8q.2-.5.2-1.4v-3.9h1.2v7.3h-1zm3.3 0v-7.3h1v1q.4-.5 1-.8.5-.4 1.3-.4t1.3.4q.5.3.7 1 .9-1.4 2.3-1.4 1 0 1.6.6.6.6.6 1.9v5h-1.2v-4.6q0-.7-.2-1 0-.4-.4-.6-.3-.2-.7-.2-.8 0-1.3.5t-.5 1.6v4.3H284v-4.8q0-.8-.3-1.2-.3-.4-1-.4-.5 0-1 .3-.4.3-.6.8-.2.5-.2 1.5v3.8h-1.2zm16.7-1q-.7.7-1.3.9-.6.2-1.4.2-1.2 0-1.8-.5-.7-.6-.7-1.6 0-.5.3-1 .2-.4.6-.6.4-.3 1-.4l1-.2 2.2-.4v-.4q0-.7-.3-1-.5-.4-1.4-.4-.9 0-1.3.3t-.6 1l-1.2-.1q.1-.8.5-1.3l1-.7q.8-.3 1.7-.3 1 0 1.5.3.6.2.9.5.3.3.4.9v2.7l.1 2.2.3.9h-1.3l-.2-1zm0-2.7q-.8.3-2.1.5l-1 .2-.6.4-.1.6q0 .5.3.8.4.4 1.1.4.7 0 1.3-.3.5-.4.8-.9.2-.4.2-1.2v-.5z"/>
  <path fill="#757575" d="M302.7 454q0-1.6.4-2.5.3-1 .9-1.5.6-.5 1.5-.5.7 0 1.2.3.6.3 1 .8.3.5.4 1.3.2.7.2 2 0 1.5-.3 2.5-.3.9-.9 1.4-.6.5-1.6.5-1.2 0-2-.9-.8-1-.8-3.5zm1.1 0q0 2 .5 2.7.5.7 1.2.7.8 0 1.3-.7t.5-2.8q0-2-.5-2.8-.5-.7-1.3-.7-.7 0-1.1.6-.6.8-.6 3zM390.8 456l1.2-.2q0 .8.5 1.2.5.4 1.1.4.8 0 1.3-.5.5-.6.5-1.5 0-1-.5-1.5t-1.3-.5l-1 .2-.6.6-1-.1.9-4.4h4.2v1h-3.4l-.4 2.3q.7-.5 1.6-.5 1 0 1.9.7.7.8.7 2t-.6 2q-.9 1.1-2.3 1.1-1.2 0-2-.7-.6-.6-.8-1.7zm7-2q0-1.6.4-2.5.3-1 .9-1.5.6-.5 1.5-.5.7 0 1.2.3.6.3 1 .8.3.5.5 1.3l.1 2q0 1.5-.3 2.5-.3.9-.9 1.4-.6.5-1.6.5-1.2 0-2-.9-.8-1-.8-3.5zm1.1 0q0 2 .5 2.7.5.7 1.2.7.8 0 1.3-.7t.5-2.8q0-2-.5-2.8-.5-.7-1.3-.7-.7 0-1.1.6-.6.8-.6 3zm6 0q0-1.6.3-2.5.3-1 .9-1.5.6-.5 1.5-.5.7 0 1.2.3.6.3 1 .8.3.5.5 1.3l.1 2q0 1.5-.3 2.5-.3.9-.9 1.4-.6.5-1.6.5-1.2 0-2-.9-.8-1-.8-3.5zm1 0q0 2 .5 2.7.5.7 1.2.7.8 0 1.3-.7t.5-2.8q0-2-.5-2.8-.5-.7-1.3-.7-.7 0-1.1.6-.6.8-.6 3zM486.4 458.2h-1v-6.8l-1 .8-1.1.5v-1q.8-.4 1.5-1t1-1.2h.6v8.7zm3-4.3q0-1.5.4-2.4.3-1 .9-1.5.6-.5 1.5-.5.7 0 1.2.3.6.3 1 .8.3.5.5 1.3l.1 2q0 1.5-.3 2.5-.3.9-.9 1.4-.6.5-1.6.5-1.2 0-2-.9-.8-1-.8-3.5zm1.1 0q0 2.1.5 2.8.5.7 1.2.7.8 0 1.3-.7t.5-2.8q0-2-.5-2.8-.5-.7-1.3-.7-.7 0-1.1.6-.6.8-.6 3zm6 0q0-1.5.3-2.4.3-1 .9-1.5.6-.5 1.5-.5.7 0 1.2.3.6.3 1 .8.3.5.5 1.3l.1 2q0 1.5-.3 2.5-.3.9-.9 1.4-.6.5-1.6.5-1.2 0-2-.9-.8-1-.8-3.5zm1 0q0 2.1.5 2.8.5.7 1.2.7.8 0 1.3-.7t.5-2.8q0-2-.5-2.8-.5-.7-1.3-.7-.7 0-1.1.6-.6.8-.6 3zm6 0q0-1.5.3-2.4.3-1 .9-1.5.6-.5 1.5-.5.7 0 1.2.3.6.3 1 .8.3.5.5 1.3l.1 2q0 1.5-.3 2.5-.3.9-.9 1.4-.6.5-1.6.5-1.2 0-2-.9-.8-1-.8-3.5zm1 0q0 2.1.5 2.8.5.7 1.2.7.8 0 1.3-.7t.5-2.8q0-2-.5-2.8-.5-.7-1.3-.7-.7 0-1.1.6-.6.8-.6 3zM581.5 458.2h-1v-6.8l-1 .8-1.1.5v-1q.8-.4 1.5-1t1-1.2h.6v8.7zm3-2.3h1.2q0 .7.5 1.1.5.4 1.1.4.8 0 1.3-.5.5-.6.5-1.5 0-1-.5-1.5t-1.3-.5l-1 .2-.6.6-1-.1.9-4.4h4.2v1h-3.4l-.4 2.3q.7-.5 1.6-.5 1 0 1.9.7.7.8.7 2t-.6 2q-.9 1.1-2.3 1.1-1.2 0-2-.7-.6-.6-.7-1.7zm7-2q0-1.5.4-2.4.3-1 .9-1.5.6-.5 1.5-.5.7 0 1.3.3.5.3.8.8.4.5.6 1.3l.1 2q0 1.5-.3 2.5-.3.9-.9 1.4-.6.5-1.6.5-1.2 0-2-.9-.7-1-.7-3.5zm1.1 0q0 2.1.5 2.8.5.7 1.2.7.8 0 1.3-.7t.5-2.8q0-2-.5-2.8-.5-.7-1.3-.7-.7 0-1.1.6-.6.8-.6 3zm6 0q0-1.5.3-2.4.3-1 .9-1.5.6-.5 1.5-.5.7 0 1.3.3.5.3.8.8.4.5.6 1.3l.1 2q0 1.5-.3 2.5-.3.9-.9 1.4-.6.5-1.6.5-1.2 0-2-.9-.7-1-.7-3.5zm1 0q0 2.1.5 2.8.5.7 1.2.7.8 0 1.3-.7t.5-2.8q0-2-.5-2.8-.5-.7-1.3-.7-.7 0-1.1.6-.6.8-.6 3zM678.2 457.1v1h-5.7l.1-.7.7-1.1 1.4-1.3 2-1.8q.4-.7.4-1.3 0-.6-.4-1-.5-.5-1.2-.5-.8 0-1.2.5-.5.4-.5 1.2h-1q0-1.3.7-2 .8-.6 2-.6t2 .7q.7.7.7 1.7l-.2 1q-.2.5-.7 1l-1.6 1.6-1.3 1-.4.6h4.2zm1.5-3.2q0-1.5.3-2.4.3-1 .9-1.5.6-.5 1.6-.5.6 0 1.2.3.5.3.8.8.4.5.6 1.3l.1 2q0 1.5-.3 2.5-.3.9-.9 1.4-.6.5-1.5.5-1.3 0-2-.9-.8-1-.8-3.5zm1 0q0 2.1.5 2.8.5.7 1.3.7.7 0 1.2-.7t.5-2.8q0-2-.5-2.8-.5-.7-1.3-.7-.7 0-1.1.6-.6.8-.6 3zm6 0q0-1.5.3-2.4.3-1 .9-1.5.6-.5 1.6-.5.6 0 1.2.3.5.3.8.8.4.5.6 1.3l.1 2q0 1.5-.3 2.5-.3.9-.9 1.4-.6.5-1.5.5-1.3 0-2-.9-.8-1-.8-3.5zm1 0q0 2.1.5 2.8.5.7 1.3.7.7 0 1.2-.7t.5-2.8q0-2-.5-2.8-.5-.7-1.3-.7-.7 0-1.1.6-.6.8-.6 3zm6 0q0-1.5.3-2.4.3-1 .9-1.5.6-.5 1.6-.5.6 0 1.2.3.5.3.8.8.4.5.6 1.3l.1 2q0 1.5-.3 2.5-.3.9-.9 1.4-.6.5-1.5.5-1.3 0-2-.9-.8-1-.8-3.5zm1 0q0 2.1.5 2.8.5.7 1.3.7.7 0 1.2-.7t.5-2.8q0-2-.5-2.8-.5-.7-1.3-.7-.7 0-1.1.6-.6.8-.6 3zM773.3 457.1v1h-5.7l.1-.7.7-1.1 1.4-1.3 2-1.8q.4-.7.4-1.3 0-.6-.4-1-.5-.5-1.2-.5-.8 0-1.2.5-.5.4-.5 1.2h-1q0-1.3.7-2 .8-.6 2-.6t2 .7q.7.7.7 1.7l-.2 1q-.2.5-.7 1l-1.6 1.6-1.3 1-.4.6h4.2zm1.5-1.2h1q.2.7.6 1.1.5.4 1.1.4.8 0 1.3-.5.5-.6.5-1.5 0-1-.5-1.5t-1.3-.5l-1 .2-.6.6-1-.1.9-4.4h4.3v1h-3.5l-.4 2.3q.7-.5 1.6-.5 1.1 0 1.9.7.7.8.7 2t-.6 2q-.9 1.1-2.3 1.1-1.2 0-1.9-.7-.7-.6-.8-1.7zm7-2q0-1.5.3-2.4.3-1 .9-1.5.6-.5 1.6-.5.6 0 1.2.3.5.3.8.8.4.5.6 1.3l.1 2q0 1.5-.3 2.5-.3.9-.9 1.4-.6.5-1.5.5-1.3 0-2-.9-.8-1-.8-3.5zm1 0q0 2.1.5 2.8.5.7 1.3.7.7 0 1.2-.7t.5-2.8q0-2-.5-2.8-.5-.7-1.3-.7-.7 0-1.1.6-.6.8-.6 3zm6 0q0-1.5.3-2.4.3-1 .9-1.5.6-.5 1.6-.5.6 0 1.2.3.5.3.8.8.4.5.6 1.3l.1 2q0 1.5-.3 2.5-.3.9-.9 1.4-.6.5-1.5.5-1.3 0-2-.9-.8-1-.8-3.5zm1 0q0 2.1.5 2.8.5.7 1.3.7.7 0 1.2-.7t.5-2.8q0-2-.5-2.8-.5-.7-1.3-.7-.7 0-1.1.6-.6.8-.6 3z"/>
  <path fill="#000" d="M28.4 37.4l-3.6-10H27l2.5 7.4 2.5-7.4H34l-3.6 10h-2.1zm7.8-5l-1.7-.4q.3-1 1-1.5t2.1-.5q1.3 0 2 .3.6.3.8.7.3.5.3 1.8v3.6l.4 1h-1.9l-.2-.6v-.2q-.5.5-1 .7-.7.3-1.3.3-1.1 0-1.8-.6-.6-.7-.6-1.6 0-.6.3-1 .3-.6.8-.8.5-.3 1.5-.5l2-.4v-.2q0-.6-.4-.8-.2-.3-1-.3-.5 0-.8.2-.3.2-.5.7zm2.6 1.5l-1.2.3-1 .3q-.4.3-.4.7 0 .4.3.7.3.3.8.3t1-.3q.3-.3.4-.7l.1-1V34zm4 3.5v-10h2v10h-2zm3.3-2l2-.4q0 .6.4.9.4.3 1.1.3.7 0 1.1-.3.3-.2.3-.5l-.2-.4-.6-.2q-2.3-.6-3-1-.8-.6-.8-1.6t.7-1.6q.8-.6 2.4-.6 1.4 0 2.2.5.7.4 1 1.4l-1.9.3q0-.4-.4-.6-.3-.3-1-.3t-1 .3q-.2.1-.2.4 0 .2.2.3.2.2 1.8.5 1.5.4 2.1.9.6.5.6 1.4 0 1-.8 1.7-.9.8-2.5.8-1.5 0-2.3-.6-1-.7-1.2-1.7zm12-5.3v1.6h-1.3v3.9q0 .2.2.3h.4l.7-.1.2 1.5q-.7.3-1.5.3l-1-.2q-.4-.2-.6-.5-.2-.2-.2-.7l-.1-1.4v-3.1H54V30h.9v-1.4l2-1.1V30H58zm1 5.2l2-.3q0 .6.4.9.4.3 1.1.3.7 0 1.1-.3.3-.2.3-.5l-.2-.4-.6-.2q-2.3-.6-3-1-.8-.6-.8-1.6t.7-1.6q.8-.6 2.4-.6 1.4 0 2.2.5.7.4 1 1.4l-1.9.3q0-.4-.4-.6-.3-.3-1-.3t-1 .3q-.2.1-.2.4 0 .2.2.3.2.2 1.8.5 1.5.4 2.1.9.6.5.6 1.4 0 1-.8 1.7-.9.8-2.5.8-1.5 0-2.3-.6-1-.7-1.2-1.7zm12.7-5.2h1.7v1.1q.4-.5 1-.9.6-.3 1.3-.3 1.3 0 2.1 1 1 1 1 2.7 0 1.8-1 2.8-.9 1-2.1 1-.6 0-1.1-.2-.5-.2-1-.8v3.7h-2v-10zm1.8 3.5q0 1.3.5 1.9.5.5 1.2.5t1.1-.5q.5-.5.5-1.8 0-1.1-.5-1.7-.4-.5-1.1-.5-.7 0-1.2.5-.5.6-.5 1.6zm8.6-1.3l-1.7-.3q.3-1 1-1.5t2.1-.5q1.3 0 2 .3.6.3.8.7.3.5.3 1.8v3.6l.4 1h-1.9l-.2-.6v-.2q-.5.5-1 .7-.7.3-1.3.3-1.1 0-1.8-.6-.6-.7-.6-1.6 0-.6.3-1 .3-.6.8-.8.5-.3 1.5-.5l2-.4v-.2q0-.6-.4-.8-.2-.3-1-.3-.5 0-.8.2-.3.2-.5.7zm2.6 1.6l-1.2.3-1 .3q-.4.3-.4.7 0 .4.3.7.3.3.8.3t1-.3q.3-.3.4-.7l.1-1V34zm3.9-3.8h1.7v1q1-1.1 2.3-1.1.7 0 1.2.3.5.2.9.8.4-.6 1-.8.5-.3 1.2-.3.8 0 1.3.3.6.3.8 1 .2.4.2 1.4v4.7h-1.9v-4.2q0-1-.2-1.4-.2-.4-.8-.4-.4 0-.8.3-.3.2-.5.7L95 34v3.5h-2v-4V32l-.4-.4q-.2-.2-.5-.2-.5 0-.9.3-.3.2-.5.7l-.1 1.5v3.5h-2V30zm13.5 2.2l-1.7-.3q.3-1 1-1.5t2.1-.5q1.3 0 2 .3.6.3.8.7.3.5.3 1.8v3.6l.4 1h-1.9l-.2-.6v-.2q-.5.5-1 .7-.7.3-1.3.3-1.1 0-1.8-.6-.6-.7-.6-1.6 0-.6.3-1 .3-.6.8-.8.5-.3 1.5-.5l2-.4v-.2q0-.6-.4-.8-.2-.3-1-.3-.5 0-.8.2-.3.2-.5.7zm2.6 1.6l-1.2.3-1 .3q-.4.3-.4.7 0 .4.3.7.3.3.8.3t1-.3q.3-.3.4-.7l.1-1V34zm7.3-3.8v1.6h-1.3v3.9q0 .2.2.3h.4l.7-.1.2 1.5q-.7.3-1.5.3l-1-.2q-.4-.2-.6-.5-.2-.2-.2-.7l-.1-1.4v-3.1h-.9V30h.9v-1.4l2-1.1V30h1.2zm1.6 7.3v-10h2V31q.8-1 2-1 1.4 0 2.2 1 1 .9 1 2.7 0 1.8-1 2.9-.9 1-2.1 1-.6 0-1.3-.4-.6-.3-1-.9v1h-1.8zm2-3.8q0 1.1.3 1.7.5.7 1.3.7.6 0 1-.5.5-.5.5-1.7 0-1.3-.4-1.8-.5-.6-1.2-.6t-1.1.6q-.5.5-.5 1.6zm11.9 3.8v-1.1q-.4.6-1 1-.7.3-1.4.3-.8 0-1.3-.4-.6-.3-.9-.9-.2-.6-.2-1.6v-4.6h1.9v5.2q.2.4.5.6.3.2.7.2.5 0 .9-.3t.5-.6l.1-2v-3h2v7.2h-1.8zm10.9 0h-1.8v-1q-.5.6-1 .9-.7.3-1.3.3-1.2 0-2.1-1-1-1-1-2.9 0-1.8 1-2.8.8-1 2.1-1t2.2 1v-3.5h1.9v10zm-5.2-3.8q0 1.2.4 1.7.4.7 1.3.7.6 0 1-.5.6-.6.6-1.7 0-1.3-.5-1.8-.5-.6-1.2-.6-.6 0-1.1.6-.5.5-.5 1.6zm6.7 3.8v-1.5l2.8-3.1 1-1.1h-3.5v-1.6h6v1.4l-2.8 3.2-1 1h4v1.7H140zm.8-10.2h1.6l.7 1 .8-1h1.6l-1.5 2h-1.7l-1.5-2zm11.2 7.9l2 .3q-.4 1-1.2 1.6-.8.6-2 .6-2 0-2.8-1.3-.8-1-.8-2.5 0-1.8 1-2.8 1-1 2.4-1 1.6 0 2.5 1 1 1.1 1 3.3h-4.9q0 .9.5 1.4.4.4 1 .4.5 0 .8-.2l.5-.8zm.1-2q0-.8-.4-1.2-.4-.5-1-.5t-1 .5q-.5.5-.4 1.2h2.8zm7-3v1.6h-1.3v3.9q0 .2.2.3h.4l.7-.1.2 1.5q-.7.3-1.5.3l-1-.2q-.4-.2-.6-.5-.2-.2-.2-.7l-.1-1.4v-3.1h-.9V30h.9v-1.4l2-1.1V30h1.2zm3.1 2.2l-1.7-.3q.3-1 1-1.5t2.1-.5q1.3 0 2 .3.6.3.8.7.3.5.3 1.8v3.6l.4 1h-1.9l-.2-.6v-.2q-.5.5-1 .7-.7.3-1.3.3-1.1 0-1.8-.6-.6-.7-.6-1.6 0-.6.3-1 .3-.6.8-.8.5-.3 1.5-.5l2-.4v-.2q0-.6-.4-.8-.2-.3-1-.3-.5 0-.8.2-.3.2-.5.7zm2.6 1.6l-1.2.3-1 .3q-.4.3-.4.7 0 .4.3.7.3.3.8.3t1-.3q.3-.3.4-.7l.1-1V34zm8-4.8v-1.7h2V29h-2zm0 8.3V30h2v7.3h-2zM181 35l2 .3q-.4 1-1.2 1.6-.8.6-2 .6-2 0-2.8-1.3-.8-1-.8-2.5 0-1.8 1-2.8 1-1 2.4-1 1.6 0 2.5 1 1 1.1 1 3.3h-4.9q0 .9.5 1.4.4.4 1 .4.5 0 .8-.2l.5-.8zm.1-2q0-.8-.4-1.2-.4-.5-1-.5t-1 .5q-.5.5-.4 1.2h2.8zm10.3 4.3h-2v-3.7-1.5l-.4-.6q-.3-.2-.7-.2-.5 0-1 .3l-.5.7v5h-2V30h1.8v1.1q1-1.2 2.4-1.2.6 0 1.1.2.6.2.8.6.3.3.4.8l.1 1.3v4.5zm3.8-5l-1.7-.4q.3-1 1-1.5t2.1-.5q1.3 0 2 .3.6.3.8.7.3.5.3 1.8v3.6l.4 1h-1.9l-.2-.6v-.2q-.5.5-1 .7-.7.3-1.3.3-1.1 0-1.8-.6-.6-.7-.6-1.6 0-.6.3-1 .3-.6.8-.8.5-.3 1.5-.5l2-.4v-.2q0-.6-.4-.8-.2-.3-1-.3-.5 0-.8.2-.3.2-.5.7zm2.6 1.5l-1.2.3-1 .3q-.4.3-.4.7 0 .4.3.7.3.3.8.3t1-.3q.3-.3.4-.7l.1-1V34zm-2.9-5v-1.2h4.4v1.2H195zm6.8 8.5v-10h2v5.3l2.2-2.6h2.4l-2.5 2.7 2.7 4.6h-2.1l-1.8-3.3-1 1v2.3h-1.9zm12.9 0v-1.1q-.4.6-1 1-.7.3-1.4.3-.8 0-1.3-.4-.6-.3-.9-.9-.2-.6-.2-1.6v-4.6h1.9v5.2q.2.4.5.6.3.2.7.2.5 0 .9-.3t.5-.6l.1-2v-3h2v7.2h-1.8zm4-7.3h1.8v1q1-1.1 2.3-1.1.7 0 1.2.3.5.2.9.8.4-.6 1-.8.5-.3 1.2-.3.8 0 1.3.3.6.3.8 1 .2.4.2 1.4v4.7h-1.9v-4.2q0-1-.2-1.4-.2-.4-.8-.4-.4 0-.8.3-.3.2-.5.7L225 34v3.5h-2v-4V32l-.4-.4q-.2-.2-.5-.2-.5 0-.9.3-.3.2-.5.7l-.1 1.5v3.5h-2V30zm12.2-1v-1.7h2V29h-2zm0 8.3V30h2v7.3h-2zm14-1.8v1.8h-6.7q.2-1 .7-2 .5-.8 2.2-2.3 1.3-1.2 1.6-1.7.4-.6.4-1.2t-.4-1q-.3-.3-1-.3-.5 0-1 .4-.3.3-.3 1.2l-2-.2q.3-1.6 1.1-2.3 1-.7 2.3-.7 1.5 0 2.3.8.9.8.9 2 0 .7-.3 1.3-.2.6-.7 1.3l-1.3 1.3-1.1 1-.4.6h3.8zm4.8-8.3q1.5 0 2.3 1 1 1.3 1 4.2 0 2.8-1 4-.8 1-2.3 1-1.4 0-2.3-1-1-1.2-1-4 0-3 1-4.1.9-1 2.3-1zm0 1.6l-.6.2-.4.8q-.2.8-.2 2.6 0 1.7.2 2.4l.4.8q.3.3.6.3.4 0 .7-.3l.4-.7q.2-.8.2-2.5 0-1.8-.2-2.5l-.4-.9q-.3-.2-.7-.2zm9.7 8.5h-2v-7.2q-1 1-2.4 1.4V30q.8-.3 1.6-1 1-.7 1.3-1.6h1.5v10zm4.8-5.4q-.8-.3-1.1-.9-.4-.5-.4-1.2 0-1.1.8-1.8.8-.8 2.2-.8 1.4 0 2.2.8.8.7.8 1.8 0 .7-.3 1.3-.4.5-1 .8.8.3 1.2 1 .5.6.5 1.4 0 1.4-1 2.3-.8.9-2.3.9-1.4 0-2.3-.8-1-.8-1-2.3 0-.8.4-1.5.4-.6 1.3-1zm.3-2q0 .6.4 1 .3.3.8.3.6 0 .9-.4.3-.3.3-.9 0-.5-.3-.8-.3-.3-.9-.3-.5 0-.8.3-.4.3-.4.8zm-.1 4.3q0 .8.4 1.3.4.4 1 .4t1-.4q.4-.4.4-1.2 0-.7-.4-1.2-.4-.4-1-.4-.7 0-1 .5-.4.5-.4 1zm6.5 3v-1.8h2v1.9h-2zm7.8.6l2.2.2q0 .4.3.6.2.2.8.2.8 0 1.2-.3.2-.1.3-.4l.1-1v-1q-.8 1.2-2.1 1.2-1.5 0-2.3-1.2-.7-1-.7-2.5 0-1.8.9-2.8.8-1 2.1-1 1.4 0 2.3 1.3v-1h1.8v6.4q0 1.3-.3 2-.2.6-.6 1-.3.3-1 .5-.6.2-1.6.2-1.8 0-2.6-.6t-.8-1.6V38zm1.7-4.3q0 1.2.5 1.7.4.5 1 .5.8 0 1.3-.5.5-.6.5-1.6 0-1.2-.5-1.7-.5-.6-1.2-.6t-1.1.6q-.5.5-.5 1.6zm9-1.3l-1.8-.3q.3-1 1-1.5t2.1-.5q1.3 0 2 .3.6.3.8.7.3.5.3 1.8v3.6l.4 1h-1.9l-.2-.6v-.2q-.5.5-1 .7-.7.3-1.3.3-1.1 0-1.8-.6-.6-.7-.6-1.6 0-.6.3-1 .3-.6.8-.8.5-.3 1.5-.5l2-.4v-.2q0-.6-.4-.8-.2-.3-1-.3-.5 0-.8.2-.3.2-.5.7zm2.5 1.6l-1.2.3-1 .3q-.4.3-.4.7 0 .4.3.7.3.3.8.3t1-.3q.3-.3.4-.7l.1-1V34zm10.7 3.5h-1.8v-1q-.5.6-1 .9-.7.3-1.3.3-1.2 0-2.1-1-1-1-1-2.9 0-1.8 1-2.8.8-1 2.1-1t2.2 1v-3.5h1.9v10zm-5.2-3.8q0 1.2.4 1.7.4.7 1.3.7.6 0 1-.5.6-.6.6-1.7 0-1.3-.5-1.8-.5-.6-1.2-.6-.6 0-1.1.6-.5.5-.5 1.6zm9-1.3l-1.8-.3q.3-1 1-1.5t2.1-.5q1.3 0 2 .3.6.3.8.7.3.5.3 1.8v3.6l.4 1h-1.9l-.2-.6v-.2q-.5.5-1 .7-.7.3-1.3.3-1.1 0-1.8-.6-.6-.7-.6-1.6 0-.6.3-1 .3-.6.8-.8.5-.3 1.5-.5l2-.4v-.2q0-.6-.4-.8-.2-.3-1-.3-.5 0-.8.2-.3.2-.5.7zm2.5 1.6l-1.2.3-1 .3q-.4.3-.4.7 0 .4.3.7.3.3.8.3t1-.3q.3-.3.4-.7l.1-1V34zm8-3.8h1.7v1.1q.4-.5 1-.9.6-.3 1.3-.3 1.3 0 2.1 1 1 1 1 2.7 0 1.8-1 2.8-.8 1-2.1 1-.6 0-1.1-.2-.5-.2-1-.8v3.7h-2v-10zm1.8 3.5q0 1.3.5 1.9.5.5 1.2.5t1.1-.5q.5-.5.5-1.8 0-1.1-.5-1.7-.4-.5-1.1-.5-.7 0-1.2.5-.5.6-.5 1.6zm7.2-4.5v-1.7h2V29h-2zm0 8.3V30h2v7.3h-2zm5.8 0h-1.9V30h1.8v1l.8-.9q.4-.2.9-.2.6 0 1.2.3l-.6 1.7q-.5-.3-.9-.3t-.7.2l-.4.8q-.2.6-.2 2.4v2.3zm3-7.3h1.8v1q1-1.1 2.3-1.1.7 0 1.2.3.5.2.9.8.4-.6 1-.8.5-.3 1.2-.3.8 0 1.3.3.6.3.8 1 .2.4.2 1.4v4.7h-1.9v-4.2q0-1-.2-1.4-.2-.4-.8-.4-.4 0-.8.3-.3.2-.5.7L341 34v3.5h-2v-4V32l-.4-.4q-.2-.2-.6-.2-.4 0-.8.3-.3.2-.5.7l-.1 1.5v3.5h-2V30zm13.6 2.2l-1.7-.3q.3-1 1-1.5t2.1-.5q1.3 0 2 .3.6.3.8.7.3.5.3 1.8v3.6l.4 1h-1.9l-.2-.6v-.2q-.5.5-1 .7-.7.3-1.3.3-1.1 0-1.8-.6-.6-.7-.6-1.6 0-.6.3-1 .3-.6.8-.8.5-.3 1.5-.5l2-.4v-.2q0-.6-.4-.8-.2-.3-1-.3-.5 0-.8.2-.3.2-.5.7zm2.6 1.6l-1.2.3-1 .3q-.4.3-.4.7 0 .4.3.7.3.3.8.3t1-.3q.3-.3.4-.7l.1-1V34zm4-4.8v-1.7h1.9V29h-2zm1.9 1v7q0 1.4-.2 2-.2.6-.7 1-.5.2-1.3.2h-.6q-.4 0-.7-.2l.3-1.6h1l.2-.4v-8h2zm1.7 3.6q0-1 .4-1.9.5-.9 1.4-1.4.8-.4 1.9-.4 1.7 0 2.7 1 1 1.1 1 2.7 0 1.7-1 2.8-1 1-2.7 1-1 0-1.9-.4-.9-.4-1.4-1.3-.4-.9-.4-2.1zm2 0q0 1.1.4 1.7.6.6 1.3.6.8 0 1.3-.6t.5-1.7q0-1-.5-1.6-.5-.6-1.3-.6-.7 0-1.3.6-.5.6-.5 1.7zm6.7 1.6l2-.3q0 .6.4.9.4.3 1.1.3.7 0 1.1-.3.3-.2.3-.5l-.2-.4-.6-.2q-2.3-.6-3-1-.8-.6-.8-1.6t.7-1.6q.8-.6 2.4-.6 1.4 0 2.2.5.7.4 1 1.4l-1.9.3q0-.4-.4-.6-.3-.3-1-.3t-1 .3q-.2.1-.2.4 0 .2.2.3.2.2 1.8.5 1.5.4 2.1.9.6.5.6 1.4 0 1-.8 1.7-.9.8-2.5.8-1.5 0-2.3-.6-1-.7-1.2-1.7zm17.2 2h-2v-7.1q-1 1-2.4 1.4V30q.8-.3 1.6-1 1-.7 1.3-1.6h1.5v10zm8 0h-2v-7.1q-1 1-2.4 1.4V30q.8-.3 1.6-1 1-.7 1.3-1.6h1.5v10zm7.4-7.2h1.7v1q1-1.1 2.3-1.1.7 0 1.2.3.5.2.9.8.4-.6 1-.8.5-.3 1.2-.3.8 0 1.3.3.6.3.8 1 .2.4.2 1.4v4.7h-1.9v-4.2q0-1-.2-1.4-.2-.4-.8-.4-.4 0-.8.3-.3.2-.5.7L406 34v3.5h-2v-4V32l-.4-.4q-.2-.2-.6-.2-.4 0-.8.3-.3.2-.5.7l-.1 1.5v3.5h-2V30zm16.3 5l2 .3q-.4 1-1.2 1.6-.8.6-2 .6-2 0-2.8-1.3-.8-1-.8-2.5 0-1.8 1-2.8 1-1 2.4-1 1.6 0 2.5 1 1 1.1 1 3.3h-4.9q0 .9.5 1.4.4.4 1 .4.5 0 .8-.2l.5-.8zm.1-2q0-.8-.4-1.2-.4-.5-1-.5t-1 .5q-.5.5-.4 1.2h2.8zM413 29v-1.2h4.4v1.2H413zm13.5 8.5h-2v-3.7-1.5l-.4-.6q-.3-.2-.7-.2-.5 0-1 .3l-.5.7v5h-2V30h1.8v1.1q1-1.2 2.4-1.2.6 0 1.1.2.6.2.8.6.3.3.4.8l.1 1.3v4.5zM433 35l2 .3q-.4 1-1.2 1.6-.8.6-2 .6-2 0-2.8-1.3-.8-1-.8-2.5 0-1.8 1-2.8 1-1 2.4-1 1.6 0 2.5 1 1 1.1 1 3.3h-4.9q0 .9.5 1.4.4.4 1 .4.5 0 .8-.2l.5-.8zm.1-2q0-.8-.4-1.2-.4-.5-1-.5t-1 .5q-.5.5-.4 1.2h2.8zm3 2.2l2-.3q0 .6.4.9.4.3 1.1.3.7 0 1.1-.3.3-.2.3-.5l-.2-.4-.6-.2q-2.3-.6-3-1-.8-.6-.8-1.6t.7-1.6q.8-.6 2.4-.6 1.4 0 2.2.5.7.4 1 1.4l-1.9.3q0-.4-.4-.6-.3-.3-1-.3t-1 .3q-.2.1-.2.4 0 .2.2.3.2.2 1.8.5 1.5.4 2.1.9.6.5.6 1.4 0 1-.8 1.7-.9.8-2.5.8-1.5 0-2.3-.6-1-.7-1.2-1.7zm.7-8.1h1.6l.7 1 .8-1h1.6l-1.5 2h-1.7l-1.5-2zm7.6 6.5q0-1 .4-1.9.5-.9 1.4-1.4.8-.4 1.9-.4 1.7 0 2.7 1 1 1.1 1 2.7 0 1.7-1 2.8-1 1-2.7 1-1 0-1.9-.4-.9-.4-1.4-1.3-.4-.9-.4-2.1zm2 0q0 1.1.4 1.7.6.6 1.3.6.8 0 1.3-.6t.5-1.7q0-1-.5-1.6-.5-.6-1.3-.6-.7 0-1.3.6-.5.6-.5 1.7zm6.7 1.6l2-.3q0 .6.4.9.4.3 1.1.3.7 0 1.1-.3.3-.2.3-.5l-.2-.4-.6-.2q-2.3-.6-3-1-.8-.6-.8-1.6t.7-1.6q.8-.6 2.4-.6 1.4 0 2.2.5.7.4 1 1.4l-1.9.3q0-.4-.4-.6-.3-.3-1-.3t-1 .3q-.2.1-.2.4 0 .2.2.3.2.2 1.8.5 1.5.4 2.1.9.6.5.6 1.4 0 1-.8 1.7-.9.8-2.5.8-1.5 0-2.3-.6-1-.7-1.2-1.7z"/>
</svg>
